<svg width="22" height="22" viewBox="0 0 22 22" fill="none" xmlns="http://www.w3.org/2000/svg">
<path d="M15.1 20.459C15.1081 20.1644 15.2027 19.8789 15.3721 19.6378C15.5415 19.3967 15.7781 19.2108 16.0525 19.1033C16.3268 18.9959 16.6267 18.9716 16.9148 19.0335C17.2029 19.0954 17.4663 19.2409 17.6722 19.4516C17.8782 19.6623 18.0175 19.929 18.0728 20.2184C18.1281 20.5079 18.097 20.8072 17.9833 21.079C17.8695 21.3508 17.6783 21.5831 17.4334 21.7469C17.1884 21.9107 16.9007 21.9987 16.606 22C16.2025 21.9937 15.8178 21.8282 15.5358 21.5396C15.2537 21.2509 15.0971 20.8625 15.1 20.459ZM3.93705 20.459C3.94511 20.1644 4.03975 19.8787 4.20917 19.6376C4.3786 19.3965 4.61527 19.2106 4.88969 19.1032C5.1641 18.9958 5.46409 18.9716 5.75217 19.0336C6.04026 19.0957 6.30369 19.2411 6.50959 19.452C6.71549 19.6628 6.85472 19.9296 6.90992 20.2191C6.96511 20.5085 6.93383 20.8079 6.81995 21.0797C6.70608 21.3514 6.51468 21.5837 6.26963 21.7474C6.02458 21.9111 5.73671 21.9989 5.44202 22C5.03825 21.9942 4.65317 21.8289 4.37083 21.5402C4.08849 21.2515 3.93182 20.8628 3.93503 20.459H3.93705ZM5.60404 17.295C4.96536 17.2943 4.35151 17.0476 3.89005 16.606C3.42049 16.1585 3.13335 15.5528 3.08405 14.906L2.17005 3.784L0.670051 3.51801C0.483202 3.48179 0.316516 3.3773 0.202491 3.22491C0.0884664 3.07252 0.0352556 2.88314 0.0532297 2.69366C0.0712037 2.50419 0.159075 2.32818 0.29972 2.19995C0.440365 2.07172 0.623706 2.00044 0.814033 2C0.852197 2.00032 0.890305 2.0033 0.928047 2.00897L3.29404 2.375C3.45833 2.40754 3.60741 2.49301 3.71848 2.61835C3.82955 2.74369 3.89648 2.90197 3.90903 3.06897L4.09803 5.35498C4.10872 5.50797 4.17618 5.65144 4.28718 5.75726C4.39818 5.86308 4.54471 5.92363 4.69804 5.927H18.098C18.3694 5.91888 18.6386 5.9769 18.8825 6.09607C19.1264 6.21524 19.3377 6.39198 19.498 6.61102C19.6771 6.86227 19.8029 7.14741 19.8677 7.44904C19.9325 7.75066 19.935 8.06237 19.875 8.36499L18.931 15.059C18.8507 15.6708 18.5529 16.2333 18.092 16.6437C17.6312 17.054 17.038 17.2849 16.421 17.294L5.60404 17.295ZM11.349 10.469C11.3477 10.5681 11.3659 10.6666 11.4027 10.7587C11.4394 10.8508 11.4939 10.9348 11.5631 11.0058C11.6323 11.0768 11.7148 11.1336 11.8059 11.1727C11.897 11.2119 11.9949 11.2327 12.094 11.234H14.842C14.9412 11.2327 15.0391 11.2119 15.1302 11.1727C15.2213 11.1336 15.3038 11.0768 15.373 11.0058C15.4422 10.9348 15.4967 10.8508 15.5334 10.7587C15.5701 10.6666 15.5884 10.5681 15.587 10.469C15.5919 10.2708 15.5178 10.0788 15.3811 9.93512C15.2444 9.79148 15.0563 9.70798 14.858 9.703H12.093C11.9948 9.7034 11.8977 9.72314 11.8072 9.76111C11.7166 9.79908 11.6344 9.85451 11.5653 9.92426C11.4962 9.99401 11.4416 10.0767 11.4045 10.1676C11.3673 10.2585 11.3485 10.3558 11.349 10.454C11.349 10.454 11.349 10.464 11.349 10.468V10.469Z" fill="white"/>
<path d="M17.5 9C19.9853 9 22 6.98528 22 4.5C22 2.01472 19.9853 0 17.5 0C15.0147 0 13 2.01472 13 4.5C13 6.98528 15.0147 9 17.5 9Z" fill="#08C069"/>
</svg>
