<svg width="22" height="22" viewBox="0 0 22 22" fill="none" xmlns="http://www.w3.org/2000/svg">
<path d="M15.1379 20.3C15.1438 20.0024 15.2375 19.7131 15.4071 19.4684C15.5768 19.2238 15.8149 19.0347 16.0916 18.9248C16.3683 18.8149 16.6712 18.7892 16.9625 18.8508C17.2538 18.9124 17.5204 19.0586 17.7289 19.2711C17.9374 19.4836 18.0785 19.753 18.1346 20.0453C18.1906 20.3377 18.1591 20.6402 18.044 20.9147C17.9289 21.1893 17.7353 21.4237 17.4875 21.5887C17.2397 21.7537 16.9486 21.8418 16.6509 21.842C16.2459 21.8378 15.8592 21.6731 15.5755 21.384C15.2918 21.0949 15.1345 20.7051 15.1379 20.3ZM3.91094 20.3C3.91705 20.0026 4.01081 19.7136 4.1805 19.4692C4.3502 19.2249 4.58828 19.036 4.86486 18.9264C5.14144 18.8168 5.44422 18.7912 5.73525 18.853C6.02629 18.9147 6.29262 19.061 6.50085 19.2735C6.70907 19.486 6.84992 19.7553 6.90575 20.0475C6.96159 20.3397 6.92991 20.6419 6.81469 20.9162C6.69947 21.1905 6.50585 21.4247 6.25808 21.5894C6.01031 21.7541 5.71944 21.842 5.42193 21.842C5.01711 21.8378 4.63053 21.673 4.34719 21.3839C4.06385 21.0947 3.90694 20.7049 3.91094 20.3ZM5.58794 17.1431C4.97265 17.1349 4.38051 16.9071 3.91842 16.5007C3.45632 16.0944 3.15469 15.5363 3.06792 14.9271L3.04894 14.7601L2.13692 3.66003L0.629936 3.39905C0.449988 3.36532 0.288189 3.26793 0.174156 3.12469C0.0601225 2.98146 0.00147595 2.80201 0.00893375 2.61908L0.0189435 2.51904C0.046686 2.34288 0.136112 2.18235 0.271293 2.06604C0.406475 1.94973 0.578589 1.88518 0.75692 1.88403H0.783928L0.883934 1.89404L2.95992 2.26105C3.10553 2.28771 3.24007 2.35662 3.34676 2.45923C3.45346 2.56183 3.5276 2.69362 3.55993 2.83807L3.57793 2.95105L3.81194 5.80304H17.8809C18.169 5.80211 18.454 5.86204 18.7173 5.97888C18.9807 6.09572 19.2163 6.26687 19.4089 6.48108C19.6038 6.69698 19.7532 6.9499 19.8482 7.22479C19.9432 7.49968 19.9819 7.79089 19.9619 8.08105L19.9459 8.23505L18.9999 14.9171C18.9199 15.5011 18.6422 16.0401 18.2132 16.4443C17.7842 16.8486 17.2297 17.0938 16.6419 17.139L16.4779 17.144L5.58794 17.1431ZM4.54092 14.6321C4.55938 14.8774 4.66222 15.1088 4.83193 15.2869C5.00165 15.465 5.22777 15.5788 5.47192 15.6091L5.58794 15.6151H16.4739C16.7082 15.6134 16.9352 15.5339 17.1193 15.3891C17.3034 15.2443 17.4341 15.0423 17.4909 14.8151L17.5139 14.696L18.4619 8.01709C18.4852 7.86058 18.4457 7.70121 18.3521 7.57367C18.2585 7.44613 18.1182 7.36071 17.9619 7.33606L17.8739 7.32904H3.93993L4.54092 14.6321ZM12.1099 11.092C11.9185 11.0881 11.7356 11.0124 11.5972 10.8801C11.4588 10.7478 11.3751 10.5685 11.3625 10.3774C11.35 10.1864 11.4095 9.99755 11.5294 9.84827C11.6492 9.69898 11.8207 9.60006 12.0099 9.57104L12.1099 9.56409H14.8779C15.0686 9.56944 15.2504 9.64575 15.3878 9.77808C15.5252 9.9104 15.6083 10.0892 15.6208 10.2795C15.6333 10.4699 15.5743 10.658 15.4554 10.8072C15.3365 10.9564 15.1663 11.0558 14.9779 11.0861L14.8779 11.092H12.1099Z" fill="white"/>
<path d="M17.5 9C19.9853 9 22 6.98528 22 4.5C22 2.01472 19.9853 0 17.5 0C15.0147 0 13 2.01472 13 4.5C13 6.98528 15.0147 9 17.5 9Z" fill="#08C069"/>
</svg>
