<svg width="20" height="19" viewBox="0 0 20 19" fill="none" xmlns="http://www.w3.org/2000/svg">
<path d="M9.58492 18.811L9.34392 18.665C7.21701 17.3488 5.24115 15.8029 3.45193 14.055C2.13054 12.7374 1.12946 11.1338 0.525924 9.36802C-0.069921 7.59494 0.00118351 5.66543 0.725921 3.94102C1.07516 3.12401 1.59592 2.39161 2.25293 1.79343C2.90993 1.19526 3.68783 0.745321 4.53392 0.474038C5.38308 0.19972 6.28012 0.10554 7.16773 0.197487C8.05535 0.289434 8.91403 0.565483 9.68893 1.00803L9.95092 1.16404L10.2139 1.00706C10.9485 0.58878 11.7583 0.319483 12.5971 0.214638C13.4358 0.109793 14.287 0.171437 15.1019 0.396035L15.3629 0.474038C16.2101 0.745602 16.989 1.19631 17.6466 1.79557C18.3042 2.39483 18.8251 3.12863 19.1739 3.94706C19.8991 5.67487 19.9702 7.60759 19.3739 9.38401C18.7649 11.1425 17.766 12.7404 16.4519 14.058C14.662 15.8022 12.6862 17.3448 10.5599 18.6581L10.3349 18.799C10.2228 18.8686 10.0937 18.9059 9.96177 18.907C9.82983 18.908 9.70015 18.8728 9.58692 18.805L9.58492 18.811ZM4.96992 1.85105C4.30958 2.06396 3.70339 2.41782 3.19334 2.88816C2.68328 3.3585 2.28154 3.93409 2.01592 4.57505C1.45325 5.95971 1.40782 7.50065 1.88792 8.91605C2.42325 10.4624 3.30073 11.868 4.45493 13.0281C6.16635 14.6964 8.05565 16.1718 10.0889 17.428L9.94792 17.339L10.4069 17.049C12.0109 16.0084 13.5203 14.8288 14.9179 13.524L15.4359 13.031C16.5902 11.8756 17.4682 10.4739 18.0039 8.93107C18.4851 7.51344 18.4397 5.96991 17.8759 4.58305C17.61 3.9408 17.2078 3.36396 16.6971 2.89243C16.1864 2.4209 15.5793 2.06591 14.9179 1.85203C14.1543 1.60647 13.3428 1.54827 12.5519 1.68229C11.761 1.81631 11.014 2.13862 10.3739 2.62205C10.2518 2.71377 10.1036 2.76411 9.9509 2.76572C9.79819 2.76734 9.64895 2.72013 9.52492 2.63102L9.32492 2.49204C8.6953 2.05827 7.97439 1.77502 7.21787 1.66422C6.46136 1.55343 5.68949 1.61806 4.96192 1.85307L4.96992 1.85105ZM14.6499 7.16904C14.6192 6.78537 14.4759 6.41932 14.2378 6.11686C13.9998 5.8144 13.6776 5.58901 13.3119 5.46903C13.2209 5.44277 13.136 5.39885 13.0619 5.33976C12.9879 5.28067 12.9263 5.2076 12.8805 5.12467C12.788 4.9572 12.7659 4.75982 12.8189 4.57603C12.872 4.39223 12.9959 4.23703 13.1633 4.14457C13.3308 4.05211 13.5281 4.03 13.7119 4.08305L13.7509 4.09605C14.3888 4.30354 14.951 4.69548 15.3662 5.22233C15.7815 5.74918 16.0312 6.38732 16.0839 7.05607C16.0997 7.24615 16.0396 7.43473 15.9166 7.58054C15.7937 7.72636 15.6179 7.81748 15.4279 7.83402H15.3659C15.1847 7.83378 15.0103 7.76518 14.8776 7.64188C14.7448 7.51859 14.6635 7.34971 14.6499 7.16904Z" fill="white"/>
</svg>
