<svg width="20" height="19" viewBox="0 0 20 19" fill="none" xmlns="http://www.w3.org/2000/svg">
<path d="M9.99485 19.0001L9.73984 18.8401C7.47971 17.414 5.37786 15.7513 3.46985 13.8801C2.1437 12.5157 1.13265 10.8773 0.507847 9.0801C-0.0544387 7.3584 -0.00463015 5.49531 0.648846 3.80611C0.971394 2.9786 1.47284 2.23259 2.11732 1.62148C2.7618 1.01037 3.53337 0.549223 4.37684 0.271078C4.66054 0.171489 4.95376 0.101466 5.25184 0.0620937H5.36985C5.64362 0.0213847 5.92006 0.00133053 6.19684 0.00209618H6.30484C6.91806 0.020653 7.52493 0.131869 8.10485 0.332052H8.16285C8.19566 0.346932 8.22574 0.367272 8.25184 0.392111C8.46687 0.457725 8.67463 0.545167 8.87185 0.653097L9.24585 0.822104C9.34317 0.879349 9.4367 0.942817 9.52584 1.01211C9.58184 1.05411 9.62584 1.08908 9.66884 1.11208L9.70884 1.13607C9.79728 1.18593 9.88245 1.24139 9.96384 1.30208C11.0315 0.461148 12.3508 0.00333119 13.7098 0.00209618H13.7528C14.375 -0.0023305 14.9937 0.0960071 15.5838 0.293112C16.4224 0.568794 17.1892 1.02719 17.8291 1.63521C18.4689 2.24324 18.9658 2.98573 19.2838 3.8091C19.9267 5.4988 19.9806 7.35596 19.4368 9.0801C18.8199 10.8834 17.8083 12.5263 16.4758 13.8891C14.5775 15.7553 12.4888 17.4175 10.2438 18.8481L9.99784 18.9981L9.99485 19.0001ZM14.8238 3.12105C14.6588 3.12366 14.4986 3.17728 14.3653 3.2745C14.2319 3.37171 14.1318 3.50778 14.0788 3.66408C14.0121 3.86594 14.026 4.08579 14.1177 4.27761C14.2094 4.46943 14.3718 4.61833 14.5708 4.69308C14.884 4.81832 15.1521 5.0352 15.34 5.31533C15.5279 5.59546 15.6268 5.92579 15.6238 6.26308V6.29311C15.6041 6.51614 15.671 6.7382 15.8108 6.91311C15.9067 7.03777 16.0395 7.12894 16.1902 7.17373C16.341 7.21852 16.502 7.21464 16.6504 7.16256C16.7988 7.11047 16.9269 7.01287 17.0166 6.88369C17.1063 6.75451 17.1529 6.60031 17.1498 6.44308V6.32406C17.1692 5.64797 16.9804 4.98228 16.6089 4.41707C16.2374 3.85187 15.7012 3.41447 15.0728 3.16408C14.9928 3.13624 14.9086 3.12205 14.8238 3.12209V3.12105Z" fill="white"/>
</svg>
