<svg width="19" height="20" viewBox="0 0 19 20" fill="none" xmlns="http://www.w3.org/2000/svg">
<path d="M6.644 18.746V15.7141C6.64664 15.3411 6.79691 14.9845 7.06192 14.7221C7.32692 14.4597 7.68508 14.313 8.058 14.3141H10.932C11.1175 14.3124 11.3014 14.3472 11.4734 14.4167C11.6454 14.4861 11.802 14.5888 11.9343 14.7188C12.0665 14.8488 12.1718 15.0037 12.2442 15.1744C12.3166 15.3452 12.3546 15.5286 12.356 15.7141V18.7371C12.3584 19.0606 12.4888 19.3701 12.7187 19.5978C12.9487 19.8255 13.2594 19.9529 13.583 19.9521H15.544C16.4565 19.9554 17.3338 19.6002 17.987 18.9631C18.3069 18.6515 18.5613 18.2792 18.7353 17.8679C18.9093 17.4566 18.9993 17.0146 19 16.5681V7.95703C18.9983 7.59692 18.9166 7.24169 18.761 6.91693C18.6054 6.59218 18.3796 6.306 18.1 6.07904L11.443 0.848087C10.8752 0.404204 10.1722 0.1689 9.4516 0.181644C8.73102 0.194388 8.03671 0.454412 7.485 0.918094L0.966999 6.07709C0.67499 6.29773 0.43643 6.58128 0.269024 6.90674C0.101618 7.2322 0.00966695 7.59117 0 7.95703V16.5571C0.00818612 17.4651 0.37663 18.3327 1.02433 18.9692C1.67203 19.6056 2.54597 19.9588 3.454 19.9511H5.372C5.69769 19.9537 6.01131 19.828 6.245 19.6011C6.35935 19.4901 6.4503 19.3574 6.51247 19.2107C6.57465 19.064 6.60679 18.9064 6.607 18.7471L6.644 18.746Z" fill="white"/>
</svg>
