<svg width="19" height="20" viewBox="0 0 19 20" fill="none" xmlns="http://www.w3.org/2000/svg">
<path d="M15.28 19.7591H13.29C12.8372 19.7548 12.4025 19.5812 12.0712 19.2725C11.74 18.9638 11.5362 18.5424 11.5 18.091L11.49 17.953V15.125C11.4877 14.9753 11.432 14.8313 11.3331 14.719C11.2341 14.6066 11.0982 14.5332 10.95 14.512L10.86 14.502H8.189C8.03938 14.5031 7.895 14.5572 7.78162 14.6549C7.66823 14.7525 7.59323 14.8873 7.57 15.0351L7.56 15.125V17.943C7.55839 18.0025 7.5517 18.0617 7.54 18.12L7.53 18.141L7.518 18.2091C7.4588 18.6218 7.25813 19.0012 6.95026 19.2824C6.64239 19.5637 6.24642 19.7293 5.83 19.7511L5.7 19.762H3.91C2.9139 19.7687 1.95318 19.3931 1.22576 18.7125C0.498339 18.032 0.0596276 17.0984 0 16.104V7.89303C0.00568478 7.48267 0.097661 7.07813 0.269947 6.70565C0.442233 6.33317 0.690972 6.00109 1 5.73104L7.23 0.779015C7.84838 0.295319 8.60561 0.0227863 9.3904 0.00136656C10.1752 -0.0200532 10.9462 0.210812 11.59 0.660058L11.751 0.779015L17.839 5.59103C18.1663 5.84179 18.4378 6.15809 18.6359 6.51968C18.8341 6.88127 18.9547 7.28023 18.99 7.69106L19 7.89102V15.9051C18.9917 16.9017 18.6012 17.8572 17.909 18.5743C17.2168 19.2914 16.2757 19.7155 15.28 19.7591ZM8.04 13.13H10.86C11.3668 13.1296 11.8554 13.3191 12.2294 13.6612C12.6033 14.0033 12.8355 14.4732 12.88 14.9781V17.952C12.88 18.0524 12.915 18.1495 12.9788 18.2269C13.0427 18.3043 13.1315 18.357 13.23 18.3761H15.089C15.7227 18.3816 16.3347 18.1456 16.8007 17.7162C17.2667 17.2868 17.5518 16.6961 17.598 16.064L17.61 15.9071V7.90707C17.6042 7.69744 17.557 7.49099 17.4712 7.29965C17.3854 7.1083 17.2627 6.93578 17.11 6.79202L16.98 6.68203L10.88 1.86105C10.4832 1.55004 9.99319 1.38163 9.489 1.38302C9.04561 1.38173 8.6115 1.51 8.24 1.75204L8.089 1.86202L2.009 6.70303C1.84241 6.82616 1.70254 6.98184 1.59786 7.16061C1.49318 7.33937 1.42587 7.53753 1.4 7.74307L1.389 7.90304V15.903C1.39421 16.5379 1.64135 17.1469 2.08006 17.6059C2.51876 18.0648 3.116 18.3392 3.75 18.3731H5.7C5.8037 18.3775 5.90546 18.344 5.98626 18.2788C6.06705 18.2137 6.12135 18.1213 6.139 18.0191L6.16 17.843L6.171 17.7931V15.1261C6.16991 14.6176 6.36255 14.1277 6.70974 13.7562C7.05693 13.3847 7.53259 13.1594 8.04 13.1261V13.13Z" fill="white"/>
</svg>
