<svg width="20" height="20" viewBox="0 0 20 20" fill="none" xmlns="http://www.w3.org/2000/svg">
<path d="M14.072 20C13.7374 19.9988 13.4063 19.9318 13.0976 19.8026C12.7889 19.6735 12.5087 19.4848 12.273 19.2474C12.0372 19.0099 11.8505 18.7284 11.7235 18.4188C11.5966 18.1092 11.5318 17.7776 11.533 17.443V14.031C11.5305 13.6972 11.5938 13.3661 11.7192 13.0568C11.8447 12.7474 12.0298 12.4658 12.2641 12.228C12.4984 11.9902 12.7772 11.8008 13.0847 11.6708C13.3921 11.5407 13.7222 11.4725 14.056 11.47H17.45C17.7846 11.4714 18.1157 11.5388 18.4243 11.6682C18.7329 11.7975 19.0129 11.9864 19.2485 12.2241C19.4841 12.4617 19.6706 12.7434 19.7973 13.0531C19.924 13.3628 19.9885 13.6944 19.987 14.029V17.439C19.9892 18.1149 19.7232 18.7641 19.2474 19.2441C18.7716 19.7242 18.1249 19.996 17.449 20H14.072ZM2.53803 20C1.86223 19.9958 1.21566 19.7239 0.739947 19.2438C0.264235 18.7638 -0.0018322 18.1148 3.33152e-05 17.439V14.031C-0.00167802 13.6963 0.062557 13.3645 0.18909 13.0547C0.315622 12.7448 0.501972 12.4629 0.737475 12.2251C0.972979 11.9873 1.25303 11.7982 1.56163 11.6686C1.87023 11.5391 2.20134 11.4715 2.53603 11.47H5.91703C6.25093 11.4704 6.58149 11.5366 6.88982 11.6647C7.19814 11.7929 7.4782 11.9805 7.71398 12.217C7.94976 12.4534 8.13664 12.734 8.26396 13.0427C8.39129 13.3513 8.45655 13.6821 8.45603 14.016C8.45603 14.021 8.45603 14.026 8.45603 14.031V17.439C8.45787 17.7737 8.39374 18.1054 8.26732 18.4152C8.1409 18.7251 7.95466 19.007 7.71924 19.2448C7.48382 19.4827 7.20383 19.6718 6.89528 19.8013C6.58674 19.9309 6.25567 19.9984 5.92102 20H2.53803ZM14.072 8.53003C13.7383 8.5299 13.4078 8.464 13.0995 8.33612C12.7912 8.20824 12.5111 8.02082 12.2752 7.78467C12.0393 7.54852 11.8523 7.26823 11.7248 6.95978C11.5973 6.65132 11.5318 6.32077 11.532 5.987C11.532 5.981 11.532 5.97597 11.532 5.96997V2.56097C11.5303 2.22628 11.5946 1.89457 11.7211 1.58472C11.8476 1.27486 12.034 0.992952 12.2695 0.755127C12.505 0.517302 12.785 0.328175 13.0936 0.198608C13.4022 0.0690423 13.7333 0.00157191 14.068 0H17.45C18.1257 0.00423149 18.7722 0.276174 19.2478 0.756226C19.7233 1.23628 19.9892 1.88525 19.987 2.56097V5.96997C19.9887 6.30445 19.9245 6.63601 19.7981 6.94568C19.6717 7.25535 19.4855 7.53712 19.2502 7.77484C19.0149 8.01256 18.7351 8.2016 18.4267 8.33118C18.1184 8.46075 17.7875 8.52833 17.453 8.53003H14.072ZM2.53803 8.53003C2.20355 8.52885 1.87258 8.46179 1.56401 8.3327C1.25545 8.20361 0.975333 8.015 0.739657 7.77765C0.503982 7.5403 0.317369 7.25887 0.190463 6.9494C0.063557 6.63993 -0.00115067 6.30848 3.33152e-05 5.974V2.56097C-0.0018322 1.88516 0.264235 1.23619 0.739947 0.756165C1.21566 0.276141 1.86223 0.00423119 2.53803 0H5.91603C6.25064 0.00131064 6.58172 0.0684926 6.89035 0.197754C7.19899 0.327015 7.47914 0.515824 7.71482 0.753357C7.95049 0.99089 8.13707 1.27251 8.2639 1.58215C8.39074 1.89179 8.45534 2.22337 8.45403 2.55798V5.96997C8.45653 6.30366 8.39329 6.6346 8.2679 6.94385C8.14251 7.2531 7.95743 7.53462 7.72324 7.77234C7.48905 8.01006 7.21033 8.19935 6.90299 8.32935C6.59565 8.45934 6.26572 8.52754 5.93202 8.53003H2.53803Z" fill="white"/>
</svg>
