<svg width="21" height="20" viewBox="0 0 21 20" fill="none" xmlns="http://www.w3.org/2000/svg">
<path d="M10.4442 19.8899C9.6376 19.8948 8.86022 19.5882 8.27421 19.0339L7.53121 18.3119C7.24172 18.0326 6.85447 17.8775 6.4522 17.8799H5.4002C4.59996 17.8914 3.82782 17.5851 3.25308 17.0281C2.67833 16.4712 2.34789 15.7091 2.33421 14.9089V13.8889C2.33292 13.6918 2.29267 13.497 2.21578 13.3156C2.1389 13.1342 2.02689 12.9698 1.88621 12.8319L1.15321 12.1319C0.870067 11.8606 0.644566 11.535 0.490212 11.1745C0.335858 10.814 0.255825 10.4261 0.254891 10.034C0.253957 9.64188 0.332145 9.2536 0.48478 8.8924C0.637415 8.5312 0.861367 8.20452 1.14321 7.93189L1.88621 7.20991C2.02845 7.07336 2.14149 6.90937 2.2185 6.72785C2.29551 6.54634 2.33487 6.35105 2.33421 6.15388V5.14789C2.34815 4.34804 2.67877 3.58638 3.25355 3.02997C3.82833 2.47357 4.60032 2.16784 5.4002 2.17988H6.44921C6.85143 2.17902 7.23786 2.02323 7.52821 1.74488L8.26121 1.03486C8.84459 0.475415 9.62113 0.162327 10.4294 0.160651C11.2377 0.158975 12.0155 0.468867 12.6012 1.02589L13.3452 1.74488C13.6343 2.0252 14.0216 2.18132 14.4242 2.17988H15.4732C16.2733 2.16784 17.0454 2.47372 17.6202 3.03034C18.195 3.58696 18.5255 4.34885 18.5392 5.14887V6.1659C18.5395 6.36125 18.5794 6.5545 18.6566 6.73395C18.7338 6.91341 18.8466 7.07534 18.9882 7.20991L19.7212 7.91987C20.003 8.19104 20.2275 8.51597 20.3814 8.87543C20.5354 9.2349 20.6156 9.6216 20.6175 10.0126C20.6194 10.4037 20.5427 10.7911 20.3922 11.152C20.2417 11.513 20.0203 11.84 19.7412 12.1139L19.7212 12.1339L19.7112 12.1439L18.9882 12.8439C18.8464 12.9789 18.7334 13.1413 18.6562 13.3213C18.5791 13.5013 18.5393 13.695 18.5392 13.8909V14.8999C18.5258 15.7002 18.1954 16.4624 17.6206 17.0194C17.0458 17.5764 16.2735 17.8826 15.4732 17.8709H14.4242C14.022 17.8685 13.6347 18.0236 13.3452 18.3029L12.6112 19.0129C12.0316 19.5778 11.2535 19.8927 10.4442 19.8899ZM13.0622 11.7009C12.8925 11.7052 12.7278 11.7594 12.5887 11.8568C12.4497 11.9541 12.3424 12.0903 12.2802 12.2483C12.2181 12.4063 12.2038 12.579 12.2393 12.7451C12.2747 12.9111 12.3583 13.063 12.4796 13.1818C12.6008 13.3006 12.7544 13.381 12.9211 13.4131C13.0878 13.4451 13.2603 13.4273 13.417 13.3619C13.5737 13.2966 13.7076 13.1865 13.8021 13.0454C13.8965 12.9044 13.9474 12.7386 13.9482 12.5689V12.5589C13.9427 12.3284 13.8468 12.1092 13.6813 11.9487C13.5158 11.7882 13.2938 11.6992 13.0632 11.7009H13.0622ZM13.0572 6.62586C12.8236 6.62496 12.5987 6.71501 12.4302 6.8769L7.19521 11.9479C7.07433 12.0699 6.99234 12.2249 6.95962 12.3935C6.9269 12.5621 6.94493 12.7366 7.01141 12.8949C7.07789 13.0532 7.18983 13.1883 7.33309 13.283C7.47635 13.3777 7.64448 13.4278 7.8162 13.4269C7.93329 13.4289 8.04959 13.4072 8.15804 13.363C8.2665 13.3189 8.36488 13.2531 8.44721 13.1699L13.6832 8.09986C13.7658 8.02105 13.8315 7.92635 13.8764 7.82142C13.9213 7.71648 13.9444 7.60352 13.9444 7.48939C13.9444 7.37525 13.9213 7.26229 13.8764 7.15736C13.8315 7.05242 13.7658 6.95772 13.6832 6.87891C13.5142 6.71566 13.2882 6.62454 13.0532 6.62488L13.0572 6.62586ZM7.8272 6.62586C7.65749 6.63019 7.49283 6.68445 7.35375 6.78181C7.21468 6.87916 7.10736 7.01531 7.0452 7.17329C6.98305 7.33126 6.96882 7.50403 7.00428 7.67005C7.03974 7.83607 7.12331 7.98795 7.24458 8.10676C7.36584 8.22556 7.51942 8.30604 7.68613 8.33808C7.85285 8.37012 8.0253 8.35231 8.18197 8.28693C8.33864 8.22155 8.47258 8.11151 8.56706 7.97047C8.66153 7.82942 8.71236 7.66366 8.7132 7.4939V7.48286C8.70744 7.25244 8.6113 7.03357 8.44553 6.87342C8.27977 6.71327 8.05768 6.62473 7.8272 6.6269V6.62586Z" fill="white"/>
</svg>
