<svg width="21" height="21" viewBox="0 0 21 21" fill="none" xmlns="http://www.w3.org/2000/svg">
<path d="M8.42477 19.918L8.26777 19.775L7.53776 19.0689C7.28411 18.8256 6.95569 18.6752 6.60577 18.642L6.45477 18.6339H5.40577C4.63518 18.6442 3.88965 18.3604 3.32109 17.8401C2.75253 17.3199 2.40372 16.6024 2.34576 15.8339L2.34077 15.6599V14.6439C2.34002 14.3 2.21783 13.9675 1.99577 13.7049L1.89576 13.5959L1.16577 12.8889C0.616585 12.3653 0.293743 11.6478 0.266094 10.8895C0.238445 10.1312 0.508182 9.39217 1.01777 8.82995L1.15477 8.68694L1.88977 7.96892C2.13696 7.72934 2.2929 7.41106 2.33076 7.0689L2.33776 6.9229V5.9099L2.34277 5.73492C2.39703 4.99738 2.72037 4.30551 3.25134 3.79076C3.78231 3.27601 4.48391 2.97428 5.22277 2.94292H5.40277H6.45376C6.80487 2.94318 7.14599 2.82595 7.42277 2.60992L7.53477 2.50994L8.26577 1.80193C8.85064 1.23434 9.63478 0.918713 10.4498 0.922904C11.1716 0.91868 11.8717 1.17023 12.4258 1.63293L12.6108 1.79992L13.3428 2.5089C13.5964 2.7513 13.9244 2.90108 14.2738 2.93395L14.4248 2.94091H15.4708C16.2415 2.93033 16.9873 3.21409 17.5561 3.73437C18.1249 4.25464 18.4738 4.9723 18.5318 5.74096L18.5368 5.91595V6.92992C18.5379 7.27416 18.6596 7.60711 18.8808 7.8709L18.9808 7.97991L19.7128 8.68896C20.2615 9.21284 20.584 9.9302 20.6116 10.6883C20.6393 11.4465 20.3699 12.1855 19.8608 12.7479L19.7238 12.8909L18.9828 13.6089C18.7355 13.8483 18.5802 14.1667 18.5438 14.5089L18.5368 14.6559V15.671C18.5247 16.44 18.2192 17.1754 17.6827 17.7266C17.1462 18.2778 16.4193 18.6031 15.6508 18.6359H14.4238C14.0725 18.6356 13.7312 18.7532 13.4548 18.9699L13.3418 19.0699L12.6108 19.7759C12.0533 20.3124 11.3173 20.624 10.544 20.6507C9.77083 20.6775 9.01499 20.4176 8.42176 19.9209L8.42477 19.918ZM3.87577 5.7719L3.86976 5.90795V6.92095C3.86706 7.64264 3.59701 8.33772 3.11177 8.87194L2.97477 9.01592L2.23477 9.73394C1.96455 9.99074 1.80345 10.3416 1.78483 10.7139C1.76622 11.0862 1.89151 11.4515 2.13476 11.7339L2.23477 11.848L2.96676 12.5579C3.4871 13.0597 3.8028 13.7368 3.85276 14.4579L3.85977 14.658V15.6729C3.86828 16.0492 4.0162 16.409 4.27487 16.6824C4.53353 16.9559 4.88451 17.1236 5.25976 17.1529L5.40077 17.1589H6.45877C7.19469 17.1585 7.90717 17.4177 8.47076 17.8909L8.61976 18.025L9.35676 18.7389C9.63116 19.0012 9.99095 19.1557 10.3701 19.1741C10.7492 19.1924 11.1223 19.0734 11.4208 18.8389L11.5368 18.7389L12.2708 18.03C12.8013 17.5212 13.4951 17.2172 14.2288 17.1719L14.4288 17.1659H15.4748C15.8538 17.1742 16.2221 17.0395 16.5063 16.7886C16.7905 16.5377 16.9699 16.1891 17.0088 15.8119L17.0138 15.676V14.6569C17.0158 13.9356 17.2847 13.2406 17.7688 12.7059L17.9068 12.5629L18.6468 11.8459C18.9165 11.5889 19.0773 11.2381 19.0959 10.8659C19.1145 10.4937 18.9896 10.1286 18.7468 9.84594L18.6468 9.73394L17.9108 9.02093C17.3921 8.51812 17.0773 7.84151 17.0268 7.1209L17.0198 6.92095V5.9099C17.0171 5.53123 16.8713 5.16764 16.6116 4.89202C16.3519 4.6164 15.9976 4.44918 15.6198 4.42394L15.4798 4.41796H14.4238C13.6875 4.41872 12.9746 4.15943 12.4108 3.6859L12.2628 3.55291L11.5628 2.87292L11.5208 2.83495C11.2469 2.57362 10.888 2.41966 10.5099 2.4013C10.1318 2.38293 9.7597 2.50135 9.46177 2.73492L9.34576 2.83495L8.61076 3.54693C8.07994 4.05436 7.38671 4.3576 6.65377 4.40295L6.45376 4.40893H5.40876C5.02996 4.40589 4.66351 4.5435 4.38032 4.7951C4.09713 5.0467 3.91736 5.3944 3.87577 5.77093V5.7719ZM12.5138 13.8469C12.4446 13.7754 12.3893 13.6917 12.3508 13.5999C12.3104 13.5135 12.2896 13.4193 12.2898 13.3239C12.2897 13.2253 12.3105 13.1279 12.3508 13.038C12.4319 12.8551 12.5811 12.711 12.7666 12.6363C12.9522 12.5617 13.1596 12.5622 13.3448 12.6379C13.4372 12.6748 13.5214 12.7295 13.5928 12.7989C13.6642 12.8667 13.7225 12.947 13.7648 13.0359C13.7975 13.1278 13.8148 13.2245 13.8158 13.322C13.8148 13.4162 13.7976 13.5096 13.7648 13.598C13.7226 13.6899 13.6643 13.7735 13.5928 13.8449C13.4476 13.9839 13.2544 14.0615 13.0535 14.0617C12.8525 14.0619 12.6592 13.9846 12.5138 13.8459V13.8469ZM7.28477 13.8409C7.15561 13.7177 7.0766 13.5511 7.06294 13.3731C7.04928 13.1951 7.10193 13.0184 7.21077 12.8769L7.28477 12.793L12.5168 7.72192C12.6621 7.5828 12.8556 7.50518 13.0568 7.50518C13.258 7.50518 13.4514 7.5828 13.5968 7.72192C13.7262 7.84517 13.8054 8.01203 13.819 8.19024C13.8327 8.36844 13.7799 8.54539 13.6708 8.68694L13.5978 8.77093L8.36477 13.8419C8.21916 13.9808 8.02557 14.058 7.82437 14.0577C7.62317 14.0573 7.42987 13.9793 7.28477 13.84V13.8409ZM7.53576 8.92992C7.44362 8.89388 7.35864 8.84175 7.28477 8.77593C7.2177 8.70275 7.16267 8.61937 7.12176 8.52892C7.08114 8.44261 7.06031 8.34831 7.06077 8.25292C7.06006 8.15429 7.08087 8.05667 7.12176 7.96691C7.15801 7.87689 7.21367 7.79597 7.28477 7.72991C7.43213 7.59556 7.62436 7.52111 7.82377 7.52111C8.02319 7.52111 8.21541 7.59556 8.36277 7.72991C8.4334 7.79751 8.48964 7.87869 8.52813 7.96856C8.56662 8.05843 8.58657 8.15515 8.58677 8.25292C8.59057 8.34757 8.57314 8.44188 8.53576 8.52892C8.49119 8.61969 8.43284 8.70302 8.36277 8.77593C8.29214 8.84279 8.20975 8.89601 8.11976 8.93291C8.02485 8.97299 7.9228 8.9934 7.81977 8.99291C7.72064 8.99321 7.62253 8.97277 7.53176 8.93291L7.53576 8.92992Z" fill="white"/>
</svg>
