<svg width="332" height="348" viewBox="0 0 332 348" fill="none" xmlns="http://www.w3.org/2000/svg">
<path d="M237 78C256.423 93.107 318.436 125.157 300 159C278.826 197.868 317.367 268.83 256.112 273.888C216.186 276.341 196.418 327.958 171.195 341.059C145.516 354.259 94.726 347.171 98.943 303.494C103.079 260.656 -47.803 215.307 17.329 181.93C55.866 162.183 13.9 140.2 32.32 107.082C68.879 42.4 159.035 18.246 237 78Z" fill="#FFF5E0"/>
<path d="M230.5 27C237.956 27 244 20.9558 244 13.5C244 6.04416 237.956 0 230.5 0C223.044 0 217 6.04416 217 13.5C217 20.9558 223.044 27 230.5 27Z" fill="#FFF5E0"/>
<path opacity="0.6" d="M293.5 63C298.747 63 303 58.7467 303 53.5C303 48.2533 298.747 44 293.5 44C288.253 44 284 48.2533 284 53.5C284 58.7467 288.253 63 293.5 63Z" fill="#FFF5E0"/>
<path opacity="0.502" d="M327 37C329.761 37 332 34.7614 332 32C332 29.2386 329.761 27 327 27C324.239 27 322 29.2386 322 32C322 34.7614 324.239 37 327 37Z" fill="#FFF5E0"/>
<path d="M168.691 280.466C237.57 280.466 293.408 224.628 293.408 155.749C293.408 86.8697 237.57 31.032 168.691 31.032C99.8116 31.032 43.9739 86.8697 43.9739 155.749C43.9739 224.628 99.8116 280.466 168.691 280.466Z" fill="#724747"/>
<path d="M168.692 263.109C227.984 263.109 276.051 215.043 276.051 155.75C276.051 96.4573 227.984 48.391 168.692 48.391C109.399 48.391 61.3328 96.4573 61.3328 155.75C61.3328 215.043 109.399 263.109 168.692 263.109Z" fill="#3F2D20"/>
<path d="M286.772 121.076C293.63 144.43 293.408 169.294 286.136 192.522C278.863 215.751 264.865 236.301 245.913 251.574C226.961 266.847 203.905 276.157 179.662 278.327C155.419 280.497 131.076 275.429 109.713 263.765C88.3496 252.1 70.9251 234.362 59.6428 212.795C48.3605 191.227 43.7271 166.798 46.3285 142.597C48.93 118.396 58.6495 95.5101 74.2579 76.833C89.8663 58.156 110.663 44.5268 134.017 37.669C149.523 33.1154 165.775 31.6607 181.844 33.388C197.913 35.1152 213.484 39.9905 227.669 47.7356C241.853 55.4807 254.374 65.9438 264.514 78.5276C274.655 91.1113 282.218 105.569 286.772 121.076ZM137.336 48.976C116.217 55.1776 97.4124 67.5024 83.2986 84.3916C69.1848 101.281 60.3962 121.976 58.0442 143.86C55.6922 165.744 59.8824 187.834 70.085 207.337C80.2876 226.84 96.0442 242.879 115.362 253.427C134.681 263.974 156.693 268.556 178.615 266.594C200.538 264.631 221.386 256.212 238.523 242.4C255.661 228.589 268.318 210.006 274.894 189.001C281.47 167.996 281.67 145.513 275.468 124.395C267.152 96.0761 247.927 72.2205 222.023 58.0761C196.118 43.9318 165.656 40.6573 137.337 48.973L137.336 48.976Z" fill="#A26161"/>
<path d="M186.642 254.34C227.487 254.34 260.599 221.228 260.599 180.383C260.599 139.538 227.487 106.426 186.642 106.426C145.797 106.426 112.685 139.538 112.685 180.383C112.685 221.228 145.797 254.34 186.642 254.34Z" fill="#2B1B1B"/>
<path d="M179.098 63.1381C179.098 63.1381 172.198 74.6381 171.033 87.1541C169.868 99.6701 172.79 106.254 172.79 106.254L180.096 81.3851L179.098 63.1381Z" fill="#AA5504"/>
<path d="M179.098 63.1381L188.883 63.1721L179.554 106.307L172.79 106.256L179.098 63.1381Z" fill="#E37603"/>
<path d="M186.229 75.4291C182.224 79.1855 178.621 83.349 175.479 87.8521L172.786 106.258L179.55 106.309L186.229 75.4291Z" fill="#D96903"/>
<path d="M174.483 108.638C174.787 110.271 175.514 111.797 176.591 113.061C177.668 114.326 179.059 115.286 180.623 115.846C194.657 103.666 208.75 90.989 222.784 78.81C221.517 74.351 218.973 69.663 215.154 67.104C201.026 79.716 187.098 94.483 174.483 108.638Z" fill="#AA5504"/>
<path d="M220.565 73.3751C219.287 70.8836 217.431 68.7344 215.153 67.1071C208.688 72.8781 202.273 79.1071 195.999 85.5181L178.838 112.058C178.838 112.058 187.923 107.832 199.801 97.3271C207.617 90.1646 214.584 82.1279 220.565 73.3751Z" fill="#D96903"/>
<path d="M197.466 61.674C197.466 61.674 185.517 70.8859 179.821 88.9639C174.125 107.042 178.038 115.538 178.038 115.538L199.205 72.6979L197.466 61.674Z" fill="#F59423"/>
<path d="M183.244 117.525C192.195 99.257 199.477 82.866 207.577 64.194C204.493 61.818 200.967 59.994 197.466 61.673C188.791 78.7574 182.266 96.85 178.038 115.538C179.091 116.45 181.807 117.417 183.1 116.915" fill="#FFC644"/>
<path d="M185.76 89.0699C182.622 97.7182 180.042 106.559 178.038 115.538C179.591 116.603 181.375 117.283 183.244 117.522C189.077 105.622 194.202 94.4959 199.305 83.0339C194.917 85.321 190.394 87.3367 185.76 89.0699Z" fill="#FFB337"/>
<path d="M197.466 61.674C197.466 61.674 196.066 64.9739 193.958 69.9269C192.885 72.3899 191.749 75.3119 190.496 78.4269C189.271 81.5499 187.983 84.8869 186.765 88.2509C185.547 91.6149 184.382 94.9969 183.32 98.1799C182.802 99.7799 182.303 101.319 181.828 102.78C181.353 104.241 180.928 105.637 180.556 106.928C179.795 109.506 179.135 111.653 178.726 113.169C178.288 114.68 178.039 115.543 178.039 115.543C178.039 115.543 178.189 114.655 178.453 113.103C178.753 111.558 179.134 109.337 179.773 106.714C180.392 104.087 181.159 101.028 182.11 97.7879C182.61 96.1759 183.088 94.4979 183.666 92.8229C184.213 91.1369 184.821 89.4429 185.414 87.7439C186.668 84.3699 187.984 81.0199 189.329 77.9279C190.674 74.8359 192.035 71.9999 193.229 69.5839C194.405 67.1609 195.512 65.2009 196.254 63.8229L197.466 61.674Z" fill="#FFDC62"/>
<path d="M239.006 91.656C239.006 91.656 234.201 106.076 219.116 117.31C204.031 128.544 194.839 127.49 194.839 127.49L228.146 93.496L239.006 91.656Z" fill="#AA5504"/>
<path d="M191.324 123.118C205.551 108.695 218.553 96.474 233.424 82.741C236.624 84.948 239.457 87.757 239.002 91.656C225.836 105.401 210.997 117.44 194.834 127.49C193.646 126.768 191.875 124.465 191.934 123.063" fill="#E37603"/>
<path d="M217.124 111.638C210.048 117.402 202.603 122.699 194.838 127.494C193.34 126.332 192.137 124.834 191.323 123.122C200.594 113.722 209.358 105.255 218.448 96.698C217.708 101.647 217.266 106.636 217.124 111.638Z" fill="#D96903"/>
<path d="M230.725 74.37C230.046 72.8587 228.98 71.5534 227.635 70.5858C226.289 69.6182 224.713 69.0226 223.064 68.859C212.307 84.087 201.611 99.811 190.854 115.039C193.135 119.062 196.71 122.998 201.021 124.557C211.767 108.889 221.809 91.176 230.725 74.37Z" fill="#F59423"/>
<path d="M203.316 115.629L230.725 74.37C230.046 72.8587 228.979 71.5534 227.634 70.5858C226.289 69.6182 224.713 69.0226 223.064 68.859L206.958 91.95C201.595 99.688 196.231 107.425 190.858 115.039L194.806 117.663C197.695 117.226 200.542 116.546 203.316 115.629Z" fill="#FFB337"/>
<path d="M217.49 94.292L230.725 74.37C230.045 72.8587 228.979 71.5534 227.634 70.5858C226.289 69.6182 224.713 69.0226 223.064 68.859L206.958 91.95L206.13 93.142C209.917 93.48 213.698 93.897 217.49 94.292Z" fill="#FFC644"/>
<path d="M203.316 115.629L204.378 113.777C205.078 112.616 206.033 110.924 207.264 108.953C208.495 106.982 209.895 104.659 211.464 102.216C213.033 99.773 214.723 97.179 216.424 94.591C218.15 92.021 219.87 89.447 221.524 87.065C223.165 84.672 224.766 82.485 226.103 80.587C227.44 78.689 228.631 77.158 229.428 76.063L230.722 74.37L229.66 76.222C228.96 77.384 228.007 79.076 226.775 81.047C225.543 83.018 224.146 85.347 222.575 87.784C221.02 90.236 219.315 92.82 217.614 95.407C215.888 97.977 214.166 100.55 212.514 102.932C210.862 105.314 209.273 107.513 207.935 109.41C206.597 111.307 205.408 112.839 204.611 113.934L203.316 115.629Z" fill="#FFDC62"/>
<path d="M156.593 64.2001C156.593 64.2001 152.9 75.4231 157.776 85.0621C163.094 95.5741 166.925 97.5131 166.925 97.5131L164.539 80.1551L156.593 64.2001Z" fill="#AA5504"/>
<path d="M156.593 64.2001C157.411 64.3471 167.13 62.7321 167.13 62.7321L173.447 93.8121L166.925 97.5121L156.593 64.2001Z" fill="#D96903"/>
<path d="M162.398 63.4861C160.479 63.8338 158.543 64.0722 156.598 64.2001L158.33 69.7851C159.304 67.462 160.681 65.3295 162.398 63.4861Z" fill="#E37603"/>
<path d="M168.478 96.631L173.448 93.811L169.933 76.52C169.43 83.22 168.945 89.9237 168.478 96.631Z" fill="#E37603"/>
<path d="M168.898 60C169.04 61.285 168.053 105.992 166.651 105.215C165.249 104.438 159.299 98.815 157.851 84.202C156.403 69.589 168.569 57.038 168.898 60Z" fill="#F59423"/>
<path d="M168.898 60C168.898 60 163.198 74.524 163.488 85.174C163.74 91.9562 164.802 98.684 166.651 105.214L166.798 105.114C168.12 102.854 169.033 61.238 168.898 60Z" fill="#FFC644"/>
<path d="M168.348 83.48C166.741 84.9093 165.164 86.358 163.617 87.826C164.03 93.7107 165.046 99.5376 166.648 105.215L166.795 105.115C167.432 104.029 167.972 93.88 168.348 83.48Z" fill="#FFB337"/>
<path d="M168.898 60C168.898 60 168.698 60.694 168.345 61.91C167.992 63.126 167.536 64.87 166.979 66.955C166.422 69.04 165.879 71.501 165.366 74.138C164.815 76.8771 164.447 79.6499 164.266 82.438C164.18 83.8495 164.173 85.2648 164.246 86.677C164.315 88.088 164.389 89.457 164.507 90.803C164.747 93.48 165.031 95.982 165.378 98.113C166.027 102.383 166.648 105.213 166.648 105.213C166.648 105.213 166.376 104.54 165.987 103.334C165.616 102.123 165.058 100.393 164.582 98.268C164.106 96.143 163.574 93.651 163.244 90.938C163.088 89.588 162.924 88.165 162.855 86.738C162.762 85.2791 162.753 83.816 162.827 82.356C162.913 80.886 163.087 79.427 163.31 78.006C163.533 76.585 163.825 75.199 164.127 73.868C164.741 71.206 165.521 68.784 166.203 66.719C166.977 64.4313 167.877 62.1882 168.898 60Z" fill="#FFDC62"/>
<path d="M236.903 121.086C220.589 128.396 202.567 131.038 184.841 128.717C184.134 127.342 183.993 125.744 184.448 124.266L237.159 105.381C238.35 110.827 238.917 115.895 236.903 121.086Z" fill="#F59423"/>
<path d="M184.448 124.266L185.626 127.407C185.626 127.407 218.615 126.601 236.903 121.086C238.917 115.894 238.35 110.827 237.159 105.38L184.448 124.266Z" fill="#FFB337"/>
<path d="M226.12 123.582C229.758 122.95 233.358 122.115 236.903 121.082C238.917 115.89 238.35 110.823 237.159 105.376L211.441 114.59C215.872 118.283 220.817 121.312 226.12 123.582Z" fill="#FFC644"/>
<path d="M185.626 127.407L187.844 127.191L193.685 126.649L201.931 125.867C204.945 125.577 208.16 125.267 211.368 124.908C214.579 124.584 217.78 124.175 220.782 123.808L225.104 123.225L228.964 122.618L232.217 122.038C233.192 121.885 234.027 121.688 234.717 121.538L236.901 121.089L234.789 121.813C234.114 122.034 233.295 122.313 232.338 122.568C231.381 122.823 230.311 123.155 229.122 123.425C226.747 123.967 223.969 124.586 220.964 125.082C219.464 125.305 217.909 125.582 216.324 125.782C214.739 125.982 213.131 126.204 211.517 126.366C208.29 126.697 205.06 126.985 202.025 127.152C198.992 127.346 196.154 127.397 193.725 127.473C188.868 127.557 185.626 127.407 185.626 127.407Z" fill="#FFDC62"/>
<path d="M215.154 67.1071L218.792 73.3541L203.898 92.3711L193.805 98.6021L199.874 81.7641L215.154 67.1071Z" fill="#E37603"/>
<path d="M166.398 115.621C166.554 116.05 166.611 116.51 166.564 116.964C166.492 117.526 166.23 118.046 165.821 118.439C165.413 118.831 164.882 119.072 164.318 119.121C162.496 119.279 160.787 118.262 159.312 117.167C157.804 116.047 156.754 114.295 158.363 112.607C160.388 110.481 164.253 112.622 165.734 114.448C166.02 114.798 166.245 115.195 166.398 115.621Z" fill="#CE8855"/>
<path d="M179.733 127.679C182.459 125.563 189.592 134.457 187.581 136.413C185.613 138.327 177.295 130.381 179.475 127.922C179.553 127.833 179.64 127.752 179.733 127.679Z" fill="#CE8855"/>
<path d="M190.26 138.857C190.287 138.653 190.253 138.445 190.162 138.26C190.071 138.075 189.926 137.922 189.748 137.819C189.566 137.725 189.36 137.688 189.157 137.713C188.954 137.739 188.764 137.826 188.612 137.962C188.504 138.076 188.422 138.212 188.373 138.361C188.324 138.51 188.308 138.668 188.327 138.824C188.346 138.98 188.4 139.13 188.483 139.262C188.567 139.395 188.679 139.508 188.812 139.592C188.954 139.657 189.108 139.689 189.264 139.686C189.42 139.683 189.574 139.644 189.713 139.574C189.852 139.503 189.973 139.402 190.068 139.278C190.163 139.154 190.228 139.01 190.26 138.857Z" fill="#CE8855"/>
<path d="M144.854 92.628C148.317 92.2966 151.8 93.0025 154.86 94.656C153.162 95.2311 151.341 95.3464 149.584 94.9903C147.826 94.6341 146.194 93.819 144.854 92.628Z" fill="#6C351F"/>
<path d="M225.811 160.929C225.476 161.453 225.041 161.905 224.53 162.258C224.018 162.612 223.442 162.86 222.834 162.988C222.225 163.117 221.598 163.123 220.987 163.006C220.377 162.889 219.796 162.651 219.278 162.307C218.229 161.601 217.499 160.512 217.244 159.273C216.99 158.034 217.233 156.745 217.919 155.683C218.254 155.159 218.689 154.707 219.201 154.354C219.712 154 220.288 153.752 220.897 153.624C221.505 153.495 222.132 153.49 222.743 153.607C223.353 153.724 223.934 153.961 224.452 154.305C225.502 155.011 226.232 156.1 226.486 157.339C226.741 158.578 226.498 159.867 225.811 160.929Z" fill="#728801"/>
<path d="M235.044 164.153C237.267 164.153 239.07 162.325 239.07 160.071C239.07 157.817 237.267 155.989 235.044 155.989C232.82 155.989 231.018 157.817 231.018 160.071C231.018 162.325 232.82 164.153 235.044 164.153Z" fill="#728801"/>
<path d="M243.323 173.888C245.192 173.888 246.708 172.351 246.708 170.456C246.708 168.561 245.192 167.024 243.323 167.024C241.454 167.024 239.938 168.561 239.938 170.456C239.938 172.351 241.454 173.888 243.323 173.888Z" fill="#728801"/>
<path d="M236.611 174.576C236.276 175.1 235.841 175.552 235.329 175.905C234.818 176.259 234.242 176.507 233.634 176.635C233.026 176.764 232.398 176.77 231.788 176.653C231.177 176.536 230.596 176.298 230.079 175.954C229.029 175.249 228.298 174.159 228.044 172.92C227.79 171.681 228.033 170.392 228.72 169.33C229.054 168.806 229.49 168.354 230.001 168.001C230.512 167.647 231.088 167.399 231.697 167.271C232.305 167.142 232.932 167.137 233.543 167.254C234.153 167.371 234.734 167.608 235.252 167.952C236.301 168.658 237.032 169.747 237.286 170.986C237.54 172.225 237.298 173.514 236.611 174.576Z" fill="#728801"/>
<path d="M233.387 169.51C232.903 170.267 232.273 170.921 231.534 171.432C230.795 171.943 229.961 172.302 229.082 172.487C228.203 172.672 227.295 172.681 226.413 172.511C225.53 172.342 224.69 171.999 223.942 171.501C222.425 170.481 221.369 168.906 221.001 167.115C220.634 165.324 220.984 163.46 221.977 161.925C222.461 161.168 223.091 160.514 223.83 160.003C224.569 159.492 225.402 159.133 226.282 158.948C227.161 158.763 228.068 158.754 228.951 158.923C229.834 159.092 230.674 159.436 231.422 159.933C232.939 160.953 233.995 162.529 234.363 164.32C234.73 166.111 234.38 167.975 233.387 169.51Z" fill="#728801"/>
<path d="M228.191 174.699C227.827 175.268 227.354 175.76 226.799 176.144C226.243 176.529 225.617 176.799 224.956 176.938C224.295 177.078 223.612 177.084 222.949 176.957C222.285 176.831 221.654 176.573 221.091 176.199C219.95 175.432 219.157 174.248 218.88 172.901C218.604 171.554 218.868 170.153 219.614 168.999C219.978 168.43 220.451 167.939 221.007 167.554C221.562 167.17 222.189 166.9 222.85 166.76C223.51 166.621 224.193 166.614 224.856 166.741C225.52 166.868 226.151 167.125 226.714 167.499C227.855 168.266 228.649 169.45 228.925 170.797C229.201 172.144 228.938 173.545 228.191 174.699Z" fill="#728801"/>
<path d="M220.721 172.593C220.524 172.901 220.269 173.166 219.969 173.373C219.669 173.581 219.33 173.726 218.973 173.802C218.616 173.877 218.248 173.881 217.89 173.812C217.531 173.743 217.19 173.604 216.887 173.402C216.27 172.988 215.841 172.349 215.691 171.622C215.542 170.895 215.684 170.138 216.087 169.514C216.283 169.207 216.539 168.942 216.839 168.734C217.139 168.527 217.477 168.381 217.834 168.306C218.191 168.23 218.559 168.227 218.917 168.296C219.276 168.364 219.617 168.503 219.921 168.705C220.537 169.119 220.966 169.758 221.116 170.485C221.265 171.213 221.123 171.97 220.721 172.593Z" fill="#728801"/>
<path d="M224.824 180.855C224.449 181.442 223.961 181.948 223.389 182.344C222.817 182.74 222.171 183.017 221.49 183.161C220.809 183.305 220.106 183.311 219.423 183.18C218.739 183.049 218.088 182.783 217.509 182.398C216.333 181.608 215.515 180.388 215.231 179.001C214.946 177.613 215.218 176.17 215.988 174.981C216.362 174.395 216.85 173.89 217.422 173.494C217.994 173.099 218.639 172.821 219.319 172.678C220 172.534 220.702 172.527 221.385 172.658C222.068 172.788 222.718 173.054 223.298 173.438C224.474 174.227 225.293 175.447 225.579 176.834C225.864 178.222 225.593 179.666 224.824 180.855Z" fill="#728801"/>
<path d="M236.584 185.999C236.366 186.341 236.082 186.636 235.748 186.866C235.415 187.097 235.039 187.259 234.643 187.343C234.246 187.427 233.837 187.431 233.438 187.354C233.04 187.278 232.661 187.123 232.324 186.899C231.639 186.439 231.163 185.728 230.997 184.92C230.831 184.113 230.989 183.272 231.437 182.579C231.655 182.237 231.939 181.943 232.272 181.712C232.606 181.481 232.982 181.319 233.378 181.235C233.775 181.152 234.185 181.148 234.583 181.224C234.981 181.3 235.36 181.455 235.698 181.679C236.382 182.139 236.859 182.85 237.024 183.658C237.19 184.466 237.032 185.307 236.584 185.999Z" fill="#728801"/>
<path d="M225.193 191.475C226.949 191.475 228.373 190.032 228.373 188.251C228.373 186.471 226.949 185.027 225.193 185.027C223.436 185.027 222.013 186.471 222.013 188.251C222.013 190.032 223.436 191.475 225.193 191.475Z" fill="#728801"/>
<path d="M235.36 182.201C234.945 182.851 234.405 183.411 233.771 183.849C233.137 184.288 232.422 184.596 231.668 184.755C230.914 184.914 230.136 184.921 229.379 184.776C228.622 184.63 227.901 184.336 227.26 183.909C225.959 183.034 225.055 181.684 224.74 180.149C224.425 178.614 224.725 177.017 225.576 175.701C225.99 175.052 226.531 174.491 227.164 174.053C227.798 173.614 228.513 173.307 229.267 173.148C230.021 172.988 230.8 172.981 231.557 173.127C232.313 173.272 233.034 173.566 233.676 173.993C234.976 174.867 235.881 176.218 236.196 177.753C236.511 179.288 236.211 180.885 235.36 182.201Z" fill="#728801"/>
<path d="M222.995 188.986C225.884 188.986 228.226 186.611 228.226 183.682C228.226 180.753 225.884 178.378 222.995 178.378C220.106 178.378 217.764 180.753 217.764 183.682C217.764 186.611 220.106 188.986 222.995 188.986Z" fill="#728801"/>
<path d="M233.542 194.093C235.698 194.093 237.446 192.321 237.446 190.134C237.446 187.948 235.698 186.175 233.542 186.175C231.386 186.175 229.638 187.948 229.638 190.134C229.638 192.321 231.386 194.093 233.542 194.093Z" fill="#728801"/>
<path d="M219.097 169.665C221.816 169.665 224.021 167.43 224.021 164.673C224.021 161.916 221.816 159.681 219.097 159.681C216.377 159.681 214.173 161.916 214.173 164.673C214.173 167.43 216.377 169.665 219.097 169.665Z" fill="#A2AD22"/>
<path d="M226.876 182.048C229.255 182.048 231.184 180.092 231.184 177.68C231.184 175.268 229.255 173.312 226.876 173.312C224.497 173.312 222.568 175.268 222.568 177.68C222.568 180.092 224.497 182.048 226.876 182.048Z" fill="#A2AD22"/>
<path d="M220.768 182.575C220.484 183.019 220.115 183.402 219.681 183.702C219.248 184.001 218.759 184.212 218.243 184.321C217.728 184.429 217.196 184.434 216.678 184.335C216.161 184.236 215.668 184.035 215.229 183.743C214.339 183.145 213.72 182.221 213.504 181.17C213.289 180.12 213.495 179.026 214.077 178.126C214.361 177.682 214.73 177.299 215.164 176.999C215.597 176.699 216.086 176.489 216.602 176.38C217.117 176.271 217.649 176.267 218.167 176.366C218.685 176.465 219.177 176.666 219.616 176.958C220.506 177.556 221.125 178.48 221.341 179.531C221.556 180.582 221.351 181.675 220.768 182.575Z" fill="#A2AD22"/>
<path d="M234.851 168.908C236.636 168.908 238.082 167.441 238.082 165.632C238.082 163.823 236.636 162.356 234.851 162.356C233.067 162.356 231.62 163.823 231.62 165.632C231.62 167.441 233.067 168.908 234.851 168.908Z" fill="#A2AD22"/>
<path d="M233.136 158.896C232.732 159.528 232.206 160.073 231.589 160.5C230.972 160.926 230.277 161.225 229.543 161.38C228.809 161.535 228.052 161.542 227.315 161.401C226.579 161.26 225.877 160.973 225.253 160.558C223.987 159.706 223.106 158.392 222.799 156.897C222.493 155.403 222.785 153.847 223.614 152.566C224.018 151.934 224.543 151.389 225.16 150.962C225.777 150.536 226.472 150.236 227.206 150.082C227.94 149.927 228.697 149.92 229.434 150.061C230.17 150.202 230.871 150.489 231.496 150.904C232.762 151.755 233.644 153.07 233.95 154.565C234.257 156.059 233.965 157.615 233.136 158.896Z" fill="#A2AD22"/>
<path d="M241.246 181.638C240.918 182.151 240.492 182.593 239.992 182.939C239.492 183.285 238.928 183.527 238.333 183.653C237.738 183.778 237.123 183.784 236.526 183.67C235.929 183.555 235.36 183.323 234.854 182.986C233.827 182.296 233.113 181.23 232.864 180.018C232.616 178.806 232.853 177.545 233.525 176.506C233.852 175.994 234.278 175.552 234.778 175.206C235.279 174.86 235.843 174.617 236.438 174.491C237.033 174.366 237.647 174.36 238.244 174.475C238.841 174.589 239.409 174.821 239.916 175.158C240.943 175.848 241.657 176.914 241.906 178.126C242.155 179.338 241.918 180.599 241.246 181.638Z" fill="#A2AD22"/>
<path d="M226.915 194.123C226.653 194.533 226.312 194.887 225.912 195.164C225.512 195.44 225.061 195.635 224.585 195.735C224.109 195.836 223.617 195.84 223.14 195.749C222.662 195.657 222.207 195.471 221.802 195.202C220.981 194.65 220.409 193.797 220.21 192.827C220.011 191.857 220.201 190.848 220.739 190.017C221.001 189.607 221.342 189.253 221.742 188.977C222.142 188.7 222.593 188.506 223.069 188.405C223.545 188.305 224.036 188.3 224.514 188.392C224.992 188.484 225.447 188.67 225.852 188.939C226.673 189.491 227.245 190.344 227.444 191.314C227.643 192.283 227.453 193.292 226.915 194.123Z" fill="#A2AD22"/>
<path d="M230.576 170.253C230.325 170.646 229.999 170.985 229.615 171.25C229.232 171.515 228.799 171.701 228.343 171.798C227.887 171.894 227.416 171.898 226.958 171.81C226.5 171.722 226.065 171.544 225.676 171.286C224.889 170.757 224.341 169.94 224.15 169.011C223.959 168.082 224.141 167.115 224.656 166.318C224.907 165.925 225.234 165.586 225.617 165.321C226.001 165.056 226.433 164.87 226.89 164.774C227.346 164.677 227.817 164.673 228.274 164.761C228.732 164.849 229.168 165.027 229.556 165.285C230.343 165.814 230.891 166.631 231.082 167.561C231.273 168.49 231.091 169.457 230.576 170.253Z" fill="#A2AD22"/>
<path d="M232.266 156.825C232.058 157.15 231.789 157.43 231.472 157.649C231.155 157.868 230.798 158.021 230.421 158.101C230.044 158.18 229.655 158.184 229.277 158.112C228.899 158.039 228.539 157.892 228.218 157.679C227.569 157.242 227.118 156.567 226.96 155.801C226.803 155.034 226.953 154.237 227.377 153.579C227.584 153.255 227.854 152.975 228.171 152.756C228.488 152.537 228.845 152.383 229.222 152.303C229.599 152.224 229.988 152.22 230.366 152.293C230.744 152.365 231.104 152.512 231.425 152.725C232.074 153.162 232.525 153.837 232.683 154.603C232.84 155.37 232.69 156.168 232.266 156.825Z" fill="#C5CE3D"/>
<path d="M222.407 166.004C222.232 166.277 222.005 166.513 221.738 166.697C221.472 166.882 221.171 167.011 220.854 167.078C220.537 167.145 220.209 167.148 219.891 167.087C219.572 167.026 219.269 166.902 218.999 166.723C218.452 166.355 218.071 165.786 217.938 165.14C217.806 164.494 217.932 163.821 218.29 163.267C218.465 162.994 218.692 162.758 218.959 162.574C219.225 162.39 219.526 162.26 219.843 162.193C220.161 162.126 220.488 162.123 220.806 162.184C221.125 162.245 221.428 162.369 221.698 162.548C222.245 162.916 222.626 163.485 222.759 164.131C222.892 164.778 222.765 165.45 222.407 166.004Z" fill="#C5CE3D"/>
<path d="M228.513 170.297C229.589 170.297 230.462 169.412 230.462 168.321C230.462 167.23 229.589 166.345 228.513 166.345C227.437 166.345 226.564 167.23 226.564 168.321C226.564 169.412 227.437 170.297 228.513 170.297Z" fill="#C5CE3D"/>
<path d="M237.232 166.407C237.13 166.567 236.997 166.704 236.842 166.812C236.686 166.919 236.511 166.995 236.326 167.034C236.14 167.073 235.949 167.075 235.763 167.039C235.578 167.004 235.401 166.932 235.243 166.827C234.924 166.612 234.701 166.281 234.624 165.904C234.547 165.526 234.621 165.134 234.83 164.811C234.932 164.652 235.064 164.514 235.22 164.406C235.375 164.299 235.551 164.223 235.736 164.184C235.921 164.145 236.112 164.143 236.298 164.179C236.484 164.214 236.66 164.286 236.818 164.391C237.138 164.606 237.36 164.937 237.437 165.314C237.515 165.691 237.441 166.084 237.232 166.407Z" fill="#C5CE3D"/>
<path d="M240.698 180.963C240.527 181.23 240.304 181.461 240.043 181.641C239.781 181.821 239.487 181.948 239.176 182.013C238.865 182.078 238.545 182.081 238.233 182.021C237.921 181.961 237.624 181.839 237.36 181.663C236.824 181.303 236.451 180.746 236.321 180.113C236.191 179.48 236.315 178.822 236.666 178.279C236.837 178.012 237.06 177.781 237.321 177.601C237.583 177.421 237.877 177.295 238.188 177.229C238.499 177.164 238.819 177.162 239.131 177.222C239.442 177.282 239.739 177.403 240.003 177.579C240.539 177.94 240.913 178.496 241.043 179.129C241.173 179.762 241.049 180.421 240.698 180.963Z" fill="#C5CE3D"/>
<path d="M229.331 178.628C229.189 178.85 229.004 179.042 228.788 179.191C228.571 179.341 228.326 179.446 228.069 179.501C227.811 179.555 227.545 179.557 227.286 179.507C227.027 179.458 226.781 179.357 226.561 179.211C226.116 178.912 225.807 178.45 225.699 177.925C225.591 177.4 225.694 176.853 225.985 176.403C226.127 176.181 226.312 175.99 226.529 175.84C226.745 175.69 226.99 175.585 227.247 175.531C227.505 175.476 227.771 175.474 228.03 175.523C228.289 175.573 228.535 175.673 228.754 175.819C229.199 176.118 229.509 176.58 229.617 177.106C229.725 177.631 229.622 178.178 229.331 178.628Z" fill="#C5CE3D"/>
<path d="M218.446 182.469C219.636 182.469 220.6 181.491 220.6 180.285C220.6 179.079 219.636 178.101 218.446 178.101C217.256 178.101 216.292 179.079 216.292 180.285C216.292 181.491 217.256 182.469 218.446 182.469Z" fill="#C5CE3D"/>
<path d="M226.166 192.816C226.046 193.004 225.89 193.166 225.707 193.293C225.523 193.42 225.316 193.509 225.098 193.555C224.88 193.601 224.655 193.603 224.436 193.561C224.217 193.519 224.009 193.434 223.823 193.31C223.446 193.057 223.184 192.666 223.093 192.222C223.002 191.778 223.089 191.315 223.335 190.934C223.455 190.746 223.612 190.584 223.795 190.458C223.978 190.331 224.185 190.242 224.403 190.196C224.621 190.15 224.846 190.148 225.065 190.19C225.284 190.232 225.492 190.317 225.678 190.44C226.055 190.693 226.317 191.084 226.408 191.528C226.5 191.973 226.413 192.435 226.166 192.816Z" fill="#C5CE3D"/>
<path d="M190.041 82.801L192.686 82.694L192.06 84.516L189.455 84.277L190.041 82.801Z" fill="#728801"/>
<path d="M211.834 88.458L215.869 85.917L215.757 88.081L213.249 89.399L211.834 88.458Z" fill="#728801"/>
<path d="M205.655 106.55L207.142 105.673L207.625 107.487L205.655 106.55Z" fill="#728801"/>
<path d="M179.037 102.473C179.161 101.997 180.564 101.249 180.564 101.249L181.18 103.711L179.037 102.473Z" fill="#728801"/>
<path d="M171.91 70.438L173.095 69.174L173.76 72.4139L172.397 72.8139L171.91 70.438Z" fill="#A2AD22"/>
<path d="M226.59 94.661L227.863 93.641L228.263 94.532L227.02 95.696L226.59 94.661Z" fill="#A2AD22"/>
<path d="M222.506 115.203L223.835 114.097L223.198 116.41L222.506 115.203Z" fill="#A2AD22"/>
<path d="M233.321 111.946L235.274 110.633L235.711 112.043L234.411 113.669L233.321 111.946Z" fill="#A2AD22"/>
<path d="M192.887 107.327C193.656 106.82 194.45 106.353 195.266 105.927L194.088 108.127L192.887 107.327Z" fill="#A2AD22"/>
<path d="M160.062 85.63L160.622 84.385L161.293 86.572L160.243 86.872L160.062 85.63Z" fill="#A2AD22"/>
<path d="M170.779 65.638C170.779 65.638 172.253 64.876 172.079 65.138C171.902 65.7512 171.783 66.3796 171.723 67.015L170.779 65.638Z" fill="#A2AD22"/>
<path d="M194.922 79.33C194.922 79.33 196.281 78.367 196.284 78.742C196.287 79.117 196.322 80.011 196.322 80.011L194.922 79.33Z" fill="#A2AD22"/>
<path d="M187.498 98.3979L188.46 97.6689L188.868 98.9349L188.276 99.6609L187.498 98.3979Z" fill="#A2AD22"/>
<path d="M153.125 82.511C153.038 82.6471 152.924 82.7645 152.791 82.8564C152.658 82.9482 152.509 83.0128 152.35 83.0463C152.192 83.0798 152.029 83.0815 151.87 83.0515C151.711 83.0214 151.56 82.96 151.425 82.871C151.151 82.687 150.961 82.4028 150.894 82.0796C150.828 81.7565 150.891 81.4201 151.07 81.143C151.157 81.007 151.271 80.8896 151.404 80.7977C151.537 80.7058 151.687 80.6413 151.845 80.6078C152.003 80.5743 152.166 80.5725 152.325 80.6026C152.484 80.6327 152.635 80.694 152.77 80.783C153.044 80.9673 153.234 81.2515 153.301 81.5745C153.367 81.8976 153.304 82.2339 153.125 82.511Z" fill="#612D17"/>
<path d="M143.889 80.102C143.86 80.1476 143.822 80.1869 143.777 80.2176C143.733 80.2483 143.683 80.2699 143.63 80.281C143.577 80.292 143.522 80.2924 143.469 80.2822C143.416 80.2719 143.366 80.2511 143.321 80.221C143.229 80.1597 143.166 80.065 143.144 79.9572C143.122 79.8494 143.143 79.7373 143.203 79.645C143.232 79.5995 143.27 79.5602 143.314 79.5294C143.359 79.4987 143.409 79.4771 143.462 79.4659C143.514 79.4548 143.569 79.4542 143.622 79.4644C143.675 79.4745 143.726 79.4951 143.771 79.525C143.862 79.5865 143.926 79.6814 143.948 79.7894C143.97 79.8973 143.949 80.0096 143.889 80.102Z" fill="#612D17"/>
<path d="M219.245 135.422C219.143 135.581 219.011 135.719 218.855 135.827C218.699 135.934 218.524 136.01 218.339 136.049C218.154 136.088 217.963 136.09 217.777 136.054C217.591 136.018 217.414 135.946 217.257 135.841C216.937 135.626 216.715 135.295 216.637 134.918C216.56 134.541 216.634 134.148 216.843 133.825C216.945 133.666 217.077 133.528 217.233 133.42C217.388 133.313 217.564 133.237 217.749 133.198C217.934 133.159 218.125 133.157 218.311 133.193C218.497 133.229 218.673 133.301 218.831 133.406C219.151 133.621 219.373 133.952 219.451 134.329C219.528 134.706 219.454 135.099 219.245 135.422Z" fill="#612D17"/>
<path d="M244.518 98.9931C244.416 99.1525 244.283 99.2901 244.128 99.3978C243.972 99.5054 243.797 99.581 243.612 99.6201C243.426 99.6592 243.235 99.661 243.049 99.6255C242.864 99.5899 242.687 99.5177 242.529 99.4131C242.21 99.1982 241.987 98.8667 241.91 98.4897C241.832 98.1127 241.906 97.7203 242.115 97.3971C242.217 97.2376 242.349 97.1 242.505 96.9923C242.661 96.8847 242.836 96.8091 243.021 96.77C243.207 96.7309 243.398 96.7291 243.584 96.7646C243.769 96.8002 243.946 96.8724 244.104 96.9771C244.423 97.1919 244.646 97.5234 244.723 97.9004C244.8 98.2774 244.727 98.6698 244.518 98.9931Z" fill="#612D17"/>
<path d="M118.38 97.7431C119.003 97.7431 119.508 97.2309 119.508 96.5991C119.508 95.9673 119.003 95.4551 118.38 95.4551C117.757 95.4551 117.252 95.9673 117.252 96.5991C117.252 97.2309 117.757 97.7431 118.38 97.7431Z" fill="#612D17"/>
<path d="M241.656 139.392C239.601 137.362 249.173 120.666 252.245 119.35C255.317 118.034 261.268 123.662 260.613 127.893C260.316 129.806 243.626 141.338 241.656 139.392Z" fill="#F2530E"/>
<path d="M254.105 132.727C253.198 132.283 252.177 132.125 251.178 132.274C249.331 132.697 247.551 133.37 245.886 134.274C246.229 132.306 246.07 130.283 245.424 128.392C242.991 132.704 241.029 137.259 241.424 138.926C241.87 139.177 242.337 139.39 242.819 139.563C245.834 139.09 253.178 134.419 257.431 131.063C256.332 131.615 255.229 132.167 254.105 132.727Z" fill="#D04C0E"/>
<path d="M246.543 132.346C247.627 131.938 248.758 131.664 249.909 131.531C250.86 131.415 251.817 131.361 252.775 131.369C254.696 129.897 256.512 128.293 258.21 126.569C256.664 126.011 255.301 125.04 254.268 123.762C253.234 122.484 252.571 120.947 252.349 119.319C252.316 119.331 252.278 119.334 252.249 119.347C250.857 119.947 248.129 123.702 245.754 127.821C246.131 129.307 246.395 130.82 246.543 132.346Z" fill="#FF7406"/>
<path d="M258.863 124.884C257.846 124.642 256.919 124.117 256.188 123.37C255.458 122.622 254.955 121.683 254.737 120.661C256.708 121.301 257.961 122.993 258.863 124.884Z" fill="#D04C0E"/>
<path d="M252.084 121.268C250.834 124.378 248.919 127.176 246.473 129.468C247.068 127.884 247.79 126.351 248.63 124.882C249.472 123.416 250.657 122.175 252.084 121.268Z" fill="#F48D06"/>
<path d="M223.712 139.325C222.565 136.746 237.09 125.085 240.333 125.003C243.576 124.921 246.988 132.163 244.909 135.755C243.97 137.38 224.813 141.796 223.712 139.325Z" fill="#F2530E"/>
<path d="M243.198 133.691C241.995 132.631 241.102 131.263 240.616 129.735C240.13 128.206 240.068 126.575 240.437 125.014C240.402 125.014 240.368 125.001 240.337 125.002C237.485 125.076 225.911 134.102 223.937 138.03C230.579 137.852 237.121 136.378 243.198 133.691Z" fill="#FF7406"/>
<path d="M244.382 132.399C243.546 131.814 242.891 131.006 242.493 130.066C242.094 129.127 241.968 128.095 242.128 127.087C242.845 127.772 243.415 128.597 243.803 129.511C244.19 130.424 244.387 131.407 244.382 132.399Z" fill="#D04C0E"/>
<path d="M238.862 127.82C235.371 131.534 231.103 134.431 226.362 136.303C228.08 134.388 229.95 132.616 231.955 131.003C233.963 129.394 236.334 128.301 238.862 127.82Z" fill="#F48D06"/>
<path d="M233.435 144.76C232.635 142.05 248.555 132.442 251.779 132.796C255.003 133.15 257.44 140.786 254.912 144.068C253.767 145.554 234.198 147.358 233.435 144.76Z" fill="#F2530E"/>
<path d="M253.485 141.793C252.432 140.582 251.727 139.108 251.445 137.529C251.163 135.949 251.315 134.322 251.885 132.822C251.85 132.816 251.817 132.8 251.785 132.796C248.948 132.485 236.297 139.877 233.833 143.507C240.433 144.222 247.109 143.64 253.485 141.793Z" fill="#FF7406"/>
<path d="M254.826 140.671C254.074 139.98 253.531 139.091 253.259 138.107C252.987 137.122 252.996 136.081 253.286 135.102C253.907 135.877 254.364 136.771 254.629 137.728C254.894 138.685 254.961 139.687 254.826 140.671Z" fill="#D04C0E"/>
<path d="M249.953 135.392C246.008 138.605 241.4 140.903 236.461 142.122C238.414 140.456 240.499 138.951 242.695 137.622C244.895 136.296 247.387 135.53 249.953 135.392Z" fill="#F48D06"/>
<path d="M234.422 151.189C235.146 149.016 250.117 150.234 252.086 152.001C254.055 153.768 252.133 159.976 248.942 160.944C247.498 161.382 233.727 153.272 234.422 151.189Z" fill="#F2530E"/>
<path d="M249.051 158.762C248.909 157.47 249.121 156.164 249.666 154.983C250.21 153.803 251.066 152.793 252.141 152.062C252.12 152.042 252.106 152.016 252.085 151.997C250.353 150.443 238.569 149.314 235.26 150.543C239.281 154.15 243.965 156.941 249.051 158.762Z" fill="#FF7406"/>
<path d="M250.457 158.658C250.277 157.85 250.328 157.008 250.604 156.228C250.879 155.447 251.368 154.76 252.015 154.244C252.069 155.047 251.959 155.853 251.691 156.612C251.423 157.371 251.003 158.067 250.457 158.658Z" fill="#D04C0E"/>
<path d="M249.677 152.849C245.57 153.095 241.459 152.424 237.643 150.883C239.706 150.711 241.78 150.707 243.843 150.874C245.92 151.045 247.923 151.723 249.677 152.849Z" fill="#F48D06"/>
<path d="M244.342 145.668C244.63 143.393 259.542 141.596 261.817 142.936C264.092 144.276 263.417 150.746 260.473 152.336C259.144 153.048 244.066 147.848 244.342 145.668Z" fill="#F2530E"/>
<path d="M260.156 150.169C259.768 148.928 259.723 147.604 260.028 146.34C260.332 145.076 260.974 143.918 261.884 142.989C261.861 142.974 261.841 142.95 261.817 142.936C259.817 141.759 248.044 143.006 245.039 144.872C249.686 147.604 254.821 149.403 260.156 150.169Z" fill="#FF7406"/>
<path d="M261.515 149.786C261.182 149.027 261.069 148.191 261.187 147.371C261.305 146.551 261.651 145.781 262.184 145.147C262.393 145.925 262.442 146.738 262.327 147.535C262.212 148.333 261.936 149.098 261.515 149.786Z" fill="#D04C0E"/>
<path d="M259.621 144.247C255.647 145.309 251.485 145.472 247.44 144.724C249.429 144.143 251.462 143.725 253.519 143.476C255.585 143.229 257.681 143.494 259.621 144.247Z" fill="#F48D06"/>
<path d="M253.371 163.996C254.096 163.748 254.89 163.795 255.581 164.128C257.075 165.014 256.981 167.178 256.052 168.458C255.576 169.042 254.902 169.431 254.157 169.548C253.413 169.666 252.652 169.504 252.019 169.095C251.062 168.589 249.682 167.288 250.286 166.148C251.013 165.074 252.112 164.307 253.371 163.996Z" fill="#F59423"/>
<path d="M253.438 166.003C253.289 165.858 253.105 165.754 252.903 165.701C252.702 165.648 252.49 165.649 252.289 165.703C251.569 165.799 250.871 166.016 250.224 166.345C250.136 166.606 250.131 166.888 250.211 167.151C250.716 167.299 251.234 167.4 251.758 167.451C252.222 167.529 252.698 167.451 253.113 167.229C253.317 167.108 253.465 166.912 253.526 166.682C253.586 166.453 253.555 166.209 253.438 166.003Z" fill="#E37603"/>
<path d="M256.052 168.458C256.976 167.178 257.075 165.014 255.581 164.128C255.383 164.018 255.169 163.943 254.946 163.906C255.209 164.284 255.423 164.693 255.583 165.125C255.915 166.062 255.235 169.389 252.995 169.299C252.229 169.268 250.995 167.976 250.362 167.523C250.76 168.189 251.333 168.732 252.019 169.095C252.651 169.504 253.413 169.666 254.157 169.548C254.901 169.431 255.576 169.042 256.052 168.458Z" fill="#FFB337"/>
<path d="M229.547 203.874C230.272 203.625 231.066 203.673 231.757 204.006C233.251 204.893 233.157 207.057 232.228 208.336C231.752 208.921 231.078 209.309 230.333 209.427C229.589 209.544 228.827 209.383 228.195 208.973C227.238 208.473 225.858 207.166 226.462 206.026C227.189 204.952 228.288 204.186 229.547 203.874Z" fill="#F59423"/>
<path d="M229.614 205.881C229.465 205.736 229.28 205.632 229.079 205.579C228.878 205.526 228.666 205.527 228.465 205.581C227.745 205.677 227.047 205.894 226.4 206.224C226.311 206.484 226.307 206.766 226.388 207.029C226.893 207.177 227.411 207.277 227.935 207.329C228.399 207.406 228.875 207.328 229.29 207.106C229.493 206.985 229.641 206.789 229.702 206.56C229.762 206.331 229.731 206.087 229.614 205.881Z" fill="#E37603"/>
<path d="M232.228 208.338C233.152 207.059 233.251 204.894 231.757 204.008C231.559 203.899 231.345 203.824 231.122 203.786C231.385 204.164 231.6 204.573 231.76 205.005C232.091 205.942 231.412 209.27 229.171 209.179C228.405 209.148 227.171 207.855 226.539 207.402C226.937 208.068 227.509 208.612 228.195 208.974C228.827 209.384 229.589 209.546 230.333 209.428C231.078 209.311 231.753 208.923 232.228 208.338Z" fill="#FFB337"/>
<path d="M243.233 184.229C243.958 183.981 244.752 184.028 245.442 184.361C246.942 185.248 246.842 187.412 245.914 188.691C245.438 189.276 244.764 189.664 244.019 189.782C243.275 189.899 242.513 189.738 241.881 189.328C240.924 188.822 239.544 187.521 240.149 186.381C240.876 185.307 241.974 184.541 243.233 184.229Z" fill="#F59423"/>
<path d="M243.298 186.238C243.149 186.093 242.964 185.988 242.763 185.936C242.561 185.883 242.35 185.884 242.149 185.938C241.429 186.033 240.731 186.25 240.084 186.58C239.995 186.841 239.99 187.123 240.071 187.386C240.576 187.534 241.094 187.634 241.618 187.686C242.081 187.764 242.558 187.686 242.973 187.464C243.176 187.343 243.325 187.147 243.385 186.917C243.446 186.688 243.415 186.444 243.298 186.238Z" fill="#E37603"/>
<path d="M245.914 188.691C246.839 187.411 246.937 185.247 245.442 184.361C245.244 184.251 245.029 184.176 244.807 184.139C245.07 184.517 245.285 184.926 245.445 185.358C245.777 186.295 245.097 189.622 242.857 189.532C242.091 189.501 240.857 188.209 240.224 187.756C240.621 188.422 241.195 188.966 241.881 189.328C242.513 189.738 243.275 189.899 244.019 189.782C244.764 189.664 245.438 189.276 245.914 188.691Z" fill="#FFB337"/>
<path d="M256.115 158.601C256.634 158.152 257.309 157.925 257.994 157.97C259.525 158.206 260.15 160.037 259.799 161.41C259.596 162.055 259.164 162.602 258.584 162.949C258.005 163.296 257.318 163.418 256.654 163.292C255.694 163.192 254.122 162.574 254.254 161.423C254.509 160.287 255.171 159.283 256.115 158.601Z" fill="#F59423"/>
<path d="M256.826 160.247C256.654 160.176 256.466 160.151 256.281 160.174C256.096 160.197 255.92 160.268 255.771 160.38C255.204 160.701 254.695 161.116 254.265 161.606C254.276 161.851 254.365 162.087 254.518 162.279C254.987 162.232 255.45 162.141 255.901 162.007C256.313 161.916 256.684 161.691 256.955 161.368C257.083 161.201 257.141 160.991 257.117 160.782C257.093 160.572 256.989 160.381 256.826 160.247Z" fill="#E37603"/>
<path d="M259.798 161.41C260.148 160.037 259.525 158.205 257.993 157.97C257.793 157.945 257.59 157.954 257.393 157.998C257.735 158.224 258.047 158.493 258.321 158.798C258.902 159.465 259.421 162.459 257.531 163.135C256.885 163.366 255.431 162.707 254.764 162.541C255.312 162.961 255.966 163.221 256.653 163.292C257.316 163.418 258.003 163.296 258.583 162.949C259.163 162.602 259.595 162.055 259.798 161.41Z" fill="#FFB337"/>
<path d="M249.049 162.548C249.706 162.352 250.415 162.424 251.019 162.748C252.319 163.597 252.153 165.528 251.279 166.635C250.832 167.14 250.214 167.461 249.545 167.538C248.875 167.615 248.2 167.441 247.651 167.05C246.815 166.562 245.63 165.35 246.212 164.35C246.902 163.419 247.913 162.777 249.049 162.548Z" fill="#F59423"/>
<path d="M249.034 164.345C248.907 164.209 248.746 164.108 248.568 164.053C248.391 163.998 248.201 163.989 248.019 164.029C247.373 164.087 246.74 164.254 246.149 164.523C246.061 164.753 246.046 165.005 246.108 165.244C246.555 165.395 247.014 165.504 247.48 165.569C247.892 165.656 248.32 165.605 248.699 165.422C248.884 165.321 249.023 165.152 249.085 164.951C249.148 164.75 249.129 164.533 249.034 164.345Z" fill="#E37603"/>
<path d="M251.279 166.638C252.153 165.53 252.321 163.6 251.019 162.751C250.846 162.645 250.657 162.57 250.459 162.528C250.68 162.876 250.857 163.25 250.984 163.642C251.244 164.492 250.514 167.442 248.515 167.273C247.832 167.216 246.773 166.013 246.229 165.585C246.559 166.195 247.051 166.703 247.651 167.053C248.2 167.443 248.875 167.617 249.544 167.54C250.214 167.464 250.832 167.142 251.279 166.638Z" fill="#FFB337"/>
<path d="M223.06 203.426C223.442 204.004 223.589 204.707 223.468 205.39C223.068 206.907 221.2 207.33 219.893 206.822C219.276 206.534 218.785 206.033 218.51 205.411C218.235 204.788 218.195 204.088 218.398 203.438C218.598 202.482 219.386 200.968 220.498 201.228C221.594 201.619 222.507 202.402 223.06 203.426Z" fill="#F59423"/>
<path d="M221.368 203.958C221.457 203.792 221.503 203.606 221.501 203.418C221.499 203.23 221.449 203.045 221.357 202.881C221.107 202.275 220.759 201.716 220.325 201.225C220.082 201.209 219.84 201.272 219.636 201.404C219.63 201.881 219.667 202.358 219.747 202.828C219.789 203.251 219.968 203.649 220.255 203.962C220.328 204.035 220.415 204.093 220.511 204.132C220.606 204.172 220.709 204.192 220.812 204.191C220.916 204.191 221.018 204.17 221.113 204.13C221.209 204.09 221.295 204.032 221.368 203.958Z" fill="#E37603"/>
<path d="M219.898 206.822C221.205 207.33 223.069 206.907 223.473 205.39C223.519 205.191 223.532 204.986 223.512 204.783C223.253 205.102 222.955 205.386 222.624 205.629C221.904 206.139 218.912 206.329 218.462 204.345C218.309 203.667 219.117 202.28 219.355 201.623C218.877 202.13 218.546 202.757 218.398 203.438C218.196 204.088 218.236 204.789 218.512 205.412C218.788 206.034 219.28 206.535 219.898 206.822Z" fill="#FFB337"/>
<path d="M226.872 198.758C227.501 199.042 227.995 199.559 228.249 200.201C228.705 201.701 227.349 203.067 225.976 203.343C225.306 203.432 224.627 203.271 224.067 202.893C223.507 202.514 223.106 201.943 222.939 201.288C222.61 200.369 222.477 198.664 223.556 198.288C224.681 198.026 225.864 198.194 226.872 198.758Z" fill="#F59423"/>
<path d="M225.719 200.122C225.708 199.935 225.649 199.753 225.548 199.595C225.448 199.436 225.308 199.306 225.143 199.216C224.614 198.838 224.024 198.553 223.399 198.372C223.185 198.491 223.014 198.674 222.91 198.896C223.155 199.303 223.437 199.687 223.752 200.042C224.009 200.377 224.37 200.617 224.777 200.727C224.982 200.771 225.196 200.732 225.373 200.619C225.549 200.505 225.674 200.327 225.719 200.122Z" fill="#E37603"/>
<path d="M225.975 203.343C227.348 203.067 228.704 201.701 228.248 200.2C228.184 200.007 228.087 199.825 227.963 199.664C227.911 200.075 227.808 200.479 227.655 200.864C227.314 201.684 224.881 203.464 223.455 202.026C222.969 201.536 222.925 199.926 222.781 199.24C222.646 199.925 222.699 200.634 222.935 201.292C223.103 201.947 223.505 202.517 224.065 202.895C224.625 203.273 225.305 203.432 225.975 203.343Z" fill="#FFB337"/>
<path d="M251.129 175.884C251.795 176.059 252.366 176.488 252.721 177.078C253.413 178.478 252.297 180.055 250.987 180.556C250.342 180.756 249.647 180.711 249.033 180.43C248.419 180.15 247.93 179.653 247.659 179.035C247.185 178.182 246.778 176.523 247.781 175.968C248.847 175.523 250.042 175.493 251.129 175.884Z" fill="#F59423"/>
<path d="M250.212 177.421C250.187 177.046 249.832 176.79 249.497 176.621C248.914 176.336 248.286 176.153 247.641 176.079C247.448 176.232 247.308 176.442 247.241 176.679C247.549 177.039 247.889 177.37 248.257 177.669C248.566 177.955 248.96 178.13 249.379 178.169C249.588 178.178 249.793 178.105 249.948 177.965C250.104 177.825 250.199 177.63 250.212 177.421Z" fill="#E37603"/>
<path d="M250.987 180.556C252.297 180.056 253.414 178.482 252.721 177.078C252.626 176.898 252.501 176.735 252.352 176.596C252.367 177.009 252.33 177.422 252.242 177.826C252.042 178.691 249.926 180.849 248.291 179.671C247.732 179.271 247.427 177.686 247.175 177.035C247.152 177.733 247.32 178.424 247.659 179.035C247.93 179.653 248.419 180.15 249.033 180.43C249.647 180.711 250.342 180.756 250.987 180.556Z" fill="#FFB337"/>
<path d="M221.82 143.562C222.059 142.915 222.541 142.386 223.164 142.088C224.616 141.543 226.037 142.839 226.385 144.214C226.515 144.88 226.398 145.57 226.057 146.157C225.716 146.744 225.174 147.186 224.531 147.403C223.643 147.788 221.972 148.016 221.537 146.945C221.218 145.82 221.319 144.618 221.82 143.562Z" fill="#F59423"/>
<path d="M223.227 144.654C222.855 144.639 222.566 144.968 222.368 145.287C222.024 145.846 221.776 146.458 221.634 147.099C221.761 147.308 221.951 147.471 222.177 147.565C222.564 147.293 222.925 146.987 223.257 146.649C223.574 146.367 223.79 145.989 223.874 145.573C223.908 145.366 223.86 145.153 223.739 144.981C223.618 144.809 223.434 144.691 223.227 144.654Z" fill="#E37603"/>
<path d="M226.385 144.214C226.037 142.84 224.616 141.543 223.164 142.088C222.976 142.164 222.803 142.272 222.652 142.407C223.058 142.437 223.46 142.519 223.846 142.651C224.673 142.951 226.557 145.315 225.224 146.835C224.768 147.354 223.184 147.49 222.519 147.673C223.201 147.771 223.898 147.678 224.531 147.403C225.173 147.186 225.716 146.744 226.057 146.157C226.398 145.57 226.514 144.88 226.385 144.214Z" fill="#FFB337"/>
<path d="M171.362 151.964L214.531 192.415C217.694 195.378 221.131 199.703 219.148 203.555C218.613 204.591 217.735 205.409 216.664 205.869C215.592 206.328 214.394 206.401 213.275 206.074C212.156 205.747 211.186 205.04 210.531 204.076C209.875 203.112 209.576 201.95 209.684 200.789C209.778 202.693 209.33 204.584 208.39 206.242C207.451 207.9 206.059 209.257 204.378 210.154C202.696 211.052 200.795 211.453 198.894 211.31C196.993 211.168 195.173 210.488 193.644 209.35C198.491 202.358 194.221 191.82 186.669 187.901C179.117 183.982 169.814 185.335 161.992 188.68C166.292 195.748 170.683 202.924 176.83 208.462C182.977 214 191.245 217.762 199.439 216.62C204.577 215.901 210.305 213.45 214.545 216.439C215.918 217.406 216.896 218.836 217.298 220.467C217.7 222.098 217.498 223.819 216.731 225.312C215.964 226.806 214.682 227.973 213.122 228.596C211.563 229.219 209.83 229.258 208.245 228.704C209.488 231.443 210.756 234.304 210.651 237.313C210.546 240.322 208.61 243.491 205.637 243.949C200.884 244.682 198.155 238.979 195.62 234.892C190.033 225.887 178.898 221.62 168.306 221.298C157.714 220.976 147.343 223.952 137.034 226.398C126.725 228.844 115.929 230.798 105.598 228.442C100.162 227.201 95.0567 224.805 90.6296 221.415C86.2026 218.026 82.5573 213.722 79.9417 208.798C77.3261 203.874 75.8015 198.444 75.4716 192.878C75.1417 187.312 76.0142 181.741 78.0298 176.542C82.3008 165.526 93.4058 161.329 101.817 153.032C98.1098 149.287 95.4672 144.622 94.1604 139.517C92.8537 134.413 92.93 129.052 94.3816 123.986C95.8332 118.921 98.6077 114.333 102.42 110.695C106.232 107.057 110.944 104.5 116.072 103.287C129.462 100.119 143.646 106.77 153.122 116.746C162.598 126.722 161.322 142.556 171.362 151.964Z" fill="#471C0B"/>
<path d="M195.716 190.17C195.716 190.17 181.87 178.844 156.58 171.115C117.805 159.265 79.3143 122.424 111.89 94.989C148.135 64.463 172.084 106.155 182.506 134.281C188.786 151.233 196.118 167.776 204.461 183.814L195.716 190.17Z" fill="#C15E27"/>
<path d="M195.716 190.17L200.464 195.743C200.464 195.743 184.839 204.296 196.095 209.223C207.351 214.15 210.383 197.09 210.383 197.09C210.383 197.09 223.747 209.703 226.066 196.778C228.385 183.853 210.24 189.878 210.24 189.878L204.462 183.811L195.716 190.17Z" fill="#C6A67D"/>
<path d="M205.22 186.63C203 188.228 200.687 189.693 198.293 191.017C199.63 192.581 200.877 194.153 202.227 195.717C199.581 197.171 197.089 198.891 194.791 200.849C193.783 201.565 193.024 202.579 192.622 203.749C192.168 205.636 193.593 207.559 195.354 208.373C198.747 209.941 202.93 208.254 205.379 205.429C207.828 202.604 208.94 198.895 209.988 195.306C211.723 197.143 213.72 198.713 215.915 199.965C216.96 200.542 218.125 200.869 219.318 200.919C220.51 200.97 221.699 200.743 222.789 200.257C223.797 199.708 224.62 198.874 225.156 197.859C225.692 196.844 225.917 195.693 225.802 194.551C225.402 191.176 221.942 188.796 218.549 188.595C215.156 188.394 211.896 189.883 208.979 191.626C208.582 189.938 206.498 188.295 205.22 186.63Z" fill="#DCC496"/>
<path d="M122.749 91.097C111.094 92.967 101.325 102.662 101.034 114.797C100.975 118.299 101.692 121.77 103.133 124.963C104.573 128.155 106.702 130.989 109.367 133.262C115.605 138.504 124.038 140.121 131.34 143.735C141.24 148.635 148.824 157.071 156.74 164.777C162.004 169.903 185.84 191.044 192.961 180.093C194.885 177.134 193.578 173.224 192.203 169.973C186.962 157.586 181.358 145.36 175.391 133.297C170.035 122.468 164.243 111.578 155.547 103.192C146.851 94.806 134.678 89.183 122.749 91.097Z" fill="#D97128"/>
<path d="M200.115 208.283C198.939 208.615 197.684 208.528 196.565 208.037C196.012 207.787 195.526 207.411 195.144 206.939C194.762 206.467 194.495 205.913 194.365 205.32C193.992 203.336 195.417 201.473 196.935 200.142C199.786 197.649 203.241 195.949 206.955 195.211C206.893 197.849 206.423 200.462 205.562 202.956C205.121 204.201 204.401 205.328 203.457 206.252C202.513 207.175 201.37 207.87 200.115 208.283Z" fill="#ECE2C9"/>
<path d="M223.938 192.446C221.924 190.436 216.838 189.522 216.504 193.317C216.476 194.06 216.619 194.799 216.922 195.477C217.226 196.155 217.681 196.754 218.254 197.228C218.826 197.702 219.5 198.038 220.223 198.209C220.946 198.381 221.699 198.383 222.423 198.217C223.2 198.04 223.893 197.604 224.388 196.979C224.883 196.355 225.151 195.581 225.146 194.784C225.03 193.887 224.602 193.06 223.938 192.446Z" fill="#ECE2C9"/>
<path d="M169.391 166.113C170.431 166.208 171.479 166.085 172.468 165.753C173.458 165.421 174.367 164.887 175.139 164.184C184.33 156.197 170.421 134.798 165.05 128.425C155.818 117.492 144.277 108.741 131.258 102.803C126.691 100.725 121.664 98.974 116.734 99.909C113.525 100.513 110.603 102.154 108.417 104.579C106.231 107.005 104.902 110.082 104.634 113.336C104.122 122.236 111.047 125.002 117.76 128.368C127.325 133.238 136.309 139.174 144.541 146.062C149.349 150.038 160.224 165.371 169.391 166.113Z" fill="#E1832B"/>
<path d="M115.988 130.581C116.281 130.575 116.569 130.656 116.816 130.814C117.062 130.972 117.257 131.199 117.374 131.468C117.492 131.736 117.527 132.033 117.476 132.322C117.424 132.61 117.288 132.877 117.085 133.088C116.883 133.299 116.621 133.445 116.335 133.508C116.049 133.571 115.751 133.548 115.478 133.441C115.205 133.334 114.97 133.149 114.803 132.909C114.635 132.668 114.543 132.384 114.537 132.091C114.529 131.698 114.678 131.319 114.95 131.036C115.222 130.752 115.595 130.589 115.988 130.581Z" fill="#ED913A"/>
<path d="M122.781 125.681C122.959 125.678 123.134 125.727 123.284 125.823C123.433 125.919 123.551 126.057 123.623 126.22C123.694 126.384 123.715 126.564 123.684 126.739C123.653 126.914 123.57 127.076 123.447 127.204C123.324 127.333 123.165 127.422 122.991 127.46C122.818 127.498 122.636 127.484 122.471 127.419C122.305 127.355 122.162 127.242 122.06 127.097C121.958 126.951 121.902 126.778 121.898 126.6C121.896 126.482 121.916 126.364 121.96 126.254C122.003 126.143 122.067 126.043 122.149 125.957C122.231 125.872 122.329 125.804 122.438 125.756C122.546 125.709 122.663 125.683 122.781 125.681Z" fill="#ED913A"/>
<path d="M161.998 131.824C162.634 131.811 163.26 131.988 163.796 132.331C164.333 132.674 164.755 133.169 165.01 133.752C165.265 134.335 165.342 134.981 165.23 135.608C165.118 136.234 164.823 136.814 164.382 137.273C163.941 137.732 163.374 138.05 162.752 138.186C162.13 138.323 161.482 138.272 160.889 138.04C160.296 137.809 159.785 137.406 159.421 136.884C159.057 136.362 158.856 135.743 158.843 135.107C158.826 134.253 159.149 133.428 159.741 132.812C160.332 132.197 161.144 131.841 161.998 131.824Z" fill="#ED913A"/>
<path d="M168.051 158.008C168.28 158.003 168.506 158.067 168.699 158.19C168.892 158.314 169.045 158.492 169.137 158.702C169.229 158.912 169.256 159.144 169.216 159.37C169.176 159.595 169.07 159.804 168.911 159.97C168.752 160.135 168.548 160.249 168.324 160.299C168.1 160.348 167.867 160.33 167.653 160.246C167.44 160.163 167.256 160.018 167.125 159.83C166.993 159.642 166.921 159.419 166.916 159.19C166.913 159.038 166.94 158.887 166.995 158.745C167.051 158.603 167.133 158.474 167.239 158.364C167.344 158.254 167.47 158.166 167.61 158.105C167.749 158.044 167.899 158.011 168.051 158.008Z" fill="#ED913A"/>
<path d="M109.485 115.085C108.77 114.201 108.317 113.135 108.175 112.008C108.034 110.88 108.211 109.735 108.685 108.702C109.682 106.639 111.434 105.038 113.579 104.232C115.711 103.444 117.979 103.092 120.249 103.197C128.123 103.324 135.66 106.416 141.354 111.855C147.049 117.295 150.482 124.682 150.969 132.542C143.676 126.296 135.052 121.8 125.756 119.395C122.784 118.639 119.766 118.075 116.722 117.705C114.116 117.381 111.229 117.05 109.485 115.085Z" fill="#ED913A"/>
<path d="M135.843 96.058C136.072 96.0533 136.298 96.1167 136.491 96.2402C136.684 96.3636 136.837 96.5417 136.929 96.7517C137.021 96.9617 137.048 97.1943 137.008 97.42C136.968 97.6458 136.862 97.8545 136.703 98.0198C136.544 98.1852 136.339 98.2996 136.115 98.3488C135.892 98.398 135.658 98.3796 135.444 98.296C135.231 98.2124 135.047 98.0673 134.916 97.8792C134.785 97.691 134.713 97.4682 134.708 97.239C134.705 97.0869 134.732 96.9357 134.788 96.7941C134.843 96.6524 134.926 96.523 135.031 96.4134C135.136 96.3037 135.262 96.2159 135.402 96.1549C135.541 96.0939 135.691 96.061 135.843 96.058Z" fill="#C15E27"/>
<path d="M180.898 171.092C181.26 171.085 181.616 171.185 181.921 171.38C182.225 171.575 182.466 171.856 182.611 172.188C182.756 172.519 182.8 172.886 182.736 173.243C182.673 173.599 182.505 173.929 182.254 174.19C182.003 174.451 181.681 174.631 181.327 174.709C180.974 174.787 180.605 174.758 180.268 174.626C179.931 174.494 179.64 174.265 179.433 173.968C179.226 173.672 179.112 173.32 179.105 172.958C179.1 172.718 179.142 172.479 179.23 172.255C179.317 172.031 179.448 171.827 179.615 171.653C179.781 171.48 179.98 171.341 180.2 171.245C180.421 171.149 180.658 171.097 180.898 171.092Z" fill="#C15E27"/>
<path d="M180.94 161.874C181.118 161.871 181.293 161.92 181.442 162.016C181.592 162.112 181.71 162.25 181.781 162.414C181.853 162.577 181.874 162.757 181.843 162.932C181.811 163.107 181.729 163.269 181.606 163.397C181.482 163.526 181.324 163.615 181.15 163.653C180.976 163.691 180.795 163.677 180.629 163.612C180.464 163.548 180.321 163.435 180.219 163.289C180.117 163.144 180.061 162.971 180.057 162.793C180.054 162.675 180.075 162.557 180.118 162.447C180.161 162.336 180.226 162.236 180.308 162.15C180.39 162.065 180.488 161.997 180.596 161.949C180.705 161.902 180.821 161.876 180.94 161.874Z" fill="#C15E27"/>
<path d="M154.079 106.385C154.359 106.38 154.634 106.457 154.87 106.608C155.106 106.759 155.292 106.977 155.404 107.233C155.516 107.49 155.55 107.774 155.501 108.05C155.452 108.325 155.322 108.58 155.128 108.782C154.934 108.984 154.684 109.124 154.411 109.184C154.137 109.244 153.852 109.221 153.591 109.119C153.33 109.017 153.106 108.84 152.945 108.611C152.785 108.381 152.697 108.109 152.691 107.829C152.684 107.454 152.826 107.091 153.086 106.82C153.347 106.549 153.704 106.393 154.079 106.385Z" fill="#C15E27"/>
<path d="M195.716 190.17L194.147 189.094C193.127 188.385 191.607 187.386 189.639 186.17C184.211 182.805 178.519 179.885 172.619 177.439C168.971 175.899 164.954 174.377 160.696 172.778C156.449 171.196 151.868 169.786 147.17 168.124C142.311 166.44 137.623 164.297 133.17 161.724C128.536 159.131 124.109 156.184 119.928 152.909C115.722 149.632 111.906 145.882 108.557 141.733C105.297 137.69 102.691 133.162 100.832 128.313C99.0984 123.716 98.5888 118.747 99.3531 113.893C100.154 109.587 101.953 105.528 104.604 102.041C106.793 99.1156 109.367 96.5002 112.258 94.2661C114.443 92.5176 116.751 90.9292 119.165 89.5131C120.717 88.6056 122.328 87.8021 123.986 87.1081C125.134 86.6331 125.76 86.4181 125.76 86.4181C125.76 86.4181 125.145 86.6651 124.024 87.1951C122.413 87.9725 120.849 88.8426 119.339 89.8011C117 91.2932 114.771 92.9522 112.671 94.7651C109.929 97.0678 107.482 99.7008 105.386 102.604C102.916 106.006 101.276 109.939 100.598 114.088C99.9906 118.726 100.543 123.442 102.206 127.814C104.044 132.493 106.603 136.857 109.788 140.746C113.112 144.758 116.849 148.409 120.937 151.638C125.028 154.892 129.364 157.826 133.906 160.412C138.277 162.973 142.875 165.128 147.64 166.848C152.261 168.602 156.823 170.121 161.068 171.812C165.296 173.497 169.306 175.073 172.94 176.704C178.795 179.325 184.428 182.415 189.784 185.945C191.714 187.232 193.196 188.294 194.184 189.037L195.716 190.17Z" fill="#ED913A"/>
<path d="M196.571 214.738C196.571 214.738 181.532 205.051 166.394 183.368C143.183 150.123 96.2829 124.842 80.2079 164.281C62.3209 208.163 109.362 218.115 139.33 219.373C157.392 220.129 175.39 222.014 193.217 225.015L196.571 214.738Z" fill="#C15E27"/>
<path d="M196.571 214.738L203.334 217.538C203.334 217.538 206.662 200.038 214.815 209.232C222.968 218.426 207.67 226.561 207.67 226.561C207.67 226.561 223.784 235.393 212.2 241.578C200.616 247.763 200.767 228.644 200.767 228.644L193.216 225.014L196.571 214.738Z" fill="#C6A67D"/>
<path d="M196.128 224.872C196.964 222.268 197.646 219.617 198.169 216.932C200.069 217.723 201.948 218.425 203.851 219.232C204.42 216.267 205.289 213.367 206.445 210.577C206.816 209.398 207.547 208.365 208.535 207.622C210.19 206.608 212.459 207.372 213.775 208.798C216.312 211.544 215.994 216.043 214.06 219.242C212.126 222.441 208.94 224.642 205.848 226.742C208.13 227.827 210.238 229.244 212.105 230.947C212.976 231.764 213.645 232.771 214.061 233.891C214.476 235.01 214.626 236.21 214.499 237.397C214.286 238.525 213.746 239.565 212.946 240.387C212.145 241.209 211.12 241.777 209.999 242.02C206.666 242.68 203.335 240.12 202.099 236.952C200.863 233.784 201.276 230.225 202.037 226.913C200.314 227.051 198.104 225.574 196.128 224.872Z" fill="#DCC496"/>
<path d="M79.8468 175.812C79.2157 171.537 79.5228 167.177 80.7468 163.033C97.3028 125.401 143.437 150.484 166.395 183.369C171.941 191.361 178.284 198.769 185.327 205.479C187.352 208.653 188.379 212.448 186.135 215.216C183.911 217.958 179.789 217.916 176.273 217.61C162.873 216.436 149.516 214.867 136.203 212.904C124.251 211.142 112.103 208.983 101.451 203.291C90.7988 197.599 81.6978 187.752 79.8468 175.812Z" fill="#D97128"/>
<path d="M215.158 213.349C215.111 212.129 214.642 210.962 213.831 210.049C213.422 209.6 212.914 209.253 212.348 209.035C211.781 208.817 211.172 208.734 210.568 208.793C208.568 209.05 207.232 210.979 206.433 212.833C204.939 216.312 204.385 220.123 204.826 223.883C207.317 223.012 209.658 221.761 211.767 220.174C212.816 219.371 213.666 218.338 214.254 217.155C214.842 215.972 215.151 214.67 215.158 213.349Z" fill="#ECE2C9"/>
<path d="M207.422 240.891C204.89 239.591 202.456 235.038 205.963 233.549C206.661 233.293 207.408 233.201 208.148 233.28C208.887 233.359 209.598 233.608 210.226 234.007C210.853 234.405 211.381 234.943 211.767 235.579C212.153 236.214 212.387 236.93 212.452 237.671C212.522 238.464 212.32 239.258 211.879 239.921C211.438 240.584 210.783 241.077 210.024 241.318C209.133 241.485 208.212 241.334 207.422 240.891Z" fill="#ECE2C9"/>
<path d="M93.6038 180.305C103.261 190.864 115.14 199.151 128.384 204.569C137.784 208.403 148.399 210.724 158.041 207.558C161.017 206.654 163.736 205.056 165.975 202.897C168.216 200.71 169.547 197.757 169.701 194.629C169.789 190.443 167.367 186.64 164.759 183.366C156.147 172.554 144.652 164.406 132.772 157.341C127.088 153.96 121.19 150.757 114.764 149.193C108.338 147.629 101.256 147.845 95.4698 151.047C89.6838 154.249 85.5508 160.812 86.3788 167.374C87.0068 172.353 90.2208 176.598 93.6038 180.305Z" fill="#E1832B"/>
<path d="M115.332 157.225C115.416 157.505 115.582 157.754 115.809 157.941C116.035 158.127 116.311 158.242 116.602 158.271C116.894 158.3 117.187 158.242 117.446 158.104C117.704 157.966 117.916 157.755 118.055 157.497C118.193 157.239 118.252 156.945 118.224 156.654C118.195 156.362 118.081 156.086 117.896 155.859C117.71 155.632 117.462 155.466 117.182 155.38C116.901 155.295 116.602 155.294 116.322 155.379C116.136 155.435 115.962 155.528 115.812 155.651C115.661 155.774 115.536 155.926 115.444 156.097C115.352 156.268 115.295 156.456 115.276 156.65C115.257 156.843 115.276 157.039 115.332 157.225Z" fill="#ED913A"/>
<path d="M112.761 165.196C112.813 165.366 112.914 165.517 113.052 165.63C113.189 165.743 113.357 165.813 113.534 165.83C113.711 165.847 113.89 165.812 114.047 165.728C114.204 165.644 114.332 165.515 114.416 165.358C114.5 165.201 114.535 165.023 114.518 164.846C114.5 164.669 114.431 164.501 114.318 164.363C114.205 164.226 114.054 164.125 113.883 164.073C113.713 164.021 113.531 164.021 113.361 164.073C113.248 164.107 113.143 164.164 113.051 164.239C112.96 164.314 112.884 164.406 112.828 164.51C112.773 164.614 112.738 164.729 112.726 164.846C112.715 164.964 112.727 165.083 112.761 165.196Z" fill="#ED913A"/>
<path d="M146.409 182.214C146.593 182.823 146.954 183.365 147.445 183.769C147.937 184.174 148.537 184.424 149.171 184.487C149.804 184.55 150.442 184.424 151.004 184.125C151.566 183.826 152.026 183.366 152.327 182.805C152.628 182.244 152.756 181.607 152.695 180.973C152.633 180.339 152.385 179.738 151.982 179.245C151.579 178.753 151.039 178.391 150.43 178.205C149.821 178.019 149.171 178.018 148.561 178.202C148.156 178.324 147.779 178.525 147.452 178.792C147.125 179.06 146.854 179.389 146.654 179.762C146.454 180.135 146.329 180.543 146.287 180.964C146.245 181.384 146.287 181.809 146.409 182.214Z" fill="#ED913A"/>
<path d="M157.454 198.318C157.52 198.537 157.65 198.732 157.827 198.878C158.004 199.024 158.22 199.114 158.448 199.137C158.676 199.16 158.906 199.114 159.108 199.007C159.311 198.899 159.477 198.734 159.585 198.532C159.693 198.33 159.739 198.1 159.717 197.872C159.695 197.644 159.606 197.427 159.461 197.25C159.316 197.072 159.121 196.942 158.902 196.875C158.683 196.808 158.449 196.808 158.229 196.874C157.935 196.963 157.688 197.165 157.543 197.436C157.397 197.706 157.365 198.024 157.454 198.318Z" fill="#ED913A"/>
<path d="M88.5979 186.744C88.6642 186.963 88.7941 187.158 88.9711 187.304C89.1481 187.449 89.3643 187.539 89.5923 187.562C89.8204 187.585 90.0501 187.539 90.2523 187.432C90.4546 187.324 90.6204 187.159 90.7287 186.957C90.837 186.755 90.883 186.525 90.8609 186.297C90.8388 186.069 90.7496 185.852 90.6044 185.675C90.4593 185.498 90.2649 185.367 90.0457 185.3C89.8265 185.233 89.5923 185.233 89.3729 185.299C89.2271 185.343 89.0914 185.415 88.9735 185.512C88.8557 185.608 88.7579 185.727 88.686 185.861C88.614 185.995 88.5692 186.142 88.5541 186.294C88.5389 186.445 88.5538 186.598 88.5979 186.744Z" fill="#C15E27"/>
<path d="M173.855 206.509C173.96 206.855 174.164 207.163 174.444 207.393C174.723 207.623 175.065 207.765 175.425 207.801C175.785 207.837 176.148 207.766 176.467 207.595C176.786 207.425 177.048 207.164 177.219 206.845C177.39 206.527 177.463 206.164 177.428 205.804C177.393 205.444 177.253 205.102 177.024 204.822C176.794 204.542 176.487 204.336 176.141 204.23C175.795 204.124 175.425 204.124 175.079 204.228C174.849 204.297 174.634 204.411 174.448 204.564C174.262 204.716 174.108 204.903 173.994 205.115C173.881 205.327 173.81 205.559 173.786 205.798C173.762 206.037 173.785 206.279 173.855 206.509Z" fill="#C15E27"/>
<path d="M165.098 209.392C165.15 209.562 165.251 209.713 165.388 209.826C165.526 209.939 165.694 210.009 165.871 210.026C166.048 210.043 166.227 210.008 166.384 209.924C166.54 209.84 166.669 209.711 166.753 209.554C166.837 209.397 166.872 209.219 166.855 209.042C166.837 208.865 166.768 208.697 166.655 208.559C166.542 208.422 166.391 208.321 166.22 208.269C166.05 208.217 165.868 208.217 165.698 208.269C165.585 208.303 165.48 208.36 165.388 208.435C165.297 208.51 165.221 208.602 165.165 208.706C165.11 208.81 165.075 208.925 165.063 209.042C165.052 209.16 165.064 209.279 165.098 209.392Z" fill="#C15E27"/>
<path d="M104.036 200.915C104.117 201.183 104.276 201.421 104.492 201.599C104.708 201.777 104.972 201.887 105.251 201.915C105.529 201.943 105.81 201.887 106.057 201.756C106.304 201.624 106.507 201.422 106.639 201.175C106.772 200.928 106.828 200.648 106.801 200.369C106.774 200.091 106.665 199.826 106.488 199.609C106.31 199.393 106.073 199.233 105.805 199.151C105.537 199.07 105.251 199.069 104.983 199.15C104.805 199.204 104.639 199.292 104.495 199.41C104.351 199.527 104.232 199.672 104.144 199.836C104.056 200 104.001 200.18 103.983 200.365C103.964 200.55 103.982 200.737 104.036 200.915Z" fill="#C15E27"/>
<path d="M196.571 214.738L195.021 213.638C194.008 212.923 192.542 211.838 190.721 210.399C185.713 206.39 181.039 201.982 176.744 197.217C174.074 194.262 171.344 190.932 168.436 187.428C165.528 183.924 162.67 180.037 159.579 176.18C156.475 172.176 153.011 168.465 149.229 165.094C145.37 161.569 141.244 158.346 136.889 155.456C132.557 152.559 127.931 150.127 123.089 148.2C118.408 146.367 113.469 145.276 108.451 144.967C103.78 144.731 99.1232 145.657 94.8979 147.662C91.1569 149.587 87.9188 152.361 85.4429 155.762C83.3256 158.65 81.5736 161.788 80.2269 165.106C79.1482 167.663 78.2555 170.294 77.5559 172.979C77.1091 174.711 76.7625 176.467 76.5179 178.239C76.3589 179.469 76.3179 180.13 76.3179 180.13C76.3179 180.13 76.3299 179.468 76.4279 178.23C76.5761 176.439 76.8434 174.659 77.2279 172.903C77.8332 170.171 78.6353 167.486 79.6279 164.869C80.8642 161.431 82.5599 158.176 84.6689 155.193C87.1704 151.597 90.479 148.637 94.3299 146.549C98.7125 144.328 103.597 143.283 108.505 143.517C113.691 143.793 118.802 144.879 123.652 146.736C128.63 148.645 133.372 151.121 137.785 154.115C142.188 157.084 146.354 160.389 150.248 164C154.067 167.444 157.549 171.244 160.648 175.348C163.675 179.307 166.427 183.231 169.239 186.785C172.071 190.343 174.756 193.698 177.339 196.693C181.487 201.551 186.021 206.064 190.898 210.189C192.661 211.689 194.079 212.825 195.067 213.578L196.571 214.738Z" fill="#ED913A"/>
</svg>
