<svg width="332" height="348" fill="none" xmlns="http://www.w3.org/2000/svg">
    <path d="M237 78c19.423 15.107 81.436 47.157 63 81-21.174 38.868 17.367 109.83-43.888 114.888-39.926 2.453-59.694 54.07-84.917 67.171-25.679 13.2-76.469 6.112-72.252-37.565 4.136-42.838-146.746-88.187-81.614-121.564 38.537-19.747-3.429-41.73 14.991-74.848C68.879 42.4 159.035 18.246 237 78ZM230.5 27c7.456 0 13.5-6.044 13.5-13.5S237.956 0 230.5 0 217 6.044 217 13.5 223.044 27 230.5 27Z" fill="#FFF5E0"/>
    <path opacity=".6" d="M293.5 63a9.5 9.5 0 0 0 9.5-9.5 9.5 9.5 0 0 0-9.5-9.5 9.5 9.5 0 0 0-9.5 9.5 9.5 9.5 0 0 0 9.5 9.5Z" fill="#FFF5E0"/>
    <path opacity=".502" d="M327 37a5 5 0 1 0 0-10 5 5 0 0 0 0 10Z" fill="#FFF5E0"/>
    <path d="M168.691 280.466c68.879 0 124.717-55.838 124.717-124.717 0-68.88-55.838-124.717-124.717-124.717-68.88 0-124.717 55.838-124.717 124.717 0 68.879 55.838 124.717 124.717 124.717Z" fill="#724747"/>
    <path d="M168.692 263.109c59.292 0 107.359-48.066 107.359-107.359 0-59.293-48.067-107.359-107.359-107.359-59.293 0-107.36 48.066-107.36 107.359 0 59.293 48.067 107.359 107.36 107.359Z" fill="#3F2D20"/>
    <path d="M286.772 121.076a123.073 123.073 0 0 1-40.859 130.498 123.069 123.069 0 0 1-186.27-38.779 123.07 123.07 0 0 1 74.374-175.126 123.062 123.062 0 0 1 130.497 40.859 123.074 123.074 0 0 1 22.258 42.548Zm-149.436-72.1a111.282 111.282 0 0 0-67.251 158.361 111.288 111.288 0 0 0 108.53 59.257 111.28 111.28 0 0 0 59.908-24.194 111.278 111.278 0 0 0 36.945-118.005 111.288 111.288 0 0 0-138.131-75.422l-.001.003Z" fill="#A26161"/>
    <path d="M186.642 254.34c40.845 0 73.957-33.112 73.957-73.957 0-40.845-33.112-73.957-73.957-73.957-40.845 0-73.957 33.112-73.957 73.957 0 40.845 33.112 73.957 73.957 73.957Z" fill="#2B1B1B"/>
    <path d="M179.098 63.138s-6.9 11.5-8.065 24.016c-1.165 12.516 1.757 19.1 1.757 19.1l7.306-24.869-.998-18.247Z" fill="#AA5504"/>
    <path d="m179.098 63.138 9.785.034-9.329 43.135-6.764-.051 6.308-43.118Z" fill="#E37603"/>
    <path d="M186.229 75.43a79.047 79.047 0 0 0-10.75 12.422l-2.693 18.406 6.764.051 6.679-30.88Z" fill="#D96903"/>
    <path d="M174.483 108.638a9.503 9.503 0 0 0 6.14 7.208c14.034-12.18 28.127-24.857 42.161-37.036-1.267-4.459-3.811-9.147-7.63-11.706-14.128 12.612-28.056 27.379-40.671 41.534Z" fill="#AA5504"/>
    <path d="M220.565 73.375a17.543 17.543 0 0 0-5.412-6.268c-6.465 5.771-12.88 12-19.154 18.411l-17.161 26.54s9.085-4.226 20.963-14.73a138.394 138.394 0 0 0 20.764-23.953Z" fill="#D96903"/>
    <path d="M197.466 61.674s-11.949 9.212-17.645 27.29-1.783 26.574-1.783 26.574l21.167-42.84-1.739-11.024Z" fill="#F59423"/>
    <path d="M183.244 117.525c8.951-18.268 16.233-34.659 24.333-53.331-3.084-2.376-6.61-4.2-10.111-2.521a232.089 232.089 0 0 0-19.428 53.865c1.053.912 3.769 1.879 5.062 1.377" fill="#FFC644"/>
    <path d="M185.76 89.07a214.74 214.74 0 0 0-7.722 26.468 11.865 11.865 0 0 0 5.206 1.984c5.833-11.9 10.958-23.026 16.061-34.488a121.057 121.057 0 0 1-13.545 6.036Z" fill="#FFB337"/>
    <path d="M197.466 61.674s-1.4 3.3-3.508 8.253c-1.073 2.463-2.209 5.385-3.462 8.5a399.556 399.556 0 0 0-3.731 9.824 418.055 418.055 0 0 0-3.445 9.929c-.518 1.6-1.017 3.139-1.492 4.6-.475 1.461-.9 2.857-1.272 4.148-.761 2.578-1.421 4.725-1.83 6.241l-.687 2.374.414-2.44c.3-1.545.681-3.766 1.32-6.389a170.585 170.585 0 0 1 2.337-8.926c.5-1.612.978-3.29 1.556-4.965.547-1.686 1.155-3.38 1.748-5.08 1.254-3.373 2.57-6.723 3.915-9.815a188.67 188.67 0 0 1 3.9-8.344c1.176-2.423 2.283-4.383 3.025-5.761l1.212-2.149Z" fill="#FFDC62"/>
    <path d="M239.006 91.656s-4.805 14.42-19.89 25.654-24.277 10.18-24.277 10.18l33.307-33.994 10.86-1.84Z" fill="#AA5504"/>
    <path d="M191.324 123.118c14.227-14.423 27.229-26.644 42.1-40.377 3.2 2.207 6.033 5.016 5.578 8.915a227.538 227.538 0 0 1-44.168 35.834c-1.188-.722-2.959-3.025-2.9-4.427" fill="#E37603"/>
    <path d="M217.124 111.638a209.948 209.948 0 0 1-22.286 15.856 12.116 12.116 0 0 1-3.515-4.372c9.271-9.4 18.035-17.867 27.125-26.424a125.017 125.017 0 0 0-1.324 14.94Z" fill="#D96903"/>
    <path d="M230.725 74.37a9.415 9.415 0 0 0-7.661-5.511c-10.757 15.228-21.453 30.952-32.21 46.18 2.281 4.023 5.856 7.959 10.167 9.518 10.746-15.668 20.788-33.381 29.704-50.187Z" fill="#F59423"/>
    <path d="m203.316 115.629 27.409-41.259a9.418 9.418 0 0 0-7.661-5.511L206.958 91.95c-5.363 7.738-10.727 15.475-16.1 23.089l3.948 2.624a51.794 51.794 0 0 0 8.51-2.034Z" fill="#FFB337"/>
    <path d="m217.49 94.292 13.235-19.922a9.426 9.426 0 0 0-7.661-5.511L206.958 91.95l-.828 1.192c3.787.338 7.568.755 11.36 1.15Z" fill="#FFC644"/>
    <path d="m203.316 115.629 1.062-1.852c.7-1.161 1.655-2.853 2.886-4.824 1.231-1.971 2.631-4.294 4.2-6.737a873.024 873.024 0 0 1 4.96-7.625c1.726-2.57 3.446-5.144 5.1-7.526 1.641-2.393 3.242-4.58 4.579-6.478 1.337-1.898 2.528-3.429 3.325-4.524l1.294-1.693-1.062 1.852c-.7 1.162-1.653 2.854-2.885 4.825-1.232 1.971-2.629 4.3-4.2 6.737-1.555 2.452-3.26 5.036-4.961 7.623-1.726 2.57-3.448 5.143-5.1 7.525-1.652 2.382-3.241 4.581-4.579 6.478-1.338 1.897-2.527 3.429-3.324 4.524l-1.295 1.695Z" fill="#FFDC62"/>
    <path d="M156.593 64.2s-3.693 11.223 1.183 20.862c5.318 10.512 9.149 12.451 9.149 12.451l-2.386-17.358-7.946-15.955Z" fill="#AA5504"/>
    <path d="M156.593 64.2c.818.147 10.537-1.468 10.537-1.468l6.317 31.08-6.522 3.7L156.593 64.2Z" fill="#D96903"/>
    <path d="M162.398 63.486a51.473 51.473 0 0 1-5.8.714l1.732 5.585a21.358 21.358 0 0 1 4.068-6.299ZM168.478 96.631l4.97-2.82-3.515-17.291c-.503 6.7-.988 13.404-1.455 20.111Z" fill="#E37603"/>
    <path d="M168.898 60c.142 1.285-.845 45.992-2.247 45.215-1.402-.777-7.352-6.4-8.8-21.013-1.448-14.613 10.718-27.164 11.047-24.202Z" fill="#F59423"/>
    <path d="M168.898 60s-5.7 14.524-5.41 25.174a85.164 85.164 0 0 0 3.163 20.04l.147-.1c1.322-2.26 2.235-43.876 2.1-45.114Z" fill="#FFC644"/>
    <path d="M168.348 83.48a199.123 199.123 0 0 0-4.731 4.346 86.275 86.275 0 0 0 3.031 17.389l.147-.1c.637-1.086 1.177-11.235 1.553-21.635Z" fill="#FFB337"/>
    <path d="m168.898 60-.553 1.91c-.353 1.216-.809 2.96-1.366 5.045s-1.1 4.546-1.613 7.183a62.677 62.677 0 0 0-1.1 8.3 37.701 37.701 0 0 0-.02 4.239c.069 1.411.143 2.78.261 4.126.24 2.677.524 5.179.871 7.31.649 4.27 1.27 7.1 1.27 7.1s-.272-.673-.661-1.879c-.371-1.211-.929-2.941-1.405-5.066s-1.008-4.617-1.338-7.33c-.156-1.35-.32-2.773-.389-4.2a38.36 38.36 0 0 1-.028-4.382c.086-1.47.26-2.929.483-4.35.223-1.421.515-2.807.817-4.138.614-2.662 1.394-5.084 2.076-7.149A65.653 65.653 0 0 1 168.898 60Z" fill="#FFDC62"/>
    <path d="M236.903 121.086a96.637 96.637 0 0 1-52.062 7.631 5.924 5.924 0 0 1-.393-4.451l52.711-18.885c1.191 5.446 1.758 10.514-.256 15.705Z" fill="#F59423"/>
    <path d="m184.448 124.266 1.178 3.141s32.989-.806 51.277-6.321c2.014-5.192 1.447-10.259.256-15.706l-52.711 18.886Z" fill="#FFB337"/>
    <path d="M226.12 123.582a99.292 99.292 0 0 0 10.783-2.5c2.014-5.192 1.447-10.259.256-15.706l-25.718 9.214a59.499 59.499 0 0 0 14.679 8.992Z" fill="#FFC644"/>
    <path d="m185.626 127.407 2.218-.216 5.841-.542 8.246-.782c3.014-.29 6.229-.6 9.437-.959 3.211-.324 6.412-.733 9.414-1.1l4.322-.583 3.86-.607 3.253-.58c.975-.153 1.81-.35 2.5-.5l2.184-.449-2.112.724c-.675.221-1.494.5-2.451.755-.957.255-2.027.587-3.216.857-2.375.542-5.153 1.161-8.158 1.657-1.5.223-3.055.5-4.64.7-1.585.2-3.193.422-4.807.584-3.227.331-6.457.619-9.492.786-3.033.194-5.871.245-8.3.321-4.857.084-8.099-.066-8.099-.066Z" fill="#FFDC62"/>
    <path d="m215.154 67.107 3.638 6.247-14.894 19.017-10.093 6.231 6.069-16.838 15.28-14.657Z" fill="#E37603"/>
    <path d="M166.398 115.621c.156.429.213.889.166 1.343a2.482 2.482 0 0 1-2.246 2.157c-1.822.158-3.531-.859-5.006-1.954-1.508-1.12-2.558-2.872-.949-4.56 2.025-2.126 5.89.015 7.371 1.841.286.35.511.747.664 1.173ZM179.733 127.679c2.726-2.116 9.859 6.778 7.848 8.734-1.968 1.914-10.286-6.032-8.106-8.491.078-.089.165-.17.258-.243ZM190.26 138.857a1.043 1.043 0 0 0-.512-1.038 1.01 1.01 0 0 0-1.136.143 1.064 1.064 0 0 0 .2 1.63 1.036 1.036 0 0 0 1.448-.735Z" fill="#CE8855"/>
    <path d="M144.854 92.628a17.534 17.534 0 0 1 10.006 2.028 10.16 10.16 0 0 1-10.006-2.028Z" fill="#6C351F"/>
    <path d="M225.811 160.929a4.674 4.674 0 0 1-2.977 2.059 4.669 4.669 0 0 1-3.556-.681 4.83 4.83 0 0 1-2.034-3.034 4.83 4.83 0 0 1 1.957-4.919 4.664 4.664 0 0 1 3.542-.747c.61.117 1.191.354 1.709.698a4.822 4.822 0 0 1 1.359 6.624ZM235.044 164.153c2.223 0 4.026-1.828 4.026-4.082 0-2.254-1.803-4.082-4.026-4.082-2.224 0-4.026 1.828-4.026 4.082 0 2.254 1.802 4.082 4.026 4.082ZM243.323 173.888c1.869 0 3.385-1.537 3.385-3.432s-1.516-3.432-3.385-3.432c-1.869 0-3.385 1.537-3.385 3.432s1.516 3.432 3.385 3.432ZM236.611 174.576c-.335.524-.77.976-1.282 1.329a4.662 4.662 0 0 1-1.695.73 4.664 4.664 0 0 1-3.555-.681 4.821 4.821 0 0 1-1.359-6.624 4.66 4.66 0 0 1 1.281-1.329 4.664 4.664 0 0 1 3.542-.747c.61.117 1.191.354 1.709.698a4.826 4.826 0 0 1 1.359 6.624Z" fill="#728801"/>
    <path d="M233.387 169.51a6.772 6.772 0 0 1-4.305 2.977 6.756 6.756 0 0 1-5.14-.986 6.977 6.977 0 0 1-1.965-9.576 6.772 6.772 0 0 1 4.305-2.977 6.774 6.774 0 0 1 5.14.985 6.98 6.98 0 0 1 1.965 9.577Z" fill="#728801"/>
    <path d="M228.191 174.699a5.096 5.096 0 0 1-3.235 2.239 5.08 5.08 0 0 1-3.865-.739 5.245 5.245 0 0 1-.084-8.645 5.096 5.096 0 0 1 3.849-.813 5.08 5.08 0 0 1 1.858.758 5.241 5.241 0 0 1 1.477 7.2Z" fill="#728801"/>
    <path d="M220.721 172.593a2.74 2.74 0 0 1-1.748 1.209 2.742 2.742 0 0 1-2.086-.4 2.832 2.832 0 0 1-.048-4.668 2.747 2.747 0 0 1 3.082-.029 2.835 2.835 0 0 1 .8 3.888Z" fill="#728801"/>
    <path d="M224.824 180.855a5.246 5.246 0 0 1-3.334 2.306 5.23 5.23 0 0 1-3.981-.763 5.396 5.396 0 0 1-1.521-7.417 5.235 5.235 0 0 1 7.31-1.543 5.404 5.404 0 0 1 1.526 7.417ZM236.584 185.999a3.05 3.05 0 0 1-4.26.9 3.146 3.146 0 0 1-.052-5.187 3.061 3.061 0 0 1 2.311-.488c.398.076.777.231 1.115.455a3.144 3.144 0 0 1 .886 4.32ZM225.193 191.475c1.756 0 3.18-1.443 3.18-3.224 0-1.78-1.424-3.224-3.18-3.224-1.757 0-3.18 1.444-3.18 3.224 0 1.781 1.423 3.224 3.18 3.224Z" fill="#728801"/>
    <path d="M235.36 182.201a5.795 5.795 0 0 1-8.1 1.708 5.978 5.978 0 0 1-1.684-8.208 5.798 5.798 0 0 1 8.1-1.708 5.98 5.98 0 0 1 1.684 8.208Z" fill="#728801"/>
    <path d="M222.995 188.986c2.889 0 5.231-2.375 5.231-5.304 0-2.929-2.342-5.304-5.231-5.304s-5.231 2.375-5.231 5.304c0 2.929 2.342 5.304 5.231 5.304ZM233.542 194.093c2.156 0 3.904-1.772 3.904-3.959 0-2.186-1.748-3.959-3.904-3.959-2.156 0-3.904 1.773-3.904 3.959 0 2.187 1.748 3.959 3.904 3.959Z" fill="#728801"/>
    <path d="M219.097 169.665c2.719 0 4.924-2.235 4.924-4.992s-2.205-4.992-4.924-4.992c-2.72 0-4.924 2.235-4.924 4.992s2.204 4.992 4.924 4.992ZM226.876 182.048c2.379 0 4.308-1.956 4.308-4.368 0-2.412-1.929-4.368-4.308-4.368-2.379 0-4.308 1.956-4.308 4.368 0 2.412 1.929 4.368 4.308 4.368ZM220.768 182.575a3.97 3.97 0 0 1-5.539 1.168 4.091 4.091 0 0 1-.065-6.744 3.962 3.962 0 0 1 4.452-.041 4.091 4.091 0 0 1 1.152 5.617ZM234.851 168.908c1.785 0 3.231-1.467 3.231-3.276 0-1.809-1.446-3.276-3.231-3.276-1.784 0-3.231 1.467-3.231 3.276 0 1.809 1.447 3.276 3.231 3.276ZM233.136 158.896a5.655 5.655 0 0 1-3.593 2.484 5.646 5.646 0 0 1-4.29-.822 5.824 5.824 0 0 1-1.639-7.992 5.651 5.651 0 0 1 3.592-2.484 5.646 5.646 0 0 1 4.29.822 5.818 5.818 0 0 1 1.64 7.992ZM241.246 181.638a4.585 4.585 0 0 1-2.913 2.015 4.579 4.579 0 0 1-3.479-.667 4.719 4.719 0 0 1-1.329-6.48 4.577 4.577 0 0 1 6.391-1.348 4.719 4.719 0 0 1 1.33 6.48ZM226.915 194.123a3.67 3.67 0 0 1-2.33 1.612 3.661 3.661 0 0 1-2.783-.533 3.777 3.777 0 0 1-.06-6.225 3.667 3.667 0 0 1 2.772-.585c.478.092.933.278 1.338.547a3.777 3.777 0 0 1 1.063 5.184ZM230.576 170.253a3.497 3.497 0 0 1-2.233 1.545 3.51 3.51 0 0 1-2.667-.512 3.62 3.62 0 0 1-.059-5.965 3.51 3.51 0 0 1 3.939-.036 3.619 3.619 0 0 1 1.02 4.968Z" fill="#A2AD22"/>
    <path d="M232.266 156.825a2.9 2.9 0 0 1-4.048.854 2.992 2.992 0 0 1-.841-4.1 2.895 2.895 0 0 1 2.989-1.286c.378.072.738.219 1.059.432a2.992 2.992 0 0 1 .841 4.1ZM222.407 166.004a2.44 2.44 0 0 1-3.408.719 2.521 2.521 0 0 1-.709-3.456 2.44 2.44 0 0 1 3.408-.719 2.521 2.521 0 0 1 .709 3.456ZM228.513 170.297c1.076 0 1.949-.885 1.949-1.976s-.873-1.976-1.949-1.976-1.949.885-1.949 1.976.873 1.976 1.949 1.976ZM237.232 166.407a1.433 1.433 0 0 1-.906.627 1.423 1.423 0 0 1-1.083-.207 1.468 1.468 0 0 1-.023-2.421 1.43 1.43 0 0 1 1.598-.015 1.466 1.466 0 0 1 .414 2.016ZM240.698 180.963a2.39 2.39 0 0 1-3.338.7 2.464 2.464 0 0 1-.039-4.062 2.395 2.395 0 0 1 2.682-.022 2.468 2.468 0 0 1 .695 3.384ZM229.331 178.628a1.982 1.982 0 0 1-2.77.583 2.045 2.045 0 0 1-.032-3.371 1.985 1.985 0 0 1 2.225-.021 2.046 2.046 0 0 1 .577 2.809ZM218.446 182.469c1.19 0 2.154-.978 2.154-2.184 0-1.206-.964-2.184-2.154-2.184s-2.154.978-2.154 2.184c0 1.206.964 2.184 2.154 2.184ZM226.166 192.816a1.682 1.682 0 0 1-1.068.739 1.677 1.677 0 0 1-1.275-.245 1.728 1.728 0 0 1-.028-2.852 1.672 1.672 0 0 1 1.883-.018 1.728 1.728 0 0 1 .488 2.376Z" fill="#C5CE3D"/>
    <path d="m190.041 82.801 2.645-.107-.626 1.822-2.605-.239.586-1.476ZM211.834 88.458l4.035-2.541-.112 2.164-2.508 1.318-1.415-.941ZM205.655 106.55l1.487-.877.483 1.814-1.97-.937ZM179.037 102.473c.124-.476 1.527-1.224 1.527-1.224l.616 2.462-2.143-1.238Z" fill="#728801"/>
    <path d="m171.91 70.438 1.185-1.264.665 3.24-1.363.4-.487-2.376ZM226.59 94.661l1.273-1.02.4.891-1.243 1.164-.43-1.035ZM222.506 115.203l1.329-1.106-.637 2.313-.692-1.207ZM233.321 111.946l1.953-1.313.437 1.41-1.3 1.626-1.09-1.723ZM192.887 107.327a27.14 27.14 0 0 1 2.379-1.4l-1.178 2.2-1.201-.8ZM160.062 85.63l.56-1.245.671 2.187-1.05.3-.181-1.242ZM170.779 65.638s1.474-.762 1.3-.5a10.239 10.239 0 0 0-.356 1.877l-.944-1.377ZM194.922 79.33s1.359-.963 1.362-.588c.003.375.038 1.269.038 1.269l-1.4-.681ZM187.498 98.398l.962-.73.408 1.267-.592.726-.778-1.263Z" fill="#A2AD22"/>
    <path d="M153.125 82.511a1.218 1.218 0 0 1-1.255.54 1.22 1.22 0 0 1-.445-.18 1.26 1.26 0 0 1-.355-1.728 1.22 1.22 0 0 1 1.7-.36 1.262 1.262 0 0 1 .355 1.728ZM143.889 80.102a.4.4 0 0 1-.259.179.412.412 0 0 1-.486-.324.419.419 0 0 1 .318-.491.404.404 0 0 1 .309.059.421.421 0 0 1 .118.577ZM219.245 135.422a1.433 1.433 0 0 1-.906.627 1.418 1.418 0 0 1-1.082-.208 1.47 1.47 0 0 1-.024-2.421 1.43 1.43 0 0 1 1.078-.227c.186.036.362.108.52.213a1.47 1.47 0 0 1 .414 2.016ZM244.518 98.993a1.436 1.436 0 0 1-.906.627 1.43 1.43 0 0 1-1.083-.207 1.469 1.469 0 0 1-.024-2.42 1.429 1.429 0 0 1 1.599-.016 1.468 1.468 0 0 1 .414 2.016ZM118.38 97.743c.623 0 1.128-.512 1.128-1.144 0-.632-.505-1.144-1.128-1.144-.623 0-1.128.512-1.128 1.144 0 .632.505 1.144 1.128 1.144Z" fill="#612D17"/>
    <path d="M241.656 139.392c-2.055-2.03 7.517-18.726 10.589-20.042 3.072-1.316 9.023 4.312 8.368 8.543-.297 1.913-16.987 13.445-18.957 11.499Z" fill="#F2530E"/>
    <path d="M254.105 132.727a4.985 4.985 0 0 0-2.927-.453 20.84 20.84 0 0 0-5.292 2 11.883 11.883 0 0 0-.462-5.882c-2.433 4.312-4.395 8.867-4 10.534.446.251.913.464 1.395.637 3.015-.473 10.359-5.144 14.612-8.5-1.099.552-2.202 1.104-3.326 1.664Z" fill="#D04C0E"/>
    <path d="M246.543 132.346a14.178 14.178 0 0 1 3.366-.815 22.14 22.14 0 0 1 2.866-.162 52.147 52.147 0 0 0 5.435-4.8 8.996 8.996 0 0 1-5.861-7.25c-.033.012-.071.015-.1.028-1.392.6-4.12 4.355-6.495 8.474.377 1.486.641 2.999.789 4.525Z" fill="#FF7406"/>
    <path d="M258.863 124.884a5.53 5.53 0 0 1-4.126-4.223c1.971.64 3.224 2.332 4.126 4.223Z" fill="#D04C0E"/>
    <path d="M252.084 121.268a22.983 22.983 0 0 1-5.611 8.2 31.684 31.684 0 0 1 2.157-4.586 10.447 10.447 0 0 1 3.454-3.614Z" fill="#F48D06"/>
    <path d="M223.712 139.325c-1.147-2.579 13.378-14.24 16.621-14.322 3.243-.082 6.655 7.16 4.576 10.752-.939 1.625-20.096 6.041-21.197 3.57Z" fill="#F2530E"/>
    <path d="M243.198 133.691a8.849 8.849 0 0 1-2.761-8.677c-.035 0-.069-.013-.1-.012-2.852.074-14.426 9.1-16.4 13.028a51.006 51.006 0 0 0 19.261-4.339Z" fill="#FF7406"/>
    <path d="M244.382 132.399a5.436 5.436 0 0 1-2.254-5.312 7.294 7.294 0 0 1 2.254 5.312Z" fill="#D04C0E"/>
    <path d="M238.862 127.82a34.59 34.59 0 0 1-12.5 8.483 47.58 47.58 0 0 1 5.593-5.3 15.755 15.755 0 0 1 6.907-3.183Z" fill="#F48D06"/>
    <path d="M233.435 144.76c-.8-2.71 15.12-12.318 18.344-11.964 3.224.354 5.661 7.99 3.133 11.272-1.145 1.486-20.714 3.29-21.477.692Z" fill="#F2530E"/>
    <path d="M253.485 141.793a8.878 8.878 0 0 1-1.6-8.971c-.035-.006-.068-.022-.1-.026-2.837-.311-15.488 7.081-17.952 10.711a50.92 50.92 0 0 0 19.652-1.714Z" fill="#FF7406"/>
    <path d="M254.826 140.671a5.458 5.458 0 0 1-1.54-5.569 7.328 7.328 0 0 1 1.54 5.569Z" fill="#D04C0E"/>
    <path d="M249.953 135.392a34.428 34.428 0 0 1-13.492 6.73 47.504 47.504 0 0 1 6.234-4.5 15.692 15.692 0 0 1 7.258-2.23Z" fill="#F48D06"/>
    <path d="M234.422 151.189c.724-2.173 15.695-.955 17.664.812 1.969 1.767.047 7.975-3.144 8.943-1.444.438-15.215-7.672-14.52-9.755Z" fill="#F2530E"/>
    <path d="M249.051 158.762a7.152 7.152 0 0 1 3.09-6.7c-.021-.02-.035-.046-.056-.065-1.732-1.554-13.516-2.683-16.825-1.454a41.706 41.706 0 0 0 13.791 8.219Z" fill="#FF7406"/>
    <path d="M250.457 158.658a4.41 4.41 0 0 1 .147-2.43 4.411 4.411 0 0 1 1.411-1.984 5.92 5.92 0 0 1-1.558 4.414Z" fill="#D04C0E"/>
    <path d="M249.677 152.849a27.713 27.713 0 0 1-12.034-1.966 37.861 37.861 0 0 1 6.2-.009c2.077.171 4.08.849 5.834 1.975Z" fill="#F48D06"/>
    <path d="M244.342 145.668c.288-2.275 15.2-4.072 17.475-2.732 2.275 1.34 1.6 7.81-1.344 9.4-1.329.712-16.407-4.488-16.131-6.668Z" fill="#F2530E"/>
    <path d="M260.156 150.169a7.186 7.186 0 0 1 1.728-7.18c-.023-.015-.043-.039-.067-.053-2-1.177-13.773.07-16.778 1.936a41.452 41.452 0 0 0 15.117 5.297Z" fill="#FF7406"/>
    <path d="M261.515 149.786a4.436 4.436 0 0 1 .669-4.639 5.939 5.939 0 0 1-.669 4.639Z" fill="#D04C0E"/>
    <path d="M259.621 144.247a27.686 27.686 0 0 1-12.181.477 37.944 37.944 0 0 1 6.079-1.248 12.7 12.7 0 0 1 6.102.771Z" fill="#F48D06"/>
    <path d="M253.371 163.996a2.916 2.916 0 0 1 2.21.132c1.494.886 1.4 3.05.471 4.33a3.057 3.057 0 0 1-4.033.637c-.957-.506-2.337-1.807-1.733-2.947a5.245 5.245 0 0 1 3.085-2.152Z" fill="#F59423"/>
    <path d="M253.438 166.003a1.205 1.205 0 0 0-1.149-.3 6.43 6.43 0 0 0-2.065.642 1.32 1.32 0 0 0-.013.806 8.393 8.393 0 0 0 1.547.3c.464.078.94 0 1.355-.222a.905.905 0 0 0 .325-1.226Z" fill="#E37603"/>
    <path d="M256.052 168.458c.924-1.28 1.023-3.444-.471-4.33a1.97 1.97 0 0 0-.635-.222c.263.378.477.787.637 1.219.332.937-.348 4.264-2.588 4.174-.766-.031-2-1.323-2.633-1.776a4.238 4.238 0 0 0 1.657 1.572 3.056 3.056 0 0 0 4.033-.637Z" fill="#FFB337"/>
    <path d="M229.547 203.874a2.912 2.912 0 0 1 2.21.132c1.494.887 1.4 3.051.471 4.33a3.058 3.058 0 0 1-4.033.637c-.957-.5-2.337-1.807-1.733-2.947a5.249 5.249 0 0 1 3.085-2.152Z" fill="#F59423"/>
    <path d="M229.614 205.881a1.21 1.21 0 0 0-1.149-.3 6.407 6.407 0 0 0-2.065.643c-.089.26-.093.542-.012.805a8.477 8.477 0 0 0 1.547.3c.464.077.94-.001 1.355-.223a.908.908 0 0 0 .324-1.225Z" fill="#E37603"/>
    <path d="M232.228 208.338c.924-1.279 1.023-3.444-.471-4.33a2.018 2.018 0 0 0-.635-.222c.263.378.478.787.638 1.219.331.937-.348 4.265-2.589 4.174-.766-.031-2-1.324-2.632-1.777.398.666.97 1.21 1.656 1.572.632.41 1.394.572 2.138.454a3.05 3.05 0 0 0 1.895-1.09Z" fill="#FFB337"/>
    <path d="M243.233 184.229a2.914 2.914 0 0 1 2.209.132c1.5.887 1.4 3.051.472 4.33a3.058 3.058 0 0 1-4.033.637c-.957-.506-2.337-1.807-1.732-2.947a5.247 5.247 0 0 1 3.084-2.152Z" fill="#F59423"/>
    <path d="M243.298 186.238a1.2 1.2 0 0 0-1.149-.3 6.38 6.38 0 0 0-2.065.642 1.306 1.306 0 0 0-.013.806 8.477 8.477 0 0 0 1.547.3c.463.078.94 0 1.355-.222a.904.904 0 0 0 .325-1.226Z" fill="#E37603"/>
    <path d="M245.914 188.691c.925-1.28 1.023-3.444-.472-4.33a1.978 1.978 0 0 0-.635-.222c.263.378.478.787.638 1.219.332.937-.348 4.264-2.588 4.174-.766-.031-2-1.323-2.633-1.776.397.666.971 1.21 1.657 1.572a3.057 3.057 0 0 0 4.033-.637Z" fill="#FFB337"/>
    <path d="M256.115 158.601a2.61 2.61 0 0 1 1.879-.631c1.531.236 2.156 2.067 1.805 3.44a2.757 2.757 0 0 1-3.145 1.882c-.96-.1-2.532-.718-2.4-1.869a4.771 4.771 0 0 1 1.861-2.822Z" fill="#F59423"/>
    <path d="M256.826 160.247a1.08 1.08 0 0 0-1.055.133 5.819 5.819 0 0 0-1.506 1.226c.011.245.1.481.253.673a7.47 7.47 0 0 0 1.383-.272 1.916 1.916 0 0 0 1.054-.639.81.81 0 0 0-.129-1.121Z" fill="#E37603"/>
    <path d="M259.798 161.41c.35-1.373-.273-3.205-1.805-3.44a1.754 1.754 0 0 0-.6.028c.342.226.654.495.928.8.581.667 1.1 3.661-.79 4.337-.646.231-2.1-.428-2.767-.594.548.42 1.202.68 1.889.751a2.757 2.757 0 0 0 3.145-1.882Z" fill="#FFB337"/>
    <path d="M249.049 162.548a2.598 2.598 0 0 1 1.97.2c1.3.849 1.134 2.78.26 3.887a2.733 2.733 0 0 1-3.628.415c-.836-.488-2.021-1.7-1.439-2.7a4.683 4.683 0 0 1 2.837-1.802Z" fill="#F59423"/>
    <path d="M249.034 164.345a1.071 1.071 0 0 0-1.015-.316 5.76 5.76 0 0 0-1.87.494c-.088.23-.103.482-.041.721.447.151.906.26 1.372.325.412.087.84.036 1.219-.147a.81.81 0 0 0 .335-1.077Z" fill="#E37603"/>
    <path d="M251.279 166.638c.874-1.108 1.042-3.038-.26-3.887a1.776 1.776 0 0 0-.56-.223c.221.348.398.722.525 1.114.26.85-.47 3.8-2.469 3.631-.683-.057-1.742-1.26-2.286-1.688.33.61.822 1.118 1.422 1.468a2.732 2.732 0 0 0 3.628-.415Z" fill="#FFB337"/>
    <path d="M223.06 203.426c.382.578.529 1.281.408 1.964-.4 1.517-2.268 1.94-3.575 1.432a2.812 2.812 0 0 1-1.495-3.384c.2-.956.988-2.47 2.1-2.21a4.71 4.71 0 0 1 2.562 2.198Z" fill="#F59423"/>
    <path d="M221.368 203.958a1.119 1.119 0 0 0-.011-1.077 5.89 5.89 0 0 0-1.032-1.656 1.132 1.132 0 0 0-.689.179c-.006.477.031.954.111 1.424.042.423.221.821.508 1.134a.775.775 0 0 0 .557.229.775.775 0 0 0 .556-.233Z" fill="#E37603"/>
    <path d="M219.898 206.822c1.307.508 3.171.085 3.575-1.432.046-.199.059-.404.039-.607a4.81 4.81 0 0 1-.888.846c-.72.51-3.712.7-4.162-1.284-.153-.678.655-2.065.893-2.722a3.832 3.832 0 0 0-.957 1.815 2.812 2.812 0 0 0 1.5 3.384Z" fill="#FFB337"/>
    <path d="M226.872 198.758a2.655 2.655 0 0 1 1.377 1.443c.456 1.5-.9 2.866-2.273 3.142a2.763 2.763 0 0 1-3.037-2.055c-.329-.919-.462-2.624.617-3a4.638 4.638 0 0 1 3.316.47Z" fill="#F59423"/>
    <path d="M225.719 200.122a1.1 1.1 0 0 0-.171-.527 1.1 1.1 0 0 0-.405-.379 5.751 5.751 0 0 0-1.744-.844 1.165 1.165 0 0 0-.489.524c.245.407.527.791.842 1.146.257.335.618.575 1.025.685a.797.797 0 0 0 .942-.605Z" fill="#E37603"/>
    <path d="M225.975 203.343c1.373-.276 2.729-1.642 2.273-3.143a1.82 1.82 0 0 0-.285-.536 4.925 4.925 0 0 1-.308 1.2c-.341.82-2.774 2.6-4.2 1.162-.486-.49-.53-2.1-.674-2.786a3.864 3.864 0 0 0 .154 2.052 2.761 2.761 0 0 0 3.04 2.051Z" fill="#FFB337"/>
    <path d="M251.129 175.884a2.643 2.643 0 0 1 1.592 1.194c.692 1.4-.424 2.977-1.734 3.478a2.744 2.744 0 0 1-3.328-1.521c-.474-.853-.881-2.512.122-3.067a4.628 4.628 0 0 1 3.348-.084Z" fill="#F59423"/>
    <path d="M250.212 177.421c-.025-.375-.38-.631-.715-.8a5.708 5.708 0 0 0-1.856-.542 1.173 1.173 0 0 0-.4.6c.308.36.648.691 1.016.99a1.91 1.91 0 0 0 1.122.5.798.798 0 0 0 .833-.748Z" fill="#E37603"/>
    <path d="M250.987 180.556c1.31-.5 2.427-2.074 1.734-3.478a1.824 1.824 0 0 0-.369-.482c.015.413-.022.826-.11 1.23-.2.865-2.316 3.023-3.951 1.845-.559-.4-.864-1.985-1.116-2.636a3.86 3.86 0 0 0 .484 2 2.744 2.744 0 0 0 3.328 1.521Z" fill="#FFB337"/>
    <path d="M221.82 143.562a2.653 2.653 0 0 1 1.344-1.474c1.452-.545 2.873.751 3.221 2.126a2.8 2.8 0 0 1-1.854 3.189c-.888.385-2.559.613-2.994-.458a4.823 4.823 0 0 1 .283-3.383Z" fill="#F59423"/>
    <path d="M223.227 144.654c-.372-.015-.661.314-.859.633a5.885 5.885 0 0 0-.734 1.812c.127.209.317.372.543.466a7.797 7.797 0 0 0 1.08-.916c.317-.282.533-.66.617-1.076a.803.803 0 0 0-.647-.919Z" fill="#E37603"/>
    <path d="M226.385 144.214c-.348-1.374-1.769-2.671-3.221-2.126a1.755 1.755 0 0 0-.512.319c.406.03.808.112 1.194.244.827.3 2.711 2.664 1.378 4.184-.456.519-2.04.655-2.705.838a3.722 3.722 0 0 0 2.012-.27 2.802 2.802 0 0 0 1.854-3.189Z" fill="#FFB337"/>
    <path d="m171.362 151.964 43.169 40.451c3.163 2.963 6.6 7.288 4.617 11.14a5.028 5.028 0 0 1-5.873 2.519 5.021 5.021 0 0 1-3.591-5.285 10.05 10.05 0 0 1-16.04 8.561c4.847-6.992.577-17.53-6.975-21.449-7.552-3.919-16.855-2.566-24.677.779 4.3 7.068 8.691 14.244 14.838 19.782 6.147 5.538 14.415 9.3 22.609 8.158 5.138-.719 10.866-3.17 15.106-.181a6.966 6.966 0 0 1 2.186 8.873 6.959 6.959 0 0 1-8.486 3.392c1.243 2.739 2.511 5.6 2.406 8.609-.105 3.009-2.041 6.178-5.014 6.636-4.753.733-7.482-4.97-10.017-9.057-5.587-9.005-16.722-13.272-27.314-13.594-10.592-.322-20.963 2.654-31.272 5.1-10.309 2.446-21.105 4.4-31.436 2.044a38.837 38.837 0 0 1-27.568-51.9c4.27-11.016 15.376-15.213 23.787-23.51a29.669 29.669 0 0 1 14.255-49.745c13.39-3.168 27.574 3.483 37.05 13.459 9.476 9.976 8.2 25.81 18.24 35.218Z" fill="#471C0B"/>
    <path d="M195.716 190.17s-13.846-11.326-39.136-19.055c-38.775-11.85-77.266-48.691-44.69-76.126 36.245-30.526 60.194 11.166 70.616 39.292a434.083 434.083 0 0 0 21.955 49.533l-8.745 6.356Z" fill="#C15E27"/>
    <path d="m195.716 190.17 4.748 5.573s-15.625 8.553-4.369 13.48 14.288-12.133 14.288-12.133 13.364 12.613 15.683-.312c2.319-12.925-15.826-6.9-15.826-6.9l-5.778-6.067-8.746 6.359Z" fill="#C6A67D"/>
    <path d="M205.22 186.63a69.103 69.103 0 0 1-6.927 4.387c1.337 1.564 2.584 3.136 3.934 4.7a44.542 44.542 0 0 0-7.436 5.132 5.915 5.915 0 0 0-2.169 2.9c-.454 1.887.971 3.81 2.732 4.624 3.393 1.568 7.576-.119 10.025-2.944 2.449-2.825 3.561-6.534 4.609-10.123a25.597 25.597 0 0 0 5.927 4.659 7.717 7.717 0 0 0 6.874.292 5.83 5.83 0 0 0 3.013-5.706c-.4-3.375-3.86-5.755-7.253-5.956-3.393-.201-6.653 1.288-9.57 3.031-.397-1.688-2.481-3.331-3.759-4.996Z" fill="#DCC496"/>
    <path d="M122.749 91.097c-11.655 1.87-21.424 11.565-21.715 23.7a23.74 23.74 0 0 0 8.333 18.465c6.238 5.242 14.671 6.859 21.973 10.473 9.9 4.9 17.484 13.336 25.4 21.042 5.264 5.126 29.1 26.267 36.221 15.316 1.924-2.959.617-6.869-.758-10.12a682.673 682.673 0 0 0-16.812-36.676c-5.356-10.829-11.148-21.719-19.844-30.105-8.696-8.386-20.869-14.009-32.798-12.095Z" fill="#D97128"/>
    <path d="M200.115 208.283a5.271 5.271 0 0 1-3.55-.246 3.902 3.902 0 0 1-2.2-2.717c-.373-1.984 1.052-3.847 2.57-5.178a21.623 21.623 0 0 1 10.02-4.931 25.577 25.577 0 0 1-1.393 7.745 8.656 8.656 0 0 1-5.447 5.327ZM223.938 192.446c-2.014-2.01-7.1-2.924-7.434.871a4.842 4.842 0 0 0 5.919 4.9 3.496 3.496 0 0 0 2.723-3.433 3.859 3.859 0 0 0-1.208-2.338Z" fill="#ECE2C9"/>
    <path d="M169.391 166.113a7.52 7.52 0 0 0 5.748-1.929c9.191-7.987-4.718-29.386-10.089-35.759a96.81 96.81 0 0 0-33.792-25.622c-4.567-2.078-9.594-3.829-14.524-2.894a14.911 14.911 0 0 0-12.1 13.427c-.512 8.9 6.413 11.666 13.126 15.032a142.455 142.455 0 0 1 26.781 17.694c4.808 3.976 15.683 19.309 24.85 20.051Z" fill="#E1832B"/>
    <path d="M115.988 130.581a1.48 1.48 0 0 1 .347 2.927 1.477 1.477 0 0 1-1.532-.599 1.481 1.481 0 0 1 1.185-2.328ZM122.781 125.681a.904.904 0 0 1 .842.539.907.907 0 0 1-.176.984.893.893 0 0 1-.976.215.9.9 0 0 1 .31-1.738ZM161.998 131.824a3.215 3.215 0 0 1 3.012 1.928 3.22 3.22 0 1 1-3.012-1.928ZM168.051 158.008a1.16 1.16 0 0 1 .86 1.962 1.157 1.157 0 0 1-1.786-.14 1.157 1.157 0 0 1 .926-1.822ZM109.485 115.085a6.106 6.106 0 0 1-.8-6.383 8.922 8.922 0 0 1 4.894-4.47c2.132-.788 4.4-1.14 6.67-1.035a31.286 31.286 0 0 1 30.72 29.345 63.028 63.028 0 0 0-25.213-13.147 71.78 71.78 0 0 0-9.034-1.69c-2.606-.324-5.493-.655-7.237-2.62Z" fill="#ED913A"/>
    <path d="M135.843 96.058a1.16 1.16 0 1 1 .047 2.318 1.16 1.16 0 0 1-.047-2.318ZM180.898 171.092a1.833 1.833 0 0 1 1.713 1.096 1.826 1.826 0 0 1-.357 2.002 1.831 1.831 0 1 1-1.356-3.098ZM180.94 161.874a.899.899 0 1 1 .034 1.797.899.899 0 0 1-.034-1.797ZM154.079 106.385a1.42 1.42 0 0 1 1.325.848 1.422 1.422 0 0 1-.276 1.549 1.417 1.417 0 1 1-1.049-2.397Z" fill="#C15E27"/>
    <path d="m195.716 190.17-1.569-1.076c-1.02-.709-2.54-1.708-4.508-2.924a118.253 118.253 0 0 0-17.02-8.731c-3.648-1.54-7.665-3.062-11.923-4.661-4.247-1.582-8.828-2.992-13.526-4.654a81.003 81.003 0 0 1-14-6.4 103.18 103.18 0 0 1-13.242-8.815 69.534 69.534 0 0 1-11.371-11.176 49.752 49.752 0 0 1-7.725-13.42 28.364 28.364 0 0 1-1.479-14.42c.801-4.306 2.6-8.365 5.251-11.852a40.457 40.457 0 0 1 7.654-7.775 58.128 58.128 0 0 1 6.907-4.753 40.635 40.635 0 0 1 4.821-2.405c1.148-.475 1.774-.69 1.774-.69s-.615.247-1.736.777a46.24 46.24 0 0 0-4.685 2.606 57.655 57.655 0 0 0-6.668 4.964 43.446 43.446 0 0 0-7.285 7.839 26.943 26.943 0 0 0-4.788 11.484 28.279 28.279 0 0 0 1.608 13.726 48.262 48.262 0 0 0 7.582 12.932 74.227 74.227 0 0 0 11.149 10.892 101.55 101.55 0 0 0 12.969 8.774 82.741 82.741 0 0 0 13.734 6.436c4.621 1.754 9.183 3.273 13.428 4.964 4.228 1.685 8.238 3.261 11.872 4.892a118.848 118.848 0 0 1 16.844 9.241 97.615 97.615 0 0 1 4.4 3.092l1.532 1.133Z" fill="#ED913A"/>
    <path d="M196.571 214.738s-15.039-9.687-30.177-31.37c-23.211-33.245-70.111-58.526-86.186-19.087-17.887 43.882 29.154 53.834 59.122 55.092a433.933 433.933 0 0 1 53.887 5.642l3.354-10.277Z" fill="#C15E27"/>
    <path d="m196.571 214.738 6.763 2.8s3.328-17.5 11.481-8.306-7.145 17.329-7.145 17.329 16.114 8.832 4.53 15.017c-11.584 6.185-11.433-12.934-11.433-12.934l-7.551-3.63 3.355-10.276Z" fill="#C6A67D"/>
    <path d="M196.128 224.872a69.353 69.353 0 0 0 2.041-7.94c1.9.791 3.779 1.493 5.682 2.3a44.541 44.541 0 0 1 2.594-8.655 5.922 5.922 0 0 1 2.09-2.955c1.655-1.014 3.924-.25 5.24 1.176 2.537 2.746 2.219 7.245.285 10.444-1.934 3.199-5.12 5.4-8.212 7.5a25.588 25.588 0 0 1 6.257 4.205 7.72 7.72 0 0 1 2.394 6.45 5.84 5.84 0 0 1-4.5 4.623c-3.333.66-6.664-1.9-7.9-5.068-1.236-3.168-.823-6.727-.062-10.039-1.723.138-3.933-1.339-5.909-2.041Z" fill="#DCC496"/>
    <path d="M79.847 175.812a29.764 29.764 0 0 1 .9-12.779c16.556-37.632 62.69-12.549 85.648 20.336a143.665 143.665 0 0 0 18.932 22.11c2.025 3.174 3.052 6.969.808 9.737-2.224 2.742-6.346 2.7-9.862 2.394a683.708 683.708 0 0 1-40.07-4.706c-11.952-1.762-24.1-3.921-34.752-9.613-10.652-5.692-19.753-15.539-21.604-27.479Z" fill="#D97128"/>
    <path d="M215.158 213.349a5.276 5.276 0 0 0-1.327-3.3 3.904 3.904 0 0 0-3.263-1.256c-2 .257-3.336 2.186-4.135 4.04a21.623 21.623 0 0 0-1.607 11.05 25.591 25.591 0 0 0 6.941-3.709 8.648 8.648 0 0 0 3.391-6.825ZM207.422 240.891c-2.532-1.3-4.966-5.853-1.459-7.342a4.848 4.848 0 0 1 4.263.458 4.832 4.832 0 0 1 2.226 3.664 3.507 3.507 0 0 1-2.428 3.647 3.864 3.864 0 0 1-2.602-.427Z" fill="#ECE2C9"/>
    <path d="M93.604 180.305a96.806 96.806 0 0 0 34.78 24.264c9.4 3.834 20.015 6.155 29.657 2.989a19.666 19.666 0 0 0 7.934-4.661 12.404 12.404 0 0 0 3.726-8.268c.088-4.186-2.334-7.989-4.942-11.263-8.612-10.812-20.107-18.96-31.987-26.025-5.684-3.381-11.582-6.584-18.008-8.148-6.426-1.564-13.508-1.348-19.294 1.854-5.786 3.202-9.92 9.765-9.091 16.327.628 4.979 3.842 9.224 7.225 12.931Z" fill="#E1832B"/>
    <path d="M115.332 157.225a1.478 1.478 0 0 0 2.114.879 1.488 1.488 0 0 0 .45-2.245 1.486 1.486 0 0 0-1.574-.48 1.478 1.478 0 0 0-1.046 1.271c-.019.193 0 .389.056.575ZM112.761 165.196a.901.901 0 0 0 1.757-.35.905.905 0 0 0-1.157-.773.904.904 0 0 0-.6 1.123ZM146.409 182.214a3.222 3.222 0 0 0 4.595 1.911 3.217 3.217 0 0 0 1.691-3.152 3.226 3.226 0 0 0-2.265-2.768 3.216 3.216 0 0 0-3.776 1.557 3.22 3.22 0 0 0-.245 2.452ZM157.454 198.318a1.16 1.16 0 0 0 2.131.214 1.164 1.164 0 0 0-.124-1.282 1.157 1.157 0 0 0-1.918.186c-.146.27-.178.588-.089.882Z" fill="#ED913A"/>
    <path d="M88.598 186.744a1.163 1.163 0 0 0 .994.818 1.163 1.163 0 0 0 1.137-.605 1.16 1.16 0 0 0-1.356-1.658 1.152 1.152 0 0 0-.687.562 1.156 1.156 0 0 0-.088.883ZM173.855 206.509a1.83 1.83 0 1 0 3.505-1.059 1.83 1.83 0 0 0-3.505 1.059ZM165.098 209.392a.907.907 0 0 0 .773.634.905.905 0 0 0 .882-.472.902.902 0 0 0-.533-1.285.893.893 0 0 0-.832.166.912.912 0 0 0-.325.607.92.92 0 0 0 .035.35ZM104.036 200.915a1.419 1.419 0 0 0 2.021.841 1.417 1.417 0 1 0-2.021-.841Z" fill="#C15E27"/>
    <path d="m196.571 214.738-1.55-1.1c-1.013-.715-2.479-1.8-4.3-3.239a118.596 118.596 0 0 1-13.977-13.182c-2.67-2.955-5.4-6.285-8.308-9.789-2.908-3.504-5.766-7.391-8.857-11.248a82.836 82.836 0 0 0-10.35-11.086 101.574 101.574 0 0 0-12.34-9.638 74.144 74.144 0 0 0-13.8-7.256 48.285 48.285 0 0 0-14.638-3.233 28.285 28.285 0 0 0-13.553 2.695 26.943 26.943 0 0 0-9.455 8.1 43.423 43.423 0 0 0-5.216 9.344 57.656 57.656 0 0 0-2.671 7.873 46.525 46.525 0 0 0-1.038 5.26c-.16 1.23-.2 1.891-.2 1.891s.012-.662.11-1.9c.148-1.791.415-3.571.8-5.327a58.082 58.082 0 0 1 2.4-8.034 40.5 40.5 0 0 1 5.04-9.676 28.062 28.062 0 0 1 9.662-8.644 28.37 28.37 0 0 1 14.175-3.032 49.756 49.756 0 0 1 15.147 3.219 69.494 69.494 0 0 1 14.133 7.379A103.104 103.104 0 0 1 150.248 164a81.044 81.044 0 0 1 10.4 11.348c3.027 3.959 5.779 7.883 8.591 11.437 2.832 3.558 5.517 6.913 8.1 9.908a118.202 118.202 0 0 0 13.559 13.496c1.763 1.5 3.181 2.636 4.169 3.389l1.504 1.16Z" fill="#ED913A"/>
</svg>
