<svg width="264" height="219" viewBox="0 0 264 219" fill="none" xmlns="http://www.w3.org/2000/svg">
<path d="M219.07 63.2501C256.409 69.6595 277.615 114.721 253.068 132.428C224.876 152.765 230.691 212.719 183.613 198.07C153.199 187.943 121.957 217.42 99.0337 218.927C75.7425 220.364 40.3271 200.498 57.4805 171.857C74.3042 143.765 -8.06476 94.1019 35.9509 64.5372C64.2496 45.5298 46.804 34.9638 71.107 17.7502C96.2678 0.176312 121.959 31.1693 159.645 2.59283C182 -14.3592 181.961 57.1291 219.07 63.2501Z" fill="white"/>
<path d="M12.6833 159.627C19.6881 159.627 25.3665 154.392 25.3665 147.934C25.3665 141.476 19.6881 136.241 12.6833 136.241C5.6785 136.241 0 141.476 0 147.934C0 154.392 5.6785 159.627 12.6833 159.627Z" fill="white"/>
<path opacity="0.6" d="M250.377 48.7614C255.307 48.7614 259.303 45.0775 259.303 40.5331C259.303 35.9887 255.307 32.3048 250.377 32.3048C245.448 32.3048 241.452 35.9887 241.452 40.5331C241.452 45.0775 245.448 48.7614 250.377 48.7614Z" fill="white"/>
<path opacity="0.502" d="M259.302 14.116C261.897 14.116 264 12.177 264 9.78527C264 7.3935 261.897 5.45459 259.302 5.45459C256.708 5.45459 254.605 7.3935 254.605 9.78527C254.605 12.177 256.708 14.116 259.302 14.116Z" fill="white"/>
</svg>
