<svg width="25" height="25" viewBox="0 0 25 25" fill="none" xmlns="http://www.w3.org/2000/svg">
<path d="M8.75 0.5H16.25C20.8063 0.5 24.5 4.19365 24.5 8.75V16.25C24.5 20.8063 20.8063 24.5 16.25 24.5H8.75C4.19365 24.5 0.5 20.8063 0.5 16.25V8.75C0.5 4.19365 4.19365 0.5 8.75 0.5Z" stroke="white"/>
<path d="M13.3177 17.5033C13.2263 17.5054 13.1376 17.4722 13.07 17.4106C13.0025 17.349 12.9612 17.2637 12.9549 17.1725C12.9485 17.0813 12.9776 16.9911 13.0359 16.9208C13.0943 16.8504 13.1775 16.8051 13.2683 16.7945L13.3177 16.7914H17.1333C17.2248 16.7892 17.3137 16.8222 17.3814 16.8838C17.4491 16.9453 17.4905 17.0306 17.4969 17.1219C17.5033 17.2132 17.4744 17.3034 17.416 17.3739C17.3575 17.4444 17.2742 17.4896 17.1833 17.5002L17.1333 17.5033H13.3177ZM7.86832 17.5033C7.81908 17.5035 7.77031 17.4939 7.72489 17.4749C7.67947 17.4559 7.63833 17.4279 7.60394 17.3927C7.57055 17.3594 7.54429 17.3197 7.52677 17.276C7.50925 17.2322 7.50085 17.1854 7.50207 17.1383L7.55771 14.9651C7.56852 14.5514 7.7416 14.1586 8.03958 13.8714L13.4221 8.62894C13.7589 8.30461 14.2082 8.12341 14.6758 8.12341C15.1434 8.12341 15.5928 8.30461 15.9296 8.62894L16.6483 9.32893C16.8096 9.48424 16.9386 9.66995 17.0277 9.87539C17.1169 10.0808 17.1644 10.3019 17.1676 10.5258C17.1708 10.7497 17.1296 10.972 17.0463 11.1799C16.9631 11.3878 16.8395 11.5772 16.6827 11.737L16.6483 11.7714L11.2458 17.0333C10.9336 17.3365 10.5148 17.5051 10.0796 17.5027L7.86832 17.5033ZM8.55582 14.3739C8.39087 14.5335 8.29486 14.7513 8.28832 14.9808L8.24145 16.7895H10.079C10.2924 16.7899 10.4996 16.7172 10.6658 16.5833L10.7283 16.5283L15.1964 12.177L13.0052 10.0445L8.55582 14.3739ZM15.7121 11.6746L16.1296 11.2677C16.2244 11.1763 16.3001 11.0671 16.3525 10.9463C16.4048 10.8255 16.4327 10.6955 16.4345 10.5639C16.4363 10.4323 16.412 10.3016 16.363 10.1794C16.314 10.0572 16.2412 9.94595 16.149 9.85204L16.1296 9.83266L15.4077 9.13267C15.2098 8.94227 14.9458 8.83592 14.6711 8.83592C14.3965 8.83592 14.1325 8.94227 13.9346 9.13267L13.5171 9.53954L15.7121 11.6746Z" fill="white"/>
</svg>
