<svg width="30" height="30" viewBox="0 0 30 30" fill="none" xmlns="http://www.w3.org/2000/svg">
<path d="M19.5 0H10.5C4.70101 0 0 4.70101 0 10.5V19.5C0 25.299 4.70101 30 10.5 30H19.5C25.299 30 30 25.299 30 19.5V10.5C30 4.70101 25.299 0 19.5 0Z" fill="#08C069"/>
<path d="M16.8495 20.6483C15.2341 19.8441 13.7738 18.7604 12.5362 17.4473C11.2214 16.2131 10.1437 14.7487 9.35624 13.1265L9.29623 12.984C9.0911 12.6178 8.98862 12.2029 8.99957 11.7833C9.01053 11.3637 9.13452 10.9548 9.35848 10.5997C9.74998 9.94725 10.8292 9 11.6302 9H11.6925C12.0117 9.03864 12.3065 9.1903 12.5235 9.42751L12.5985 9.5025C13.1759 10.117 13.6695 10.8052 14.0662 11.5493L14.0812 11.6017C14.1175 11.8015 14.1117 12.0067 14.0643 12.2041C14.0169 12.4015 13.9289 12.5869 13.806 12.7485L13.7407 12.864C13.6207 13.0852 13.5975 13.1805 13.6357 13.2923C13.902 13.9791 14.3073 14.6036 14.8262 15.1264C15.3452 15.6492 15.9666 16.0592 16.6515 16.3305C16.6874 16.3445 16.7255 16.3519 16.764 16.3522C16.9116 16.3324 17.0518 16.276 17.172 16.188L17.322 16.1032C17.5461 15.9577 17.805 15.8748 18.072 15.8633C18.1646 15.8638 18.2568 15.8741 18.3472 15.894C19.0591 16.2483 19.7151 16.7052 20.2942 17.25L20.4585 17.4L20.5185 17.46C20.7597 17.6842 20.9107 17.9888 20.943 18.3165C20.9707 19.1062 20.0145 20.2583 19.383 20.6205C19.0425 20.8657 18.6325 20.9953 18.213 20.9902C17.739 20.9769 17.2736 20.8602 16.8495 20.6483ZM11.625 9.87675H11.5732C10.9658 10.1182 10.4468 10.5399 10.086 11.085L10.0365 11.16C9.92125 11.4196 9.87192 11.7037 9.89285 11.9869C9.91379 12.2702 10.0043 12.5439 10.1565 12.7837L10.2165 12.93C10.9873 14.421 12.0084 15.7685 13.2352 16.914C14.3766 18.1151 15.7178 19.1091 17.199 19.8517L17.3265 19.908C17.5984 20.0343 17.8931 20.1044 18.1927 20.1143C18.4492 20.1183 18.7002 20.0393 18.9082 19.8892L18.9382 19.8697C19.1723 19.6863 19.3879 19.4803 19.5817 19.2548C19.8292 19.0168 19.9996 18.7101 20.0707 18.3742C20.0458 18.2619 19.9857 18.1605 19.899 18.0848L19.8502 18.0367C19.329 17.5629 18.7668 17.1363 18.1702 16.7617C18.1456 16.7567 18.1204 16.7541 18.0952 16.7543C17.932 16.7775 17.7772 16.8414 17.6452 16.9403L17.4952 17.0235C17.2785 17.1591 17.0306 17.2366 16.7752 17.2485C16.6249 17.2461 16.4761 17.2171 16.3357 17.163C15.5369 16.8464 14.8122 16.3678 14.2073 15.7574C13.6024 15.147 13.1305 14.418 12.8212 13.6162C12.7485 13.4057 12.7293 13.1803 12.7654 12.9604C12.8016 12.7406 12.8919 12.5332 13.0282 12.357L13.095 12.237C13.221 12.012 13.2502 11.9078 13.2255 11.787C12.8681 11.2147 12.4634 10.6733 12.0157 10.1685L11.9115 10.0597L11.856 10.0088C11.7986 9.95531 11.7306 9.91444 11.6565 9.88875L11.625 9.87675ZM18.075 13.7857C17.9952 13.3658 17.7913 12.9795 17.4897 12.6767C17.1881 12.3739 16.8026 12.1684 16.383 12.087C16.2778 12.0676 16.1834 12.0104 16.1174 11.9262C16.0514 11.842 16.0185 11.7366 16.0247 11.6299C16.031 11.5231 16.076 11.4223 16.1514 11.3464C16.2268 11.2705 16.3273 11.2248 16.434 11.2178H16.5L16.56 11.2252C17.1498 11.3404 17.6917 11.6297 18.1156 12.0557C18.5395 12.4818 18.826 13.0251 18.9382 13.6155C18.9495 13.6717 18.9495 13.7296 18.9384 13.7859C18.9272 13.8422 18.9051 13.8956 18.8733 13.9434C18.8414 13.9911 18.8005 14.032 18.7529 14.0639C18.7052 14.0958 18.6517 14.118 18.5955 14.1293C18.5393 14.1405 18.4813 14.1405 18.4251 14.1294C18.3688 14.1182 18.3153 14.0961 18.2676 14.0643C18.2199 14.0324 18.1789 13.9915 18.147 13.9439C18.1151 13.8962 18.093 13.8427 18.0817 13.7865L18.075 13.7857ZM20.1322 13.746C20.0282 12.7956 19.604 11.9089 18.9294 11.2315C18.2547 10.5541 17.3697 10.1264 16.4197 10.0185C16.3143 10.0068 16.2166 9.95717 16.1449 9.87894C16.0732 9.80071 16.0323 9.69914 16.0297 9.59304C16.0271 9.48695 16.0631 9.38352 16.131 9.30192C16.1988 9.22032 16.2939 9.16608 16.3987 9.14925L16.4587 9.144H16.5187C17.666 9.27369 18.735 9.78988 19.5499 10.6077C20.3649 11.4255 20.8773 12.4963 21.003 13.644C21.0161 13.7594 20.9828 13.8754 20.9106 13.9663C20.8383 14.0573 20.7329 14.1159 20.6175 14.1293H20.5687C20.4623 14.1291 20.3595 14.0901 20.2798 14.0195C20.2001 13.9489 20.149 13.8517 20.136 13.746H20.1322Z" fill="white"/>
</svg>
