<svg width="40" height="40" viewBox="0 0 40 40" fill="none" xmlns="http://www.w3.org/2000/svg">
<path d="M14 0.5H26C33.4558 0.5 39.5 6.54416 39.5 14V26C39.5 33.4558 33.4558 39.5 26 39.5H14C6.54416 39.5 0.5 33.4558 0.5 26V14C0.5 6.54416 6.54416 0.5 14 0.5Z" stroke="white"/>
<path d="M16.2541 27.068L16.2171 27.0551C16.215 27.0542 16.2132 27.0529 16.2118 27.0511C16.2104 27.0493 16.2094 27.0473 16.2091 27.0451L15.6641 26.736C15.5941 26.708 15.5194 26.6934 15.4441 26.693C15.4138 26.6927 15.3835 26.696 15.3541 26.703C14.7866 26.9065 14.2068 27.0736 13.6181 27.203L13.5101 27.216H13.4771C13.3458 27.2231 13.2146 27.2014 13.0926 27.1523C12.9706 27.1032 12.8609 27.0281 12.7711 26.932C12.6045 26.7239 12.5192 26.4624 12.5311 26.1961L12.5471 26.065C12.6906 25.468 12.8712 24.8805 13.0881 24.306C13.1193 24.1991 13.1071 24.0841 13.0541 23.986L12.9071 23.7C12.2704 22.4796 11.9595 21.1156 12.0042 19.7399C12.049 18.3641 12.448 17.0232 13.1626 15.8468C13.8772 14.6703 14.8833 13.6981 16.0835 13.0242C17.2838 12.3504 18.6376 11.9976 20.0141 12H20.0451C21.2578 12.0072 22.4529 12.2901 23.5402 12.8271C24.6276 13.3641 25.5786 14.1414 26.3213 15.1C27.0641 16.0586 27.5792 17.1736 27.8277 18.3605C28.0762 19.5475 28.0516 20.7755 27.7558 21.9516C27.4599 23.1276 26.9006 24.2211 26.12 25.1492C25.3394 26.0773 24.358 26.8158 23.2501 27.3089C22.1421 27.8019 20.9366 28.0366 19.7246 27.9953C18.5126 27.9539 17.3258 27.6375 16.2541 27.07V27.068ZM16.1171 25.718C16.1911 25.753 16.2841 25.8041 16.4171 25.8781L16.7541 26.072L16.9831 26.189C18.1686 26.7617 19.4932 26.9832 20.8005 26.8275C22.1078 26.6717 23.3433 26.1451 24.3611 25.31L24.5371 25.16C25.5829 24.2387 26.3243 23.0214 26.6631 21.6693C27.0019 20.3173 26.9221 18.8942 26.4342 17.5885C25.9464 16.2828 25.0735 15.1561 23.9312 14.3574C22.7888 13.5588 21.4309 13.1259 20.0371 13.116H19.8121C18.6445 13.1466 17.5039 13.4741 16.498 14.0676C15.4921 14.6612 14.6539 15.5011 14.0626 16.5083C13.4712 17.5155 13.1461 18.6568 13.1181 19.8244C13.09 20.9921 13.3598 22.1476 13.9021 23.182L14.0471 23.4641C14.1427 23.6474 14.2008 23.8479 14.218 24.054C14.2352 24.26 14.2111 24.4674 14.1471 24.664C13.9425 25.2073 13.7715 25.7627 13.6351 26.327L13.7101 26.033L14.0301 25.953C14.2581 25.89 14.4721 25.8251 14.6861 25.7531L15.0201 25.638C15.1612 25.5995 15.3068 25.58 15.4531 25.58C15.6812 25.5819 15.9068 25.6284 16.1171 25.7171V25.718ZM22.6751 19.9931C22.6751 19.8127 22.7285 19.6363 22.8288 19.4863C22.929 19.3364 23.0714 19.2195 23.2381 19.1505C23.4047 19.0814 23.5881 19.0634 23.765 19.0986C23.9419 19.1338 24.1044 19.2206 24.232 19.3482C24.3595 19.4757 24.4464 19.6382 24.4816 19.8151C24.5167 19.992 24.4987 20.1754 24.4296 20.3421C24.3606 20.5087 24.2437 20.6511 24.0937 20.7514C23.9438 20.8516 23.7674 20.905 23.5871 20.905C23.3454 20.9048 23.1136 20.8086 22.9428 20.6376C22.772 20.4666 22.6761 20.2348 22.6761 19.9931H22.6751ZM19.1281 19.9931C19.1279 19.8124 19.1813 19.6358 19.2815 19.4855C19.3817 19.3353 19.5242 19.2181 19.691 19.1488C19.8578 19.0796 20.0414 19.0613 20.2186 19.0964C20.3957 19.1316 20.5585 19.2184 20.6863 19.3461C20.8141 19.4737 20.9011 19.6364 20.9365 19.8135C20.9718 19.9907 20.9537 20.1743 20.8847 20.3412C20.8156 20.5081 20.6986 20.6507 20.5484 20.7511C20.3982 20.8515 20.2217 20.905 20.0411 20.905C19.9213 20.9052 19.8027 20.8817 19.692 20.836C19.5813 20.7903 19.4807 20.7232 19.3959 20.6386C19.3111 20.554 19.2438 20.4536 19.1979 20.343C19.1519 20.2324 19.1282 20.1138 19.1281 19.994V19.9931ZM15.5801 19.9931C15.5799 19.8124 15.6332 19.6358 15.7334 19.4855C15.8337 19.3353 15.9762 19.2181 16.143 19.1488C16.3098 19.0796 16.4934 19.0613 16.6706 19.0964C16.8478 19.1316 17.0105 19.2184 17.1383 19.3461C17.2661 19.4737 17.3531 19.6364 17.3884 19.8135C17.4238 19.9907 17.4057 20.1743 17.3367 20.3412C17.2676 20.5081 17.1506 20.6507 17.0004 20.7511C16.8503 20.8515 16.6737 20.905 16.4931 20.905C16.3733 20.9052 16.2547 20.8817 16.144 20.836C16.0333 20.7903 15.9327 20.7232 15.8479 20.6386C15.7631 20.554 15.6958 20.4536 15.6499 20.343C15.6039 20.2324 15.5802 20.1138 15.5801 19.994V19.9931Z" fill="white"/>
</svg>
