<svg width="60" height="60" viewBox="0 0 60 60" fill="none" xmlns="http://www.w3.org/2000/svg">
<path d="M29.992 59.984C46.5561 59.984 59.984 46.5561 59.984 29.992C59.984 13.4279 46.5561 0 29.992 0C13.4279 0 0 13.4279 0 29.992C0 46.5561 13.4279 59.984 29.992 59.984Z" fill="#724747"/>
<path d="M29.992 55.81C44.2509 55.81 55.81 44.2508 55.81 29.992C55.81 15.7331 44.2509 4.17395 29.992 4.17395C15.7331 4.17395 4.17401 15.7331 4.17401 29.992C4.17401 44.2508 15.7331 55.81 29.992 55.81Z" fill="white"/>
<path d="M58.388 21.654C60.0385 27.2713 59.9861 33.2519 58.2373 38.8394C56.4886 44.4269 53.1222 49.3703 48.5637 53.0444C44.0053 56.7185 38.4597 58.9583 32.6283 59.4804C26.7968 60.0026 20.9415 58.7836 15.8029 55.9778C10.6643 53.1719 6.47316 48.9052 3.75963 43.7172C1.0461 38.5292 -0.0679518 32.6531 0.558366 26.8319C1.18468 21.0107 3.52324 15.506 7.27827 11.014C11.0333 6.52204 16.0361 3.24451 21.654 1.59598C29.1851 -0.61397 37.2855 0.257584 44.1741 4.01899C51.0627 7.78039 56.1754 14.1237 58.388 21.654ZM22.454 4.31898C17.3751 5.81023 12.8526 8.77413 9.45827 12.8358C6.06397 16.8975 3.95037 21.8745 3.3848 27.1375C2.81922 32.4005 3.82707 37.7129 6.28088 42.4031C8.73469 47.0932 12.5242 50.9504 17.1703 53.4867C21.8163 56.023 27.1102 57.1246 32.3823 56.6521C37.6544 56.1797 42.6681 54.1544 46.7891 50.8324C50.9101 47.5104 53.9535 43.041 55.5343 37.9893C57.1151 32.9375 57.1623 27.5305 55.67 22.452C53.6692 15.6431 49.0459 9.90773 42.8169 6.50724C36.5879 3.10675 29.2633 2.31963 22.454 4.31898Z" fill="#A26161"/>
<path d="M34.309 53.701C44.1314 53.701 52.094 45.7384 52.094 35.916C52.094 26.0936 44.1314 18.131 34.309 18.131C24.4866 18.131 16.524 26.0936 16.524 35.916C16.524 45.7384 24.4866 53.701 34.309 53.701Z" fill="#2B1B1B"/>
<path d="M41.233 48.747C42.748 46.713 41.907 43.847 42.299 41.338C42.6715 39.8264 43.1329 38.3382 43.681 36.881C43.9503 36.1485 44.0507 35.3647 43.9749 34.5879C43.899 33.8112 43.6489 33.0616 43.243 32.395C42.443 31.323 41.081 30.857 39.984 30.088C38.05 28.732 36.919 26.417 34.897 25.196C34.1536 24.7541 33.3234 24.4781 32.4633 24.3869C31.6032 24.2958 30.7336 24.3917 29.914 24.668C28.195 25.261 26.831 26.554 25.151 27.236C23.281 27.996 21.281 28.242 19.519 29.315C18.6838 29.7745 17.9638 30.4175 17.4131 31.1955C16.8625 31.9736 16.4955 32.8666 16.34 33.807C16.172 35.407 16.84 37.013 16.695 38.619C16.503 40.709 14.948 42.638 15.338 44.701C15.6504 45.9162 16.4082 46.9696 17.461 47.652C18.461 48.384 19.6 48.912 20.629 49.606C21.658 50.3 22.593 51.178 23.658 51.843C24.6952 52.5742 25.9702 52.8871 27.228 52.719C28.3356 52.3331 29.3958 51.8225 30.388 51.197C33.777 49.653 38.646 52.219 41.233 48.747Z" fill="#EAE6CE"/>
<path d="M35.629 26.182C36.165 26.7364 36.6691 27.3207 37.139 27.932C38.0949 29.0509 39.2536 29.9792 40.554 30.668C41.4991 31.0663 42.3315 31.691 42.978 32.487C43.2751 32.9034 43.482 33.3772 43.5853 33.8781C43.6886 34.3791 43.6861 34.8961 43.578 35.396C43.358 36.588 42.778 37.68 42.439 38.844C42.0546 40.6676 41.8559 42.5254 41.846 44.389C41.8305 46.2683 41.1752 48.0861 39.988 49.543C39.7213 49.8374 39.3983 50.0754 39.038 50.243C37.572 50.877 35.97 49.743 34.379 49.611C32.8616 49.6518 31.3862 50.1182 30.121 50.957C28.782 51.657 27.271 52.315 25.807 51.946C23.861 51.456 22.807 49.398 21.238 48.146C19.747 46.958 17.622 46.354 16.852 44.61C16.298 43.355 16.652 41.91 16.863 40.558C17.062 39.3058 17.1381 38.0371 17.09 36.77C17.0597 36.4471 17.0752 36.1216 17.136 35.803C17.403 35.104 17.9157 34.5262 18.578 34.178C19.902 33.287 21.351 32.393 22.024 30.946C22.25 30.459 22.378 29.928 22.644 29.462C23.2871 28.5308 24.2355 27.8538 25.325 27.548C26.4074 27.2473 27.4437 26.8002 28.405 26.219C29.363 25.3398 30.5926 24.8142 31.89 24.729C33.2739 24.7306 34.6072 25.2488 35.629 26.182Z" fill="#F1F3E2"/>
<path d="M31.5876 45.163C35.158 43.6688 36.8411 39.5632 35.3469 35.9928C33.8527 32.4224 29.7471 30.7393 26.1768 32.2335C22.6064 33.7277 20.9233 37.8333 22.4175 41.4037C23.9117 44.9741 28.0173 46.6571 31.5876 45.163Z" fill="#EAE6CE"/>
<path d="M29.02 45.278C32.7297 45.278 35.737 42.2707 35.737 38.561C35.737 34.8513 32.7297 31.844 29.02 31.844C25.3103 31.844 22.303 34.8513 22.303 38.561C22.303 42.2707 25.3103 45.278 29.02 45.278Z" fill="#FE7B23"/>
<path d="M22.666 36.989C22.4918 37.9786 22.5448 38.9948 22.821 39.961C23.705 43.351 27.137 44.687 30.411 43.961C33.199 43.34 35.726 41.217 35.375 38.137C34.539 30.801 24.047 30.134 22.666 36.989Z" fill="#F99D38"/>
<path d="M28.482 41.291C27.6771 41.3272 26.8751 41.1716 26.1422 40.8371C25.4092 40.5026 24.7661 39.9987 24.266 39.367C22.242 36.633 24.096 33.485 27.547 32.797C28.6602 32.513 29.8241 32.4914 30.947 32.734C31.5157 32.8999 32.0415 33.1875 32.488 33.5768C32.9345 33.9661 33.291 34.4478 33.5329 34.9885C33.7748 35.5293 33.8963 36.1162 33.8889 36.7085C33.8814 37.3008 33.7454 37.8845 33.49 38.419C32.9997 39.3116 32.2729 40.0518 31.3894 40.5584C30.506 41.0651 29.5001 41.3185 28.482 41.291Z" fill="#F8B765"/>
<path d="M29.171 35.291C29.228 35.6244 29.1811 35.9673 29.0368 36.2732C28.8924 36.5791 28.6575 36.8333 28.3639 37.0012C28.0703 37.1692 27.7321 37.2429 27.3952 37.2122C27.0584 37.1816 26.7391 37.0482 26.4805 36.8301C26.222 36.6119 26.0368 36.3196 25.9499 35.9927C25.8631 35.6658 25.8788 35.32 25.9949 35.0024C26.1111 34.6847 26.3221 34.4104 26.5994 34.2166C26.8766 34.0228 27.2067 33.9189 27.545 33.919C27.9421 33.8876 28.3355 34.0141 28.6399 34.271C28.9443 34.5278 29.1351 34.8943 29.171 35.291Z" fill="#FBCE95"/>
<path d="M36.624 40.4921C36.7245 40.4921 36.806 40.4106 36.806 40.3101C36.806 40.2095 36.7245 40.1281 36.624 40.1281C36.5235 40.1281 36.442 40.2095 36.442 40.3101C36.442 40.4106 36.5235 40.4921 36.624 40.4921Z" fill="#EAE6CE"/>
<path d="M36.624 42.562C36.624 42.6136 36.6087 42.6641 36.58 42.707C36.5513 42.7499 36.5106 42.7834 36.4629 42.8032C36.4152 42.8229 36.3627 42.8281 36.3121 42.818C36.2614 42.8079 36.2149 42.7831 36.1784 42.7466C36.1419 42.7101 36.1171 42.6636 36.107 42.6129C36.0969 42.5623 36.1021 42.5098 36.1219 42.4621C36.1416 42.4145 36.1751 42.3737 36.218 42.345C36.2609 42.3163 36.3114 42.301 36.363 42.301C36.3973 42.301 36.4312 42.3078 36.4629 42.3209C36.4945 42.334 36.5233 42.3532 36.5475 42.3775C36.5718 42.4017 36.591 42.4305 36.6041 42.4621C36.6172 42.4938 36.624 42.5278 36.624 42.562Z" fill="#EAE6CE"/>
<path d="M39.282 43.144C39.282 43.2073 39.2633 43.2691 39.2281 43.3218C39.1929 43.3744 39.143 43.4154 39.0845 43.4396C39.026 43.4638 38.9617 43.4702 38.8996 43.4578C38.8375 43.4455 38.7805 43.415 38.7358 43.3703C38.691 43.3255 38.6605 43.2685 38.6482 43.2064C38.6358 43.1443 38.6422 43.08 38.6664 43.0215C38.6906 42.963 38.7316 42.9131 38.7842 42.8779C38.8369 42.8427 38.8987 42.824 38.962 42.824C39.0469 42.824 39.1283 42.8577 39.1883 42.9177C39.2483 42.9777 39.282 43.0591 39.282 43.144Z" fill="#EAE6CE"/>
<path d="M42.222 32.455C42.222 32.5487 42.1942 32.6403 42.1421 32.7183C42.09 32.7962 42.016 32.857 41.9294 32.8929C41.8428 32.9288 41.7475 32.9381 41.6555 32.9198C41.5636 32.9016 41.4791 32.8564 41.4128 32.7901C41.3465 32.7238 41.3014 32.6394 41.2831 32.5474C41.2648 32.4555 41.2742 32.3602 41.3101 32.2736C41.3459 32.187 41.4067 32.1129 41.4846 32.0608C41.5626 32.0088 41.6542 31.981 41.748 31.981C41.8737 31.981 41.9943 32.0309 42.0832 32.1198C42.172 32.2087 42.222 32.3292 42.222 32.455Z" fill="#EAE6CE"/>
<path d="M43.11 33.35C43.11 33.3896 43.0983 33.4282 43.0763 33.4611C43.0543 33.494 43.0231 33.5197 42.9866 33.5348C42.95 33.5499 42.9098 33.5539 42.871 33.5462C42.8322 33.5385 42.7966 33.5194 42.7686 33.4914C42.7406 33.4635 42.7216 33.4278 42.7139 33.389C42.7061 33.3502 42.7101 33.31 42.7252 33.2735C42.7404 33.2369 42.766 33.2057 42.7989 33.1837C42.8318 33.1618 42.8705 33.15 42.91 33.15C42.9631 33.15 43.0139 33.1711 43.0514 33.2086C43.089 33.2461 43.11 33.297 43.11 33.35Z" fill="#EAE6CE"/>
<path d="M31.23 30.63C31.4128 30.63 31.561 30.4818 31.561 30.299C31.561 30.1162 31.4128 29.968 31.23 29.968C31.0472 29.968 30.899 30.1162 30.899 30.299C30.899 30.4818 31.0472 30.63 31.23 30.63Z" fill="#EAE6CE"/>
<path d="M34.082 26.047C34.082 26.1014 34.0659 26.1545 34.0357 26.1998C34.0055 26.245 33.9625 26.2802 33.9123 26.301C33.862 26.3219 33.8067 26.3273 33.7534 26.3167C33.7 26.3061 33.651 26.2799 33.6126 26.2414C33.5741 26.203 33.5479 26.154 33.5373 26.1006C33.5267 26.0473 33.5322 25.992 33.553 25.9417C33.5738 25.8915 33.609 25.8485 33.6543 25.8183C33.6995 25.7881 33.7527 25.772 33.807 25.772C33.88 25.772 33.9499 25.8009 34.0015 25.8525C34.0531 25.9041 34.082 25.974 34.082 26.047Z" fill="#EAE6CE"/>
<path d="M18.517 36.034C18.517 36.0897 18.5005 36.1442 18.4695 36.1906C18.4385 36.237 18.3944 36.2731 18.3429 36.2945C18.2914 36.3158 18.2347 36.3214 18.18 36.3105C18.1253 36.2997 18.075 36.2728 18.0356 36.2334C17.9962 36.1939 17.9693 36.1437 17.9584 36.089C17.9475 36.0343 17.9531 35.9776 17.9745 35.926C17.9958 35.8745 18.032 35.8305 18.0783 35.7995C18.1247 35.7685 18.1792 35.752 18.235 35.752C18.3098 35.752 18.3815 35.7817 18.4344 35.8345C18.4873 35.8874 18.517 35.9592 18.517 36.034Z" fill="#EAE6CE"/>
<path d="M18.324 39.671C18.324 39.7075 18.3132 39.7433 18.2929 39.7737C18.2725 39.8042 18.2436 39.8279 18.2098 39.8419C18.176 39.8559 18.1388 39.8595 18.1029 39.8524C18.0671 39.8453 18.0341 39.8276 18.0082 39.8018C17.9824 39.7759 17.9647 39.7429 17.9576 39.7071C17.9505 39.6712 17.9541 39.634 17.9681 39.6002C17.9821 39.5664 18.0058 39.5375 18.0363 39.5171C18.0667 39.4968 18.1025 39.486 18.139 39.486C18.1881 39.486 18.2352 39.5055 18.2699 39.5401C18.3045 39.5748 18.324 39.6219 18.324 39.671Z" fill="#EAE6CE"/>
<path d="M34.638 14.6459C34.8225 15.3592 34.7518 16.1145 34.438 16.7811C34.1243 17.4477 33.5873 17.9836 32.92 18.2959C31.893 18.7409 30.62 18.6299 29.768 19.3609C29.04 19.9889 28.868 21.0379 28.352 21.8489C26.965 24.0239 23.561 23.9609 21.929 25.9579C20.638 27.5379 20.677 30.1579 18.894 31.1499C17.779 31.7709 16.272 31.5079 15.287 32.3189C14.447 33.0109 14.301 34.2189 13.807 35.1889C13.4836 35.8066 13.0119 36.3343 12.4342 36.7246C11.8564 37.1149 11.1908 37.3555 10.497 37.4249L5.87201 31.9469C6.56579 31.8776 7.23147 31.637 7.80923 31.2467C8.38699 30.8564 8.85872 30.3287 9.18201 29.7109C9.67701 28.7419 9.82201 27.5329 10.662 26.8419C11.647 26.0309 13.154 26.2929 14.269 25.6729C16.052 24.6809 16.013 22.0609 17.304 20.4809C18.936 18.4809 22.341 18.5469 23.727 16.3719C24.244 15.5609 24.415 14.5119 25.143 13.8839C25.991 13.1529 27.268 13.2639 28.295 12.8189C28.9623 12.5066 29.4993 11.9707 29.813 11.3041C30.1268 10.6375 30.1975 9.88221 30.013 9.16895L34.638 14.6459Z" fill="#F05C4A"/>
<path d="M34.477 14.455L30.518 9.76697C30.4052 9.92964 30.3122 10.1052 30.241 10.29C30.107 10.635 29.983 10.944 29.848 11.223C29.7114 11.5351 29.5269 11.8239 29.301 12.079L29.294 12.087C29.0177 12.4009 28.6765 12.651 28.294 12.82L28.253 12.835C28.153 12.881 28.053 12.926 27.941 12.968C26.876 13.2432 25.8788 13.734 25.011 14.41C24.4587 15.0935 23.981 15.834 23.586 16.619C23.0594 17.4269 22.3402 18.0912 21.493 18.552C20.4676 19.0197 19.4041 19.3987 18.314 19.685C18.219 19.717 18.124 19.752 18.029 19.785C17.7598 19.9841 17.5157 20.2152 17.302 20.473C16.01 22.053 16.05 24.673 14.267 25.665C13.152 26.285 11.645 26.023 10.66 26.834C9.81999 27.526 9.67399 28.734 9.17999 29.703C8.75136 30.5205 8.06484 31.1736 7.22699 31.561C7.27706 31.662 7.35082 31.7495 7.44199 31.816C8.48931 32.7115 9.59582 33.5353 10.754 34.282C10.8307 34.3489 10.9221 34.3968 11.0208 34.4218C11.1195 34.4469 11.2227 34.4483 11.322 34.426C11.4453 34.3577 11.5416 34.2494 11.595 34.119C12.138 33.099 12.501 31.855 13.521 31.319C14.1553 31.0745 14.8214 30.9223 15.499 30.867C16.7131 30.6167 17.7872 29.9157 18.505 28.905C19.09 27.9121 19.5568 26.8543 19.896 25.753C20.2422 24.6429 20.9772 23.6949 21.966 23.083C22.9523 22.7443 23.9793 22.5385 25.02 22.471C26.4659 22.17 27.7396 21.3219 28.575 20.104C28.8987 19.4978 29.3023 18.9378 29.775 18.439C30.5878 17.952 31.4622 17.5763 32.375 17.322C32.9481 17.0734 33.4449 16.6769 33.8143 16.1731C34.1836 15.6693 34.4124 15.0763 34.477 14.455Z" fill="#FF7555"/>
<path d="M6.86902 33.1269L7.40902 33.7659C8.49297 33.3508 9.38875 32.5553 9.92902 31.528C10.1014 31.171 10.2514 30.8036 10.378 30.4279C10.5462 29.7646 10.8871 29.1577 11.366 28.6689C11.9155 28.3042 12.5494 28.0862 13.207 28.0359C13.8486 27.9612 14.4728 27.7779 15.053 27.4939C16.1337 26.7251 16.8948 25.5865 17.192 24.2939C17.4411 23.4761 17.8207 22.7038 18.316 22.007C19.1772 21.1366 20.24 20.4926 21.41 20.132C22.8343 19.7182 24.0932 18.8687 25.01 17.7029C25.2175 17.3581 25.3964 16.9969 25.545 16.6229C25.7223 16.0918 26.0165 15.6072 26.406 15.2049C26.9256 14.8425 27.5289 14.6181 28.159 14.5529C28.6452 14.4734 29.1215 14.3423 29.58 14.1619C30.1654 13.8921 30.6694 13.4727 31.041 12.946C31.4127 12.4193 31.639 11.804 31.697 11.1619L30.841 10.1479C30.9975 10.7948 30.9269 11.4757 30.6408 12.0766C30.3548 12.6774 29.8708 13.1616 29.27 13.4479C28.8617 13.6055 28.4381 13.7202 28.006 13.7899C27.2426 13.875 26.5151 14.1599 25.897 14.6159C25.4139 15.0922 25.048 15.6742 24.828 16.3159C24.6955 16.6508 24.5363 16.9745 24.352 17.2839C23.5181 18.311 22.3883 19.0564 21.116 19.4189C19.8253 19.8245 18.6565 20.5464 17.716 21.5189C17.1627 22.2809 16.7396 23.1295 16.464 24.0299C16.2184 25.1431 15.5837 26.132 14.674 26.819C14.1695 27.058 13.6288 27.2118 13.074 27.2739C12.2828 27.3413 11.5236 27.6173 10.874 28.0739C10.2804 28.6482 9.85623 29.3747 9.64802 30.174C9.53183 30.5177 9.39457 30.854 9.23702 31.181C8.9902 31.6455 8.6539 32.0566 8.24749 32.3906C7.84107 32.7246 7.37259 32.9748 6.86902 33.1269Z" fill="#FFBBA6"/>
<path d="M34.175 14.098L33.514 13.319C33.4816 13.8458 33.3087 14.3543 33.0133 14.7916C32.7178 15.229 32.3106 15.5792 31.834 15.806C31.4196 15.9658 30.9896 16.0821 30.551 16.153C29.7774 16.2389 29.0402 16.5277 28.414 16.99C27.9241 17.4732 27.5533 18.0637 27.331 18.715C27.1968 19.0546 27.0356 19.383 26.849 19.697C26.0001 20.7374 24.8514 21.4912 23.559 21.856C22.2494 22.2675 21.0636 23.0005 20.11 23.988C19.5489 24.7601 19.12 25.6201 18.841 26.533C18.5918 27.6618 17.9482 28.6649 17.026 29.362C16.514 29.6047 15.9652 29.7608 15.402 29.824C14.5992 29.8917 13.8286 30.1712 13.169 30.634C12.5686 31.215 12.139 31.9497 11.927 32.758C11.8096 33.1069 11.6707 33.4482 11.511 33.78C11.2602 34.255 10.9175 34.6753 10.5027 35.0166C10.0879 35.3579 9.60943 35.6133 9.09503 35.768L9.63603 36.409C10.7418 35.9882 11.6553 35.1771 12.204 34.129C12.3791 33.7682 12.5314 33.3968 12.66 33.017C12.8299 32.3435 13.1749 31.727 13.66 31.23C14.2186 30.8594 14.8627 30.6381 15.531 30.587C16.1809 30.5111 16.8133 30.3255 17.401 30.038C18.4959 29.2593 19.2673 28.1062 19.569 26.797C19.8217 25.9668 20.207 25.183 20.71 24.476C21.5845 23.5935 22.6635 22.9409 23.851 22.576C25.2955 22.1572 26.5726 21.2966 27.503 20.115C27.713 19.7655 27.8942 19.3997 28.045 19.021C28.2254 18.4811 28.5248 17.9886 28.921 17.58C29.4488 17.2114 30.0617 16.9832 30.702 16.917C31.1948 16.835 31.6775 16.7009 32.142 16.517C32.6395 16.2904 33.0802 15.9557 33.4319 15.5372C33.7836 15.1187 34.0375 14.627 34.175 14.098Z" fill="#FFBBA6"/>
<g style="mix-blend-mode:multiply" opacity="0.4">
<path d="M10.939 32.8899C11.1078 32.5414 11.2547 32.1827 11.379 31.8159C11.5566 31.1184 11.9186 30.4815 12.427 29.9719C13.0016 29.5832 13.6674 29.3506 14.359 29.2969C14.9786 29.225 15.5817 29.0492 16.143 28.7769C17.1805 28.0268 17.9098 26.925 18.195 25.6769C18.452 24.8399 18.8434 24.0502 19.354 23.3389C20.2375 22.4453 21.3266 21.7819 22.526 21.4069C23.9124 21.0058 25.1397 20.1835 26.038 19.0539C26.2394 18.7178 26.4133 18.366 26.558 18.0019C26.7455 17.4426 27.0581 16.9333 27.472 16.5129C28.0154 16.1247 28.6499 15.8835 29.314 15.8129C29.7863 15.7354 30.2492 15.6083 30.695 15.4339C31.2858 15.1606 31.7879 14.7267 32.144 14.1818C32.5001 13.6368 32.6959 13.0028 32.709 12.3519L32.284 11.8519C32.3726 12.5052 32.2514 13.1697 31.938 13.7497C31.6245 14.3297 31.135 14.7951 30.54 15.0789C30.12 15.2415 29.6844 15.3601 29.24 15.4329C28.51 15.5136 27.8137 15.7835 27.22 16.2159C26.7604 16.6744 26.4125 17.2325 26.203 17.8469C26.0663 18.1929 25.9021 18.5273 25.712 18.8469C24.8563 19.9075 23.6924 20.6762 22.381 21.0469C21.1202 21.4426 19.9775 22.1458 19.056 23.0929C18.5169 23.8385 18.1047 24.668 17.836 25.5479C17.5774 26.7063 16.9091 27.7323 15.954 28.4369C15.4303 28.686 14.8691 28.8468 14.293 28.9129C13.5344 28.9759 12.8057 29.2373 12.18 29.6709C11.6157 30.2233 11.2123 30.9188 11.013 31.6829C10.8941 32.0342 10.7538 32.3778 10.593 32.7119C10.0918 33.6637 9.24348 34.3859 8.224 34.7289L8.493 35.0479C9.54539 34.6529 10.4159 33.8849 10.939 32.8899Z" fill="#C93432"/>
</g>
<path d="M46.03 12.65C45.1651 15.4828 43.5171 18.0135 41.276 19.95C37.476 23.299 34.976 23.239 34.976 23.239L43.149 13.403L46.03 12.65Z" fill="#AA5504"/>
<path d="M33.922 22.1581C37.415 17.9821 40.631 14.4221 44.315 10.4141C45.231 10.9241 46.06 11.6021 46.03 12.6501C42.8003 16.6261 39.0858 20.1824 34.973 23.2361C34.7591 23.1198 34.5705 22.962 34.4184 22.7719C34.2662 22.5818 34.1536 22.3633 34.087 22.1291" fill="#08C069"/>
<path d="M40.605 18.486C38.8325 20.1897 36.9512 21.7763 34.973 23.236C34.5429 22.9642 34.1828 22.5949 33.922 22.158C36.198 19.437 38.36 16.975 40.608 14.483C40.5259 15.8161 40.5249 17.1529 40.605 18.486Z" fill="#08C069"/>
<path d="M43.389 8.25305C43.167 7.86523 42.8468 7.54269 42.4606 7.31783C42.0745 7.09297 41.6359 6.97372 41.189 6.97205C38.654 11.278 36.143 15.719 33.605 20.019C34.3034 21.0976 35.3502 21.9044 36.571 22.305C39.1033 17.7515 41.3795 13.0602 43.389 8.25305Z" fill="#08C069"/>
<path d="M36.978 19.879L43.389 8.25305C43.1669 7.8653 42.8467 7.54282 42.4606 7.31797C42.0744 7.09312 41.6359 6.97382 41.189 6.97205L37.394 13.497C36.132 15.683 34.869 17.869 33.6 20.021L34.726 20.621C35.4961 20.437 36.2494 20.1888 36.978 19.879Z" fill="#08C069"/>
<path d="M40.2931 13.867L43.3931 8.25305C43.171 7.8653 42.8508 7.54282 42.4646 7.31797C42.0784 7.09312 41.6399 6.97382 41.1931 6.97205L37.3981 13.497L37.2031 13.834C38.2331 13.833 39.2621 13.853 40.2931 13.867Z" fill="#FFC644"/>
<path d="M36.978 19.8791L37.221 19.3611C37.383 19.0351 37.6 18.5611 37.884 18.0091C38.168 17.4571 38.492 16.8091 38.857 16.1171C39.222 15.4251 39.616 14.7001 40.013 13.9711C40.41 13.2421 40.82 12.5211 41.213 11.8481C41.606 11.1751 41.978 10.5481 42.294 10.0161C42.61 9.48405 42.894 9.04405 43.083 8.73405L43.392 8.25305L43.15 8.77105C42.988 9.09705 42.772 9.57105 42.487 10.1231C42.202 10.6751 41.88 11.3231 41.514 12.0151C41.148 12.7071 40.754 13.4321 40.357 14.1611C39.96 14.8901 39.549 15.6111 39.157 16.2841C38.765 16.9571 38.392 17.5841 38.076 18.1161C37.76 18.6481 37.476 19.0881 37.287 19.3981L36.978 19.8791Z" fill="#FFDC62"/>
<path d="M49.847 25.2811C47.6426 24.7025 45.3453 24.5666 43.088 24.8811C41.3707 25.098 39.7294 25.7194 38.299 26.6941L45.223 26.8371L49.847 25.2811Z" fill="#AA5504"/>
<path d="M49.847 25.2811L50.542 27.8361L38.773 28.4611L38.3 26.6931L49.847 25.2811Z" fill="#08C069"/>
<path d="M47.198 28.0131C45.9455 27.2358 44.6153 26.5913 43.229 26.0901L38.299 26.6901L38.772 28.4581L47.198 28.0131Z" fill="#08C069"/>
<path d="M51.5451 29.9691C49.0884 28.316 46.2147 27.3908 43.2551 27.3001C38.1941 27.1001 36.2891 28.7201 36.2891 28.7201L48.8341 31.2051L51.5451 29.9691Z" fill="#08C069"/>
<path d="M36.1541 30.2191C41.4981 31.2591 46.2391 31.9961 51.6251 32.7861C51.8779 32.3566 52.0046 31.8646 51.9908 31.3664C51.977 30.8682 51.8232 30.384 51.5471 29.9691C46.5331 28.9176 41.4073 28.4977 36.2891 28.7191C36.1962 28.9442 36.1493 29.1856 36.151 29.4291C36.1528 29.6726 36.2031 29.9133 36.2991 30.1371" fill="#FFC644"/>
<path d="M43.654 28.8581C41.2043 28.6525 38.7438 28.6064 36.288 28.7201C36.1264 29.2023 36.0805 29.7158 36.154 30.2191C39.636 30.8971 42.866 31.4451 46.182 31.9641C45.2773 30.9809 44.4331 29.9436 43.654 28.8581Z" fill="#08C069"/>
<path d="M51.545 29.9691L49.169 29.6391C48.458 29.5341 47.625 29.4451 46.734 29.3391C45.843 29.2331 44.891 29.1391 43.934 29.0621C42.977 28.9851 42.027 28.9191 41.134 28.8671L39.842 28.8041C39.431 28.7871 39.042 28.7721 38.683 28.7661C37.965 28.7501 37.365 28.7301 36.946 28.7311L36.286 28.7201L36.944 28.6551C37.363 28.6231 37.962 28.5661 38.683 28.5461C39.404 28.5261 40.247 28.5051 41.154 28.5191C41.604 28.5351 42.071 28.5411 42.543 28.5731C43.015 28.6051 43.496 28.6351 43.976 28.6731C44.934 28.7611 45.891 28.8671 46.783 28.9981C47.675 29.1291 48.503 29.2831 49.21 29.4231C49.917 29.5631 50.502 29.7081 50.91 29.8041L51.545 29.9691Z" fill="#FFDC62"/>
<path d="M47.9541 19.4851C46.0359 19.4301 44.1616 20.0645 42.6711 21.2731C40.3491 23.4061 40.1251 24.5431 40.1251 24.5431L44.4201 22.6901L47.9541 19.4851Z" fill="#AA5504"/>
<path d="M47.9541 19.4851C47.9751 19.7091 49.0891 22.1301 49.0891 22.1301L41.5541 25.9821L40.1331 24.5431L47.9541 19.4851Z" fill="#08C069"/>
<path d="M48.5541 20.9481C48.3269 20.472 48.1266 19.9836 47.9541 19.4851L46.6421 20.3331C47.3108 20.4233 47.9582 20.6315 48.5541 20.9481Z" fill="#08C069"/>
<path d="M40.4661 24.8861L41.5491 25.9861L45.7491 23.8431C43.9864 24.1845 42.2254 24.5321 40.4661 24.8861Z" fill="#08C069"/>
<path d="M49.9211 22.3971C49.6001 22.5251 38.0271 25.4381 38.1211 25.0171C38.2151 24.5961 39.2401 22.6451 42.8951 21.2331C46.5501 19.8211 50.6601 22.1021 49.9211 22.3971Z" fill="#08C069"/>
<path d="M49.921 22.3971C47.6273 22.1465 45.308 22.2729 43.055 22.7711C41.3273 23.3186 39.6722 24.0734 38.126 25.0191L38.162 25.0511C38.84 25.2331 49.612 22.5191 49.921 22.3971Z" fill="#FFC644"/>
<path d="M43.841 23.9192C43.3577 23.6012 42.8717 23.2925 42.383 22.9932C40.8977 23.5191 39.471 24.1981 38.126 25.0192L38.162 25.0512C40.0798 24.8112 41.9778 24.4329 43.841 23.9192Z" fill="#08C069"/>
<path d="M49.9211 22.3971L49.3901 22.3881C49.0521 22.3791 48.5701 22.3881 47.9901 22.3881C47.4101 22.3881 46.7411 22.4241 46.0261 22.4771C45.2818 22.5269 44.5418 22.6272 43.8111 22.7771C43.4416 22.8561 43.077 22.9562 42.7191 23.0771C42.3611 23.1951 42.0141 23.3111 41.6761 23.4381C41.0041 23.6901 40.3811 23.9381 39.8581 24.1841C38.8061 24.6561 38.1221 25.0191 38.1221 25.0191C38.1221 25.0191 38.2751 24.9011 38.5581 24.7131C38.8411 24.5251 39.2481 24.2621 39.7581 23.9871C40.3417 23.6676 40.9411 23.3779 41.5541 23.1191C41.8901 22.9831 42.2441 22.8391 42.6081 22.7191C42.9766 22.5915 43.3523 22.4853 43.7331 22.4011C44.1171 22.3191 44.5051 22.2611 44.8871 22.2191C45.2691 22.1771 45.6461 22.1541 46.0101 22.1391C46.7391 22.1101 47.4191 22.1391 47.9991 22.1741C48.6434 22.2125 49.2851 22.287 49.9211 22.3971Z" fill="#FFDC62"/>
<path d="M46.16 20.519C41.9284 22.8554 37.138 23.989 32.308 23.797C32.085 23.449 32.0092 23.0269 32.097 22.623L45.854 16.343C46.3854 17.6699 46.4923 19.1289 46.16 20.519Z" fill="#08C069"/>
<path d="M32.096 22.628L32.488 23.435C32.488 23.435 41.361 22.429 46.16 20.519C46.4953 19.1279 46.3904 17.667 45.86 16.338L32.096 22.628Z" fill="#08C069"/>
<path d="M43.312 21.446C44.2775 21.1912 45.2283 20.8834 46.16 20.524C46.4953 19.1329 46.3904 17.672 45.86 16.343L39.143 19.409C40.4274 20.2851 41.8316 20.9711 43.312 21.446Z" fill="#FFC644"/>
<path d="M32.488 23.435L33.081 23.324L34.642 23.04L36.842 22.634C37.648 22.485 38.507 22.326 39.363 22.153C40.219 21.98 41.074 21.805 41.875 21.634L43.026 21.375L44.054 21.119L44.917 20.887C45.176 20.823 45.396 20.751 45.579 20.694L46.157 20.522L45.605 20.765C45.428 20.84 45.214 20.935 44.962 21.025C44.71 21.115 44.429 21.225 44.116 21.325C43.489 21.525 42.754 21.758 41.956 21.961C41.556 22.061 41.144 22.167 40.722 22.261C40.3 22.355 39.871 22.45 39.44 22.532C38.578 22.697 37.714 22.851 36.9 22.969C36.086 23.087 35.324 23.175 34.671 23.254C33.366 23.397 32.488 23.435 32.488 23.435Z" fill="#FFDC62"/>
<path d="M40.942 34.589C40.8127 34.7642 40.6342 34.8971 40.4292 34.9707C40.2243 35.0444 40.0021 35.0556 39.7908 35.0028C39.5794 34.9501 39.3885 34.8358 39.2422 34.6744C39.096 34.5131 39.0009 34.3119 38.969 34.0965C38.9371 33.881 38.9699 33.661 39.0633 33.4642C39.1566 33.2674 39.3063 33.1028 39.4933 32.9911C39.6803 32.8795 39.8962 32.8258 40.1137 32.837C40.3312 32.8482 40.5405 32.9237 40.715 33.054C40.9481 33.2279 41.1028 33.487 41.1453 33.7747C41.1879 34.0623 41.1148 34.3551 40.942 34.589Z" fill="#08C069"/>
<path d="M43.849 35.074C43.7388 35.2227 43.5869 35.3354 43.4126 35.3978C43.2382 35.4602 43.0493 35.4695 42.8697 35.4245C42.6901 35.3795 42.5279 35.2823 42.4036 35.1451C42.2792 35.0079 42.1984 34.8369 42.1712 34.6538C42.1441 34.4706 42.1719 34.2836 42.2511 34.1162C42.3303 33.9488 42.4573 33.8087 42.6162 33.7136C42.775 33.6185 42.9585 33.5726 43.1434 33.5817C43.3283 33.5909 43.5064 33.6546 43.655 33.765C43.8543 33.9129 43.9866 34.1339 44.023 34.3793C44.0594 34.6248 43.9968 34.8747 43.849 35.074Z" fill="#08C069"/>
<path d="M45.513 37.475C45.4204 37.6001 45.2927 37.6949 45.1461 37.7475C44.9995 37.8 44.8406 37.8079 44.6896 37.7701C44.5385 37.7323 44.4021 37.6505 44.2975 37.5352C44.1929 37.4198 44.1249 37.276 44.1021 37.122C44.0792 36.9679 44.1026 36.8106 44.1693 36.6699C44.2359 36.5291 44.3428 36.4113 44.4764 36.3313C44.61 36.2514 44.7643 36.2128 44.9198 36.2206C45.0753 36.2284 45.2251 36.2821 45.35 36.375C45.5174 36.4993 45.6285 36.685 45.6591 36.8912C45.6896 37.0975 45.6371 37.3074 45.513 37.475Z" fill="#08C069"/>
<path d="M43.268 37.858C43.1387 38.0333 42.9604 38.1663 42.7554 38.24C42.5505 38.3138 42.3283 38.3251 42.117 38.2725C41.9057 38.2199 41.7147 38.1057 41.5683 37.9445C41.4219 37.7832 41.3267 37.5821 41.2947 37.3667C41.2627 37.1513 41.2954 36.9312 41.3886 36.7344C41.4818 36.5375 41.6313 36.3728 41.8182 36.261C42.0051 36.1492 42.221 36.0955 42.4385 36.1065C42.6561 36.1176 42.8654 36.1929 43.04 36.323C43.2732 36.4968 43.4281 36.7558 43.4708 37.0435C43.5136 37.3311 43.4406 37.624 43.268 37.858Z" fill="#08C069"/>
<path d="M42.587 36.6549C42.4001 36.9068 42.1427 37.0977 41.8474 37.2033C41.5521 37.3089 41.232 37.3246 40.9278 37.2483C40.6235 37.1721 40.3487 37.0073 40.1381 36.7749C39.9275 36.5424 39.7905 36.2528 39.7445 35.9425C39.6985 35.6322 39.7455 35.3153 39.8797 35.0317C40.0138 34.7482 40.229 34.5108 40.498 34.3495C40.767 34.1883 41.0778 34.1104 41.3911 34.1258C41.7044 34.1412 42.0061 34.2491 42.258 34.4359C42.4254 34.56 42.5666 34.7159 42.6737 34.8945C42.7808 35.0732 42.8517 35.2712 42.8822 35.4773C42.9128 35.6834 42.9024 35.8934 42.8518 36.0955C42.8011 36.2975 42.7112 36.4877 42.587 36.6549Z" fill="#08C069"/>
<path d="M41.312 37.773C41.1715 37.9623 40.978 38.1057 40.756 38.185C40.5341 38.2643 40.2935 38.276 40.0649 38.2187C39.8362 38.1613 39.6297 38.0374 39.4715 37.8627C39.3132 37.688 39.2104 37.4703 39.1758 37.2371C39.1413 37.0039 39.1767 36.7657 39.2775 36.5526C39.3783 36.3396 39.5401 36.1612 39.7423 36.04C39.9445 35.9188 40.1781 35.8603 40.4135 35.8719C40.649 35.8835 40.8757 35.9646 41.065 36.1051C41.3188 36.2936 41.4874 36.5752 41.5337 36.8879C41.58 37.2007 41.5003 37.519 41.312 37.773Z" fill="#08C069"/>
<path d="M39.606 37.1909C39.5303 37.2934 39.4258 37.3711 39.3059 37.4141C39.186 37.4572 39.056 37.4638 38.9324 37.4329C38.8087 37.4021 38.697 37.3353 38.6114 37.2409C38.5257 37.1466 38.47 37.0289 38.4512 36.9029C38.4325 36.7769 38.4515 36.6481 38.506 36.5329C38.5604 36.4177 38.6478 36.3212 38.7571 36.2557C38.8664 36.1902 38.9926 36.1586 39.1199 36.1648C39.2472 36.1711 39.3697 36.215 39.472 36.2909C39.609 36.3926 39.7001 36.5445 39.7252 36.7132C39.7503 36.882 39.7075 37.0538 39.606 37.1909Z" fill="#08C069"/>
<path d="M40.449 39.138C40.3043 39.333 40.105 39.4806 39.8763 39.5623C39.6476 39.644 39.3999 39.656 39.1644 39.597C38.9289 39.5379 38.7162 39.4103 38.5531 39.2304C38.3901 39.0505 38.2841 38.8262 38.2485 38.586C38.2128 38.3459 38.2492 38.1005 38.353 37.881C38.4568 37.6615 38.6233 37.4777 38.8315 37.3528C39.0397 37.2279 39.2803 37.1675 39.5228 37.1793C39.7653 37.1911 39.9989 37.2745 40.194 37.419C40.3237 37.5151 40.4332 37.6358 40.5162 37.7742C40.5993 37.9126 40.6542 38.066 40.6779 38.2257C40.7016 38.3853 40.6935 38.5481 40.6543 38.7046C40.615 38.8612 40.5453 39.0085 40.449 39.138Z" fill="#08C069"/>
<path d="M43.11 40.473C43.0258 40.5866 42.9097 40.6726 42.7765 40.7203C42.6434 40.7679 42.4991 40.775 42.3619 40.7406C42.2247 40.7062 42.1008 40.6319 42.0058 40.5271C41.9109 40.4222 41.8492 40.2916 41.8284 40.1517C41.8077 40.0118 41.829 39.8689 41.8895 39.7411C41.95 39.6132 42.0471 39.5062 42.1684 39.4336C42.2898 39.3609 42.4299 39.3259 42.5712 39.3329C42.7125 39.3399 42.8485 39.3887 42.962 39.473C43.114 39.5862 43.2149 39.755 43.2426 39.9424C43.2704 40.1299 43.2227 40.3207 43.11 40.473Z" fill="#08C069"/>
<path d="M41.03 41.276C40.9429 41.3933 40.823 41.4822 40.6853 41.5314C40.5477 41.5805 40.3986 41.5878 40.2568 41.5522C40.1151 41.5166 39.987 41.4398 39.8889 41.3315C39.7908 41.2232 39.727 41.0882 39.7057 40.9436C39.6843 40.799 39.7062 40.6514 39.7687 40.5193C39.8313 40.3872 39.9316 40.2766 40.057 40.2015C40.1823 40.1264 40.3272 40.0901 40.4731 40.0973C40.6191 40.1045 40.7597 40.1549 40.877 40.242C40.955 40.2998 41.0208 40.3724 41.0707 40.4557C41.1205 40.539 41.1535 40.6312 41.1677 40.7273C41.1819 40.8233 41.1771 40.9212 41.1535 41.0153C41.1298 41.1095 41.0879 41.198 41.03 41.276Z" fill="#08C069"/>
<path d="M42.877 39.587C42.717 39.8031 42.4965 39.9668 42.2434 40.0575C41.9903 40.1482 41.716 40.1618 41.4552 40.0966C41.1944 40.0314 40.9588 39.8902 40.7782 39.6911C40.5976 39.4919 40.4801 39.2436 40.4406 38.9777C40.4012 38.7118 40.4415 38.4401 40.5564 38.1971C40.6714 37.954 40.8558 37.7506 41.0865 37.6124C41.3171 37.4742 41.5835 37.4076 41.8521 37.4209C42.1206 37.4341 42.3791 37.5268 42.595 37.687C42.8839 37.9019 43.0759 38.2226 43.1288 38.5787C43.1816 38.9349 43.0911 39.2975 42.877 39.587Z" fill="#08C069"/>
<path d="M40.964 40.485C40.8208 40.6783 40.6235 40.8248 40.397 40.9059C40.1706 40.9871 39.9251 40.9992 39.6917 40.9408C39.4584 40.8824 39.2476 40.7561 39.086 40.5778C38.9244 40.3996 38.8194 40.1774 38.7841 39.9395C38.7488 39.7015 38.7849 39.4584 38.8878 39.241C38.9907 39.0235 39.1558 38.8415 39.3622 38.7179C39.5686 38.5943 39.807 38.5347 40.0473 38.5467C40.2876 38.5586 40.5189 38.6416 40.712 38.785C40.9707 38.9771 41.1425 39.2641 41.1898 39.5829C41.237 39.9016 41.1558 40.2261 40.964 40.485Z" fill="#08C069"/>
<path d="M43.079 41.9191C42.972 42.0633 42.8247 42.1726 42.6555 42.2331C42.4864 42.2935 42.3032 42.3025 42.129 42.2588C41.9548 42.2152 41.7974 42.1208 41.6768 41.9877C41.5563 41.8546 41.4779 41.6887 41.4516 41.5111C41.4253 41.3334 41.4522 41.1519 41.5291 40.9896C41.6059 40.8273 41.7292 40.6914 41.8833 40.5991C42.0374 40.5068 42.2154 40.4623 42.3947 40.4712C42.5741 40.4801 42.7468 40.542 42.891 40.6491C43.0843 40.7926 43.2127 41.007 43.248 41.2451C43.2832 41.4833 43.2225 41.7257 43.079 41.9191Z" fill="#08C069"/>
<path d="M40.254 36.038C40.1193 36.2202 39.9336 36.3583 39.7204 36.4349C39.5071 36.5115 39.276 36.5231 39.0562 36.4682C38.8363 36.4134 38.6377 36.2945 38.4855 36.1268C38.3332 35.959 38.2342 35.7498 38.2008 35.5257C38.1675 35.3017 38.2014 35.0727 38.2982 34.8679C38.3951 34.6631 38.5505 34.4916 38.7448 34.3751C38.9392 34.2587 39.1637 34.2025 39.39 34.2137C39.6162 34.2249 39.8341 34.303 40.016 34.438C40.2595 34.6188 40.4213 34.8888 40.4659 35.1888C40.5105 35.4888 40.4343 35.7942 40.254 36.038Z" fill="#08C069"/>
<path d="M41.772 39.035C41.6542 39.1938 41.4919 39.314 41.3057 39.3805C41.1195 39.4471 40.9178 39.4569 40.726 39.4088C40.5342 39.3608 40.361 39.2569 40.2282 39.1104C40.0955 38.9639 40.0091 38.7814 39.98 38.5858C39.951 38.3902 39.9805 38.1904 40.065 38.0117C40.1495 37.8329 40.285 37.6832 40.4545 37.5814C40.624 37.4797 40.8199 37.4305 41.0174 37.44C41.2149 37.4495 41.4051 37.5174 41.564 37.635C41.6697 37.7132 41.7589 37.8115 41.8266 37.9242C41.8942 38.0369 41.939 38.1619 41.9583 38.2919C41.9776 38.4219 41.9711 38.5545 41.9392 38.682C41.9072 38.8095 41.8504 38.9295 41.772 39.035Z" fill="#08C069"/>
<path d="M39.485 39.477C39.3755 39.6249 39.2247 39.737 39.0515 39.7991C38.8783 39.8612 38.6905 39.8705 38.512 39.8259C38.3335 39.7813 38.1723 39.6847 38.0487 39.5484C37.9251 39.4121 37.8447 39.2422 37.8176 39.0602C37.7906 38.8782 37.8182 38.6923 37.8969 38.526C37.9755 38.3596 38.1018 38.2204 38.2596 38.1258C38.4175 38.0313 38.5998 37.9857 38.7836 37.9948C38.9674 38.0039 39.1443 38.0673 39.292 38.177C39.4898 38.3239 39.6213 38.5433 39.6575 38.7871C39.6937 39.0308 39.6316 39.279 39.485 39.477Z" fill="#08C069"/>
<path d="M43.582 36.2351C43.4935 36.3543 43.3717 36.4447 43.2318 36.4947C43.092 36.5447 42.9405 36.5521 42.7964 36.516C42.6524 36.4799 42.5222 36.4019 42.4225 36.2918C42.3228 36.1818 42.2579 36.0447 42.2361 35.8978C42.2143 35.7509 42.2365 35.6008 42.3 35.4665C42.3635 35.3323 42.4653 35.2198 42.5927 35.1435C42.72 35.0671 42.8672 35.0302 43.0155 35.0374C43.1638 35.0446 43.3067 35.0957 43.426 35.1841C43.5859 35.3029 43.6922 35.4803 43.7214 35.6773C43.7507 35.8743 43.7005 36.0749 43.582 36.2351Z" fill="#08C069"/>
<path d="M42.669 34.219C42.5129 34.4293 42.298 34.5887 42.0514 34.6768C41.8048 34.765 41.5376 34.778 41.2836 34.7143C41.0296 34.6506 40.8002 34.513 40.6244 34.3189C40.4486 34.1248 40.3343 33.8829 40.296 33.6239C40.2577 33.3648 40.297 33.1002 40.4091 32.8635C40.5212 32.6268 40.7009 32.4287 40.9256 32.2941C41.1503 32.1596 41.4098 32.0947 41.6713 32.1077C41.9329 32.1207 42.1847 32.2109 42.395 32.367C42.6769 32.5763 42.8641 32.889 42.9155 33.2363C42.9669 33.5836 42.8782 33.9371 42.669 34.219Z" fill="#08C069"/>
<path d="M44.254 39.537C44.1277 39.7077 43.9536 39.837 43.7538 39.9087C43.554 39.9803 43.3374 39.9911 43.1315 39.9397C42.9255 39.8882 42.7395 39.7769 42.5969 39.6196C42.4542 39.4624 42.3614 39.2664 42.3302 39.0565C42.299 38.8465 42.3308 38.632 42.4215 38.4401C42.5122 38.2482 42.6578 38.0875 42.8399 37.9783C43.022 37.8692 43.2323 37.8165 43.4444 37.827C43.6564 37.8374 43.8605 37.9105 44.031 38.037C44.2593 38.2065 44.4111 38.4596 44.4529 38.7409C44.4947 39.0221 44.4232 39.3085 44.254 39.537Z" fill="#08C069"/>
<path d="M40.754 42.203C40.6529 42.3397 40.5136 42.4433 40.3536 42.5007C40.1936 42.5582 40.0201 42.5668 39.8552 42.5257C39.6903 42.4845 39.5413 42.3953 39.4271 42.2693C39.3129 42.1434 39.2386 41.9864 39.2136 41.8183C39.1887 41.6501 39.2142 41.4784 39.2869 41.3247C39.3597 41.1711 39.4764 41.0425 39.6222 40.9552C39.7681 40.8679 39.9366 40.8258 40.1064 40.8343C40.2762 40.8428 40.4396 40.9016 40.576 41.003C40.7585 41.1387 40.8797 41.3413 40.913 41.5662C40.9464 41.7912 40.8892 42.0202 40.754 42.203Z" fill="#08C069"/>
<path d="M41.925 36.7881C41.8281 36.9189 41.6946 37.018 41.5413 37.0729C41.3881 37.1278 41.222 37.136 41.064 37.0965C40.9061 37.057 40.7634 36.9715 40.6541 36.851C40.5447 36.7304 40.4736 36.5801 40.4497 36.419C40.4257 36.258 40.4501 36.0935 40.5197 35.9463C40.5893 35.7992 40.7009 35.6759 40.8406 35.5922C40.9802 35.5085 41.1415 35.4681 41.3041 35.4761C41.4667 35.4841 41.6232 35.5401 41.754 35.6371C41.9293 35.767 42.0457 35.9613 42.0778 36.1772C42.1099 36.393 42.0549 36.6127 41.925 36.7881Z" fill="#08C069"/>
<path d="M42.495 33.7371C42.4149 33.8451 42.3046 33.927 42.1779 33.9723C42.0513 34.0176 41.914 34.0244 41.7836 33.9917C41.6531 33.9591 41.5352 33.8884 41.4449 33.7888C41.3546 33.6891 41.2958 33.5649 41.2761 33.4318C41.2564 33.2988 41.2765 33.1629 41.3341 33.0413C41.3916 32.9197 41.4839 32.8179 41.5993 32.7488C41.7147 32.6796 41.848 32.6463 41.9823 32.6529C42.1166 32.6596 42.246 32.7059 42.354 32.7861C42.4988 32.8935 42.5949 33.054 42.6214 33.2324C42.6478 33.4107 42.6024 33.5922 42.495 33.7371Z" fill="#C5CE3D"/>
<path d="M40.085 35.7051C40.0177 35.796 39.9249 35.8649 39.8184 35.9031C39.7119 35.9412 39.5965 35.947 39.4867 35.9195C39.3769 35.8921 39.2778 35.8327 39.2018 35.7489C39.1257 35.6651 39.0763 35.5607 39.0596 35.4488C39.043 35.3369 39.0599 35.2225 39.1082 35.1202C39.1566 35.0179 39.2342 34.9323 39.3312 34.8741C39.4282 34.8159 39.5403 34.7878 39.6533 34.7933C39.7663 34.7988 39.8751 34.8377 39.966 34.9051C40.0879 34.9954 40.1689 35.1304 40.1912 35.2804C40.2135 35.4305 40.1753 35.5832 40.085 35.7051Z" fill="#C5CE3D"/>
<path d="M41.835 36.588C41.7816 36.66 41.7081 36.7144 41.6237 36.7446C41.5394 36.7747 41.448 36.7792 41.3611 36.7574C41.2742 36.7356 41.1957 36.6885 41.1356 36.6221C41.0755 36.5558 41.0363 36.473 41.0232 36.3844C41.0101 36.2958 41.0235 36.2053 41.0618 36.1243C41.1001 36.0433 41.1615 35.9755 41.2384 35.9295C41.3152 35.8834 41.4039 35.8612 41.4934 35.8655C41.5829 35.8699 41.6691 35.9007 41.741 35.954C41.7888 35.9895 41.8292 36.034 41.8598 36.085C41.8904 36.1361 41.9107 36.1927 41.9194 36.2516C41.9281 36.3104 41.9252 36.3705 41.9107 36.4282C41.8962 36.4859 41.8705 36.5402 41.835 36.588Z" fill="#C5CE3D"/>
<path d="M43.521 35.9971C43.4817 36.0501 43.4275 36.0903 43.3652 36.1126C43.303 36.1349 43.2356 36.1382 43.1715 36.1221C43.1074 36.106 43.0495 36.0713 43.0052 36.0223C42.9608 35.9733 42.932 35.9123 42.9224 35.8469C42.9127 35.7816 42.9226 35.7148 42.9509 35.6551C42.9792 35.5954 43.0246 35.5454 43.0813 35.5115C43.138 35.4776 43.2035 35.4612 43.2695 35.4645C43.3355 35.4678 43.399 35.4906 43.452 35.5301C43.5231 35.5829 43.5702 35.6617 43.5832 35.7493C43.5961 35.8369 43.5738 35.926 43.521 35.9971Z" fill="#C5CE3D"/>
<path d="M44.132 39.376C44.0659 39.4649 43.975 39.5322 43.8707 39.5694C43.7665 39.6066 43.6535 39.612 43.5461 39.5851C43.4387 39.5581 43.3417 39.4999 43.2674 39.4178C43.1931 39.3357 43.1448 39.2334 43.1286 39.1239C43.1124 39.0144 43.129 38.9025 43.1764 38.8024C43.2237 38.7023 43.2997 38.6185 43.3947 38.5616C43.4896 38.5047 43.5993 38.4772 43.7099 38.4826C43.8205 38.488 43.927 38.5261 44.016 38.592C44.1352 38.6807 44.2144 38.813 44.2361 38.96C44.2579 39.107 44.2204 39.2566 44.132 39.376Z" fill="#C5CE3D"/>
<path d="M41.525 38.688C41.4705 38.7621 41.3954 38.8183 41.3089 38.8496C41.2225 38.8809 41.1288 38.8859 41.0395 38.8639C40.9503 38.842 40.8695 38.7941 40.8075 38.7263C40.7455 38.6585 40.7049 38.5738 40.6909 38.483C40.677 38.3921 40.6903 38.2992 40.7291 38.2159C40.7679 38.1326 40.8306 38.0627 40.9091 38.015C40.9877 37.9673 41.0786 37.9439 41.1704 37.9478C41.2622 37.9517 41.3508 37.9828 41.425 38.037C41.4744 38.0732 41.5162 38.1187 41.548 38.171C41.5797 38.2233 41.6009 38.2813 41.6102 38.3418C41.6194 38.4023 41.6167 38.464 41.6021 38.5234C41.5875 38.5828 41.5613 38.6388 41.525 38.688Z" fill="#C5CE3D"/>
<path d="M39.378 39.2191C39.3187 39.2982 39.2372 39.3579 39.1439 39.3907C39.0507 39.4236 38.9497 39.428 38.8539 39.4034C38.7581 39.3789 38.6718 39.3265 38.6058 39.2529C38.5397 39.1792 38.497 39.0877 38.4831 38.9898C38.4691 38.8919 38.4844 38.792 38.5272 38.7029C38.5699 38.6137 38.6382 38.5392 38.7233 38.4888C38.8084 38.4384 38.9065 38.4144 39.0052 38.4198C39.104 38.4252 39.1989 38.4597 39.278 38.5191C39.3841 38.5986 39.4542 38.7171 39.473 38.8484C39.4918 38.9796 39.4576 39.113 39.378 39.2191Z" fill="#C5CE3D"/>
<path d="M40.602 41.8941C40.5558 41.9568 40.4919 42.0045 40.4185 42.0309C40.3451 42.0573 40.2656 42.0614 40.1899 42.0426C40.1142 42.0238 40.0458 41.9829 39.9933 41.9252C39.9409 41.8675 39.9067 41.7955 39.8952 41.7183C39.8837 41.6412 39.8954 41.5624 39.9287 41.4919C39.962 41.4213 40.0156 41.3623 40.0825 41.3222C40.1494 41.2822 40.2267 41.2628 40.3046 41.2667C40.3825 41.2706 40.4575 41.2975 40.52 41.3441C40.6037 41.4063 40.6593 41.4991 40.6746 41.6021C40.69 41.7052 40.6639 41.8102 40.602 41.8941Z" fill="#C5CE3D"/>
</svg>
