<svg width="192" height="192" viewBox="0 0 192 192" fill="none" xmlns="http://www.w3.org/2000/svg">
<path d="M95.7504 191.642C148.618 191.642 191.475 148.784 191.475 95.917C191.475 43.0496 148.618 0.192017 95.7504 0.192017C42.8829 0.192017 0.0253906 43.0496 0.0253906 95.917C0.0253906 148.784 42.8829 191.642 95.7504 191.642Z" fill="#724747"/>
<path d="M95.7506 178.319C141.26 178.319 178.153 141.426 178.153 95.917C178.153 50.4076 141.26 13.515 95.7506 13.515C50.2413 13.515 13.3486 50.4076 13.3486 95.917C13.3486 141.426 50.2413 178.319 95.7506 178.319Z" fill="#3F2D20"/>
<path d="M186.381 69.3031C191.645 87.2281 191.474 106.311 185.892 124.14C180.31 141.968 169.567 157.741 155.02 169.463C140.474 181.186 122.778 188.332 104.171 189.997C85.5634 191.663 66.8799 187.773 50.483 178.821C34.0861 169.868 20.7122 156.254 12.0524 139.7C3.39271 123.147 -0.163882 104.397 1.8324 85.8221C3.82868 67.2472 11.2882 49.6814 23.2676 35.3459C35.247 21.0105 51.2083 10.5492 69.1332 5.28506C81.0353 1.78965 93.5093 0.672821 105.843 1.99835C118.177 3.32388 130.129 7.0658 141.016 13.0105C151.904 18.9551 161.514 26.9861 169.297 36.6448C177.081 46.3035 182.886 57.4008 186.381 69.3031ZM71.6842 13.9621C55.4752 18.7219 41.0416 28.1814 30.2087 41.1443C19.3758 54.1072 12.6301 69.9913 10.8247 86.788C9.01923 103.585 12.2351 120.54 20.0657 135.509C27.8963 150.478 39.9898 162.788 54.817 170.884C69.6442 178.98 86.5391 182.497 103.365 180.991C120.191 179.485 136.193 173.024 149.347 162.423C162.501 151.823 172.216 137.56 177.263 121.438C182.311 105.317 182.465 88.0601 177.705 71.8511C174.545 61.0885 169.296 51.0539 162.257 42.3201C155.219 33.5862 146.529 26.3242 136.684 20.9487C126.839 15.5732 116.032 12.1895 104.879 10.9907C93.7263 9.79195 82.4467 10.8016 71.6842 13.9621Z" fill="#A26161"/>
<path d="M109.528 171.589C140.879 171.589 166.293 146.174 166.293 114.824C166.293 83.4735 140.879 58.059 109.528 58.059C78.1777 58.059 52.7632 83.4735 52.7632 114.824C52.7632 146.174 78.1777 171.589 109.528 171.589Z" fill="#2B1B1B"/>
<path d="M86.4006 34.586C86.3906 34.622 86.3696 34.654 86.3616 34.686C86.3232 34.8913 86.3084 35.1004 86.3176 35.309C86.3176 35.343 86.3176 35.374 86.3176 35.409C86.3314 35.677 86.3598 35.9441 86.4026 36.209C86.4116 36.264 86.4206 36.318 86.4296 36.375C86.4806 36.675 86.5466 36.994 86.6296 37.34C86.6426 37.395 86.6586 37.453 86.6726 37.51C86.7636 37.876 86.8656 38.258 86.9866 38.664L87.0006 38.711C87.1226 39.117 87.2596 39.544 87.4086 39.983C87.4266 40.036 87.4436 40.088 87.4616 40.142C87.6106 40.578 87.7726 41.028 87.9446 41.486C87.9706 41.558 87.9976 41.629 88.0246 41.701C88.1986 42.1624 88.3819 42.629 88.5746 43.101L88.6516 43.288C88.8516 43.788 89.0656 44.288 89.2846 44.788C89.5139 45.312 89.7503 45.834 89.9936 46.354L90.0236 46.419C90.2576 46.919 90.4976 47.413 90.7396 47.899L90.8106 48.041C91.0526 48.523 91.2963 48.9934 91.5416 49.452L91.5966 49.552C92.2778 50.8436 93.041 52.0901 93.8816 53.284L93.9276 53.348C94.1636 53.671 94.3936 53.964 94.6186 54.223L94.6646 54.276C95.4076 55.126 96.0716 55.602 96.5786 55.513C99.3786 55.013 99.8976 34.128 98.4906 32.74C95.4146 29.709 87.3136 31.294 86.4006 34.586Z" fill="#E0DBBF"/>
<path d="M130.47 45.792C130.433 45.792 130.395 45.786 130.359 45.792C130.153 45.8264 129.952 45.8844 129.759 45.965C129.727 45.977 129.698 45.986 129.666 46C129.421 46.1042 129.182 46.2221 128.95 46.353L128.801 46.436C128.539 46.587 128.262 46.758 127.968 46.953L127.821 47.053C127.509 47.263 127.186 47.491 126.846 47.744L126.812 47.769C126.473 48.023 126.12 48.299 125.759 48.588L125.624 48.697C125.268 48.985 124.904 49.29 124.534 49.607L124.356 49.76C123.985 50.0807 123.611 50.412 123.233 50.754L123.083 50.891C122.689 51.2517 122.294 51.6204 121.898 51.997C121.486 52.3924 121.077 52.7924 120.673 53.197L120.623 53.246C120.375 53.496 120.13 53.7467 119.888 53.998C123.188 48.528 127.188 37.863 126.581 36.554C124.767 32.63 116.626 31.267 114.615 34.029C114.593 34.059 114.562 34.082 114.542 34.113C114.481 34.2086 114.428 34.3089 114.382 34.413C114.366 34.449 114.352 34.491 114.337 34.529C114.303 34.613 114.271 34.699 114.237 34.795C114.22 34.849 114.204 34.907 114.188 34.965C114.16 35.059 114.134 35.154 114.109 35.258C114.093 35.323 114.078 35.391 114.063 35.458C114.04 35.566 114.018 35.677 113.996 35.793C113.982 35.867 113.969 35.942 113.957 36.019C113.936 36.142 113.917 36.27 113.898 36.401C113.887 36.481 113.876 36.559 113.865 36.641C113.847 36.784 113.83 36.934 113.814 37.086C113.805 37.164 113.796 37.24 113.788 37.32C113.77 37.513 113.754 37.713 113.739 37.92C113.739 37.965 113.731 38.007 113.728 38.053C113.71 38.303 113.696 38.561 113.683 38.826C113.683 38.911 113.676 38.999 113.673 39.085C113.665 39.268 113.658 39.453 113.653 39.642C113.653 39.756 113.648 39.873 113.645 39.989C113.645 40.155 113.638 40.321 113.636 40.489C113.636 40.619 113.636 40.749 113.636 40.88C113.636 41.0414 113.636 41.2037 113.636 41.367V41.374C110.725 38.722 104.607 38.082 102.899 40.426C102.877 40.456 102.846 40.479 102.826 40.51C102.765 40.6056 102.712 40.7059 102.666 40.81C102.65 40.846 102.635 40.89 102.62 40.93C102.586 41.013 102.554 41.098 102.52 41.193C102.503 41.246 102.487 41.304 102.471 41.361C102.444 41.455 102.418 41.551 102.393 41.654C102.377 41.719 102.362 41.787 102.347 41.854C102.324 41.9607 102.302 42.0714 102.281 42.186C102.267 42.261 102.253 42.336 102.24 42.414C102.22 42.536 102.201 42.662 102.183 42.791C102.171 42.871 102.16 42.951 102.149 43.034C102.131 43.175 102.115 43.323 102.099 43.473C102.09 43.553 102.081 43.63 102.073 43.712C102.055 43.903 102.038 44.102 102.023 44.305C102.023 44.35 102.016 44.392 102.012 44.438C101.994 44.689 101.979 44.948 101.967 45.213C101.967 45.291 101.961 45.373 101.958 45.452C101.95 45.64 101.942 45.829 101.937 46.024C101.937 46.138 101.932 46.255 101.929 46.371C101.929 46.536 101.922 46.701 101.92 46.871C101.92 47.002 101.92 47.134 101.92 47.271C101.92 47.431 101.92 47.591 101.92 47.752C101.92 47.89 101.92 48.028 101.92 48.167C101.92 48.329 101.92 48.494 101.927 48.658C101.927 48.802 101.933 48.946 101.937 49.091C101.941 49.236 101.946 49.401 101.951 49.557C101.956 49.713 101.962 49.872 101.967 50.031C101.973 50.174 101.98 50.319 101.987 50.464C101.995 50.633 102.002 50.801 102.011 50.971C102.011 50.995 102.011 51.018 102.011 51.041C102.037 51.513 102.068 51.986 102.104 52.46C102.112 52.566 102.118 52.671 102.127 52.776C102.143 52.976 102.161 53.176 102.178 53.376C102.187 53.484 102.196 53.592 102.206 53.698C102.225 53.898 102.245 54.098 102.265 54.298C102.276 54.403 102.287 54.508 102.298 54.614C102.32 54.814 102.342 55.014 102.365 55.214C102.376 55.314 102.387 55.404 102.399 55.498C102.424 55.703 102.45 55.906 102.476 56.107C102.487 56.187 102.498 56.266 102.509 56.345C102.539 56.557 102.568 56.767 102.599 56.974C102.606 57.022 102.614 57.069 102.621 57.116C102.774 58.106 102.949 59.03 103.146 59.856C103.155 59.895 103.164 59.936 103.174 59.975C103.217 60.15 103.261 60.318 103.306 60.483C103.32 60.536 103.334 60.588 103.349 60.64C103.392 60.797 103.437 60.946 103.483 61.093C103.499 61.145 103.515 61.193 103.532 61.248C103.578 61.3887 103.624 61.524 103.671 61.654C103.688 61.701 103.706 61.746 103.723 61.791C103.772 61.919 103.823 62.044 103.872 62.159C103.887 62.194 103.903 62.225 103.918 62.259C103.972 62.378 104.027 62.494 104.083 62.599C104.383 63.156 104.708 63.499 105.058 63.569C107.111 63.95 111.875 53.599 113.925 47.38C113.942 47.564 113.961 47.746 113.979 47.929L114.013 48.251C114.035 48.451 114.056 48.644 114.079 48.839C114.091 48.939 114.103 49.039 114.115 49.139C114.14 49.339 114.165 49.5367 114.191 49.732C114.202 49.819 114.215 49.905 114.227 49.992C114.255 50.197 114.284 50.402 114.314 50.603C114.323 50.66 114.332 50.713 114.34 50.769C114.493 51.755 114.668 52.676 114.864 53.498C114.873 53.536 114.882 53.576 114.891 53.614C114.934 53.787 114.977 53.953 115.021 54.114L115.066 54.282C115.109 54.436 115.153 54.582 115.199 54.728C115.216 54.783 115.233 54.837 115.25 54.889C115.295 55.028 115.341 55.163 115.388 55.289C115.406 55.338 115.424 55.389 115.443 55.432C115.491 55.558 115.543 55.681 115.589 55.795C115.605 55.832 115.622 55.866 115.638 55.902C115.692 56.019 115.745 56.135 115.801 56.237C116.101 56.795 116.427 57.143 116.779 57.208C116.861 57.2207 116.944 57.2183 117.024 57.201C116.441 57.915 115.924 58.596 115.502 59.227L115.461 59.289C115.239 59.6224 115.044 59.9384 114.876 60.237L114.842 60.299C114.299 61.287 114.081 62.072 114.342 62.517C115.768 64.972 135.522 58.29 136.342 56.496C138.133 52.565 133.868 45.517 130.47 45.792Z" fill="#E0DBBF"/>
<path d="M83.3216 145.999C79.1386 146.365 75.1816 147.985 71.1046 148.986C67.0276 149.987 62.4886 150.308 58.8366 148.236C53.3306 145.112 51.6246 137.685 46.4116 134.093C42.8516 131.641 38.1546 131.338 34.5616 128.934C30.6806 126.334 28.6616 121.603 28.2456 116.952C27.8296 112.301 28.7976 107.652 29.7616 103.082L34.7616 79.392C35.7126 74.883 36.8426 70.055 40.2796 66.985C45.2346 62.558 52.9076 63.519 59.2516 65.495C65.5956 67.471 72.2356 70.225 78.6566 68.517C84.3566 67 89.6776 62.056 95.3096 63.803C100.052 65.275 102.274 70.852 106.61 73.273C113.125 76.912 122.451 72.497 128.227 77.222C131.627 80.007 132.312 84.872 134.499 88.689C136.637 92.42 140.192 95.089 143.042 98.306C145.892 101.523 148.137 105.941 146.807 110.03C144.555 116.957 134.157 117.96 131.107 124.576C128.465 130.311 132.707 137.104 131.339 143.268C130.047 149.074 123.914 152.768 117.983 153.204C112.052 153.64 106.254 151.571 100.661 149.546C95.0676 147.521 89.2466 145.482 83.3216 145.999Z" fill="#792E06"/>
<path d="M121.866 135.484C121.539 135.94 121.319 136.462 121.219 137.014C121.119 137.565 121.143 138.132 121.29 138.673C121.436 139.214 121.701 139.716 122.064 140.142C122.428 140.569 122.882 140.909 123.394 141.138C124.014 141.369 124.685 141.425 125.335 141.299C125.984 141.174 126.587 140.871 127.076 140.426C127.565 139.98 127.922 139.408 128.107 138.773C128.292 138.138 128.299 137.464 128.126 136.826C127.954 136.187 127.609 135.608 127.129 135.153C126.649 134.698 126.052 134.383 125.405 134.245C124.758 134.106 124.086 134.148 123.461 134.367C122.837 134.586 122.285 134.972 121.866 135.484Z" fill="#612D17"/>
<path d="M90.4667 74.2751C90.1296 73.5017 89.5853 72.8367 88.8938 72.3534C88.2023 71.8702 87.3906 71.5876 86.5485 71.5369C85.7064 71.4863 84.8667 71.6695 84.1222 72.0663C83.3778 72.4631 82.7576 73.058 82.3302 73.7854C81.9028 74.5127 81.6848 75.3441 81.7005 76.1876C81.7161 77.031 81.9648 77.8537 82.4189 78.5647C82.8729 79.2757 83.5148 79.8472 84.2735 80.2162C85.0322 80.5851 85.8781 80.737 86.7177 80.6551C87.4157 80.5429 88.0803 80.2779 88.664 79.879C89.2477 79.4801 89.7361 78.9572 90.0943 78.3477C90.4524 77.7382 90.6716 77.0571 90.7359 76.3531C90.8003 75.649 90.7084 74.9395 90.4667 74.2751Z" fill="#612D17"/>
<path d="M108.267 152.042C107.517 150.692 106.597 149.353 105.993 147.976C103.693 142.744 106.073 136.748 108.434 131.545C110.795 126.342 113.181 120.351 110.895 115.114C109.53 111.988 106.727 109.767 104.03 107.678L84.2755 92.3831C84.9784 92.7633 85.7879 92.8989 86.5763 92.7684C87.3647 92.6379 88.0873 92.2488 88.6302 91.6623C89.1731 91.0759 89.5055 90.3255 89.5749 89.5294C89.6443 88.7332 89.4468 87.9366 89.0136 87.2651C88.5803 86.5936 87.936 86.0853 87.182 85.8203C86.4281 85.5554 85.6074 85.5488 84.8493 85.8017C84.0912 86.0546 83.4388 86.5525 82.9949 87.2171C82.551 87.8816 82.3409 88.6749 82.3975 89.4721C82.0685 85.0281 81.5385 80.1451 78.2975 77.0921C75.4215 74.3851 71.1575 73.8621 67.2085 73.7771C58.7945 73.5971 50.1545 74.8661 42.8035 78.9631C38.9637 81.0961 35.631 84.0351 33.0345 87.5781C32.1405 91.8161 31.2465 96.0537 30.3525 100.291L30.6305 100.538H30.9335C31.1805 103.038 31.4835 105.597 31.7335 108.102C32.1055 111.858 32.4895 115.672 33.8765 119.183C35.2508 122.543 37.4805 125.485 40.3441 127.717C43.2077 129.948 46.6054 131.391 50.1995 131.902C50.2083 134.714 50.7232 137.502 51.7195 140.131C53.7605 143.225 55.6715 146.44 58.8355 148.231C62.4875 150.303 67.0255 149.982 71.1035 148.981C75.1815 147.98 79.1375 146.36 83.3205 145.995C89.2455 145.477 95.0645 147.515 100.657 149.54C103.155 150.448 105.695 151.35 108.267 152.042Z" fill="#612D17"/>
<path d="M137.673 110.465C136.765 101.942 135.394 93.2471 131.223 85.7591C128.773 81.2989 125.21 77.5495 120.88 74.8761C116.809 74.6761 112.38 75.3151 108.58 74.1011L106.52 76.0951C104.175 78.0437 102.485 80.6654 101.679 83.6057C100.873 86.546 100.989 89.6629 102.012 92.5349C103.036 95.4069 104.916 97.8954 107.4 99.6637C109.883 101.432 112.85 102.395 115.899 102.422C116.843 106.456 117.135 110.603 118.079 114.637C111.852 125.643 109.062 138.26 110.069 150.865C116.307 142.103 120.676 132.152 122.904 121.629C122.804 124.482 127.484 126.29 130.583 126.071C130.712 125.557 130.886 125.055 131.103 124.571C132.387 121.784 134.979 119.994 137.714 118.337C138.073 115.724 138.059 113.074 137.673 110.465Z" fill="#612D17"/>
<path d="M52.2813 51.6422C52.9966 52.3062 53.4989 53.1674 53.7248 54.1169C53.9507 55.0665 53.8899 56.0616 53.5502 56.9766C53.2105 57.8916 52.6071 58.6853 51.8164 59.2574C51.0256 59.8295 50.0829 60.1542 49.1076 60.1906C48.1323 60.2269 47.1681 59.9732 46.3369 59.4616C45.5057 58.95 44.8449 58.2034 44.438 57.3163C44.0312 56.4291 43.8965 55.4412 44.051 54.4775C44.2056 53.5138 44.6424 52.6176 45.3063 51.9022C45.7472 51.4271 46.2773 51.0434 46.8665 50.7732C47.4556 50.503 48.0922 50.3515 48.7399 50.3274C49.3877 50.3033 50.0338 50.4069 50.6414 50.6325C51.249 50.8581 51.8063 51.2012 52.2813 51.6422Z" fill="#728801"/>
<path d="M55.8861 38.8851C56.4967 39.4518 56.9257 40.1868 57.1186 40.9972C57.3115 41.8077 57.2598 42.6571 56.9699 43.4381C56.68 44.2192 56.1651 44.8967 55.4901 45.3851C54.8152 45.8734 54.0106 46.1506 53.1781 46.1817C52.3456 46.2127 51.5226 45.9962 50.8131 45.5595C50.1037 45.1228 49.5397 44.4855 49.1924 43.7282C48.8452 42.971 48.7303 42.1277 48.8623 41.3052C48.9943 40.4826 49.3673 39.7177 49.9341 39.1071C50.694 38.2885 51.7479 37.8052 52.8641 37.7636C53.9803 37.7219 55.0673 38.1253 55.8861 38.8851Z" fill="#728801"/>
<path d="M67.4405 32.6271C67.9545 33.1032 68.3157 33.7211 68.4784 34.4025C68.6411 35.084 68.598 35.7984 68.3545 36.4553C68.1111 37.1122 67.6782 37.6822 67.1107 38.0931C66.5432 38.5039 65.8666 38.7372 65.1665 38.7634C64.4664 38.7896 63.7743 38.6075 63.1777 38.2402C62.5811 37.8728 62.1069 37.3368 61.815 36.6999C61.5232 36.063 61.4268 35.3538 61.5382 34.6621C61.6495 33.9704 61.9635 33.3273 62.4405 32.8141C63.0792 32.127 63.9644 31.7214 64.9018 31.6863C65.8393 31.6513 66.7523 31.9896 67.4405 32.6271Z" fill="#728801"/>
<path d="M68.0504 42.8542C68.7659 43.5183 69.2684 44.3797 69.4943 45.3294C69.7203 46.2792 69.6595 47.2746 69.3198 48.1898C68.98 49.105 68.3765 49.8989 67.5856 50.4711C66.7946 51.0433 65.8517 51.3681 64.8762 51.4045C63.9006 51.4408 62.9362 51.1871 62.1049 50.6753C61.2735 50.1636 60.6126 49.4168 60.2056 48.5294C59.7987 47.6421 59.664 46.654 59.8187 45.69C59.9733 44.7261 60.4103 43.8297 61.0744 43.1142C61.5153 42.639 62.0456 42.2554 62.6348 41.9852C63.224 41.715 63.8607 41.5635 64.5085 41.5393C65.1563 41.5152 65.8025 41.6189 66.4102 41.8445C67.0179 42.0701 67.5753 42.4132 68.0504 42.8542Z" fill="#728801"/>
<path d="M62.3333 45.3071C63.3676 46.267 64.0941 47.512 64.4208 48.8848C64.7476 50.2576 64.6599 51.6964 64.1689 53.0194C63.678 54.3424 62.8057 55.4901 61.6625 56.3173C60.5193 57.1446 59.1564 57.6142 57.7463 57.667C56.3361 57.7197 54.942 57.3531 53.7402 56.6135C52.5384 55.8739 51.5829 54.7946 50.9946 53.512C50.4062 52.2293 50.2113 50.8011 50.4347 49.4077C50.658 48.0144 51.2895 46.7185 52.2493 45.6841C53.5366 44.297 55.3221 43.478 57.2132 43.4073C59.1043 43.3366 60.946 44.02 62.3333 45.3071Z" fill="#728801"/>
<path d="M66.7044 51.5601C67.4822 52.2819 68.0285 53.2181 68.2742 54.2504C68.5198 55.2826 68.4539 56.3646 68.0847 57.3594C67.7155 58.3541 67.0595 59.2171 66.1999 59.8391C65.3402 60.4611 64.3154 60.8143 63.2551 60.8538C62.1947 60.8934 61.1464 60.6177 60.2428 60.0615C59.3391 59.5053 58.6207 58.6936 58.1784 57.7291C57.736 56.7646 57.5896 55.6906 57.7577 54.6429C57.9257 53.5952 58.4006 52.6209 59.1224 51.8431C59.6017 51.3267 60.178 50.9097 60.8184 50.616C61.4588 50.3223 62.1508 50.1576 62.8548 50.1313C63.5589 50.105 64.2612 50.2177 64.9217 50.4628C65.5823 50.708 66.188 51.0808 66.7044 51.5601Z" fill="#728801"/>
<path d="M63.2581 58.9011C63.679 59.291 63.9748 59.797 64.108 60.3551C64.2412 60.9132 64.2058 61.4983 64.0064 62.0363C63.807 62.5743 63.4525 63.041 62.9877 63.3775C62.523 63.714 61.9689 63.905 61.3955 63.9264C60.8221 63.9478 60.2553 63.7987 59.7667 63.4979C59.2781 63.197 58.8898 62.758 58.6508 62.2364C58.4118 61.7148 58.3329 61.134 58.4241 60.5675C58.5153 60.001 58.7725 59.4743 59.1631 59.0541C59.6862 58.4913 60.4112 58.1591 61.1789 58.1304C61.9467 58.1018 62.6945 58.3789 63.2581 58.9011Z" fill="#728801"/>
<path d="M72.3783 56.0932C73.1793 56.8367 73.7418 57.8011 73.9948 58.8643C74.2477 59.9276 74.1797 61.0419 73.7993 62.0665C73.4189 63.0911 72.7432 63.9798 71.8577 64.6204C70.9722 65.261 69.9167 65.6247 68.8245 65.6654C67.7324 65.706 66.6527 65.422 65.722 64.8491C64.7913 64.2761 64.0513 63.4401 63.5958 62.4467C63.1402 61.4532 62.9894 60.347 63.1625 59.2679C63.3356 58.1888 63.8249 57.1853 64.5683 56.3842C65.062 55.8522 65.6556 55.4227 66.3153 55.1202C66.975 54.8177 67.6878 54.648 68.413 54.621C69.1383 54.594 69.8617 54.7101 70.5421 54.9627C71.2224 55.2153 71.8464 55.5994 72.3783 56.0932Z" fill="#728801"/>
<path d="M79.6654 44.8501C80.1319 45.2832 80.4596 45.8449 80.6069 46.4642C80.7543 47.0836 80.7147 47.7327 80.4931 48.3295C80.2716 48.9263 79.8781 49.444 79.3623 49.8172C78.8465 50.1904 78.2317 50.4022 77.5955 50.426C76.9594 50.4498 76.3304 50.2844 75.7883 49.9507C75.2461 49.6171 74.815 49.1302 74.5496 48.5515C74.2841 47.9729 74.1962 47.3286 74.2969 46.7C74.3976 46.0714 74.6824 45.4868 75.1154 45.0201C75.4029 44.7101 75.7487 44.4598 76.133 44.2835C76.5174 44.1071 76.9326 44.0083 77.3552 43.9925C77.7777 43.9767 78.1992 44.0443 78.5956 44.1914C78.992 44.3386 79.3555 44.5624 79.6654 44.8501Z" fill="#728801"/>
<path d="M82.2335 54.5481C82.7158 54.9955 83.0546 55.5759 83.207 56.2158C83.3594 56.8558 83.3187 57.5266 83.0899 58.1433C82.8611 58.7601 82.4545 59.2952 81.9216 59.6809C81.3887 60.0666 80.7534 60.2856 80.096 60.3102C79.4386 60.3348 78.7887 60.1639 78.2284 59.8192C77.6681 59.4744 77.2227 58.9712 76.9484 58.3733C76.6741 57.7754 76.5833 57.1095 76.6875 56.46C76.7916 55.8104 77.086 55.2064 77.5335 54.7241C78.1335 54.0776 78.9656 53.6959 79.847 53.6629C80.7284 53.6298 81.5869 53.9483 82.2335 54.5481Z" fill="#728801"/>
<path d="M75.5875 45.4581C76.4742 46.2809 77.0971 47.3482 77.3772 48.5249C77.6574 49.7017 77.5823 50.9351 77.1615 52.0692C76.7406 53.2033 75.993 54.1871 75.013 54.8962C74.033 55.6054 72.8647 56.008 71.6559 56.0532C70.4471 56.0983 69.2521 55.7841 68.2219 55.15C67.1917 54.516 66.3727 53.5907 65.8684 52.4912C65.3641 51.3917 65.1971 50.1673 65.3887 48.973C65.5802 47.7786 66.1217 46.6678 66.9445 45.7811C68.0478 44.5922 69.5783 43.8903 71.1991 43.8297C72.82 43.7691 74.3985 44.3549 75.5875 45.4581Z" fill="#728801"/>
<path d="M74.9344 63.9372C77.9565 63.9372 80.4064 61.4873 80.4064 58.4652C80.4064 55.4431 77.9565 52.9932 74.9344 52.9932C71.9123 52.9932 69.4624 55.4431 69.4624 58.4652C69.4624 61.4873 71.9123 63.9372 74.9344 63.9372Z" fill="#728801"/>
<path d="M86.1173 45.7051C86.7095 46.2544 87.1255 46.9671 87.3127 47.7529C87.4999 48.5387 87.4498 49.3623 87.1689 50.1197C86.8879 50.877 86.3887 51.534 85.7343 52.0076C85.0799 52.4812 84.2998 52.7501 83.4926 52.7803C82.6854 52.8105 81.8874 52.6007 81.1994 52.1773C80.5115 51.754 79.9645 51.1361 79.6277 50.4019C79.291 49.6677 79.1795 48.8501 79.3074 48.0525C79.4353 47.2549 79.7969 46.5132 80.3463 45.9211C81.0832 45.1275 82.105 44.659 83.1871 44.6185C84.2693 44.578 85.3232 44.9688 86.1173 45.7051Z" fill="#728801"/>
<path d="M58.4216 55.4421C59.1682 56.135 59.6926 57.0337 59.9285 58.0246C60.1644 59.0154 60.1012 60.054 59.7468 61.009C59.3925 61.9639 58.7629 62.7924 57.9377 63.3895C57.1125 63.9866 56.1288 64.3256 55.1109 64.3637C54.093 64.4017 53.0867 64.1371 52.2193 63.6032C51.3518 63.0693 50.6621 62.2902 50.2375 61.3644C49.8128 60.4385 49.6722 59.4076 49.8335 58.4018C49.9948 57.3961 50.4507 56.4608 51.1436 55.7142C52.0726 54.713 53.3613 54.1219 54.7262 54.0709C56.0911 54.0198 57.4204 54.5131 58.4216 55.4421Z" fill="#A2AD22"/>
<path d="M72.5735 50.1262C73.2269 50.7325 73.6859 51.519 73.8924 52.3862C74.0989 53.2533 74.0436 54.1623 73.7335 54.998C73.4233 55.8338 72.8724 56.5588 72.1502 57.0814C71.428 57.604 70.5671 57.9007 69.6763 57.9339C68.7855 57.9672 67.9048 57.7356 67.1456 57.2684C66.3865 56.8011 65.7829 56.1193 65.4113 55.309C65.0397 54.4987 64.9167 53.5965 65.0579 52.7163C65.199 51.8361 65.5981 51.0176 66.2045 50.3642C67.0175 49.4881 68.1453 48.9709 69.3397 48.9262C70.5341 48.8816 71.6973 49.3132 72.5735 50.1262Z" fill="#A2AD22"/>
<path d="M73.4197 60.5721C74.0265 61.1351 74.4527 61.8654 74.6444 62.6706C74.8361 63.4758 74.7847 64.3198 74.4968 65.0959C74.2088 65.8719 73.6972 66.5451 73.0266 67.0304C72.356 67.5156 71.5566 67.7911 70.7295 67.822C69.9023 67.8529 69.0846 67.6379 68.3796 67.204C67.6747 66.7702 67.1143 66.137 66.7692 65.3846C66.4241 64.6323 66.3099 63.7945 66.441 62.9772C66.5721 62.1599 66.9426 61.3998 67.5057 60.7931C68.2606 59.9796 69.3078 59.4993 70.4169 59.4579C71.526 59.4164 72.6061 59.8172 73.4197 60.5721Z" fill="#A2AD22"/>
<path d="M60.9446 40.6522C61.4346 41.107 61.7787 41.6968 61.9334 42.3471C62.0881 42.9975 62.0465 43.6791 61.8138 44.3058C61.5812 44.9325 61.1679 45.4761 60.6263 45.8679C60.0847 46.2597 59.439 46.4822 58.771 46.507C58.103 46.5319 57.4426 46.3582 56.8733 46.0078C56.304 45.6573 55.8514 45.146 55.5728 44.5383C55.2941 43.9307 55.2019 43.2541 55.3078 42.594C55.4137 41.934 55.7129 41.3202 56.1676 40.8302C56.4696 40.5048 56.8327 40.2421 57.2362 40.057C57.6397 39.872 58.0757 39.7683 58.5193 39.7517C58.9629 39.7352 59.4054 39.8062 59.8215 39.9607C60.2377 40.1152 60.6193 40.3502 60.9446 40.6522Z" fill="#A2AD22"/>
<path d="M51.4933 43.7422C52.3566 44.5434 52.9629 45.5826 53.2355 46.7284C53.5082 47.8741 53.435 49.0751 53.0251 50.1792C52.6153 51.2834 51.8872 52.2412 50.933 52.9316C49.9788 53.622 48.8413 54.0139 47.6643 54.0578C46.4874 54.1017 45.3238 53.7957 44.3208 53.1783C43.3178 52.5609 42.5204 51.66 42.0294 50.5895C41.5384 49.5189 41.3759 48.3268 41.5625 47.1639C41.749 46.001 42.2762 44.9195 43.0773 44.0562C43.6093 43.483 44.249 43.0201 44.9598 42.6941C45.6707 42.3681 46.4388 42.1853 47.2203 42.1561C48.0018 42.127 48.7814 42.252 49.5146 42.5242C50.2477 42.7963 50.9201 43.2102 51.4933 43.7422Z" fill="#A2AD22"/>
<path d="M76.0412 39.2911C76.7411 39.9407 77.2326 40.7832 77.4536 41.7121C77.6746 42.641 77.6152 43.6146 77.283 44.5098C76.9507 45.4049 76.3605 46.1815 75.5869 46.7412C74.8133 47.3009 73.8912 47.6187 72.937 47.6543C71.9828 47.69 71.0395 47.4419 70.2263 46.9415C69.4131 46.4411 68.7666 45.7107 68.3685 44.8429C67.9703 43.975 67.8385 43.0086 67.9895 42.0658C68.1406 41.123 68.5679 40.2461 69.2172 39.5461C69.6485 39.0813 70.1672 38.7059 70.7435 38.4415C71.3199 38.177 71.9427 38.0288 72.5764 38.0051C73.2101 37.9814 73.8423 38.0828 74.4368 38.3035C75.0313 38.5241 75.5765 38.8597 76.0412 39.2911Z" fill="#A2AD22"/>
<path d="M86.2396 56.2212C86.7993 56.7412 87.1922 57.4156 87.3687 58.159C87.5451 58.9024 87.4971 59.6815 87.2308 60.3976C86.9645 61.1138 86.4918 61.7348 85.8725 62.1823C85.2532 62.6298 84.515 62.8835 83.7515 62.9115C82.988 62.9395 82.2333 62.7404 81.5829 62.3395C80.9325 61.9385 80.4156 61.3537 80.0976 60.6589C79.7796 59.9642 79.6747 59.1908 79.7963 58.4365C79.9179 57.6821 80.2604 56.9808 80.7806 56.4212C81.478 55.6708 82.4449 55.2282 83.4686 55.1907C84.4924 55.1532 85.4891 55.5239 86.2396 56.2212Z" fill="#A2AD22"/>
<path d="M62.5984 48.3342C63.1348 48.8317 63.5117 49.477 63.6814 50.1887C63.8511 50.9003 63.806 51.6463 63.5519 52.3323C63.2977 53.0183 62.8459 53.6136 62.2535 54.0429C61.6611 54.4722 60.9547 54.7163 60.2237 54.7442C59.4926 54.7722 58.7697 54.5828 58.1462 54.1999C57.5228 53.8171 57.0268 53.2581 56.721 52.5934C56.4152 51.9288 56.3133 51.1884 56.4282 50.4659C56.5431 49.7434 56.8696 49.0712 57.3664 48.5342C57.6967 48.1772 58.0941 47.8889 58.5358 47.6856C58.9776 47.4824 59.4551 47.3682 59.941 47.3496C60.4269 47.331 60.9117 47.4084 61.3677 47.5774C61.8237 47.7463 62.2419 48.0035 62.5984 48.3342Z" fill="#A2AD22"/>
<path d="M49.2336 44.2781C49.6775 44.6891 49.9896 45.2225 50.1303 45.8109C50.271 46.3993 50.234 47.0161 50.0241 47.5835C49.8141 48.1509 49.4405 48.6432 48.9507 48.9982C48.4609 49.3532 47.8767 49.555 47.2722 49.578C46.6676 49.6009 46.0699 49.444 45.5545 49.1272C45.0392 48.8103 44.6294 48.3477 44.377 47.7979C44.1246 47.2481 44.041 46.6358 44.1366 46.0385C44.2323 45.4411 44.5031 44.8856 44.9146 44.4421C45.4656 43.8478 46.2302 43.4967 47.0401 43.4659C47.85 43.4352 48.639 43.7273 49.2336 44.2781Z" fill="#C5CE3D"/>
<path d="M56.8494 56.0272C57.2228 56.3736 57.485 56.8229 57.6029 57.3184C57.7209 57.8138 57.6893 58.3331 57.5121 58.8106C57.3349 59.2881 57.0201 59.7023 56.6075 60.0008C56.1949 60.2994 55.7031 60.4689 55.1941 60.4879C54.6852 60.5069 54.182 60.3746 53.7483 60.1077C53.3146 59.8408 52.9697 59.4512 52.7574 58.9883C52.5451 58.5254 52.4748 58.0099 52.5554 57.507C52.6361 57.0041 52.864 56.5365 53.2104 56.1632C53.675 55.6626 54.3193 55.367 55.0018 55.3415C55.6842 55.316 56.3488 55.5626 56.8494 56.0272Z" fill="#C5CE3D"/>
<path d="M61.6603 48.6352C61.9561 48.9094 62.1638 49.2652 62.2573 49.6575C62.3508 50.0498 62.3259 50.4611 62.1856 50.8392C62.0454 51.2174 61.7962 51.5454 61.4695 51.7819C61.1428 52.0184 60.7533 52.1527 60.3503 52.1678C59.9472 52.1829 59.5488 52.0782 59.2053 51.8668C58.8618 51.6554 58.5887 51.3469 58.4205 50.9804C58.2524 50.6138 58.1967 50.2056 58.2606 49.8073C58.3245 49.4091 58.505 49.0388 58.7793 48.7432C58.9614 48.5468 59.1803 48.3883 59.4236 48.2766C59.667 48.1649 59.9299 48.1023 60.1975 48.0923C60.465 48.0822 60.7319 48.125 60.9829 48.2182C61.2339 48.3113 61.4641 48.453 61.6603 48.6352Z" fill="#C5CE3D"/>
<path d="M59.8493 40.8061C60.0663 41.008 60.2187 41.2698 60.2871 41.5582C60.3556 41.8467 60.337 42.149 60.2337 42.4269C60.1304 42.7048 59.9471 42.9459 59.7069 43.1197C59.4667 43.2935 59.1804 43.3922 58.8841 43.4034C58.5879 43.4145 58.2949 43.3376 58.0423 43.1824C57.7897 43.0272 57.5888 42.8006 57.4649 42.5312C57.341 42.2619 57.2997 41.9619 57.3462 41.6691C57.3927 41.3762 57.525 41.1038 57.7263 40.8861C57.8602 40.7412 58.0215 40.6241 58.2008 40.5417C58.3801 40.4592 58.5739 40.4129 58.7712 40.4055C58.9684 40.3981 59.1651 40.4296 59.3501 40.4984C59.5351 40.5671 59.7047 40.6717 59.8493 40.8061Z" fill="#C5CE3D"/>
<path d="M127.789 132.794C128.279 133.249 128.624 133.839 128.778 134.489C128.933 135.139 128.892 135.821 128.659 136.448C128.427 137.075 128.013 137.618 127.472 138.01C126.93 138.402 126.284 138.625 125.616 138.65C124.948 138.674 124.288 138.501 123.718 138.15C123.149 137.8 122.696 137.288 122.418 136.68C122.139 136.073 122.047 135.396 122.153 134.736C122.259 134.076 122.558 133.462 123.013 132.972C123.623 132.315 124.469 131.928 125.364 131.894C126.26 131.861 127.132 132.185 127.789 132.794Z" fill="#A2AD22"/>
<path d="M126.694 132.949C126.912 133.151 127.064 133.413 127.132 133.701C127.201 133.99 127.182 134.292 127.079 134.57C126.976 134.848 126.792 135.089 126.552 135.263C126.312 135.437 126.026 135.535 125.729 135.546C125.433 135.558 125.14 135.481 124.888 135.325C124.635 135.17 124.434 134.944 124.31 134.674C124.186 134.405 124.145 134.105 124.191 133.812C124.238 133.519 124.37 133.247 124.571 133.029C124.705 132.884 124.867 132.767 125.046 132.685C125.225 132.602 125.419 132.556 125.616 132.549C125.814 132.541 126.01 132.573 126.195 132.641C126.38 132.71 126.55 132.815 126.694 132.949Z" fill="#C5CE3D"/>
<path d="M90.7337 84.5561C91.2237 85.0109 91.568 85.6007 91.7228 86.2511C91.8776 86.9014 91.8361 87.5831 91.6035 88.2099C91.3709 88.8367 90.9576 89.3804 90.416 89.7723C89.8743 90.1641 89.2287 90.3866 88.5606 90.4115C87.8925 90.4364 87.232 90.2626 86.6627 89.9121C86.0934 89.5617 85.6408 89.0502 85.3622 88.4425C85.0836 87.8348 84.9914 87.1581 85.0974 86.498C85.2034 85.8379 85.5028 85.2241 85.9577 84.7341C86.2595 84.4088 86.6225 84.1461 87.026 83.9611C87.4294 83.7761 87.8653 83.6723 88.3088 83.6558C88.7523 83.6393 89.1947 83.7103 89.6108 83.8647C90.0269 84.0192 90.4084 84.2542 90.7337 84.5561Z" fill="#A2AD22"/>
<path d="M89.6335 84.7111C89.8505 84.9131 90.0027 85.1749 90.071 85.4634C90.1393 85.752 90.1206 86.0542 90.0172 86.3321C89.9138 86.61 89.7303 86.851 89.49 87.0246C89.2498 87.1983 88.9634 87.2969 88.6671 87.3079C88.3708 87.3189 88.0779 87.2419 87.8254 87.0866C87.5729 86.9312 87.372 86.7045 87.2483 86.4351C87.1245 86.1657 87.0834 85.8657 87.13 85.5729C87.1767 85.2801 87.3091 85.0077 87.5105 84.7901C87.6445 84.6453 87.8058 84.5283 87.9852 84.4459C88.1645 84.3635 88.3583 84.3173 88.5556 84.31C88.7528 84.3027 88.9495 84.3343 89.1345 84.4031C89.3194 84.472 89.489 84.5766 89.6335 84.7111Z" fill="#C5CE3D"/>
<path d="M75.2605 39.7422C75.6258 40.0814 75.8823 40.5214 75.9976 41.0064C76.1129 41.4914 76.0818 41.9997 75.9082 42.4671C75.7347 42.9344 75.4265 43.3398 75.0225 43.632C74.6186 43.9242 74.1371 44.0901 73.6389 44.1087C73.1408 44.1273 72.6482 43.9977 72.2237 43.7365C71.7991 43.4752 71.4615 43.0939 71.2536 42.6408C71.0457 42.1877 70.9768 41.6831 71.0556 41.1908C71.1345 40.6986 71.3575 40.2407 71.6965 39.8752C72.1515 39.385 72.7826 39.0955 73.4509 39.0706C74.1193 39.0457 74.7702 39.2872 75.2605 39.7422Z" fill="#C5CE3D"/>
<path d="M90.7595 70.8192C91.4593 71.4688 91.9508 72.3113 92.1718 73.2402C92.3929 74.1691 92.3335 75.1426 92.0012 76.0378C91.669 76.933 91.0787 77.7095 90.3052 78.2692C89.5316 78.8289 88.6094 79.1467 87.6553 79.1824C86.7011 79.218 85.7578 78.97 84.9446 78.4695C84.1314 77.9691 83.4849 77.2388 83.0867 76.3709C82.6886 75.5031 82.5567 74.5366 82.7078 73.5938C82.8589 72.651 83.2861 71.7742 83.9355 71.0742C84.8067 70.1355 86.015 69.5813 87.2947 69.5335C88.5744 69.4857 89.8207 69.9482 90.7595 70.8192Z" fill="#A2AD22"/>
<path d="M89.9787 71.2661C90.3444 71.6054 90.6014 72.0455 90.717 72.5308C90.8326 73.0161 90.8018 73.5247 90.6282 73.9925C90.4547 74.4602 90.1464 74.866 89.7423 75.1584C89.3381 75.4509 88.8563 75.6169 88.3578 75.6356C87.8593 75.6542 87.3664 75.5245 86.9416 75.263C86.5167 75.0014 86.179 74.6198 85.9711 74.1663C85.7632 73.7128 85.6945 73.2079 85.7736 72.7153C85.8528 72.2227 86.0762 71.7647 86.4157 71.3991C86.6409 71.1564 86.9117 70.9605 87.2126 70.8224C87.5136 70.6844 87.8387 70.607 88.1696 70.5946C88.5005 70.5823 88.8305 70.6352 89.1409 70.7505C89.4513 70.8657 89.736 71.0409 89.9787 71.2661Z" fill="#C5CE3D"/>
<path d="M70.8993 51.0612C71.2025 51.3427 71.4154 51.7078 71.5111 52.1103C71.6068 52.5128 71.581 52.9347 71.4369 53.3225C71.2929 53.7104 71.0371 54.0468 70.7018 54.2893C70.3666 54.5317 69.967 54.6694 69.5536 54.6848C69.1401 54.7001 68.7314 54.5926 68.3791 54.3757C68.0268 54.1588 67.7467 53.8423 67.5742 53.4662C67.4017 53.0902 67.3447 52.6714 67.4102 52.2629C67.4757 51.8544 67.6609 51.4745 67.9423 51.1712C68.1292 50.9698 68.354 50.8072 68.6038 50.6926C68.8535 50.5781 69.1234 50.5139 69.398 50.5036C69.6726 50.4934 69.9465 50.5374 70.2041 50.6331C70.4617 50.7287 70.698 50.8742 70.8993 51.0612Z" fill="#C5CE3D"/>
<path d="M72.2167 60.9202C72.5433 61.2233 72.7727 61.6164 72.8759 62.0499C72.9791 62.4834 72.9514 62.9378 72.7964 63.3555C72.6414 63.7733 72.3659 64.1357 72.0049 64.3969C71.6439 64.6581 71.2136 64.8065 70.7683 64.8231C70.323 64.8398 69.8828 64.724 69.5033 64.4904C69.1238 64.2569 68.8221 63.916 68.6363 63.511C68.4505 63.106 68.389 62.655 68.4596 62.215C68.5301 61.775 68.7296 61.3658 69.0327 61.0392C69.4392 60.6014 70.003 60.343 70.6 60.3207C71.1971 60.2984 71.7785 60.514 72.2167 60.9202Z" fill="#C5CE3D"/>
<path d="M141.552 132.485C142.158 133.048 142.584 133.778 142.775 134.583C142.966 135.388 142.915 136.232 142.627 137.008C142.339 137.783 141.827 138.456 141.157 138.941C140.486 139.426 139.687 139.701 138.86 139.732C138.033 139.763 137.216 139.548 136.511 139.114C135.806 138.68 135.246 138.047 134.901 137.295C134.556 136.543 134.442 135.705 134.573 134.888C134.704 134.071 135.075 133.312 135.638 132.705C136.011 132.302 136.461 131.977 136.96 131.748C137.46 131.519 138 131.39 138.549 131.37C139.098 131.35 139.646 131.437 140.161 131.629C140.676 131.82 141.149 132.111 141.552 132.485Z" fill="#A2AD22"/>
<path d="M140.35 132.834C140.677 133.137 140.906 133.531 141.009 133.964C141.112 134.398 141.085 134.852 140.929 135.27C140.774 135.687 140.499 136.05 140.138 136.311C139.777 136.572 139.346 136.72 138.901 136.737C138.456 136.753 138.015 136.637 137.636 136.404C137.257 136.17 136.955 135.829 136.769 135.424C136.584 135.019 136.522 134.568 136.593 134.128C136.664 133.688 136.863 133.279 137.166 132.952C137.573 132.514 138.137 132.256 138.734 132.234C139.331 132.212 139.913 132.428 140.35 132.834Z" fill="#C5CE3D"/>
<path d="M84.7796 56.7692C85.0364 57.0073 85.2167 57.3162 85.2979 57.6568C85.3791 57.9974 85.3574 58.3544 85.2356 58.6827C85.1138 59.011 84.8974 59.2958 84.6138 59.5011C84.3301 59.7064 83.9919 59.8229 83.6419 59.8359C83.292 59.8489 82.9461 59.7579 82.648 59.5742C82.3498 59.3906 82.1128 59.1227 81.967 58.8043C81.8211 58.486 81.773 58.1315 81.8286 57.7858C81.8843 57.4401 82.0412 57.1187 82.2796 56.8622C82.5989 56.5186 83.0416 56.3158 83.5104 56.2983C83.9791 56.2809 84.4356 56.4503 84.7796 56.7692Z" fill="#C5CE3D"/>
<path d="M36.2234 60.8082C36.7832 61.3283 37.1761 62.0027 37.3525 62.7461C37.529 63.4895 37.481 64.2685 37.2147 64.9846C36.9484 65.7008 36.4757 66.3219 35.8563 66.7693C35.237 67.2168 34.4989 67.4706 33.7354 67.4986C32.9718 67.5265 32.2172 67.3275 31.5668 66.9265C30.9164 66.5255 30.3995 65.9407 30.0815 65.246C29.7635 64.5513 29.6586 63.7778 29.7802 63.0235C29.9017 62.2692 30.2443 61.5679 30.7644 61.0082C31.4619 60.2579 32.4288 59.8152 33.4525 59.7777C34.4763 59.7402 35.473 60.1109 36.2234 60.8082Z" fill="#A2AD22"/>
<path d="M34.7635 61.3552C35.0206 61.5933 35.2012 61.9024 35.2826 62.2432C35.364 62.5841 35.3425 62.9414 35.2207 63.27C35.0989 63.5986 34.8823 63.8837 34.5984 64.0892C34.3146 64.2947 33.9761 64.4113 33.6259 64.4243C33.2757 64.4373 32.9295 64.3462 32.6311 64.1624C32.3328 63.9786 32.0957 63.7104 31.9498 63.3917C31.8039 63.0731 31.7559 62.7183 31.8117 62.3724C31.8675 62.0264 32.0247 61.7048 32.2635 61.4482C32.5829 61.1048 33.0255 60.9022 33.4942 60.8848C33.9629 60.8673 34.4194 61.0365 34.7635 61.3552Z" fill="#C5CE3D"/>
<path d="M53.3145 69.3331C63.3645 69.5941 76.9855 69.0831 78.5565 79.9281C79.2195 84.5051 79.7335 95.5161 76.5855 99.2641C72.7925 103.782 62.9576 103.686 57.5215 104.164C49.6815 104.853 38.6215 105.393 32.0435 103.171C22.8435 100.062 22.4265 81.0071 28.6385 74.3301C33.4085 69.2031 42.4955 69.4031 48.9775 69.3131C50.2995 69.2951 51.7645 69.2931 53.3145 69.3331Z" fill="#8C502E"/>
<path d="M76.5853 99.2641C78.8213 96.6021 79.2063 90.2811 79.0063 85.1981C76.6846 84.9717 74.346 84.9818 72.0263 85.2281C57.8642 86.5581 44.3659 91.8617 33.0863 100.528C30.9446 99.2338 29.0814 97.5268 27.6051 95.5062C26.1287 93.4857 25.0686 91.1919 24.4863 88.7581C24.6963 95.2361 27.1013 101.501 32.0403 103.169C38.6163 105.391 49.6783 104.851 57.5183 104.162C62.9573 103.686 72.7923 103.782 76.5853 99.2641Z" fill="#7B4215"/>
<path d="M54.2484 87.8181C61.4334 86.1611 70.1834 84.47 77.8754 85.928C77.7417 83.3129 76.9722 80.7698 75.6336 78.5193C74.2949 76.2688 72.4276 74.3788 70.1934 73.013C66.0394 70.513 61.0144 69.996 56.1704 69.788C50.8884 69.562 45.5054 69.645 40.4544 71.203C35.4034 72.761 30.6664 75.971 28.2734 80.685C25.8804 85.399 26.3114 91.6851 30.0734 95.4021C31.1627 96.4539 32.4326 97.3008 33.8224 97.9021C38.9654 92.3841 47.2544 89.4321 54.2484 87.8181Z" fill="#A9643A"/>
<g style="mix-blend-mode:multiply" opacity="0.2">
<path d="M48.0003 104.731C46.4883 104.769 44.9683 104.774 43.4683 104.74C36.8263 97.8911 30.3263 91.0551 24.6123 85.0201C24.7844 83.1706 25.1607 81.3458 25.7343 79.5791C32.2663 86.8791 40.1273 95.7971 48.0003 104.731ZM33.5273 71.1591C41.7843 79.8911 53.2193 92.0291 64.5863 103.629C65.7953 103.507 67.0183 103.346 68.2163 103.129C57.7083 91.2091 46.8223 78.8291 38.7323 69.8541C36.954 70.0932 35.2081 70.5309 33.5273 71.1591ZM60.1553 69.5211C57.9973 69.4211 55.8553 69.3911 53.8333 69.3441C60.9183 76.8381 69.5963 85.9971 78.3743 95.0051C78.6673 93.6049 78.8578 92.1851 78.9443 90.7571C72.3543 83.2811 65.8333 75.8891 60.1553 69.5211Z" fill="#7F401F"/>
</g>
<path d="M55.2974 91.4081C64.7084 87.8701 77.1374 82.2741 82.6704 91.7321C85.0064 95.7241 89.6234 105.732 88.1174 110.389C86.3014 116.002 77.1534 119.612 72.2954 122.1C65.2894 125.687 55.2434 130.348 48.3134 130.762C38.6194 131.342 31.0664 113.843 34.3134 105.319C36.8044 98.7741 45.3004 95.5421 51.2724 93.0191C52.4894 92.5071 53.8464 91.9541 55.2974 91.4081Z" fill="#8C502E"/>
<path d="M88.1175 110.389C89.1875 107.082 87.1675 101.08 85.0705 96.446C82.8339 97.1098 80.6704 97.999 78.6135 99.1001C65.9909 105.659 55.4783 115.651 48.2875 127.924C45.8166 127.53 43.4486 126.648 41.3211 125.331C39.1937 124.014 37.3491 122.287 35.8945 120.251C38.5255 126.174 43.1095 131.075 48.3145 130.763C55.2435 130.349 65.2895 125.688 72.2955 122.101C77.1535 119.612 86.3015 116.002 88.1175 110.389Z" fill="#7B4215"/>
<path d="M63.1153 108.185C69.1493 103.947 76.6203 99.0851 84.2963 97.5481C83.1889 95.1751 81.5194 93.108 79.4325 91.5261C77.3456 89.9442 74.9043 88.8952 72.3203 88.4701C67.5313 87.7161 62.6813 89.1261 58.1143 90.7561C53.1353 92.5321 48.1783 94.6341 44.0843 97.9781C39.9903 101.322 36.8083 106.078 36.3643 111.345C35.9203 116.612 38.6843 122.278 43.5643 124.305C44.969 124.87 46.4638 125.177 47.9773 125.212C50.6723 118.163 57.2413 112.31 63.1153 108.185Z" fill="#A9643A"/>
<g style="mix-blend-mode:multiply" opacity="0.2">
<path d="M63.6873 126.206C62.3003 126.806 60.8933 127.386 59.4873 127.918C50.7573 124.069 42.1633 120.18 34.5993 116.737C34.0628 114.959 33.7247 113.126 33.5913 111.273C42.3933 115.582 53.0333 120.889 63.6873 126.206ZM37.6503 100.542C48.5853 105.527 63.7503 112.474 78.6413 118.942C79.7163 118.374 80.7883 117.764 81.8153 117.112C67.5943 110.019 52.8533 102.644 41.9803 97.3701C40.4231 98.2625 38.9707 99.3264 37.6503 100.542ZM61.7073 89.0101C59.6703 89.7311 57.6723 90.5102 55.7843 91.2242C65.1673 95.5032 76.6523 100.724 88.1743 105.77C87.9192 104.363 87.5616 102.976 87.1043 101.62C78.1843 97.1711 69.3633 92.7742 61.7073 89.0092V89.0101Z" fill="#7F401F"/>
</g>
<path d="M64.8707 111.627C72.1197 104.661 81.3287 94.612 90.1477 101.116C93.8697 103.861 102.064 111.234 102.519 116.107C103.067 121.98 96.0867 128.907 92.6057 133.113C87.5867 139.175 80.1967 147.424 73.9947 150.541C65.3167 154.902 51.4677 141.807 51.0837 132.695C50.7837 125.695 57.3167 119.374 61.8087 114.695C62.7247 113.742 63.7527 112.702 64.8707 111.627Z" fill="#8C502E"/>
<path d="M102.519 116.107C102.196 112.645 97.9706 107.929 94.2136 104.5C92.4211 105.993 90.7847 107.664 89.3296 109.487C80.3231 120.497 74.61 133.827 72.8486 147.942C70.423 148.555 67.8996 148.681 65.4252 148.311C62.9508 147.94 60.5745 147.082 58.4346 145.786C63.1896 150.186 69.3346 152.881 73.9956 150.54C80.1956 147.423 87.5876 139.174 92.6066 133.112C96.0866 128.909 103.067 121.98 102.519 116.107Z" fill="#7B4215"/>
<path d="M78.6785 123.954C82.5485 117.678 87.4945 110.265 93.9375 105.817C91.9829 104.074 89.6329 102.835 87.0911 102.205C84.5493 101.576 81.8923 101.576 79.3505 102.205C74.6505 103.405 70.7505 106.615 67.2015 109.915C63.3285 113.515 59.6015 117.402 57.1625 122.091C54.7235 126.78 53.6755 132.405 55.3485 137.42C57.0215 142.435 61.7965 146.549 67.0825 146.482C68.5961 146.446 70.0909 146.138 71.4955 145.573C71.1845 138.035 74.9105 130.064 78.6785 123.954Z" fill="#A9643A"/>
<g style="mix-blend-mode:multiply" opacity="0.2">
<path d="M86.3187 140.285C85.2827 141.385 84.2187 142.472 83.1407 143.515C73.6007 143.426 64.1687 143.247 55.8597 143.07C54.6648 141.648 53.6311 140.098 52.7777 138.448C62.5607 138.932 74.4337 139.607 86.3187 140.285ZM52.2637 126.985C64.2787 127.247 80.9497 127.643 97.1907 127.708C97.9537 126.762 98.6977 125.778 99.3847 124.773C83.5187 123.873 67.0637 122.916 54.9917 122.364C53.9121 123.798 52.997 125.349 52.2637 126.987V126.985ZM69.8127 106.891C68.2267 108.358 66.6977 109.861 65.2447 111.264C75.5547 111.49 88.1687 111.753 100.745 111.839C99.9543 110.647 99.0783 109.514 98.1237 108.449C88.1737 107.884 78.3337 107.328 69.8127 106.893V106.891Z" fill="#7F401F"/>
</g>
<path d="M82.1335 125.909C85.9395 116.604 90.2895 103.686 100.986 106.061C105.501 107.061 115.979 110.486 118.369 114.761C121.249 119.91 117.669 129.071 116.194 134.325C114.06 141.901 110.644 152.436 106.236 157.798C100.068 165.298 82.1024 158.936 78.0604 150.761C74.9604 144.483 78.3605 136.061 80.5775 129.961C81.0255 128.715 81.5425 127.342 82.1335 125.909Z" fill="#8C502E"/>
<path d="M106.411 148.007C104.374 151.544 101.98 155.181 98.2692 156.881C93.4632 159.081 87.4302 157.257 83.8692 153.349C80.3082 149.441 78.9872 143.874 79.3202 138.598C79.6532 133.322 81.4832 128.259 83.5672 123.398C85.4782 118.942 87.7422 114.427 91.5522 111.429C93.7235 109.741 96.2922 108.638 99.0119 108.228C101.732 107.817 104.511 108.112 107.084 109.084C109.632 110.121 111.849 111.833 113.496 114.035C115.143 116.237 116.159 118.847 116.434 121.584C116.779 125.856 115.212 130.034 113.496 133.961C111.395 138.77 109.029 143.459 106.411 148.007Z" fill="#A9643A"/>
<g style="mix-blend-mode:multiply" opacity="0.2">
<path d="M113.346 143.424C112.846 144.852 112.312 146.275 111.746 147.665C102.987 151.448 94.2912 155.104 86.6232 158.307C84.9547 157.491 83.3818 156.493 81.9332 155.33C91.0762 151.809 102.202 147.619 113.346 143.424ZM76.8242 145.059C87.9162 140.432 103.319 134.042 118.194 127.524C118.508 126.35 118.794 125.149 119.011 123.952C104.14 129.552 88.7112 135.345 77.4462 139.729C77.0408 141.477 76.8322 143.264 76.8242 145.058V145.059ZM84.7302 119.579C83.8742 121.562 83.0852 123.556 82.3252 125.427C91.8432 121.458 103.483 116.59 115.018 111.573C113.813 110.804 112.553 110.123 111.248 109.536C101.92 113.048 92.6972 116.525 84.7332 119.579H84.7302Z" fill="#7F401F"/>
</g>
<path d="M51.8817 71.075C53.5722 71.1354 55.2525 71.3639 56.8977 71.757C57.8917 72.028 59.6417 72.773 59.1457 74.15C58.2647 76.593 51.4027 75.177 49.7917 74.372C49.4236 74.2106 49.1073 73.9505 48.8778 73.6205C48.6484 73.2904 48.5147 72.9033 48.4917 72.502C48.5337 70.842 50.7707 71.001 51.8817 71.075Z" fill="#CE8855"/>
<path d="M64.0444 74.007C63.8435 74.1693 63.6049 74.2783 63.3507 74.324C63.0965 74.3696 62.8349 74.3504 62.5901 74.2682C62.3453 74.186 62.1251 74.0433 61.95 73.8535C61.775 73.6636 61.6506 73.4327 61.5884 73.182C61.5364 72.8118 61.6287 72.4358 61.8464 72.1318C62.064 71.8279 62.3902 71.6193 62.7574 71.5492C63.1246 71.4792 63.5047 71.5531 63.8189 71.7556C64.1332 71.9581 64.3575 72.2737 64.4454 72.637C64.4991 72.8807 64.4905 73.1339 64.4204 73.3734C64.3503 73.6129 64.221 73.8308 64.0444 74.007Z" fill="#CE8855"/>
<path d="M74.8475 92.4601C75.1863 92.4562 75.5199 92.3766 75.824 92.2271C76.128 92.0775 76.3948 91.8619 76.6047 91.596C76.8146 91.33 76.9624 91.0205 77.0372 90.69C77.112 90.3596 77.112 90.0165 77.0371 89.6861C76.9622 89.3556 76.8144 89.0461 76.6044 88.7802C76.3944 88.5143 76.1276 88.2987 75.8236 88.1493C75.5195 87.9998 75.1858 87.9202 74.847 87.9164C74.5082 87.9126 74.1728 87.9846 73.8655 88.1271C73.3939 88.3458 73.0116 88.7195 72.7823 89.186C72.553 89.6525 72.4906 90.1835 72.6055 90.6904C72.7204 91.1974 73.0056 91.6496 73.4136 91.9716C73.8216 92.2937 74.3277 92.4661 74.8475 92.4601Z" fill="#CE8855"/>
<path d="M70.5224 90.1171C70.601 89.9315 70.6224 89.7267 70.5839 89.5289C70.5453 89.3311 70.4485 89.1493 70.3058 89.0069C70.1632 88.8645 69.9813 88.768 69.7834 88.7298C69.5855 88.6916 69.3807 88.7133 69.1953 88.7923C69.0099 88.8713 68.8523 89.0039 68.7428 89.1731C68.6333 89.3423 68.5769 89.5403 68.5808 89.7418C68.5846 89.9433 68.6486 90.1391 68.7646 90.304C68.8805 90.4688 69.043 90.5953 69.2314 90.6671C69.4765 90.7501 69.7437 90.7399 69.9818 90.6385C70.22 90.537 70.4124 90.3514 70.5224 90.1171Z" fill="#CE8855"/>
<path d="M84.2956 104.155L80.4666 104.301C79.7506 104.329 78.8616 104.252 78.5846 103.591C78.5065 103.328 78.5194 103.046 78.6214 102.791C78.7234 102.536 78.9085 102.323 79.1466 102.186C79.6303 101.924 80.168 101.778 80.7176 101.759L83.5936 101.439C84.2396 101.315 84.9058 101.348 85.5366 101.534C85.8484 101.636 86.1152 101.843 86.2912 102.119C86.4673 102.396 86.5416 102.726 86.5016 103.051C86.2956 103.913 85.1816 104.121 84.2956 104.155Z" fill="#CE8855"/>
<path d="M112.06 115.25C110.243 118.55 103.292 112.955 104.839 110.439C105.939 108.646 108.812 110.571 110.072 111.339C110.786 111.728 111.401 112.276 111.872 112.939C112.102 113.274 112.241 113.664 112.274 114.07C112.307 114.475 112.233 114.882 112.06 115.25Z" fill="#CE8855"/>
<path d="M101.481 108.399C101.522 108.032 101.444 107.661 101.259 107.341C101.073 107.021 100.79 106.769 100.45 106.622C100.111 106.476 99.7331 106.442 99.373 106.526C99.0128 106.61 98.6892 106.807 98.4496 107.089C98.21 107.371 98.0671 107.722 98.0421 108.091C98.017 108.46 98.111 108.827 98.3103 109.138C98.5096 109.45 98.8036 109.689 99.1491 109.821C99.4946 109.953 99.8733 109.971 100.229 109.871C100.558 109.773 100.851 109.581 101.073 109.32C101.295 109.059 101.437 108.739 101.481 108.399Z" fill="#CE8855"/>
<path d="M56.7955 130.966C55.4955 131.992 54.8755 135.13 57.5645 135.266C58.8465 135.332 59.7305 133.718 59.3075 132.505C58.6025 130.495 57.5765 130.35 56.7955 130.966Z" fill="#CE8855"/>
<path d="M154.901 84.666C151.867 85.3811 148.688 85.1714 145.773 84.0637C142.859 82.956 140.343 81.0012 138.549 78.451C136.852 75.9298 135.943 72.9604 135.938 69.921C135.94 67.0755 136.741 64.2876 138.249 61.8743C139.756 59.4611 141.911 57.5193 144.467 56.2698C147.024 55.0204 149.88 54.5133 152.71 54.8063C155.541 55.0993 158.232 56.1807 160.478 57.9274C162.725 59.6741 164.436 62.016 165.417 64.687C166.399 67.3579 166.611 70.2506 166.03 73.0362C165.449 75.8218 164.098 78.3885 162.131 80.4444C160.164 82.5003 157.659 83.963 154.901 84.666Z" fill="#E5B15D"/>
<path d="M152.87 82.8891C144.3 82.0421 137.537 74.1021 136.581 65.7891C136.16 67.1268 135.943 68.5205 135.938 69.9231C135.943 72.9625 136.852 75.9318 138.549 78.4531C140.343 81.0032 142.859 82.9581 145.773 84.0657C148.688 85.1734 151.867 85.3832 154.901 84.6681C157.148 84.0761 159.219 82.9509 160.937 81.3881C158.431 82.5998 155.645 83.118 152.87 82.8891Z" fill="#D6963D"/>
<path d="M162.255 64.1891C162.039 62.5425 161.442 60.9688 160.512 59.593C159.582 58.2171 158.344 57.077 156.896 56.2629C155.449 55.4488 153.831 54.9832 152.172 54.9031C150.514 54.8229 148.859 55.1304 147.34 55.8011C144.414 57.0515 142.004 59.2632 140.507 62.0701C139.195 64.4217 138.581 67.0988 138.737 69.7871C140.715 74.3031 144.291 77.0721 148.092 79.9391C149.628 80.1087 151.184 79.9672 152.665 79.5231C155.795 78.4784 158.464 76.3768 160.214 73.5788C161.964 70.7809 162.686 67.4611 162.256 64.1891H162.255Z" fill="#F3CA6E"/>
<path d="M148.634 69.258C147.188 69.2643 145.756 68.9751 144.426 68.408C143.763 68.1208 143.164 67.7041 142.665 67.1825C142.165 66.6608 141.775 66.0446 141.517 65.37C140.694 62.937 142.217 60.262 144.25 58.692C146.023 57.2787 148.239 56.5381 150.506 56.601C151.631 56.6455 152.731 56.9472 153.722 57.4828C154.712 58.0184 155.567 58.7738 156.221 59.691C156.853 60.6235 157.21 61.7153 157.251 62.8413C157.292 63.9673 157.015 65.0821 156.452 66.058C154.894 68.562 151.586 69.342 148.634 69.258Z" fill="#F9DC8F"/>
<path d="M143.798 71.171C143.798 71.4188 143.724 71.661 143.586 71.8671C143.449 72.0732 143.253 72.2338 143.024 72.3286C142.795 72.4234 142.543 72.4482 142.3 72.3999C142.057 72.3515 141.834 72.2322 141.659 72.057C141.483 71.8817 141.364 71.6585 141.316 71.4154C141.267 71.1724 141.292 70.9204 141.387 70.6915C141.482 70.4625 141.642 70.2668 141.848 70.1291C142.054 69.9915 142.297 69.918 142.545 69.918C142.877 69.918 143.196 70.05 143.431 70.285C143.665 70.5199 143.798 70.8387 143.798 71.171Z" fill="#F9DC8F"/>
<path d="M127.4 101.387C123.505 102.305 119.424 102.036 115.683 100.614C111.943 99.1927 108.713 96.6835 106.412 93.41C104.233 90.1741 103.066 86.363 103.061 82.462C103.068 72.786 111.322 63.825 120.961 63.025C130.6 62.225 140.221 69.704 141.822 79.247C143.423 88.79 136.776 98.996 127.4 101.387Z" fill="#E5B15D"/>
<path d="M141.825 79.242C141.526 77.4878 140.965 75.7883 140.162 74.2C140.862 77.274 140.422 80.715 138.262 82.978C135.985 85.367 132.457 85.9209 129.362 87.0779C124.306 88.9862 120.128 92.688 117.624 97.4779C113.471 97.5489 109.443 96.0574 106.337 93.2989C106.36 93.3349 106.38 93.371 106.403 93.406C108.705 96.6794 111.934 99.1886 115.675 100.61C119.416 102.032 123.496 102.301 127.391 101.383C136.775 98.9969 143.425 88.79 141.825 79.242Z" fill="#D6963D"/>
<path d="M127.045 85.188C129.908 84.4635 132.842 84.0573 135.794 83.977C136.924 81.1645 137.283 78.1014 136.833 75.104C136.555 72.9913 135.789 70.9726 134.595 69.2076C133.401 67.4427 131.812 65.9801 129.954 64.9358C128.097 63.8914 126.022 63.2941 123.894 63.191C121.765 63.0879 119.642 63.482 117.692 64.342C114.015 65.9604 110.965 68.7328 109.004 72.2396C107.043 75.7464 106.279 79.7966 106.825 83.777C107.135 85.7242 107.847 87.5855 108.916 89.2424C109.984 90.8994 111.386 92.3156 113.032 93.401C114.216 94.1373 115.511 94.6776 116.866 95.001C118.872 90.424 121.957 86.412 127.045 85.188Z" fill="#F3CA6E"/>
<path d="M119.358 81.6111C117.503 81.6191 115.665 81.2482 113.958 80.5211C113.108 80.1524 112.339 79.6175 111.698 78.9478C111.057 78.2781 110.556 77.487 110.224 76.6211C109.167 73.4991 111.124 70.0651 113.731 68.0491C116.007 66.2357 118.851 65.2854 121.76 65.3661C123.205 65.4231 124.617 65.8102 125.888 66.4977C127.16 67.1852 128.257 68.1548 129.095 69.3321C129.908 70.5286 130.367 71.9297 130.42 73.375C130.473 74.8202 130.118 76.2512 129.395 77.5041C127.388 80.7171 123.142 81.7171 119.358 81.6111Z" fill="#F9DC8F"/>
<path d="M113.147 84.066C113.146 84.384 113.052 84.6948 112.875 84.9591C112.698 85.2234 112.447 85.4294 112.153 85.5509C111.859 85.6725 111.536 85.7042 111.224 85.642C110.912 85.5799 110.626 85.4266 110.401 85.2017C110.176 84.9768 110.023 84.6903 109.961 84.3784C109.9 84.0665 109.931 83.7432 110.053 83.4494C110.175 83.1557 110.381 82.9046 110.645 82.728C110.91 82.5513 111.221 82.457 111.539 82.457C111.75 82.457 111.959 82.4987 112.154 82.5795C112.349 82.6604 112.527 82.7789 112.676 82.9284C112.825 83.0778 112.944 83.2552 113.025 83.4504C113.105 83.6456 113.147 83.8548 113.147 84.066Z" fill="#F9DC8F"/>
<path d="M143.351 124.165C139.456 125.083 135.375 124.814 131.635 123.392C127.894 121.97 124.665 119.461 122.363 116.188C120.184 112.952 119.018 109.141 119.012 105.24C119.019 95.5631 127.273 86.6031 136.912 85.8031C146.551 85.0031 156.172 92.4811 157.773 102.024C159.374 111.567 152.727 121.775 143.351 124.165Z" fill="#E5B15D"/>
<path d="M145.41 87.4421C143.583 86.5607 141.59 86.076 139.562 86.02C137.534 85.964 135.517 86.3379 133.645 87.1171C129.967 88.7355 126.917 91.508 124.956 95.0148C122.996 98.5216 122.231 102.572 122.778 106.552C123.048 108.524 123.75 110.411 124.833 112.081C125.916 113.751 127.353 115.162 129.043 116.213C130.732 117.264 132.633 117.931 134.609 118.165C136.586 118.398 138.589 118.194 140.478 117.566C144.495 116.225 147.921 113.527 150.168 109.936C152.414 106.345 153.34 102.084 152.788 97.8841C152.448 95.6921 151.605 93.6086 150.324 91.7969C149.044 89.9852 147.362 88.4947 145.41 87.4421Z" fill="#F3CA6E"/>
<path d="M135.31 104.388C133.454 104.396 131.617 104.025 129.91 103.298C129.059 102.929 128.29 102.395 127.649 101.725C127.008 101.055 126.508 100.264 126.177 99.3981C125.12 96.2761 127.077 92.8421 129.684 90.8261C131.959 89.0121 134.803 88.0614 137.713 88.1421C139.157 88.199 140.569 88.5861 141.84 89.2736C143.112 89.9611 144.209 90.9307 145.048 92.1081C145.86 93.3046 146.319 94.7057 146.372 96.151C146.425 97.5962 146.07 99.0272 145.348 100.28C143.342 103.495 139.095 104.495 135.31 104.388Z" fill="#F9DC8F"/>
<path d="M129.099 106.842C129.099 107.16 129.005 107.471 128.828 107.735C128.651 108 128.4 108.206 128.106 108.328C127.812 108.449 127.489 108.481 127.177 108.419C126.865 108.357 126.579 108.204 126.354 107.979C126.129 107.754 125.976 107.468 125.914 107.156C125.852 106.844 125.884 106.521 126.005 106.227C126.127 105.933 126.333 105.682 126.597 105.505C126.862 105.328 127.173 105.234 127.491 105.234C127.702 105.234 127.911 105.275 128.106 105.356C128.301 105.437 128.479 105.555 128.628 105.705C128.777 105.854 128.896 106.031 128.977 106.227C129.057 106.422 129.099 106.631 129.099 106.842Z" fill="#F9DC8F"/>
<path d="M107.185 61.6871C104.274 61.1461 103.05 41.5201 104.944 38.6441C106.838 35.7681 115.13 37.1221 116.96 41.0811C117.787 42.8701 109.977 62.2061 107.185 61.6871Z" fill="#F2530E"/>
<path d="M114.149 41.3421C112.519 41.7594 110.805 41.721 109.194 41.2309C107.584 40.7409 106.139 39.8181 105.017 38.5631C104.995 38.5931 104.964 38.6161 104.944 38.6471C103.279 41.1761 104.025 56.6571 106.209 60.7211C110.078 54.8321 112.774 48.2523 114.149 41.3421Z" fill="#FF7406"/>
<path d="M113.755 39.534C112.753 39.9143 111.664 40.0024 110.614 39.7882C109.564 39.5741 108.596 39.0663 107.823 38.324C109.88 37.736 111.912 38.45 113.755 39.534Z" fill="#D04C0E"/>
<path d="M106.475 41.6101C107.553 46.8855 107.458 52.3334 106.197 57.5681C105.592 54.9246 105.203 52.2365 105.034 49.5301C104.865 46.8124 105.36 44.0945 106.475 41.6101Z" fill="#F48D06"/>
<path d="M118.907 55.335C115.989 54.793 114.764 35.128 116.66 32.246C118.556 29.364 126.867 30.722 128.7 34.687C129.533 36.481 121.704 55.854 118.907 55.335Z" fill="#F2530E"/>
<path d="M125.884 34.9421C124.251 35.3603 122.533 35.3218 120.92 34.8309C119.306 34.34 117.858 33.4154 116.734 32.1581C116.712 32.1881 116.681 32.2121 116.66 32.2421C114.992 34.7771 115.739 50.2881 117.929 54.3601C121.805 48.4591 124.506 41.866 125.884 34.9421Z" fill="#FF7406"/>
<path d="M125.489 33.142C124.485 33.523 123.394 33.6113 122.342 33.3967C121.29 33.1822 120.32 32.6736 119.545 31.93C121.606 31.337 123.643 32.051 125.489 33.142Z" fill="#D04C0E"/>
<path d="M118.195 35.218C119.275 40.5041 119.179 45.9628 117.916 51.208C117.311 48.5592 116.921 45.8658 116.75 43.154C116.582 40.4307 117.078 37.7073 118.195 35.218Z" fill="#F48D06"/>
<path d="M98.7004 53.6481C95.7784 54.1661 87.7194 36.1851 88.4834 32.8211C89.2474 29.4571 97.5034 27.8061 100.613 30.8751C102.019 32.2631 101.502 53.1511 98.7004 53.6481Z" fill="#F2530E"/>
<path d="M98.0673 32.1071C96.6847 33.0727 95.0635 33.6402 93.3805 33.7476C91.6975 33.855 90.0174 33.4982 88.5233 32.7161C88.5123 32.7521 88.4923 32.7851 88.4843 32.8161C87.8133 35.7751 93.9643 50.0351 97.4443 53.0771C98.9982 46.1921 99.2097 39.0721 98.0673 32.1071Z" fill="#FF7406"/>
<path d="M97.0633 30.5531C96.2572 31.2625 95.2664 31.7287 94.2059 31.8976C93.1455 32.0665 92.0588 31.931 91.0723 31.5071C92.7933 30.2321 94.9523 30.1851 97.0633 30.5531Z" fill="#D04C0E"/>
<path d="M90.9644 35.0641C93.8334 39.6333 95.6626 44.7774 96.3224 50.1321C94.825 47.865 93.5134 45.4806 92.4004 43.0021C91.2858 40.5115 90.793 37.7873 90.9644 35.0641Z" fill="#F48D06"/>
<path d="M116.468 60.642C114.98 58.081 129.068 44.359 132.482 43.92C135.896 43.481 140.276 50.652 138.467 54.62C137.649 56.415 117.895 63.098 116.468 60.642Z" fill="#F2530E"/>
<path d="M136.434 52.657C135.054 51.6927 133.966 50.368 133.288 48.8275C132.609 47.2869 132.367 45.5898 132.587 43.921C132.55 43.921 132.513 43.916 132.477 43.921C129.477 44.307 118.219 54.9651 116.562 59.2711C123.55 58.3647 130.297 56.119 136.434 52.657Z" fill="#FF7406"/>
<path d="M137.549 51.183C136.608 50.6713 135.831 49.9028 135.308 48.9669C134.786 48.031 134.54 46.9661 134.599 45.896C136.386 47.072 137.17 49.079 137.549 51.183Z" fill="#D04C0E"/>
<path d="M131.234 47.015C127.936 51.2717 123.742 54.7515 118.951 57.208C120.562 55.0264 122.346 52.9787 124.288 51.085C126.239 49.1861 128.623 47.7895 131.234 47.015Z" fill="#F48D06"/>
</svg>
