<svg width="36" height="36" viewBox="0 0 36 36" fill="none" xmlns="http://www.w3.org/2000/svg">
<path d="M24 0H12C5.37258 0 0 5.37258 0 12V24C0 30.6274 5.37258 36 12 36H24C30.6274 36 36 30.6274 36 24V12C36 5.37258 30.6274 0 24 0Z" fill="#08C069"/>
<path d="M13.5 25C12.5882 25.0123 11.7087 24.6624 11.0546 24.0271C10.4005 23.3917 10.0252 22.5228 10.011 21.611V17C10.02 16.0939 10.3881 15.2284 11.0345 14.5934C11.6809 13.9584 12.5529 13.6058 13.459 13.613H13.521C13.5488 13.6097 13.5755 13.5996 13.5985 13.5835C13.6215 13.5675 13.6402 13.546 13.653 13.521L14.046 12.714L14.354 12.1C14.5144 11.7675 14.766 11.4875 15.0797 11.2927C15.3933 11.0979 15.7558 10.9964 16.125 11H19.889C20.2577 10.9955 20.6201 11.096 20.9337 11.29C21.2474 11.4839 21.4993 11.7631 21.66 12.095C21.706 12.183 21.76 12.295 21.847 12.463L22.362 13.515C22.3782 13.5453 22.4027 13.5704 22.4326 13.5872C22.4625 13.6041 22.4967 13.612 22.531 13.61H22.701C23.5809 13.6436 24.4142 14.0143 25.0283 14.6454C25.6425 15.2764 25.9904 16.1195 26 17V21.61C25.986 22.5218 25.6109 23.3908 24.957 24.0263C24.3031 24.6619 23.4238 25.0121 22.512 25H13.5ZM15.424 12.628C15.376 12.72 15.317 12.835 15.245 12.981L14.738 14.017C14.6335 14.2256 14.4778 14.4042 14.2854 14.5361C14.0929 14.668 13.8702 14.7488 13.638 14.771L13.502 14.778C12.903 14.7684 12.3247 14.9971 11.8943 15.4138C11.464 15.8305 11.2167 16.4011 11.207 17V21.61C11.2167 22.2079 11.4631 22.7776 11.8922 23.1941C12.3213 23.6107 12.898 23.84 13.496 23.832H22.512C23.1098 23.8398 23.6862 23.6103 24.1151 23.1938C24.544 22.7773 24.7902 22.2078 24.8 21.61V17C24.7943 16.4248 24.568 15.8737 24.1677 15.4606C23.7674 15.0475 23.2237 14.8038 22.649 14.78L22.39 14.772C22.1541 14.7528 21.9271 14.673 21.7311 14.5404C21.5351 14.4078 21.3766 14.2268 21.271 14.015L20.711 12.876L20.583 12.626C20.5256 12.4871 20.4274 12.3689 20.3013 12.2871C20.1752 12.2053 20.0272 12.1638 19.877 12.168H16.13C15.9789 12.1635 15.8301 12.2051 15.7032 12.2873C15.5764 12.3695 15.4776 12.4883 15.42 12.628H15.424ZM18.008 22.088C17.1873 22.0974 16.3962 21.7815 15.8077 21.2095C15.2191 20.6374 14.8809 19.8557 14.867 19.035C14.8647 18.634 14.9441 18.2367 15.1002 17.8672C15.2563 17.4978 15.4859 17.164 15.775 16.886C16.3701 16.3007 17.1723 15.974 18.007 15.977H18.172C18.573 15.9875 18.968 16.0769 19.3344 16.2401C19.7009 16.4032 20.0316 16.637 20.3077 16.9279C20.5838 17.2189 20.7999 17.5614 20.9437 17.9359C21.0874 18.3104 21.156 18.7095 21.1455 19.1105C21.135 19.5115 21.0456 19.9065 20.8824 20.273C20.7193 20.6394 20.4855 20.9701 20.1946 21.2462C19.9036 21.5224 19.5611 21.7385 19.1866 21.8822C18.8121 22.026 18.413 22.0945 18.012 22.084L18.008 22.088ZM17.883 17.148C17.3813 17.1845 16.9141 17.4167 16.582 17.7946C16.25 18.1724 16.0798 18.6656 16.1081 19.1678C16.1364 19.67 16.361 20.141 16.7333 20.4792C17.1057 20.8173 17.5961 20.9955 18.0987 20.9754C18.6013 20.9553 19.0758 20.7385 19.42 20.3717C19.7642 20.0049 19.9504 19.5175 19.9385 19.0146C19.9266 18.5118 19.7176 18.0337 19.3564 17.6836C18.9953 17.3335 18.511 17.1393 18.008 17.143L17.883 17.148ZM21.929 17.216C21.8465 17.207 21.7657 17.1865 21.689 17.155C21.5931 17.1151 21.5059 17.057 21.432 16.984C21.2892 16.8395 21.2081 16.6452 21.206 16.442C21.2061 16.3368 21.2286 16.2329 21.272 16.137C21.3163 16.0365 21.3806 15.946 21.461 15.871C21.5327 15.8086 21.6137 15.7576 21.701 15.72C21.8464 15.6646 22.0044 15.6508 22.1573 15.6803C22.3101 15.7098 22.4516 15.7814 22.566 15.887C22.6277 15.9445 22.6792 16.0121 22.718 16.087L22.736 16.132C22.7802 16.2297 22.8027 16.3358 22.802 16.443C22.7985 16.6481 22.7145 16.8435 22.568 16.987C22.4359 17.1152 22.2642 17.1945 22.081 17.212H22.001L21.929 17.216Z" fill="white"/>
</svg>
