<svg width="20" height="19" viewBox="0 0 20 19" fill="none" xmlns="http://www.w3.org/2000/svg">
<path d="M9.87521 19L9.62022 18.84C7.36011 17.4139 5.25826 15.7512 3.35022 13.88C2.02407 12.5156 1.01302 10.8772 0.388215 9.07998C-0.174071 7.35828 -0.124255 5.49518 0.529221 3.80598C0.85177 2.97847 1.35322 2.23247 1.9977 1.62136C2.64217 1.01025 3.41375 0.54912 4.25722 0.270975C4.5409 0.171344 4.83413 0.101306 5.13222 0.0619752H5.25021C5.52399 0.0212961 5.80045 0.00124216 6.07723 0.00197762H6.18521C6.79842 0.0205345 7.4053 0.131796 7.98522 0.331979H8.04321C8.076 0.346908 8.10608 0.367182 8.13222 0.391977C8.34724 0.457631 8.55498 0.545087 8.75221 0.652979L9.12622 0.821985C9.2236 0.879135 9.31714 0.942591 9.40622 1.01197C9.46222 1.05397 9.50623 1.08898 9.54923 1.11198L9.58922 1.13598C9.67765 1.18585 9.76283 1.24129 9.84422 1.30198C10.9119 0.461114 12.2312 0.00329018 13.5902 0.00197762H13.6332C14.2554 -0.002504 14.8741 0.0958198 15.4642 0.292978C16.3027 0.568661 17.0696 1.02705 17.7094 1.63508C18.3493 2.24311 18.8462 2.98561 19.1642 3.80898C19.807 5.4987 19.8609 7.35583 19.3172 9.07998C18.7002 10.8833 17.6886 12.5262 16.3562 13.889C14.4579 15.7552 12.3692 17.4173 10.1242 18.848L9.87822 18.998L9.87521 19ZM14.7042 3.12098C14.5392 3.12359 14.379 3.17717 14.2456 3.27438C14.1123 3.37159 14.0122 3.50768 13.9592 3.66398C13.8924 3.86584 13.9063 4.0857 13.9981 4.27752C14.0898 4.46934 14.2522 4.61822 14.4512 4.69297C14.7643 4.81833 15.0323 5.03524 15.2202 5.31535C15.4081 5.59545 15.507 5.92572 15.5042 6.26298V6.29298C15.4843 6.51602 15.5513 6.73812 15.6912 6.91297C15.7871 7.03763 15.9199 7.12886 16.0706 7.17365C16.2213 7.21845 16.3824 7.21452 16.5308 7.16244C16.6791 7.11035 16.8073 7.01277 16.897 6.88358C16.9867 6.7544 17.0333 6.6002 17.0302 6.44297V6.32398C17.0496 5.6479 16.8607 4.98218 16.4892 4.41697C16.1177 3.85176 15.5815 3.41437 14.9532 3.16398C14.8732 3.13608 14.789 3.12188 14.7042 3.12197V3.12098Z" fill="#08C069"/>
</svg>
