<svg width="30" height="30" viewBox="0 0 30 30" fill="none" xmlns="http://www.w3.org/2000/svg">
<path d="M29.9968 15.0533C30.0054 14.5253 29.8592 14.0053 29.574 13.5494C29.2887 13.0935 28.8754 12.7193 28.3787 12.4672L4.7925 0.375777C4.28364 0.105847 3.70309 -0.0233082 3.11861 0.00345502C2.53413 0.0302182 1.96988 0.211759 1.49173 0.526883C0.982456 0.917201 0.596603 1.42973 0.375672 2.00944C0.15474 2.58915 0.107089 3.21414 0.237757 3.81727L2.4318 12.4445C2.5395 12.8749 2.80089 13.2581 3.17293 13.5312C3.54497 13.8043 4.00546 13.9509 4.4786 13.9469L17.6155 13.8939C17.7701 13.8907 17.9239 13.916 18.068 13.9684C18.2122 14.0208 18.3438 14.0993 18.4555 14.1992C18.5672 14.2992 18.6566 14.4187 18.7188 14.551C18.7809 14.6832 18.8145 14.8257 18.8177 14.9701C18.8177 14.9863 18.8177 15.0019 18.8177 15.017C18.8135 15.3164 18.6843 15.6025 18.4576 15.8142C18.2309 16.026 17.9247 16.1467 17.6042 16.1506L4.45598 16.1928C3.98167 16.1951 3.52168 16.345 3.14868 16.6187C2.77568 16.8924 2.51091 17.2743 2.3962 17.7043L0.101817 26.3632C-0.0360661 26.8502 -0.0338697 27.3626 0.108187 27.8486C0.250244 28.3345 0.527125 28.7767 0.910838 29.1307C1.00338 29.2208 1.10174 29.3056 1.20533 29.3846C1.68841 29.7353 2.27089 29.9461 2.8808 29.991C3.49071 30.0358 4.10133 29.9128 4.6372 29.637L28.335 17.6166C28.8331 17.3664 29.2503 16.9961 29.5431 16.5442C29.8359 16.0923 29.9937 15.5754 30 15.0472" fill="#08C069"/>
</svg>
