<svg width="339" height="188" viewBox="0 0 339 188" fill="none" xmlns="http://www.w3.org/2000/svg">
<path d="M292 23H47C30.4315 23 17 36.4315 17 53V158C17 174.569 30.4315 188 47 188H292C308.569 188 322 174.569 322 158V53C322 36.4315 308.569 23 292 23Z" fill="#B4B4B4"/>
<path d="M307 1H32C14.8792 1 1 14.8792 1 32V148C1 165.121 14.8792 179 32 179H307C324.121 179 338 165.121 338 148V32C338 14.8792 324.121 1 307 1Z" fill="#CACACA" stroke="white" stroke-width="2"/>
<mask id="mask0_164_2803" style="mask-type:alpha" maskUnits="userSpaceOnUse" x="2" y="2" width="335" height="176">
<path d="M307 2H32C15.4315 2 2 15.4315 2 32V148C2 164.569 15.4315 178 32 178H307C323.569 178 337 164.569 337 148V32C337 15.4315 323.569 2 307 2Z" fill="#F5D3BB"/>
</mask>
<g mask="url(#mask0_164_2803)">
<path d="M78.3789 -42.2461C87.9689 -1.00409 113.652 5.58792 152.605 22.2819C190.339 38.4539 192.227 70.7919 233.056 55.5009C326.9 20.3549 333.19 198.715 448.62 178.657" stroke="white" stroke-width="50"/>
<path d="M160.885 -144.058C170.474 -102.816 196.158 -96.2241 235.111 -79.5301C272.845 -63.3581 274.733 -31.0201 315.562 -46.3111C409.409 -81.4571 415.7 96.8999 531.127 76.8449" stroke="white" stroke-width="50"/>
<path d="M111.13 -78.582C120.719 -37.34 146.403 -30.748 185.356 -14.054C223.09 2.11798 224.978 34.456 265.807 19.165C359.654 -15.98 365.941 162.38 481.371 142.321" stroke="#08C069" stroke-width="50"/>
<path d="M130.062 -94.8191C139.651 -53.5771 165.335 -46.9851 204.288 -30.2911C242.022 -14.1191 243.909 18.2189 284.739 2.92792C378.586 -32.2181 384.874 146.143 500.3 126.084" stroke="#84BD93" stroke-width="50"/>
<path d="M147.46 -100.54C157.05 -59.298 182.733 -52.706 221.686 -36.012C259.419 -19.84 261.307 12.498 302.137 -2.79303C395.984 -37.939 402.272 140.421 517.7 120.362" stroke="#9BD5AA" stroke-width="50"/>
</g>
<path d="M27.169 116.94V115.835H29.795V125H28.547V116.94H27.169ZM34.6194 115.588C35.2088 115.588 35.7158 115.692 36.1404 115.9C36.5651 116.108 36.8858 116.394 37.1024 116.758C37.3191 117.122 37.4274 117.534 37.4274 117.993C37.4274 118.565 37.2584 119.046 36.9204 119.436C36.5911 119.826 36.1058 120.06 35.4644 120.138V120.216C36.1318 120.389 36.6518 120.658 37.0244 121.022C37.4058 121.386 37.5964 121.889 37.5964 122.53C37.5964 123.284 37.3451 123.899 36.8424 124.376C36.3398 124.853 35.6161 125.091 34.6714 125.091C33.7268 125.091 32.9598 124.848 32.3704 124.363C31.7898 123.869 31.4474 123.15 31.3434 122.205H32.5134C32.5914 122.777 32.8081 123.232 33.1634 123.57C33.5274 123.908 34.0171 124.077 34.6324 124.077C35.2131 124.077 35.6594 123.93 35.9714 123.635C36.2834 123.332 36.4394 122.942 36.4394 122.465C36.4394 121.893 36.2141 121.46 35.7634 121.165C35.3214 120.862 34.6888 120.71 33.8654 120.71H33.5534V119.722H33.8654C35.4601 119.722 36.2574 119.189 36.2574 118.123C36.2574 117.655 36.1101 117.282 35.8154 117.005C35.5208 116.728 35.1134 116.589 34.5934 116.589C34.0734 116.589 33.6358 116.741 33.2804 117.044C32.9251 117.339 32.7171 117.776 32.6564 118.357H31.4994C31.5601 117.49 31.8591 116.814 32.3964 116.329C32.9424 115.835 33.6834 115.588 34.6194 115.588ZM38.9337 124.09C40.407 123.102 41.5857 122.123 42.4697 121.152C43.3537 120.173 43.7957 119.263 43.7957 118.422C43.7957 117.902 43.6614 117.486 43.3927 117.174C43.1327 116.853 42.708 116.693 42.1187 116.693C41.512 116.693 41.0527 116.888 40.7407 117.278C40.4287 117.659 40.2554 118.188 40.2207 118.864H39.0507C39.1114 117.841 39.4277 117.057 39.9997 116.511C40.5717 115.956 41.3084 115.679 42.2097 115.679C43.0677 115.679 43.748 115.909 44.2507 116.368C44.7534 116.827 45.0047 117.477 45.0047 118.318C45.0047 119.011 44.7794 119.718 44.3287 120.437C43.8867 121.148 43.3277 121.811 42.6517 122.426C41.9844 123.033 41.2954 123.548 40.5847 123.973H45.2387V124.948H38.9337V124.09ZM46.3097 124.09C47.783 123.102 48.9617 122.123 49.8457 121.152C50.7297 120.173 51.1717 119.263 51.1717 118.422C51.1717 117.902 51.0373 117.486 50.7687 117.174C50.5087 116.853 50.084 116.693 49.4947 116.693C48.888 116.693 48.4287 116.888 48.1167 117.278C47.8047 117.659 47.6313 118.188 47.5967 118.864H46.4267C46.4873 117.841 46.8037 117.057 47.3757 116.511C47.9477 115.956 48.6843 115.679 49.5857 115.679C50.4437 115.679 51.124 115.909 51.6267 116.368C52.1293 116.827 52.3807 117.477 52.3807 118.318C52.3807 119.011 52.1553 119.718 51.7047 120.437C51.2627 121.148 50.7037 121.811 50.0277 122.426C49.3603 123.033 48.6713 123.548 47.9607 123.973H52.6147V124.948H46.3097V124.09ZM63.4505 115.588C64.0398 115.588 64.5468 115.692 64.9715 115.9C65.3961 116.108 65.7168 116.394 65.9335 116.758C66.1501 117.122 66.2585 117.534 66.2585 117.993C66.2585 118.565 66.0895 119.046 65.7515 119.436C65.4221 119.826 64.9368 120.06 64.2955 120.138V120.216C64.9628 120.389 65.4828 120.658 65.8555 121.022C66.2368 121.386 66.4275 121.889 66.4275 122.53C66.4275 123.284 66.1761 123.899 65.6735 124.376C65.1708 124.853 64.4471 125.091 63.5025 125.091C62.5578 125.091 61.7908 124.848 61.2015 124.363C60.6208 123.869 60.2785 123.15 60.1745 122.205H61.3445C61.4225 122.777 61.6391 123.232 61.9945 123.57C62.3585 123.908 62.8481 124.077 63.4635 124.077C64.0441 124.077 64.4905 123.93 64.8025 123.635C65.1145 123.332 65.2705 122.942 65.2705 122.465C65.2705 121.893 65.0451 121.46 64.5945 121.165C64.1525 120.862 63.5198 120.71 62.6965 120.71H62.3845V119.722H62.6965C64.2911 119.722 65.0885 119.189 65.0885 118.123C65.0885 117.655 64.9411 117.282 64.6465 117.005C64.3518 116.728 63.9445 116.589 63.4245 116.589C62.9045 116.589 62.4668 116.741 62.1115 117.044C61.7561 117.339 61.5481 117.776 61.4875 118.357H60.3305C60.3911 117.49 60.6901 116.814 61.2275 116.329C61.7735 115.835 62.5145 115.588 63.4505 115.588ZM71.1058 115.588C71.6951 115.588 72.2021 115.692 72.6268 115.9C73.0514 116.108 73.3721 116.394 73.5888 116.758C73.8054 117.122 73.9138 117.534 73.9138 117.993C73.9138 118.565 73.7448 119.046 73.4068 119.436C73.0774 119.826 72.5921 120.06 71.9508 120.138V120.216C72.6181 120.389 73.1381 120.658 73.5108 121.022C73.8921 121.386 74.0827 121.889 74.0827 122.53C74.0827 123.284 73.8314 123.899 73.3288 124.376C72.8261 124.853 72.1024 125.091 71.1578 125.091C70.2131 125.091 69.4461 124.848 68.8568 124.363C68.2761 123.869 67.9338 123.15 67.8298 122.205H68.9998C69.0778 122.777 69.2944 123.232 69.6498 123.57C70.0138 123.908 70.5034 124.077 71.1188 124.077C71.6994 124.077 72.1458 123.93 72.4578 123.635C72.7698 123.332 72.9258 122.942 72.9258 122.465C72.9258 121.893 72.7004 121.46 72.2498 121.165C71.8078 120.862 71.1751 120.71 70.3518 120.71H70.0398V119.722H70.3518C71.9464 119.722 72.7438 119.189 72.7438 118.123C72.7438 117.655 72.5964 117.282 72.3018 117.005C72.0071 116.728 71.5998 116.589 71.0798 116.589C70.5598 116.589 70.1221 116.741 69.7668 117.044C69.4114 117.339 69.2034 117.776 69.1428 118.357H67.9858C68.0464 117.49 68.3454 116.814 68.8828 116.329C69.4288 115.835 70.1698 115.588 71.1058 115.588ZM75.277 122.894V121.906L79.983 115.77H81.257V121.867H82.609V122.894H81.257V125H80.061V122.894H75.277ZM80.139 117.213L76.525 121.867H80.139V117.213ZM83.3385 122.894V121.906L88.0445 115.77H89.3185V121.867H90.6705V122.894H89.3185V125H88.1225V122.894H83.3385ZM88.2005 117.213L84.5865 121.867H88.2005V117.213ZM101.308 115.588C101.897 115.588 102.404 115.692 102.829 115.9C103.254 116.108 103.574 116.394 103.791 116.758C104.008 117.122 104.116 117.534 104.116 117.993C104.116 118.565 103.947 119.046 103.609 119.436C103.28 119.826 102.794 120.06 102.153 120.138V120.216C102.82 120.389 103.34 120.658 103.713 121.022C104.094 121.386 104.285 121.889 104.285 122.53C104.285 123.284 104.034 123.899 103.531 124.376C103.028 124.853 102.305 125.091 101.36 125.091C100.415 125.091 99.6482 124.848 99.0589 124.363C98.4782 123.869 98.1359 123.15 98.0319 122.205H99.2019C99.2799 122.777 99.4966 123.232 99.8519 123.57C100.216 123.908 100.706 124.077 101.321 124.077C101.902 124.077 102.348 123.93 102.66 123.635C102.972 123.332 103.128 122.942 103.128 122.465C103.128 121.893 102.903 121.46 102.452 121.165C102.01 120.862 101.377 120.71 100.554 120.71H100.242V119.722H100.554C102.149 119.722 102.946 119.189 102.946 118.123C102.946 117.655 102.799 117.282 102.504 117.005C102.209 116.728 101.802 116.589 101.282 116.589C100.762 116.589 100.324 116.741 99.9689 117.044C99.6136 117.339 99.4056 117.776 99.3449 118.357H98.1879C98.2486 117.49 98.5476 116.814 99.0849 116.329C99.6309 115.835 100.372 115.588 101.308 115.588ZM105.479 122.894V121.906L110.185 115.77H111.459V121.867H112.811V122.894H111.459V125H110.263V122.894H105.479ZM110.341 117.213L106.727 121.867H110.341V117.213ZM113.541 122.894V121.906L118.247 115.77H119.521V121.867H120.873V122.894H119.521V125H118.325V122.894H113.541ZM118.403 117.213L114.789 121.867H118.403V117.213ZM125.086 115.588C125.676 115.588 126.183 115.692 126.607 115.9C127.032 116.108 127.353 116.394 127.569 116.758C127.786 117.122 127.894 117.534 127.894 117.993C127.894 118.565 127.725 119.046 127.387 119.436C127.058 119.826 126.573 120.06 125.931 120.138V120.216C126.599 120.389 127.119 120.658 127.491 121.022C127.873 121.386 128.063 121.889 128.063 122.53C128.063 123.284 127.812 123.899 127.309 124.376C126.807 124.853 126.083 125.091 125.138 125.091C124.194 125.091 123.427 124.848 122.837 124.363C122.257 123.869 121.914 123.15 121.81 122.205H122.98C123.058 122.777 123.275 123.232 123.63 123.57C123.994 123.908 124.484 124.077 125.099 124.077C125.68 124.077 126.126 123.93 126.438 123.635C126.75 123.332 126.906 122.942 126.906 122.465C126.906 121.893 126.681 121.46 126.23 121.165C125.788 120.862 125.156 120.71 124.332 120.71H124.02V119.722H124.332C125.927 119.722 126.724 119.189 126.724 118.123C126.724 117.655 126.577 117.282 126.282 117.005C125.988 116.728 125.58 116.589 125.06 116.589C124.54 116.589 124.103 116.741 123.747 117.044C123.392 117.339 123.184 117.776 123.123 118.357H121.966C122.027 117.49 122.326 116.814 122.863 116.329C123.409 115.835 124.15 115.588 125.086 115.588ZM135.824 124.09C137.298 123.102 138.476 122.123 139.36 121.152C140.244 120.173 140.686 119.263 140.686 118.422C140.686 117.902 140.552 117.486 140.283 117.174C140.023 116.853 139.599 116.693 139.009 116.693C138.403 116.693 137.943 116.888 137.631 117.278C137.319 117.659 137.146 118.188 137.111 118.864H135.941C136.002 117.841 136.318 117.057 136.89 116.511C137.462 115.956 138.199 115.679 139.1 115.679C139.958 115.679 140.639 115.909 141.141 116.368C141.644 116.827 141.895 117.477 141.895 118.318C141.895 119.011 141.67 119.718 141.219 120.437C140.777 121.148 140.218 121.811 139.542 122.426C138.875 123.033 138.186 123.548 137.475 123.973H142.129V124.948H135.824V124.09ZM148.569 118.279C148.5 117.733 148.314 117.313 148.01 117.018C147.716 116.715 147.304 116.563 146.775 116.563C146.039 116.563 145.48 116.849 145.098 117.421C144.726 117.993 144.539 118.899 144.539 120.138L144.552 120.619C144.682 120.099 144.981 119.687 145.449 119.384C145.917 119.072 146.468 118.916 147.1 118.916C148.01 118.916 148.721 119.189 149.232 119.735C149.752 120.281 150.012 121.044 150.012 122.023C150.012 122.595 149.9 123.115 149.674 123.583C149.449 124.042 149.102 124.411 148.634 124.688C148.175 124.957 147.603 125.091 146.918 125.091C145.61 125.091 144.708 124.679 144.214 123.856C143.729 123.033 143.486 121.915 143.486 120.502C143.486 118.873 143.746 117.651 144.266 116.836C144.795 116.013 145.653 115.601 146.84 115.601C147.716 115.601 148.387 115.848 148.855 116.342C149.332 116.836 149.614 117.482 149.7 118.279H148.569ZM144.682 121.828C144.682 122.461 144.864 122.994 145.228 123.427C145.601 123.852 146.156 124.064 146.892 124.064C147.499 124.064 147.984 123.886 148.348 123.531C148.712 123.167 148.894 122.66 148.894 122.01C148.894 121.308 148.712 120.775 148.348 120.411C147.984 120.038 147.482 119.852 146.84 119.852C146.476 119.852 146.13 119.926 145.8 120.073C145.471 120.22 145.202 120.446 144.994 120.749C144.786 121.044 144.682 121.403 144.682 121.828ZM156.917 116.693L153.446 125H152.198L155.721 116.81H150.911V115.783H156.917V116.693ZM158.228 117.993C158.228 117.542 158.349 117.131 158.592 116.758C158.834 116.385 159.194 116.091 159.671 115.874C160.147 115.657 160.715 115.549 161.374 115.549C162.032 115.549 162.596 115.657 163.064 115.874C163.54 116.091 163.9 116.385 164.143 116.758C164.385 117.131 164.507 117.542 164.507 117.993C164.507 118.504 164.368 118.946 164.091 119.319C163.813 119.692 163.393 119.956 162.83 120.112C163.436 120.277 163.909 120.563 164.247 120.97C164.585 121.377 164.754 121.88 164.754 122.478C164.754 123.345 164.446 124.025 163.831 124.519C163.215 125.013 162.396 125.26 161.374 125.26C160.351 125.26 159.532 125.013 158.917 124.519C158.301 124.025 157.994 123.345 157.994 122.478C157.994 121.88 158.158 121.377 158.488 120.97C158.826 120.563 159.298 120.277 159.905 120.112C159.341 119.956 158.921 119.692 158.644 119.319C158.366 118.946 158.228 118.504 158.228 117.993ZM159.398 118.162C159.398 118.682 159.575 119.085 159.931 119.371C160.286 119.648 160.767 119.787 161.374 119.787C161.98 119.787 162.457 119.648 162.804 119.371C163.159 119.085 163.337 118.682 163.337 118.162C163.337 117.642 163.159 117.243 162.804 116.966C162.448 116.68 161.972 116.537 161.374 116.537C160.776 116.537 160.295 116.68 159.931 116.966C159.575 117.243 159.398 117.642 159.398 118.162ZM159.151 122.413C159.151 123.002 159.35 123.462 159.749 123.791C160.147 124.112 160.689 124.272 161.374 124.272C162.05 124.272 162.587 124.107 162.986 123.778C163.384 123.449 163.584 122.994 163.584 122.413C163.584 121.824 163.376 121.377 162.96 121.074C162.544 120.771 162.015 120.619 161.374 120.619C160.724 120.619 160.191 120.771 159.775 121.074C159.359 121.377 159.151 121.824 159.151 122.413Z" fill="#3F2D20"/>
<path d="M274.26 119.104V125H273.391V121.238C273.391 121.084 273.395 120.923 273.402 120.754C273.417 120.585 273.431 120.42 273.446 120.259H273.413L271.488 125H270.674L268.804 120.259H268.771C268.786 120.42 268.793 120.585 268.793 120.754C268.8 120.923 268.804 121.095 268.804 121.271V125H267.935V119.104H269.222L271.081 123.845L272.973 119.104H274.26ZM278.419 118.994C278.925 118.994 279.358 119.104 279.717 119.324C280.084 119.544 280.362 119.856 280.553 120.259C280.751 120.655 280.85 121.121 280.85 121.656V122.239H276.813C276.828 122.906 276.996 123.416 277.319 123.768C277.649 124.113 278.107 124.285 278.694 124.285C279.068 124.285 279.398 124.252 279.684 124.186C279.977 124.113 280.278 124.01 280.586 123.878V124.725C280.285 124.857 279.988 124.952 279.695 125.011C279.402 125.077 279.053 125.11 278.65 125.11C278.093 125.11 277.598 124.996 277.165 124.769C276.74 124.542 276.406 124.204 276.164 123.757C275.929 123.302 275.812 122.749 275.812 122.096C275.812 121.451 275.918 120.897 276.131 120.435C276.351 119.973 276.655 119.617 277.044 119.368C277.44 119.119 277.898 118.994 278.419 118.994ZM278.408 119.786C277.946 119.786 277.579 119.936 277.308 120.237C277.044 120.53 276.886 120.941 276.835 121.469H279.838C279.838 121.132 279.787 120.838 279.684 120.589C279.581 120.34 279.424 120.145 279.211 120.006C279.006 119.859 278.738 119.786 278.408 119.786ZM284.716 125.11C284.195 125.11 283.73 125.004 283.319 124.791C282.916 124.578 282.597 124.248 282.362 123.801C282.135 123.354 282.021 122.782 282.021 122.085C282.021 121.359 282.142 120.769 282.384 120.314C282.626 119.859 282.952 119.526 283.363 119.313C283.781 119.1 284.254 118.994 284.782 118.994C285.083 118.994 285.372 119.027 285.651 119.093C285.93 119.152 286.157 119.225 286.333 119.313L286.036 120.116C285.86 120.05 285.655 119.988 285.42 119.929C285.185 119.87 284.965 119.841 284.76 119.841C284.364 119.841 284.038 119.925 283.781 120.094C283.524 120.263 283.334 120.512 283.209 120.842C283.084 121.172 283.022 121.583 283.022 122.074C283.022 122.543 283.084 122.943 283.209 123.273C283.334 123.603 283.521 123.852 283.77 124.021C284.019 124.19 284.331 124.274 284.705 124.274C285.028 124.274 285.31 124.241 285.552 124.175C285.801 124.109 286.029 124.028 286.234 123.933V124.791C286.036 124.894 285.816 124.971 285.574 125.022C285.339 125.081 285.053 125.11 284.716 125.11ZM291.288 114.638L288.274 126.87H287.284L290.287 114.638H291.288ZM299.397 119.104V119.918H296.768V125H295.8V119.104H299.397ZM305.578 122.041C305.578 122.532 305.512 122.969 305.38 123.35C305.255 123.724 305.072 124.043 304.83 124.307C304.595 124.571 304.305 124.773 303.961 124.912C303.623 125.044 303.246 125.11 302.828 125.11C302.439 125.11 302.08 125.044 301.75 124.912C301.42 124.773 301.134 124.571 300.892 124.307C300.65 124.043 300.459 123.724 300.32 123.35C300.188 122.969 300.122 122.532 300.122 122.041C300.122 121.388 300.232 120.838 300.452 120.391C300.672 119.936 300.987 119.592 301.398 119.357C301.808 119.115 302.296 118.994 302.861 118.994C303.396 118.994 303.865 119.115 304.269 119.357C304.679 119.592 304.998 119.936 305.226 120.391C305.46 120.838 305.578 121.388 305.578 122.041ZM301.123 122.041C301.123 122.503 301.181 122.906 301.299 123.251C301.423 123.588 301.614 123.849 301.871 124.032C302.127 124.215 302.454 124.307 302.85 124.307C303.246 124.307 303.572 124.215 303.829 124.032C304.085 123.849 304.272 123.588 304.39 123.251C304.514 122.906 304.577 122.503 304.577 122.041C304.577 121.572 304.514 121.172 304.39 120.842C304.265 120.512 304.074 120.259 303.818 120.083C303.568 119.9 303.242 119.808 302.839 119.808C302.237 119.808 301.801 120.006 301.53 120.402C301.258 120.798 301.123 121.344 301.123 122.041ZM311.49 119.104V124.186H312.348V127.046H311.413V125H307.31V127.046H306.386V124.186H306.859C307.196 123.717 307.475 123.207 307.695 122.657C307.922 122.1 308.091 121.52 308.201 120.919C308.318 120.31 308.38 119.705 308.388 119.104H311.49ZM309.246 119.863C309.216 120.362 309.139 120.879 309.015 121.414C308.89 121.942 308.729 122.448 308.531 122.932C308.34 123.416 308.116 123.834 307.86 124.186H310.555V119.863H309.246Z" fill="#73665C"/>
<path d="M265.832 147.272C265.832 149.075 266.152 150.488 266.792 151.512C267.432 152.525 268.499 153.032 269.992 153.032C271.485 153.032 272.552 152.52 273.192 151.496C273.832 150.472 274.152 149.064 274.152 147.272C274.152 145.491 273.832 144.093 273.192 143.08C272.552 142.056 271.485 141.544 269.992 141.544C268.499 141.544 267.432 142.051 266.792 143.064C266.152 144.077 265.832 145.48 265.832 147.272ZM272.328 147.272C272.328 148.573 272.168 149.571 271.848 150.264C271.528 150.957 270.909 151.304 269.992 151.304C269.064 151.304 268.44 150.957 268.12 150.264C267.8 149.571 267.64 148.573 267.64 147.272C267.64 145.981 267.8 144.995 268.12 144.312C268.44 143.629 269.064 143.288 269.992 143.288C270.909 143.288 271.528 143.635 271.848 144.328C272.168 145.011 272.328 145.992 272.328 147.272ZM275.529 150.568V149.032L281.145 141.608H283.097V148.968H284.681V150.568H283.097V153H281.257V150.568H275.529ZM281.385 143.784L277.417 148.968H281.385V143.784ZM291.237 137.896L286.885 155.816H285.109L289.461 137.896H291.237ZM292.004 147.272C292.004 149.075 292.324 150.488 292.964 151.512C293.604 152.525 294.671 153.032 296.164 153.032C297.657 153.032 298.724 152.52 299.364 151.496C300.004 150.472 300.324 149.064 300.324 147.272C300.324 145.491 300.004 144.093 299.364 143.08C298.724 142.056 297.657 141.544 296.164 141.544C294.671 141.544 293.604 142.051 292.964 143.064C292.324 144.077 292.004 145.48 292.004 147.272ZM298.5 147.272C298.5 148.573 298.34 149.571 298.02 150.264C297.7 150.957 297.081 151.304 296.164 151.304C295.236 151.304 294.612 150.957 294.292 150.264C293.972 149.571 293.812 148.573 293.812 147.272C293.812 145.981 293.972 144.995 294.292 144.312C294.612 143.629 295.236 143.288 296.164 143.288C297.081 143.288 297.7 143.635 298.02 144.328C298.34 145.011 298.5 145.992 298.5 147.272ZM309.797 143.144H304.213V146.504C304.469 146.173 304.831 145.912 305.301 145.72C305.77 145.517 306.287 145.416 306.853 145.416C307.642 145.416 308.298 145.587 308.821 145.928C309.343 146.259 309.727 146.701 309.973 147.256C310.229 147.811 310.357 148.424 310.357 149.096C310.357 150.28 310.026 151.24 309.365 151.976C308.703 152.701 307.743 153.064 306.485 153.064C305.301 153.064 304.346 152.749 303.621 152.12C302.895 151.491 302.501 150.653 302.437 149.608H304.229C304.325 150.184 304.559 150.637 304.933 150.968C305.317 151.299 305.802 151.464 306.389 151.464C307.114 151.464 307.658 151.245 308.021 150.808C308.383 150.371 308.565 149.789 308.565 149.064C308.565 148.381 308.378 147.848 308.005 147.464C307.631 147.069 307.098 146.872 306.405 146.872C305.914 146.872 305.482 146.979 305.109 147.192C304.746 147.405 304.479 147.688 304.309 148.04H302.533V141.528H309.797V143.144Z" fill="#3F2D20"/>
<path d="M223.664 36.768V48H220.928V40.976L218.496 48H216.128L213.68 40.96V48H210.944V36.768H214.288L217.344 44.592L220.336 36.768H223.664ZM228.945 38.96C229.628 38.96 230.215 39.1147 230.705 39.424C231.196 39.7333 231.559 40.1547 231.793 40.688V39.072H234.513V48H231.793V46.384C231.559 46.9173 231.196 47.3387 230.705 47.648C230.215 47.9573 229.628 48.112 228.945 48.112C228.209 48.112 227.548 47.9307 226.961 47.568C226.385 47.1947 225.927 46.6613 225.585 45.968C225.255 45.2747 225.089 44.464 225.089 43.536C225.089 42.5973 225.255 41.7867 225.585 41.104C225.927 40.4107 226.385 39.8827 226.961 39.52C227.548 39.1467 228.209 38.96 228.945 38.96ZM229.825 41.36C229.239 41.36 228.764 41.552 228.401 41.936C228.049 42.32 227.873 42.8533 227.873 43.536C227.873 44.2187 228.049 44.752 228.401 45.136C228.764 45.52 229.239 45.712 229.825 45.712C230.401 45.712 230.871 45.5147 231.233 45.12C231.607 44.7253 231.793 44.1973 231.793 43.536C231.793 42.864 231.607 42.336 231.233 41.952C230.871 41.5573 230.401 41.36 229.825 41.36ZM239.645 38.96C240.776 38.96 241.677 39.2427 242.349 39.808C243.032 40.3733 243.458 41.12 243.629 42.048H241.069C240.994 41.6853 240.824 41.4027 240.557 41.2C240.301 40.9867 239.976 40.88 239.581 40.88C239.272 40.88 239.037 40.9493 238.877 41.088C238.717 41.216 238.637 41.4027 238.637 41.648C238.637 41.9253 238.781 42.1333 239.069 42.272C239.368 42.4107 239.832 42.5493 240.461 42.688C241.144 42.848 241.704 43.0133 242.141 43.184C242.578 43.344 242.957 43.6107 243.277 43.984C243.597 44.3573 243.757 44.8587 243.757 45.488C243.757 46 243.618 46.4533 243.341 46.848C243.064 47.2427 242.664 47.552 242.141 47.776C241.618 48 241 48.112 240.285 48.112C239.08 48.112 238.114 47.8453 237.389 47.312C236.664 46.7787 236.221 46.016 236.061 45.024H238.701C238.744 45.408 238.904 45.7013 239.181 45.904C239.469 46.1067 239.837 46.208 240.285 46.208C240.594 46.208 240.829 46.1387 240.989 46C241.149 45.8507 241.229 45.6587 241.229 45.424C241.229 45.1147 241.08 44.896 240.781 44.768C240.493 44.6293 240.018 44.4853 239.357 44.336C238.696 44.1973 238.152 44.048 237.725 43.888C237.298 43.728 236.93 43.472 236.621 43.12C236.312 42.7573 236.157 42.2667 236.157 41.648C236.157 40.848 236.461 40.2027 237.069 39.712C237.677 39.2107 238.536 38.96 239.645 38.96ZM250.328 45.648V48H249.096C248.051 48 247.235 47.744 246.648 47.232C246.072 46.7093 245.784 45.8507 245.784 44.656V41.376H244.584V39.072H245.784V36.88H248.52V39.072H250.312V41.376H248.52V44.704C248.52 45.056 248.589 45.3013 248.728 45.44C248.877 45.5787 249.123 45.648 249.464 45.648H250.328ZM260.346 43.296C260.346 43.52 260.319 43.7653 260.266 44.032H254.074C254.106 44.704 254.277 45.1893 254.586 45.488C254.895 45.776 255.29 45.92 255.77 45.92C256.175 45.92 256.511 45.8187 256.778 45.616C257.045 45.4133 257.221 45.152 257.306 44.832H260.202C260.085 45.4613 259.829 46.0267 259.434 46.528C259.039 47.0187 258.538 47.408 257.93 47.696C257.322 47.9733 256.645 48.112 255.898 48.112C255.023 48.112 254.245 47.9307 253.562 47.568C252.89 47.1947 252.362 46.6613 251.978 45.968C251.594 45.2747 251.402 44.464 251.402 43.536C251.402 42.5973 251.589 41.7867 251.962 41.104C252.346 40.4107 252.879 39.8827 253.562 39.52C254.245 39.1467 255.023 38.96 255.898 38.96C256.783 38.96 257.562 39.1413 258.234 39.504C258.906 39.8667 259.423 40.3787 259.786 41.04C260.159 41.6907 260.346 42.4427 260.346 43.296ZM257.578 42.88C257.589 42.2933 257.429 41.856 257.098 41.568C256.778 41.2693 256.378 41.12 255.898 41.12C255.397 41.12 254.981 41.2693 254.65 41.568C254.319 41.8667 254.133 42.304 254.09 42.88H257.578ZM264.508 40.752C264.849 40.208 265.287 39.776 265.82 39.456C266.364 39.136 266.951 38.976 267.58 38.976V41.904H266.796C266.071 41.904 265.505 42.0587 265.1 42.368C264.705 42.6773 264.508 43.2 264.508 43.936V48H261.772V39.072H264.508V40.752ZM277.096 36.576C278.536 36.576 279.726 36.9547 280.664 37.712C281.614 38.4693 282.227 39.4933 282.504 40.784H279.608C279.395 40.2613 279.064 39.8507 278.616 39.552C278.179 39.2533 277.656 39.104 277.048 39.104C276.248 39.104 275.603 39.3973 275.112 39.984C274.622 40.5707 274.376 41.3547 274.376 42.336C274.376 43.3173 274.622 44.1013 275.112 44.688C275.603 45.264 276.248 45.552 277.048 45.552C277.656 45.552 278.179 45.4027 278.616 45.104C279.064 44.8053 279.395 44.4 279.608 43.888H282.504C282.227 45.168 281.614 46.192 280.664 46.96C279.726 47.7173 278.536 48.096 277.096 48.096C275.998 48.096 275.032 47.856 274.2 47.376C273.368 46.8853 272.723 46.2027 272.264 45.328C271.816 44.4533 271.592 43.456 271.592 42.336C271.592 41.216 271.816 40.2187 272.264 39.344C272.723 38.4693 273.368 37.792 274.2 37.312C275.032 36.8213 275.998 36.576 277.096 36.576ZM287.43 38.96C288.112 38.96 288.699 39.1147 289.19 39.424C289.68 39.7333 290.043 40.1547 290.278 40.688V39.072H292.998V48H290.278V46.384C290.043 46.9173 289.68 47.3387 289.19 47.648C288.699 47.9573 288.112 48.112 287.43 48.112C286.694 48.112 286.032 47.9307 285.446 47.568C284.87 47.1947 284.411 46.6613 284.07 45.968C283.739 45.2747 283.574 44.464 283.574 43.536C283.574 42.5973 283.739 41.7867 284.07 41.104C284.411 40.4107 284.87 39.8827 285.446 39.52C286.032 39.1467 286.694 38.96 287.43 38.96ZM288.31 41.36C287.723 41.36 287.248 41.552 286.886 41.936C286.534 42.32 286.358 42.8533 286.358 43.536C286.358 44.2187 286.534 44.752 286.886 45.136C287.248 45.52 287.723 45.712 288.31 45.712C288.886 45.712 289.355 45.5147 289.718 45.12C290.091 44.7253 290.278 44.1973 290.278 43.536C290.278 42.864 290.091 42.336 289.718 41.952C289.355 41.5573 288.886 41.36 288.31 41.36ZM297.618 40.752C297.959 40.208 298.396 39.776 298.93 39.456C299.474 39.136 300.06 38.976 300.69 38.976V41.904H299.906C299.18 41.904 298.615 42.0587 298.21 42.368C297.815 42.6773 297.618 43.2 297.618 43.936V48H294.882V39.072H297.618V40.752ZM305.227 38.96C305.909 38.96 306.496 39.1147 306.987 39.424C307.477 39.7333 307.835 40.1547 308.059 40.688V36.16H310.795V48H308.059V46.384C307.835 46.9173 307.477 47.3387 306.987 47.648C306.496 47.9573 305.909 48.112 305.227 48.112C304.491 48.112 303.829 47.9307 303.243 47.568C302.667 47.1947 302.208 46.6613 301.867 45.968C301.536 45.2747 301.371 44.464 301.371 43.536C301.371 42.5973 301.536 41.7867 301.867 41.104C302.208 40.4107 302.667 39.8827 303.243 39.52C303.829 39.1467 304.491 38.96 305.227 38.96ZM306.107 41.36C305.52 41.36 305.045 41.552 304.683 41.936C304.331 42.32 304.155 42.8533 304.155 43.536C304.155 44.2187 304.331 44.752 304.683 45.136C305.045 45.52 305.52 45.712 306.107 45.712C306.683 45.712 307.152 45.5147 307.515 45.12C307.888 44.7253 308.075 44.1973 308.075 43.536C308.075 42.864 307.888 42.336 307.515 41.952C307.152 41.5573 306.683 41.36 306.107 41.36Z" fill="#3F2D20"/>
<path d="M35.682 141.148V151.732H37.392V157.744H34.764V154H26.718V157.744H24.09V151.732H25.08C25.416 151.06 25.74 150.352 26.052 149.608C26.364 148.864 26.652 148.066 26.916 147.214C27.192 146.362 27.438 145.438 27.654 144.442C27.87 143.434 28.05 142.336 28.194 141.148H35.682ZM30.354 143.416C30.27 144.04 30.15 144.706 29.994 145.414C29.838 146.11 29.652 146.824 29.436 147.556C29.232 148.288 29.004 149.008 28.752 149.716C28.5 150.424 28.23 151.096 27.942 151.732H32.964V143.416H30.354ZM43.2001 143.992C44.1121 143.992 44.8921 144.166 45.5401 144.514C46.2001 144.862 46.7101 145.366 47.0701 146.026C47.4301 146.686 47.6101 147.496 47.6101 148.456V149.752H41.2741C41.2981 150.508 41.5201 151.102 41.9401 151.534C42.3721 151.966 42.9661 152.182 43.7221 152.182C44.3581 152.182 44.9341 152.122 45.4501 152.002C45.9661 151.87 46.5001 151.672 47.0521 151.408V153.478C46.5721 153.718 46.0621 153.892 45.5221 154C44.9941 154.12 44.3521 154.18 43.5961 154.18C42.6121 154.18 41.7421 154 40.9861 153.64C40.2301 153.268 39.6361 152.71 39.2041 151.966C38.7721 151.222 38.5561 150.286 38.5561 149.158C38.5561 148.006 38.7481 147.052 39.1321 146.296C39.5281 145.528 40.0741 144.952 40.7701 144.568C41.4661 144.184 42.2761 143.992 43.2001 143.992ZM43.2181 145.9C42.7021 145.9 42.2701 146.068 41.9221 146.404C41.5861 146.74 41.3881 147.262 41.3281 147.97H45.0901C45.0901 147.574 45.0181 147.22 44.8741 146.908C44.7421 146.596 44.5381 146.35 44.2621 146.17C43.9861 145.99 43.6381 145.9 43.2181 145.9ZM52.4669 144.172V147.952H56.2109V144.172H58.8929V154H56.2109V149.95H52.4669V154H49.7849V144.172H52.4669ZM64.2948 148.06C64.2948 148.264 64.2828 148.516 64.2588 148.816C64.2468 149.116 64.2288 149.422 64.2048 149.734C64.1928 150.046 64.1748 150.322 64.1508 150.562C64.1268 150.802 64.1088 150.97 64.0968 151.066L68.6328 144.172H71.8548V154H69.2628V150.076C69.2628 149.752 69.2748 149.398 69.2988 149.014C69.3228 148.618 69.3468 148.252 69.3708 147.916C69.4068 147.568 69.4308 147.304 69.4428 147.124L64.9248 154H61.7028V144.172H64.2948V148.06ZM78.6539 154.18C77.6819 154.18 76.8539 154.006 76.1699 153.658C75.4859 153.298 74.9639 152.746 74.6039 152.002C74.2439 151.258 74.0639 150.304 74.0639 149.14C74.0639 147.94 74.2679 146.962 74.6759 146.206C75.0839 145.45 75.6479 144.892 76.3679 144.532C77.0999 144.172 77.9399 143.992 78.8879 143.992C79.5599 143.992 80.1419 144.058 80.6339 144.19C81.1379 144.322 81.5759 144.478 81.9479 144.658L81.1559 146.728C80.7359 146.56 80.3399 146.422 79.9679 146.314C79.6079 146.206 79.2479 146.152 78.8879 146.152C78.4199 146.152 78.0299 146.266 77.7179 146.494C77.4059 146.71 77.1719 147.04 77.0159 147.484C76.8719 147.916 76.7999 148.462 76.7999 149.122C76.7999 149.77 76.8779 150.31 77.0339 150.742C77.2019 151.162 77.4419 151.48 77.7539 151.696C78.0659 151.9 78.4439 152.002 78.8879 152.002C79.4519 152.002 79.9499 151.93 80.3819 151.786C80.8139 151.63 81.2339 151.42 81.6419 151.156V153.442C81.2339 153.706 80.8019 153.892 80.3459 154C79.9019 154.12 79.3379 154.18 78.6539 154.18ZM87.9345 154V141.148H96.0525V143.398H90.6525V146.08H91.7325C92.9445 146.08 93.9345 146.248 94.7025 146.584C95.4825 146.92 96.0585 147.382 96.4305 147.97C96.8025 148.558 96.9885 149.23 96.9885 149.986C96.9885 150.826 96.8025 151.546 96.4305 152.146C96.0585 152.746 95.4825 153.208 94.7025 153.532C93.9225 153.844 92.9145 154 91.6785 154H87.9345ZM91.5705 151.768C92.3985 151.768 93.0465 151.636 93.5145 151.372C93.9945 151.108 94.2345 150.646 94.2345 149.986C94.2345 149.53 94.1145 149.182 93.8745 148.942C93.6465 148.702 93.3165 148.54 92.8845 148.456C92.4645 148.36 91.9545 148.312 91.3545 148.312H90.6525V151.768H91.5705ZM101.789 148.06C101.789 148.264 101.777 148.516 101.753 148.816C101.741 149.116 101.723 149.422 101.699 149.734C101.687 150.046 101.669 150.322 101.645 150.562C101.621 150.802 101.603 150.97 101.591 151.066L106.127 144.172H109.349V154H106.757V150.076C106.757 149.752 106.769 149.398 106.793 149.014C106.817 148.618 106.841 148.252 106.865 147.916C106.901 147.568 106.925 147.304 106.937 147.124L102.419 154H99.197V144.172H101.789V148.06ZM120.288 146.188H117.066V154H114.384V146.188H111.162V144.172H120.288V146.188ZM128.545 144.172H131.497L127.609 148.888L131.839 154H128.797L124.783 149.014V154H122.101V144.172H124.783V148.942L128.545 144.172ZM141.822 149.068C141.822 149.884 141.708 150.61 141.48 151.246C141.264 151.882 140.946 152.422 140.526 152.866C140.118 153.298 139.62 153.628 139.032 153.856C138.444 154.072 137.778 154.18 137.034 154.18C136.35 154.18 135.714 154.072 135.126 153.856C134.55 153.628 134.052 153.298 133.632 152.866C133.212 152.422 132.882 151.882 132.642 151.246C132.414 150.61 132.3 149.884 132.3 149.068C132.3 147.976 132.492 147.058 132.876 146.314C133.26 145.558 133.812 144.982 134.532 144.586C135.252 144.19 136.104 143.992 137.088 143.992C138.012 143.992 138.828 144.19 139.536 144.586C140.244 144.982 140.802 145.558 141.21 146.314C141.618 147.058 141.822 147.976 141.822 149.068ZM135.036 149.068C135.036 149.716 135.102 150.262 135.234 150.706C135.378 151.138 135.6 151.468 135.9 151.696C136.2 151.912 136.59 152.02 137.07 152.02C137.55 152.02 137.934 151.912 138.222 151.696C138.522 151.468 138.738 151.138 138.87 150.706C139.014 150.262 139.086 149.716 139.086 149.068C139.086 148.42 139.014 147.88 138.87 147.448C138.738 147.016 138.522 146.692 138.222 146.476C137.922 146.26 137.532 146.152 137.052 146.152C136.344 146.152 135.828 146.398 135.504 146.89C135.192 147.37 135.036 148.096 135.036 149.068ZM146.631 148.06C146.631 148.264 146.619 148.516 146.595 148.816C146.583 149.116 146.565 149.422 146.541 149.734C146.529 150.046 146.511 150.322 146.487 150.562C146.463 150.802 146.445 150.97 146.433 151.066L150.969 144.172H154.191V154H151.599V150.076C151.599 149.752 151.611 149.398 151.635 149.014C151.659 148.618 151.683 148.252 151.707 147.916C151.743 147.568 151.767 147.304 151.779 147.124L147.261 154H144.039V144.172H146.631V148.06ZM159.676 144.172V147.952H163.42V144.172H166.102V154H163.42V149.95H159.676V154H156.994V144.172H159.676Z" fill="#08C069"/>
<path d="M40.5 54C47.9558 54 54 47.9558 54 40.5C54 33.0442 47.9558 27 40.5 27C33.0442 27 27 33.0442 27 40.5C27 47.9558 33.0442 54 40.5 54Z" fill="#ED1C24"/>
<path opacity="0.6" d="M59.5 54C66.9558 54 73 47.9558 73 40.5C73 33.0442 66.9558 27 59.5 27C52.0442 27 46 33.0442 46 40.5C46 47.9558 52.0442 54 59.5 54Z" fill="#EF8829"/>
</svg>
