<svg width="20" height="20" viewBox="0 0 20 20" fill="none" xmlns="http://www.w3.org/2000/svg">
<path d="M18.299 19.7521L18.216 19.6821L15.098 16.6491C13.3899 17.9816 11.2843 18.7027 9.11801 18.6971C7.2792 18.6515 5.49468 18.0645 3.98784 17.0096C2.481 15.9547 1.31877 14.4789 0.646624 12.7667C-0.0255231 11.0545 -0.177727 9.18212 0.209063 7.38387C0.595853 5.58561 1.50445 3.94138 2.82114 2.65698C4.13782 1.37259 5.80409 0.505098 7.61139 0.163071C9.41869 -0.178957 11.2867 0.0196847 12.9817 0.734131C14.6767 1.44858 16.1232 2.64708 17.1404 4.17964C18.1575 5.71221 18.7 7.51075 18.7 9.35013C18.6974 11.7 17.7945 13.9595 16.177 15.6641L19.258 18.6641C19.3925 18.7947 19.4698 18.9733 19.4728 19.1608C19.4758 19.3483 19.4043 19.5293 19.274 19.6641L19.258 19.6801C19.1315 19.8026 18.966 19.8768 18.7904 19.8898C18.6148 19.9027 18.4401 19.8537 18.297 19.7511L18.299 19.7521ZM1.01601 9.35213C0.976438 10.9637 1.41824 12.5505 2.28496 13.9098C3.15168 15.2691 4.40399 16.3391 5.88184 16.9831C7.35969 17.6271 8.99598 17.8159 10.5817 17.5254C12.1674 17.2348 13.6304 16.4781 14.7839 15.352C15.9374 14.2258 16.729 12.7813 17.0575 11.2031C17.386 9.6248 17.2364 7.98443 16.6281 6.49156C16.0197 4.99869 14.98 3.7211 13.6419 2.82202C12.3039 1.92295 10.7281 1.44322 9.116 1.44412C6.99418 1.42196 4.95012 2.24189 3.4318 3.72423C1.91347 5.20656 1.04474 7.23038 1.01601 9.35213Z" fill="#002060"/>
</svg>
