<svg width="112" height="103" viewBox="0 0 112 103" fill="none" xmlns="http://www.w3.org/2000/svg">
<path d="M48.6424 103C75.5069 103 97.2849 79.9427 97.2849 51.5C97.2849 23.0573 75.5069 0 48.6424 0C21.778 0 0 23.0573 0 51.5C0 79.9427 21.778 103 48.6424 103Z" fill="#724747"/>
<path d="M48.6419 95.8319C71.7672 95.8319 90.514 75.9838 90.514 51.5C90.514 27.0162 71.7672 7.16809 48.6419 7.16809C25.5166 7.16809 6.76978 27.0162 6.76978 51.5C6.76978 75.9838 25.5166 95.8319 48.6419 95.8319Z" fill="#3F2D20"/>
<path d="M94.696 37.1816C97.3678 46.8208 97.2785 57.0819 94.4393 66.6674C91.6 76.2528 86.1384 84.7322 78.7451 91.0333C71.3517 97.3344 62.3586 101.174 52.9029 102.067C43.4472 102.96 33.9536 100.866 25.6226 96.0502C17.2915 91.2341 10.4971 83.9122 6.09857 75.0103C1.7 66.1083 -0.105209 56.0261 0.911203 46.0386C1.92762 36.0511 5.72 26.6068 11.8088 18.8998C17.8976 11.1929 26.0094 5.5695 35.1185 2.74068C47.3351 -1.04461 60.4721 0.456607 71.6432 6.91449C82.8144 13.3724 91.1059 24.2587 94.696 37.1816ZM36.4131 7.40833C28.1694 9.96421 20.8272 15.0498 15.3153 22.0218C9.80342 28.9937 6.36951 37.5389 5.44793 46.5763C4.52634 55.6136 6.15849 64.7372 10.1379 72.7929C14.1174 80.8486 20.2653 87.4744 27.804 91.8323C35.3427 96.1902 43.9335 98.0844 52.4898 97.2752C61.046 96.466 69.1832 92.9898 75.8721 87.2863C82.561 81.5828 87.501 73.9083 90.0672 65.2336C92.6335 56.5588 92.7107 47.2736 90.2891 38.5524C87.0428 26.8661 79.5448 17.0215 69.4426 11.1817C59.3404 5.34192 47.4605 3.98473 36.4131 7.40833Z" fill="#A26161"/>
<path d="M55.6432 92.211C71.5736 92.211 84.4878 78.5381 84.4878 61.6718C84.4878 44.8055 71.5736 31.1327 55.6432 31.1327C39.7128 31.1327 26.7986 44.8055 26.7986 61.6718C26.7986 78.5381 39.7128 92.211 55.6432 92.211Z" fill="#2B1B1B"/>
<path d="M37.9199 88.5334C42.6853 88.5334 46.5484 84.4434 46.5484 79.3982C46.5484 74.353 42.6853 70.2631 37.9199 70.2631C33.1546 70.2631 29.2915 74.353 29.2915 79.3982C29.2915 84.4434 33.1546 88.5334 37.9199 88.5334Z" fill="#211414"/>
<path d="M36.7036 72.4307C36.7036 72.4307 34.1703 71.74 33.5228 73.5567C33.3065 73.5656 33.0942 73.6205 32.8984 73.7182C32.7026 73.8159 32.5274 73.9543 32.3834 74.1253C32.2393 74.2962 32.1292 74.4961 32.0598 74.713C31.9904 74.93 31.9629 75.1595 31.9792 75.3879C31.9792 75.3879 30.7492 75.2055 31.0288 76.7555C31.0288 76.7555 29.8113 77.3536 30.5381 78.811C30.5381 78.811 29.5554 80.2616 30.7053 81.3981C30.7053 81.3981 30.4158 83.0588 31.6699 83.4677C31.6699 83.4677 31.4829 84.8111 32.6771 84.7346C32.6771 84.7346 33.5762 86.5471 35.0109 86.0931C35.0619 86.237 35.1453 86.3656 35.2537 86.4679C35.3622 86.5702 35.4925 86.6431 35.6334 86.6803C35.7744 86.7176 35.9218 86.718 36.0629 86.6816C36.2041 86.6452 36.3348 86.5731 36.4438 86.4714C36.4438 86.4714 37.4777 87.726 38.5664 86.2977C38.7469 86.4347 38.9544 86.5266 39.1732 86.5666C39.3921 86.6066 39.6166 86.5936 39.8301 86.5287C40.0435 86.4637 40.2403 86.3484 40.4056 86.1915C40.571 86.0346 40.7006 85.8401 40.7847 85.6226C40.7847 85.6226 42.1633 85.5177 42.3934 84.291C42.3934 84.291 43.772 83.6911 43.4704 82.6635C43.4704 82.6635 44.7026 81.8548 44.2593 80.5469C44.4937 80.2779 44.622 79.924 44.6176 79.5581C44.6133 79.1921 44.4768 78.8417 44.236 78.579C44.3907 78.233 44.431 77.842 44.3503 77.4688C44.2697 77.0957 44.0728 76.7621 43.7914 76.5216C43.7914 76.5216 43.8775 74.916 42.4558 74.5787C42.4558 74.5787 42.2447 72.6244 40.4444 72.9645C40.4157 72.798 40.348 72.6418 40.2475 72.5101C40.147 72.3784 40.017 72.2755 39.8692 72.2108C39.7214 72.1461 39.5606 72.1216 39.4016 72.1396C39.2426 72.1577 39.0904 72.2176 38.9589 72.3139C38.8221 72.1302 38.6459 71.9838 38.4447 71.8869C38.2436 71.79 38.0235 71.7453 37.8028 71.7568C37.582 71.7682 37.3671 71.8353 37.1759 71.9525C36.9847 72.0698 36.8227 72.2337 36.7036 72.4307Z" fill="#BBE1E7"/>
<path d="M42.46 78.8415C42.46 78.8415 43.4426 77.0668 42.0011 76.073C42.0371 75.8615 42.0324 75.6445 41.9874 75.4349C41.9423 75.2254 41.8578 75.0276 41.7389 74.8533C41.62 74.6791 41.4691 74.532 41.2953 74.4208C41.1215 74.3096 40.9283 74.2367 40.7272 74.2063C40.7272 74.2063 41.1317 73.0497 39.7363 73.0087C39.7363 73.0087 39.4645 71.7072 38.0561 72.1188C38.0561 72.1188 36.9989 70.8734 35.7836 71.7596C35.7836 71.7596 34.4049 71.1446 33.7983 72.2788C33.7983 72.2788 32.6735 71.8266 32.499 73.0005C32.499 73.0005 30.905 73.1464 31.0097 74.6288C31.0097 74.6288 29.8034 75.2137 30.2372 76.3042C30.2372 76.3042 28.9426 77.0554 29.9598 78.3989C29.8049 78.5464 29.6835 78.729 29.6048 78.9332C29.5261 79.1373 29.492 79.3577 29.5052 79.5777C29.5184 79.7978 29.5784 80.0118 29.6809 80.2038C29.7833 80.3958 29.9255 80.5608 30.0968 80.6864C30.0968 80.6864 29.9106 82.0431 30.9252 82.5154C30.9252 82.5154 31.1665 83.9742 32.1173 83.8862C32.1173 83.8862 32.5692 85.2447 33.7897 85.0778C33.9753 85.3594 34.2558 85.5551 34.5735 85.6246C34.8912 85.6941 35.222 85.6322 35.4979 85.4516C35.7659 85.6718 36.0963 85.79 36.4356 85.7869C36.7749 85.7838 37.1033 85.6598 37.3677 85.4348C37.3677 85.4348 38.7403 85.8409 39.318 84.5321C39.318 84.5321 41.0516 84.7209 41.1201 82.9056C41.1201 82.9056 42.422 82.6645 42.1222 81.368C42.1205 81.3684 43.6059 80.7931 42.46 78.8415Z" fill="white"/>
<path d="M40.1032 75.4372C40.059 75.4844 40.0062 75.5214 39.9479 75.5459C39.8896 75.5705 39.8272 75.582 39.7645 75.5799C39.6267 75.5809 39.4932 75.5291 39.3887 75.434C39.2842 75.3388 39.2159 75.2069 39.1963 75.0625C39.293 75.132 39.3966 75.1901 39.5052 75.2357C39.6986 75.3212 39.8987 75.3886 40.1032 75.4372Z" fill="#74BBC0"/>
<path d="M41.2522 80.7327C41.23 80.8375 41.2173 80.9444 41.2143 81.0518C41.2118 81.2885 41.1787 81.5238 41.1161 81.7511C41.0434 81.645 40.9937 81.5233 40.9705 81.3946C40.9455 81.2716 40.9515 81.1438 40.9877 81.024C41.0064 80.9565 41.0402 80.8948 41.0862 80.844C41.1323 80.7933 41.1892 80.7551 41.2522 80.7327Z" fill="#74BBC0"/>
<path d="M39.8036 81.3548C39.6341 81.3683 39.4673 81.4075 39.3082 81.471C38.9989 81.6752 38.7756 81.9974 38.6844 82.3709C38.6844 82.3709 38.6719 82.3071 38.6598 82.1886C38.6537 82.0286 38.6796 81.8691 38.7356 81.7204C38.7769 81.6155 38.8382 81.5209 38.9157 81.4424C38.9933 81.3639 39.0854 81.3034 39.1863 81.2645C39.2922 81.2258 39.4051 81.2135 39.5163 81.2285C39.6171 81.2563 39.7138 81.2988 39.8036 81.3548Z" fill="#74BBC0"/>
<path d="M32.034 79.6435C32.093 79.4563 32.1327 79.263 32.1525 79.0668C32.1831 78.7277 32.212 78.2577 31.6924 78.177C31.7502 78.1562 31.8103 78.1435 31.8712 78.1391C31.9581 78.1307 32.0455 78.1485 32.1233 78.1904C32.201 78.2324 32.266 78.2968 32.3106 78.3762C32.4089 78.5889 32.4351 78.831 32.3847 79.0617C32.3344 79.2925 32.2105 79.4979 32.034 79.6435Z" fill="#74BBC0"/>
<path d="M32.6265 84.0905C32.6265 84.0905 32.6739 84.0723 32.76 84.0495C32.8801 84.0172 33.0044 84.0056 33.1279 84.0153C33.3108 84.0254 33.487 84.0911 33.6354 84.2045C33.8003 84.3378 33.9164 84.5274 33.9642 84.741L33.8444 84.6375C33.7531 84.5549 33.6527 84.4844 33.5454 84.4274C33.2455 84.2965 32.9386 84.184 32.6265 84.0905Z" fill="#74BBC0"/>
<path d="M34.744 84.5505L34.6699 84.4525C34.646 84.4151 34.617 84.3818 34.5837 84.3536C34.5493 84.3129 34.51 84.277 34.467 84.2469C34.36 84.1589 34.2351 84.0985 34.1022 84.0705C33.9693 84.0425 33.8321 84.0476 33.7014 84.0855C33.7526 84.0135 33.8183 83.9545 33.8937 83.9126C33.9691 83.8708 34.0523 83.8471 34.1374 83.8435C34.2233 83.84 34.3089 83.8566 34.3881 83.8918C34.4674 83.9271 34.5384 83.9803 34.5962 84.0476C34.654 84.115 34.6971 84.1949 34.7227 84.2818C34.7482 84.3686 34.7555 84.4604 34.744 84.5505Z" fill="#74BBC0"/>
<path d="M35.6209 72.6417C35.6101 72.6844 35.597 72.7264 35.5817 72.7675C35.5384 72.8763 35.4746 72.9746 35.3943 73.0566C35.2821 73.1772 35.143 73.266 34.9898 73.3146C34.9 73.3426 34.8053 73.349 34.7129 73.3332C34.6204 73.3175 34.5325 73.2799 34.4556 73.2234L34.5913 73.2075C34.6925 73.1852 34.7904 73.1487 34.8825 73.099C35.1061 72.9864 35.3344 72.8113 35.6209 72.6417Z" fill="#74BBC0"/>
<path d="M38.5703 72.9791C38.5506 73.0061 38.5293 73.0317 38.5065 73.0557C38.446 73.1214 38.3724 73.1718 38.2911 73.2034C38.2291 73.2294 38.1629 73.242 38.0963 73.2402C38.0296 73.2385 37.964 73.2226 37.9033 73.1934C37.8379 73.1601 37.78 73.1122 37.7336 73.0531C37.6872 72.9939 37.6534 72.9248 37.6345 72.8506L37.7349 72.8912C37.8064 72.9243 37.8815 72.9477 37.9585 72.9609C38.1218 73.001 38.2941 72.9522 38.5703 72.9791Z" fill="#74BBC0"/>
<path d="M33.9006 75.9824C33.9006 75.9824 33.693 75.5302 33.9971 75.2799C34.3013 75.0296 36.0702 74.2122 36.6682 74.4101C37.2662 74.6079 37.1421 76.3854 37.1421 76.3854C37.1421 76.3854 39.288 76.6589 40.1613 77.5223C41.0346 78.3857 37.0163 83.4226 36.1426 83.4969C35.2689 83.5712 33.0765 81.595 33.17 79.9371C33.1721 79.9375 31.9792 77.4849 33.9006 75.9824Z" fill="#151D2B"/>
<path d="M37.2903 76.8071C37.2903 76.8071 39.5568 77.4189 39.8476 77.9413C40.1384 78.4638 37.2489 82.7735 36.2796 82.9395C35.3102 83.1054 33.9183 80.9665 33.6481 80.3296C33.378 79.6928 37.2903 76.8071 37.2903 76.8071Z" fill="#FF6957"/>
<path d="M37.6599 77.2703C37.6599 77.2703 39.4335 77.7494 39.6614 78.1578C39.8894 78.5663 37.628 81.9388 36.8693 82.0692C36.1106 82.1996 35.0211 80.5252 34.81 80.0264C34.5989 79.5277 37.6599 77.2703 37.6599 77.2703Z" fill="#FF8F87"/>
<path d="M36.2382 82.22C36.8473 82.3007 37.4264 82.5086 38.0248 82.6408C38.0868 82.6545 38.1015 82.5679 38.0554 82.5369C36.9564 81.8485 35.6607 81.5997 34.4033 81.8357C34.2952 81.864 34.3266 82.0245 34.4193 82.0468C35.0224 82.1373 35.6295 82.1951 36.2382 82.22Z" fill="#FFD7D6"/>
<path d="M39.0532 81.5294C38.6358 80.759 37.7246 80.4066 36.9853 80.0797C36.0638 79.6717 35.0092 79.1703 33.9959 79.2332C33.852 79.2418 33.793 79.4898 33.9437 79.5413C34.8984 79.8655 35.8669 80.0884 36.7949 80.5142C37.5055 80.8918 38.1965 81.3094 38.865 81.7651C39.0093 81.8494 39.1209 81.6538 39.0532 81.5294Z" fill="#FFD7D6"/>
<path d="M39.7618 79.8554C39.3087 79.1686 38.6483 78.6655 37.8891 78.4285C37.0916 78.0392 36.2386 77.7927 35.3649 77.6991C35.2787 77.6964 35.2705 77.8263 35.3373 77.861C36.0107 78.2088 36.7918 78.3168 37.4962 78.5949C38.2621 78.9576 38.9814 79.4217 39.6369 79.9762C39.6529 79.9889 39.6727 79.9952 39.6927 79.9942C39.7127 79.9931 39.7317 79.9847 39.7465 79.9704C39.7613 79.9561 39.7709 79.9368 39.7737 79.9158C39.7765 79.8948 39.7723 79.8735 39.7618 79.8554Z" fill="#FFD7D6"/>
<path d="M39.8037 78.4682C39.4777 77.9744 39.1232 77.5025 38.7422 77.055C38.365 76.6127 37.8728 76.2979 37.3274 76.1501C37.3054 76.1465 37.2829 76.1498 37.2626 76.1595C37.2424 76.1692 37.2252 76.185 37.2132 76.2048C37.2012 76.2246 37.1949 76.2477 37.1951 76.2712C37.1952 76.2948 37.2018 76.3178 37.2141 76.3374C37.4894 76.8092 38.0731 77.0477 38.4807 77.3859C38.9115 77.7452 39.276 78.1937 39.6943 78.5712C39.7576 78.6332 39.8554 78.5411 39.8037 78.4682Z" fill="#FFD7D6"/>
<path d="M36.5472 74.9417C36.5472 74.9417 36.9832 76.1657 36.8221 76.5322C36.661 76.8987 35.3741 77.7133 35.3741 77.7133L34.1248 75.5867C34.1248 75.5867 36.1914 74.7411 36.5472 74.9417Z" fill="#DFCD27"/>
<path d="M36.619 75.3615C36.619 75.3615 36.934 76.2454 36.8176 76.5107C36.5103 76.8479 36.1577 77.1353 35.7712 77.3637L34.8665 75.8274C34.8665 75.8274 36.3623 75.2161 36.619 75.3615Z" fill="#FFF03E"/>
<path d="M34.8656 78.0498C34.8656 78.0498 33.9229 79.2993 33.5042 79.4566C33.1018 78.9834 33.1229 77.6947 33.9914 76.4529C33.991 76.4529 34.8768 77.6427 34.8656 78.0498Z" fill="#E1C242"/>
<path d="M34.8044 77.8729C34.8044 77.8729 34.0422 78.8831 33.704 79.0098C33.3788 78.6274 33.396 77.5857 34.0978 76.5814C34.0974 76.5814 34.8134 77.5433 34.8044 77.8729Z" fill="#FFEA96"/>
<path d="M53.5093 93.0779C58.2746 93.0779 62.1377 88.988 62.1377 83.9428C62.1377 78.8976 58.2746 74.8076 53.5093 74.8076C48.7439 74.8076 44.8809 78.8976 44.8809 83.9428C44.8809 88.988 48.7439 93.0779 53.5093 93.0779Z" fill="#211414"/>
<path d="M52.7946 76.7186C52.7946 76.7186 50.2614 76.0279 49.6139 77.8445C49.3976 77.8535 49.1852 77.9084 48.9894 78.0061C48.7937 78.1038 48.6185 78.2422 48.4744 78.4132C48.3303 78.5841 48.2203 78.784 48.1509 79.0009C48.0814 79.2179 48.054 79.4474 48.0703 79.6758C48.0703 79.6758 46.8403 79.4934 47.1199 81.0434C47.1199 81.0434 45.9024 81.6415 46.6292 83.0984C46.6292 83.0984 45.6465 84.5495 46.7963 85.686C46.7963 85.686 46.5068 87.3462 47.7609 87.7556C47.7609 87.7556 47.574 89.099 48.7682 89.0225C48.7682 89.0225 49.6673 90.8345 51.1019 90.3809C51.153 90.525 51.2363 90.6537 51.3448 90.756C51.4533 90.8584 51.5836 90.9313 51.7247 90.9686C51.8657 91.0058 52.0132 91.0062 52.1544 90.9697C52.2956 90.9333 52.4263 90.8611 52.5353 90.7593C52.5353 90.7593 53.5692 92.0139 54.6579 90.5856C54.8384 90.7227 55.0458 90.8147 55.2647 90.8547C55.4836 90.8948 55.7082 90.8818 55.9217 90.8168C56.1351 90.7519 56.3319 90.6366 56.4972 90.4796C56.6626 90.3226 56.7921 90.128 56.8762 89.9105C56.8762 89.9105 58.2548 89.8052 58.4849 88.5789C58.4849 88.5789 59.8635 87.9794 59.5619 86.9519C59.5619 86.9519 60.7936 86.1427 60.3507 84.8348C60.5853 84.5658 60.7136 84.212 60.7093 83.846C60.705 83.4799 60.5683 83.1296 60.3275 82.8669C60.4822 82.5209 60.5224 82.13 60.4418 81.757C60.3611 81.3839 60.1643 81.0504 59.8829 80.81C59.8829 80.81 59.969 79.2039 58.5473 78.8671C58.5473 78.8671 58.3362 76.9128 56.5354 77.2528C56.5068 77.0864 56.4391 76.9302 56.3386 76.7986C56.2382 76.667 56.1081 76.5641 55.9604 76.4995C55.8126 76.4348 55.6519 76.4103 55.4929 76.4284C55.334 76.4464 55.1818 76.5064 55.0504 76.6028C54.9137 76.4189 54.7375 76.2723 54.5363 76.1753C54.3352 76.0782 54.1151 76.0335 53.8943 76.0448C53.6735 76.0561 53.4585 76.1232 53.2672 76.2404C53.0759 76.3576 52.9138 76.5216 52.7946 76.7186Z" fill="#BBE1E7"/>
<path d="M55.3096 88.719C55.3096 88.719 57.2531 88.7035 57.3207 86.8832C57.5108 86.8074 57.6845 86.6919 57.8315 86.5435C57.9785 86.3951 58.0957 86.2169 58.1761 86.0195C58.2565 85.8221 58.2985 85.6096 58.2996 85.3946C58.3007 85.1797 58.2608 84.9667 58.1823 84.7684C58.1823 84.7684 59.3279 84.5432 58.645 83.2522C58.645 83.2522 59.561 82.3377 58.5059 81.2696C58.5059 81.2696 58.9742 79.6695 57.6326 79.019C57.6326 79.019 57.425 77.4503 56.1945 77.4795C56.1945 77.4795 55.9847 76.2254 54.9452 76.6681C54.9452 76.6681 54.0107 75.2941 52.8613 76.1484C52.8613 76.1484 51.7679 75.3497 51.1066 76.3047C51.1066 76.3047 49.8339 75.5124 49.2657 77.1253C49.0667 77.0598 48.8562 77.0428 48.6501 77.0758C48.4439 77.1087 48.2476 77.1907 48.0757 77.3156C47.9039 77.4404 47.761 77.6048 47.6579 77.7965C47.5548 77.9882 47.4941 78.2022 47.4804 78.4223C47.4804 78.4223 46.2849 78.9479 46.4214 80.1126C46.4214 80.1126 45.3629 81.0791 45.92 81.8987C45.92 81.8987 45.0501 83.0056 45.8105 84.0304C45.6772 84.3433 45.6621 84.6984 45.7684 85.0228C45.8747 85.3472 46.0944 85.6161 46.3822 85.7745C46.3412 86.131 46.4148 86.4917 46.5911 86.7986C46.7674 87.1055 47.0362 87.3406 47.3541 87.4662C47.3541 87.4662 47.7277 88.9223 49.0856 88.7769C49.0856 88.7769 49.8206 90.4499 51.3285 89.5819C51.3285 89.5819 52.1901 90.6423 53.0888 89.7055C53.0866 89.7055 54.3157 90.7599 55.3096 88.719Z" fill="white"/>
<path d="M56.8639 84.8322C56.8031 84.8161 56.746 84.787 56.6963 84.7466C56.6466 84.7062 56.6052 84.6554 56.5748 84.5974C56.5034 84.4726 56.4772 84.3247 56.501 84.1811C56.5247 84.0374 56.5969 83.9077 56.7041 83.816C56.6973 83.9395 56.7034 84.0633 56.7222 84.1853C56.7516 84.4049 56.799 84.6213 56.8639 84.8322Z" fill="#74BBC0"/>
<path d="M53.1577 88.5886C53.0616 88.6219 52.9687 88.6648 52.8803 88.7167C52.6871 88.8358 52.4794 88.9263 52.2629 88.9857C52.312 88.8652 52.3856 88.7577 52.4783 88.6707C52.5655 88.585 52.6723 88.5248 52.7881 88.4961C52.8522 88.4791 52.9192 88.4787 52.9836 88.4948C53.0479 88.5109 53.1076 88.5431 53.1577 88.5886Z" fill="#74BBC0"/>
<path d="M51.9107 87.5921C51.8127 87.4449 51.6953 87.3132 51.5622 87.201C51.2381 87.0247 50.8624 86.9868 50.5127 87.0952C50.5127 87.0952 50.5579 87.0496 50.6467 86.9808C50.7733 86.8931 50.916 86.8349 51.0654 86.8098C51.1714 86.7939 51.2794 86.8013 51.3825 86.8317C51.4857 86.862 51.5817 86.9147 51.6647 86.9862C51.7505 87.0627 51.8185 87.1591 51.8633 87.268C51.8931 87.3732 51.909 87.4823 51.9107 87.5921Z" fill="#74BBC0"/>
<path d="M49.3184 79.6513C49.5005 79.6088 49.6777 79.5457 49.847 79.463C50.1373 79.3171 50.5333 79.1024 50.3329 78.5886C50.3794 78.6306 50.4205 78.6787 50.4553 78.7318C50.5066 78.8064 50.5369 78.895 50.5427 78.9871C50.5484 79.0792 50.5295 79.1712 50.488 79.2524C50.366 79.4509 50.1831 79.5989 49.9701 79.6715C49.7571 79.7441 49.527 79.737 49.3184 79.6513Z" fill="#74BBC0"/>
<path d="M46.0149 82.4686C46.0149 82.4686 46.0537 82.5024 46.1161 82.5689C46.2039 82.6621 46.2767 82.7699 46.3315 82.888C46.4171 83.0596 46.454 83.2537 46.438 83.4469C46.4144 83.6651 46.3202 83.8679 46.1713 84.0209L46.1932 83.859C46.2134 83.7336 46.2192 83.6061 46.2105 83.4793C46.1637 83.1387 46.0984 82.8012 46.0149 82.4686Z" fill="#74BBC0"/>
<path d="M46.7261 84.6299L46.7692 84.5123C46.7873 84.4718 46.7996 84.4288 46.8058 84.3846C46.8213 84.3324 46.8302 84.2783 46.8325 84.2237C46.849 84.0813 46.8339 83.9369 46.7885 83.8018C46.7431 83.6666 46.6687 83.5445 46.571 83.4451C46.6557 83.4551 46.7373 83.4848 46.8098 83.5321C46.8824 83.5794 46.9441 83.6431 46.9907 83.7186C47.0369 83.795 47.0668 83.8811 47.0784 83.971C47.09 84.0609 47.083 84.1523 47.0578 84.239C47.0326 84.3258 46.9899 84.4056 46.9327 84.4731C46.8754 84.5406 46.8049 84.5941 46.7261 84.6299Z" fill="#74BBC0"/>
<path d="M56.8349 79.3249C56.7948 79.3367 56.7541 79.3461 56.713 79.3532C56.6025 79.3696 56.4901 79.362 56.3825 79.3309C56.2272 79.2907 56.0839 79.2098 55.9659 79.0956C55.8971 79.0285 55.8433 78.9459 55.8085 78.854C55.7736 78.762 55.7587 78.663 55.7647 78.5641L55.8474 78.6794C55.9174 78.7601 55.9972 78.8304 56.0848 78.8887C56.2916 79.0332 56.5505 79.1522 56.8349 79.3249Z" fill="#74BBC0"/>
<path d="M58.0722 82.1791C58.0403 82.1749 58.0086 82.1685 57.9774 82.16C57.8929 82.1386 57.814 82.0975 57.7465 82.0396C57.694 81.9966 57.6502 81.9429 57.6177 81.8817C57.5851 81.8204 57.5645 81.7529 57.557 81.6831C57.5505 81.6065 57.5596 81.5293 57.5839 81.4568C57.6081 81.3842 57.6468 81.3181 57.6974 81.2628L57.7159 81.375C57.7256 81.457 57.745 81.5374 57.7737 81.6143C57.8249 81.7821 57.9538 81.9133 58.0722 82.1791Z" fill="#74BBC0"/>
<path d="M53.2432 79.4713C53.2432 79.4713 53.5017 79.0509 53.8623 79.1977C54.2229 79.3445 55.7902 80.5353 55.9367 81.1817C56.0831 81.8281 54.5766 82.6236 54.5766 82.6236C54.5766 82.6236 55.4542 84.7151 55.2017 85.9514C54.9492 87.1878 48.804 86.1146 48.2961 85.3588C47.7882 84.603 48.2677 81.5965 49.6614 80.8334C49.6627 80.8361 51.0413 78.4948 53.2432 79.4713Z" fill="#151D2B"/>
<path d="M54.3112 82.9763C54.3112 82.9763 54.9764 85.3509 54.7011 85.8829C54.4258 86.4149 49.4507 85.996 48.8187 85.1991C48.1867 84.4023 49.2091 82.0409 49.5873 81.4692C49.9656 80.8976 54.3112 82.9763 54.3112 82.9763Z" fill="#FF6957"/>
<path d="M54.1252 83.5503C54.1252 83.5503 54.6461 85.408 54.4307 85.8246C54.2153 86.2413 50.322 85.9131 49.8274 85.2904C49.3328 84.6676 50.1328 82.8191 50.4305 82.3728C50.7282 81.9265 54.1252 83.5503 54.1252 83.5503Z" fill="#FF8F87"/>
<path d="M49.3816 84.7934C49.6281 85.3888 49.7564 86.022 49.9559 86.6333C49.9766 86.6971 50.0546 86.6661 50.0559 86.6087C50.0514 85.2566 49.5892 83.951 48.7531 82.9285C48.6747 82.8451 48.5609 82.9558 48.5898 83.0516C48.8256 83.646 49.0899 84.2274 49.3816 84.7934Z" fill="#FFD7D6"/>
<path d="M51.3859 86.9994C51.7969 86.2244 51.616 85.216 51.5027 84.3772C51.3614 83.3287 51.2278 82.1147 50.6574 81.2258C50.5764 81.0995 50.3455 81.1729 50.3808 81.3361C50.6075 82.3705 50.9224 83.3656 51.0534 84.4269C51.1108 85.2665 51.1263 86.1088 51.0999 86.9501C51.102 87.1229 51.3183 87.1243 51.3859 86.9994Z" fill="#FFD7D6"/>
<path d="M53.1054 86.786C53.4303 86.0219 53.4998 85.1636 53.3027 84.3522C53.21 83.4277 52.9727 82.526 52.6005 81.684C52.5574 81.6051 52.4493 81.6634 52.4553 81.7418C52.5187 82.5323 52.8301 83.2977 52.9663 84.0805C53.0646 84.9626 53.0568 85.8544 52.943 86.7345C52.9408 86.7558 52.9456 86.7771 52.9567 86.795C52.9679 86.8128 52.9846 86.8259 53.0039 86.832C53.0232 86.8382 53.044 86.8369 53.0625 86.8285C53.0811 86.8201 53.0963 86.8051 53.1054 86.786Z" fill="#FFD7D6"/>
<path d="M54.2516 86.1132C54.4843 85.5645 54.6849 85.0012 54.8522 84.4265C55.0175 83.8567 55.0205 83.248 54.8608 82.6764C54.8526 82.6544 54.8385 82.6354 54.8202 82.6218C54.8019 82.6081 54.7803 82.6004 54.7579 82.5997C54.7356 82.5989 54.7135 82.6051 54.6944 82.6174C54.6753 82.6297 54.6601 82.6477 54.6505 82.6691C54.4093 83.1614 54.5148 83.8142 54.4476 84.359C54.377 84.9339 54.2003 85.4955 54.1086 86.069C54.1062 86.0879 54.1103 86.107 54.1202 86.123C54.13 86.1389 54.1449 86.1506 54.1622 86.1559C54.1794 86.1613 54.1979 86.1599 54.2143 86.1521C54.2307 86.1442 54.244 86.1304 54.2516 86.1132Z" fill="#FFD7D6"/>
<path d="M55.4435 81.3452C55.4435 81.3452 54.674 82.3687 54.2941 82.4097C53.9141 82.4507 52.5945 81.6985 52.5945 81.6985L53.6789 79.4725C53.6789 79.4725 55.4241 80.919 55.4435 81.3452Z" fill="#DFCD27"/>
<path d="M55.1399 81.6251C55.1399 81.6251 54.5842 82.3645 54.3093 82.3942C53.8783 82.2875 53.4644 82.1142 53.0811 81.8799L53.8647 80.2721C53.8647 80.2721 55.1266 81.3169 55.1399 81.6251Z" fill="#FFF03E"/>
<path d="M52.0607 81.4086C52.0607 81.4086 50.564 81.1916 50.2219 80.8912C50.3999 80.2831 51.4558 79.6417 52.9081 79.7971C52.9081 79.7953 52.3967 81.2099 52.0607 81.4086Z" fill="#E1C242"/>
<path d="M52.1732 81.2618C52.1732 81.2618 50.9634 81.0868 50.6873 80.8438C50.8311 80.3519 51.6846 79.8336 52.8586 79.9576C52.8581 79.958 52.4446 81.1018 52.1732 81.2618Z" fill="#FFEA96"/>
<path d="M68.3289 87.4124C73.0942 87.4124 76.9573 83.3225 76.9573 78.2773C76.9573 73.232 73.0942 69.1421 68.3289 69.1421C63.5635 69.1421 59.7004 73.232 59.7004 78.2773C59.7004 83.3225 63.5635 87.4124 68.3289 87.4124Z" fill="#211414"/>
<path d="M66.9468 71.4023C66.9468 71.4023 64.5204 70.7408 63.9001 72.4808C63.6929 72.4894 63.4894 72.542 63.3019 72.6355C63.1143 72.7291 62.9465 72.8617 62.8085 73.0255C62.6705 73.1892 62.5651 73.3807 62.4986 73.5886C62.4321 73.7964 62.4059 74.0162 62.4215 74.235C62.4215 74.235 61.2436 74.0618 61.5112 75.5457C61.5112 75.5457 60.3449 76.1187 61.0411 77.5141C61.0411 77.5141 60.0998 78.904 61.2014 79.9922C61.2014 79.9922 60.924 81.5827 62.1251 81.9748C62.1251 81.9748 61.9459 83.2612 63.0897 83.1878C63.0897 83.1878 63.9513 84.9238 65.3252 84.4894C65.3741 84.6272 65.4539 84.7505 65.5578 84.8485C65.6617 84.9465 65.7865 85.0164 65.9215 85.052C66.0566 85.0877 66.1978 85.0881 66.333 85.0532C66.4682 85.0183 66.5934 84.9492 66.6978 84.8518C66.6978 84.8518 67.6887 86.0539 68.7313 84.6854C68.9041 84.8167 69.1028 84.9048 69.3124 84.9432C69.5221 84.9816 69.7372 84.9692 69.9417 84.907C70.1462 84.8448 70.3347 84.7344 70.493 84.584C70.6514 84.4337 70.7755 84.2473 70.8561 84.039C70.8561 84.039 72.1744 83.9382 72.3971 82.7625C72.3971 82.7625 73.7167 82.1881 73.4272 81.2034C73.4272 81.2034 74.6072 80.4285 74.1824 79.1757C74.407 78.9181 74.5298 78.5793 74.5257 78.2288C74.5216 77.8784 74.3909 77.5429 74.1604 77.2912C74.3086 76.9598 74.3472 76.5853 74.27 76.2279C74.1928 75.8704 74.0043 75.5509 73.7348 75.3205C73.7348 75.3205 73.8162 73.7824 72.457 73.4596C72.457 73.4596 72.2545 71.5878 70.5299 71.9137C70.5023 71.7545 70.4375 71.6051 70.3413 71.4792C70.2451 71.3533 70.1207 71.2548 69.9793 71.1929C69.8379 71.1309 69.6842 71.1074 69.532 71.1244C69.3799 71.1415 69.2342 71.1986 69.1082 71.2906C68.9773 71.1143 68.8084 70.9738 68.6156 70.8808C68.4229 70.7877 68.2119 70.7449 68.0003 70.7558C67.7886 70.7668 67.5826 70.8311 67.3993 70.9436C67.216 71.0561 67.0609 71.2133 66.9468 71.4023Z" fill="#BBE1E7"/>
<path d="M63.8584 83.0908C63.8584 83.0908 64.9419 84.6932 66.3253 83.7455C66.4861 83.8612 66.6674 83.9414 66.8582 83.9813C67.049 84.0212 67.2454 84.02 67.4358 83.9777C67.6261 83.9355 67.8064 83.853 67.966 83.7353C68.1255 83.6177 68.261 83.4671 68.3644 83.2928C68.3644 83.2928 69.1622 84.1184 69.743 82.8401C69.743 82.8401 70.9247 83.0954 71.1332 81.6311C71.1332 81.6311 72.5747 81.137 72.3162 79.6659C72.3162 79.6659 73.3623 78.6283 72.6609 77.6245C72.6609 77.6245 73.473 76.7584 72.5709 76.1397C72.5709 76.1397 73.0719 74.6071 71.8057 74.1252C71.8057 74.1252 71.7937 72.7782 70.7222 72.7576C70.7222 72.7576 70.6063 71.2656 69.0993 71.6841C69.0381 71.4829 68.9345 71.299 68.7965 71.1463C68.6584 70.9935 68.4894 70.8759 68.3022 70.8022C68.115 70.7285 67.9144 70.7006 67.7156 70.7207C67.5168 70.7408 67.3248 70.8083 67.1542 70.9182C67.1542 70.9182 66.106 70.2171 65.3198 70.9729C65.3198 70.9729 64.0213 70.6283 63.7219 71.5423C63.7219 71.5423 62.4234 71.4315 62.0847 72.6273C61.7796 72.6894 61.5085 72.8729 61.3272 73.1399C61.1459 73.407 61.0681 73.7374 61.1098 74.0633C60.8235 74.2262 60.5973 74.4863 60.4676 74.8018C60.3378 75.1172 60.3122 75.4696 60.3946 75.8024C60.3946 75.8024 59.524 76.9156 60.3804 77.9605C60.3804 77.9605 59.5485 79.4931 61.0219 80.264C61.0219 80.264 60.7139 81.5641 61.9016 81.7921C61.9025 81.7916 61.8 83.3917 63.8584 83.0908Z" fill="white"/>
<path d="M67.59 82.2351C67.5684 82.1758 67.5585 82.1125 67.5609 82.0489C67.5634 81.9854 67.5781 81.9231 67.6042 81.8659C67.6571 81.7379 67.752 81.6346 67.8714 81.575C67.9908 81.5154 68.1265 81.5036 68.2535 81.5418C68.1584 81.6043 68.0701 81.6776 67.9902 81.7606C67.844 81.9061 67.7101 82.0649 67.59 82.2351Z" fill="#74BBC0"/>
<path d="M62.7665 81.2354C62.6889 81.1741 62.606 81.1209 62.5188 81.0763C62.324 80.9813 62.1424 80.8586 61.979 80.7116C62.0949 80.6856 62.2148 80.687 62.3301 80.7157C62.4421 80.7406 62.546 80.7959 62.6317 80.8762C62.6797 80.9203 62.717 80.9759 62.7405 81.0384C62.7639 81.1009 62.7729 81.1685 62.7665 81.2354Z" fill="#74BBC0"/>
<path d="M62.817 79.6509C62.8716 79.4883 62.9042 79.3185 62.9139 79.1463C62.8661 78.7805 62.6875 78.4482 62.415 78.2177C62.415 78.2177 62.4728 78.2309 62.5736 78.2632C62.708 78.32 62.8297 78.4061 62.9307 78.5158C63.0007 78.5948 63.0546 78.6881 63.089 78.7901C63.1233 78.892 63.1375 79.0004 63.1306 79.1084C63.1212 79.2214 63.0873 79.3306 63.0315 79.4275C62.9703 79.5122 62.898 79.5874 62.817 79.6509Z" fill="#74BBC0"/>
<path d="M67.26 73.1205C67.3919 73.248 67.5363 73.3602 67.6908 73.4551C67.9588 73.6156 68.3371 73.8257 68.6055 73.3758C68.6001 73.4381 68.587 73.4994 68.5667 73.5581C68.5399 73.6419 68.4911 73.716 68.4262 73.7718C68.3612 73.8275 68.2827 73.8626 68.1996 73.8731C67.9851 73.881 67.7746 73.8105 67.6035 73.6734C67.4324 73.5363 67.3111 73.3411 67.26 73.1205Z" fill="#74BBC0"/>
<path d="M63.3542 71.9362C63.3542 71.9362 63.3504 71.9872 63.3357 72.0757C63.3158 72.1996 63.2768 72.3193 63.2203 72.4299C63.1406 72.5952 63.0176 72.7329 62.8661 72.8265C62.6916 72.927 62.4897 72.9607 62.2944 72.9217L62.4263 72.8511C62.5301 72.7987 62.6276 72.7331 62.7166 72.656C62.9421 72.4293 63.155 72.1889 63.3542 71.9362Z" fill="#74BBC0"/>
<path d="M62.1484 73.7187L62.2583 73.6877C62.2983 73.6804 62.3371 73.6669 62.3733 73.6475C62.4203 73.6315 62.4652 73.6091 62.5069 73.581C62.6211 73.5159 62.7195 73.4237 62.7943 73.3115C62.869 73.1993 62.9181 73.0703 62.9377 72.9346C62.9772 73.0102 63.0003 73.0942 63.0055 73.1804C63.0106 73.2666 62.9976 73.353 62.9674 73.4333C62.9367 73.5138 62.8897 73.5862 62.8298 73.6456C62.7698 73.7049 62.6984 73.7498 62.6205 73.7769C62.5425 73.8041 62.4599 73.8129 62.3784 73.8029C62.2969 73.7928 62.2184 73.7641 62.1484 73.7187Z" fill="#74BBC0"/>
<path d="M71.6479 79.1731C71.6168 79.1465 71.5872 79.118 71.5591 79.0879C71.4862 79.0052 71.4298 78.9078 71.3933 78.8016C71.3374 78.6507 71.3183 78.4873 71.3377 78.3266C71.3495 78.2325 71.3809 78.1424 71.4297 78.0629C71.4785 77.9833 71.5435 77.9162 71.6199 77.8666L71.5802 77.9988C71.5592 78.1013 71.5512 78.2063 71.5565 78.311C71.5639 78.5618 71.619 78.8417 71.6479 79.1731Z" fill="#74BBC0"/>
<path d="M70.2192 81.7738C70.2047 81.7451 70.192 81.7154 70.1813 81.6849C70.1507 81.6029 70.1377 81.5148 70.1434 81.4268C70.1461 81.3596 70.1616 81.2936 70.1889 81.2329C70.2162 81.1721 70.2548 81.1178 70.3024 81.0731C70.3554 81.0255 70.4174 80.9906 70.4843 80.9706C70.5512 80.9506 70.6214 80.9461 70.6901 80.9573L70.6173 81.0343C70.562 81.0884 70.5133 81.1497 70.4725 81.2167C70.3765 81.3494 70.3502 81.529 70.2192 81.7738Z" fill="#74BBC0"/>
<path d="M69.5578 76.2773C69.5578 76.2773 70.0123 76.2614 70.1007 76.642C70.189 77.0227 70.1752 78.9784 69.778 79.4561C69.3808 79.9339 67.9612 79.1243 67.9612 79.1243C67.9612 79.1243 66.8984 81.0052 65.8446 81.4784C64.7908 81.9516 62.1956 76.2641 62.4739 75.4262C62.7522 74.5884 65.2406 73.3292 66.5744 74.0623C66.574 74.0605 69.0658 73.9096 69.5578 76.2773Z" fill="#151D2B"/>
<path d="M67.5555 79.0956C67.5555 79.0956 66.1661 80.9564 65.6211 81.0221C65.0762 81.0877 62.6416 76.7314 62.8816 75.7682C63.1215 74.8049 65.4329 74.35 66.0645 74.3481C66.696 74.3463 67.5555 79.0956 67.5555 79.0956Z" fill="#FF6957"/>
<path d="M67.0288 79.2574C67.0288 79.2574 65.9419 80.7162 65.515 80.7654C65.088 80.8146 63.1829 77.4075 63.3712 76.6539C63.5595 75.9004 65.3676 75.5443 65.8618 75.543C66.3559 75.5416 67.0288 79.2574 67.0288 79.2574Z" fill="#FF8F87"/>
<path d="M63.4923 76.0108C63.1877 76.5441 62.7905 76.9991 62.448 77.5019C62.4127 77.5543 62.4786 77.6017 62.5217 77.5708C63.5194 76.8209 64.2302 75.7176 64.525 74.4608C64.5435 74.35 64.3992 74.3168 64.3441 74.3938C64.0344 74.9171 63.7501 75.4568 63.4923 76.0108Z" fill="#FFD7D6"/>
<path d="M62.9658 78.8881C63.7649 78.8019 64.4116 78.0949 64.9695 77.5387C65.6661 76.844 66.4912 76.0631 66.8341 75.0998C66.8828 74.9631 66.701 74.8117 66.5997 74.9316C65.96 75.6897 65.3977 76.4998 64.6847 77.1936C64.0955 77.7045 63.4812 78.182 62.8443 78.6242C62.7172 78.7222 62.8365 78.9018 62.9658 78.8881Z" fill="#FFD7D6"/>
<path d="M64.0724 80.1969C64.8169 80.0449 65.4903 79.6293 65.9818 79.0185C66.6143 78.4315 67.1503 77.7375 67.5681 76.9648C67.6039 76.8873 67.4996 76.828 67.4453 76.8764C66.8952 77.3641 66.501 78.0452 65.9973 78.59C65.399 79.158 64.735 79.6434 64.0212 80.0346C64.0044 80.0445 63.9915 80.0603 63.9846 80.0792C63.9776 80.0981 63.9772 80.119 63.9832 80.1382C63.9893 80.1575 64.0016 80.1739 64.0178 80.1846C64.0341 80.1953 64.0534 80.1997 64.0724 80.1969Z" fill="#FFD7D6"/>
<path d="M65.2024 80.7759C65.7369 80.6661 66.2645 80.5214 66.7822 80.3428C67.2948 80.1657 67.7467 79.8328 68.0815 79.3855C68.0931 79.3665 68.0991 79.3444 68.099 79.3218C68.0989 79.2992 68.0926 79.2772 68.0809 79.2583C68.0692 79.2394 68.0525 79.2246 68.033 79.2155C68.0135 79.2064 67.9918 79.2036 67.9708 79.2072C67.4736 79.2788 67.0488 79.7265 66.609 79.9713C66.1446 80.2298 65.6315 80.393 65.1571 80.6332C65.1424 80.6419 65.131 80.6558 65.125 80.6725C65.1189 80.6891 65.1185 80.7075 65.1239 80.7244C65.1292 80.7413 65.14 80.7557 65.1543 80.7651C65.1687 80.7745 65.1857 80.7783 65.2024 80.7759Z" fill="#FFD7D6"/>
<path d="M69.3861 79.1344C69.3861 79.1344 68.2048 79.061 67.9644 78.7697C67.724 78.4784 67.553 76.9681 67.553 76.9681L69.7975 76.6394C69.7975 76.6394 69.6907 78.8836 69.3861 79.1344Z" fill="#DFCD27"/>
<path d="M69.0114 79.0372C69.0114 79.0372 68.1579 78.9843 67.9843 78.7728C67.8252 78.3568 67.7251 77.9182 67.687 77.4713L69.3086 77.2338C69.3086 77.2338 69.2315 78.8562 69.0114 79.0372Z" fill="#FFF03E"/>
<path d="M67.4739 76.3645C67.4739 76.3645 66.8087 75.0042 66.8423 74.5551C67.3899 74.3668 68.4471 74.8888 69.1347 76.1776C69.136 76.1776 67.806 76.5341 67.4739 76.3645Z" fill="#E1C242"/>
<path d="M67.6438 76.3767C67.6438 76.3767 67.1062 75.2772 67.1333 74.9143C67.5766 74.7625 68.4305 75.1842 68.9858 76.2258C68.9863 76.2258 67.9122 76.5139 67.6438 76.3767Z" fill="#FFEA96"/>
<path d="M34.0923 70.3624C38.0761 70.3624 41.3055 66.9434 41.3055 62.7257C41.3055 58.5081 38.0761 55.089 34.0923 55.089C30.1086 55.089 26.8792 58.5081 26.8792 62.7257C26.8792 66.9434 30.1086 70.3624 34.0923 70.3624Z" fill="#190F0F"/>
<path d="M33.6747 69.5975C37.5247 69.5975 40.6458 66.2931 40.6458 62.2169C40.6458 58.1408 37.5247 54.8364 33.6747 54.8364C29.8247 54.8364 26.7036 58.1408 26.7036 62.2169C26.7036 66.2931 29.8247 69.5975 33.6747 69.5975Z" fill="#151D2B"/>
<path d="M31.4391 68.3544C31.4391 68.3544 32.7019 69.9103 34.0538 68.7925C34.2307 68.8965 34.4256 68.9618 34.6268 68.9844C34.8281 69.007 35.0316 68.9865 35.2252 68.9242C35.4188 68.8618 35.5986 68.7588 35.7538 68.6214C35.909 68.484 36.0364 68.3149 36.1286 68.1242C36.1286 68.1242 37.0277 68.9019 37.5162 67.5202C37.5162 67.5202 38.7656 67.6693 38.8518 66.1307C38.8518 66.1307 40.3036 65.4775 39.9069 63.9776C39.9069 63.9776 40.9012 62.8001 40.0869 61.8273C40.0869 61.8273 40.8534 60.8504 39.8642 60.2965C39.8642 60.2965 40.2519 58.6586 38.8953 58.2825C38.8953 58.2825 38.7661 56.8866 37.6524 56.9696C37.6524 56.9696 37.4021 55.4342 35.8766 56.015C35.7954 55.8127 35.672 55.6324 35.5156 55.4878C35.3592 55.3431 35.1739 55.2379 34.9735 55.1798C34.7732 55.1218 34.563 55.1125 34.3588 55.1527C34.1546 55.1929 33.9616 55.2815 33.7944 55.4119C33.7944 55.4119 32.6463 54.7869 31.8988 55.6471C31.8988 55.6471 30.5228 55.4169 30.2923 56.3938C30.2923 56.3938 28.9365 56.4057 28.6901 57.6789C28.3791 57.7732 28.114 57.9898 27.9493 58.2845C27.7845 58.5791 27.7327 58.9292 27.8043 59.263C27.5217 59.4599 27.3098 59.7516 27.2029 60.0913C27.0959 60.431 27.1 60.7988 27.2145 61.1358C27.2145 61.1358 26.4085 62.3748 27.3868 63.375C27.3868 63.375 26.6579 65.0448 28.2528 65.6999C28.2528 65.6999 28.0464 67.0785 29.2984 67.1984C29.2992 67.1984 29.332 68.8678 31.4391 68.3544Z" fill="#BBE1E7"/>
<path d="M31.4822 67.7887C31.4822 67.7887 32.6174 69.1873 33.8327 68.1821C33.9918 68.2759 34.167 68.3348 34.348 68.3552C34.529 68.3757 34.712 68.3573 34.8861 68.3012C35.0603 68.2452 35.2219 68.1525 35.3615 68.0288C35.501 67.9051 35.6155 67.7529 35.6982 67.5813C35.6982 67.5813 36.5068 68.2806 36.9476 67.0384C36.9476 67.0384 38.0677 67.1724 38.1487 65.7893C38.1487 65.7893 39.4541 65.2021 39.0965 63.8537C39.0965 63.8537 39.99 62.7947 39.2585 61.9199C39.2585 61.9199 39.9478 61.0419 39.0581 60.5436C39.0581 60.5436 39.405 59.0711 38.1875 58.7329C38.1875 58.7329 38.0707 57.4783 37.0703 57.5522C37.045 57.3684 36.9784 57.1938 36.876 57.043C36.7736 56.8922 36.6385 56.7696 36.4821 56.6856C36.3256 56.6015 36.1524 56.5584 35.9769 56.5599C35.8014 56.5614 35.6289 56.6075 35.4737 56.6942C35.4007 56.5124 35.2897 56.3504 35.1491 56.2204C35.0085 56.0904 34.8419 55.9958 34.6618 55.9436C34.4817 55.8915 34.2928 55.8832 34.1092 55.9193C33.9256 55.9554 33.7522 56.035 33.6018 56.1522C33.6018 56.1522 32.5679 55.5906 31.8958 56.3637C31.8958 56.3637 30.6585 56.1568 30.4512 57.0348C30.4512 57.0348 29.232 57.0457 29.0102 58.1899C28.7306 58.2748 28.4923 58.4697 28.3442 58.7346C28.1961 58.9995 28.1496 59.3144 28.214 59.6145C27.9599 59.7915 27.7694 60.0539 27.6732 60.3593C27.577 60.6648 27.5807 60.9956 27.6837 61.2985C27.4845 61.6009 27.3912 61.9673 27.4195 62.3346C27.4479 62.702 27.5963 63.0474 27.8392 63.3116C27.8392 63.3116 27.1839 64.8133 28.6177 65.4022C28.6177 65.4022 28.432 66.6413 29.5573 66.7493C29.559 66.7493 29.5887 68.2501 31.4822 67.7887Z" fill="white"/>
<path d="M33.2565 63.8562C33.4254 63.8444 35.8539 62.1403 36.1499 61.2938C36.4459 60.4472 35.6622 58.7026 35.2995 58.5827C34.9367 58.4629 32.5306 58.3279 31.6806 58.9019C30.8306 59.4758 29.2085 60.9077 29.3012 61.6102C29.3938 62.3127 31.9994 63.9447 33.2565 63.8562Z" fill="#FF9B0D"/>
<path d="M32.5721 63.2906C32.6988 63.282 34.5151 62.0078 34.7361 61.376C34.9571 60.7442 34.3717 59.4385 34.1002 59.3483C33.8288 59.258 32.0293 59.1582 31.3956 59.5881C30.7618 60.018 29.5469 61.0879 29.6159 61.6135C29.6848 62.1391 31.6342 63.3572 32.5721 63.2906Z" fill="#FFB14D"/>
<path d="M32.1132 58.1538C32.4863 59.6477 35.1694 59.9987 36.3214 59.6368C36.4507 59.5962 36.3981 59.3988 36.274 59.402C35.5942 59.4608 34.9102 59.4372 34.2354 59.3318C33.3604 59.1458 32.8568 58.6708 32.2071 58.0841C32.197 58.0756 32.1846 58.0708 32.1717 58.0705C32.1588 58.0701 32.1461 58.0741 32.1356 58.0819C32.125 58.0898 32.1172 58.101 32.1131 58.1139C32.1091 58.1269 32.1091 58.1409 32.1132 58.1538Z" fill="#FFDBB2"/>
<path d="M31.367 58.8326C31.8185 60.7632 34.1802 62.3528 36.0056 62.0693C36.0312 62.0665 36.055 62.0541 36.0726 62.0344C36.0903 62.0146 36.1007 61.9888 36.1019 61.9616C36.1031 61.9345 36.095 61.9078 36.0792 61.8863C36.0633 61.8649 36.0407 61.8503 36.0155 61.845C34.9816 61.55 34.1277 61.5528 33.2014 60.879C32.429 60.3174 32.0417 59.526 31.5074 58.7583C31.496 58.7429 31.48 58.7322 31.462 58.7279C31.4439 58.7236 31.4251 58.726 31.4086 58.7348C31.392 58.7435 31.3789 58.758 31.3713 58.7759C31.3637 58.7937 31.3622 58.8137 31.367 58.8326Z" fill="#FFDBB2"/>
<path d="M30.1554 59.5707C30.3825 61.5418 32.4431 63.7647 34.3831 63.7255C34.5123 63.7227 34.5093 63.5518 34.4218 63.4948C33.6227 62.9756 32.7378 62.8274 31.9662 62.2015C31.1454 61.5316 30.5486 60.6014 30.2632 59.547C30.2617 59.5395 30.2588 59.5324 30.2548 59.5261C30.2507 59.5197 30.2455 59.5143 30.2395 59.5101C30.2334 59.5059 30.2267 59.5031 30.2196 59.5016C30.2125 59.5002 30.2052 59.5003 30.1981 59.5018C30.191 59.5034 30.1843 59.5064 30.1783 59.5107C30.1724 59.515 30.1673 59.5205 30.1633 59.5269C30.1593 59.5333 30.1566 59.5404 30.1553 59.548C30.1539 59.5555 30.154 59.5632 30.1554 59.5707Z" fill="#FFDBB2"/>
<path d="M29.4963 60.2335C29.4838 61.4872 29.7578 63.3097 31.039 63.8139C31.0544 63.8211 31.0715 63.8228 31.0879 63.8187C31.1042 63.8147 31.1189 63.8051 31.1297 63.7915C31.1405 63.7779 31.1468 63.7609 31.1477 63.7432C31.1486 63.7254 31.144 63.7079 31.1347 63.6931C30.8275 63.1292 30.3876 62.6902 30.1248 62.0884C29.8974 61.4802 29.732 60.848 29.6315 60.2025C29.6121 60.1159 29.4975 60.156 29.4963 60.2335Z" fill="#FFDBB2"/>
<path d="M33.4394 63.9219C33.4394 63.9219 30.7253 63.0198 30.5336 63.167C30.4181 63.2559 29.8313 64.0669 30.2238 64.6873C30.4823 65.0944 31.6666 65.3821 31.9126 65.4587C32.5321 65.6519 33.613 64.4589 33.4394 63.9219Z" fill="#E0C142"/>
<path d="M32.7174 63.9493C32.7174 63.9493 30.599 63.2454 30.4496 63.3599C30.3595 63.4292 29.9011 64.0624 30.2079 64.5451C30.4086 64.8642 31.3336 65.0872 31.5257 65.1469C32.0091 65.2996 32.8531 64.3687 32.7174 63.9493Z" fill="#FFD93E"/>
<path d="M33.5705 63.8918C33.2935 64.3827 34.5037 65.6947 35.221 65.4267C35.9383 65.1586 37.4978 62.5305 37.4978 62.5305C37.4978 62.5305 36.5375 61.214 36.3725 61.3763C36.2075 61.5386 33.8596 63.3789 33.5705 63.8918Z" fill="#A79960"/>
<path d="M33.7462 63.8588C33.5334 64.2358 34.4631 65.2442 35.0141 65.0382C35.5651 64.8321 36.7632 62.8131 36.7632 62.8131C36.7632 62.8131 36.0256 61.8019 35.8986 61.9259C35.7715 62.0499 33.9681 63.465 33.7462 63.8588Z" fill="#D6CC9D"/>
<path d="M38.7066 63.901C38.6737 63.8723 38.6422 63.8419 38.6122 63.8098C38.5306 63.7224 38.4667 63.6184 38.4244 63.5039C38.3542 63.3324 38.3459 63.1395 38.4011 62.9619C38.4363 62.8636 38.4942 62.7761 38.5694 62.7074C38.6446 62.6387 38.7349 62.5909 38.832 62.5685C38.7412 62.697 38.6765 62.844 38.642 63.0002C38.6329 63.302 38.6546 63.604 38.7066 63.901Z" fill="#74BBC0"/>
<path d="M37.0093 66.57C36.9685 66.4675 36.9513 66.3561 36.9591 66.2452C36.967 66.1342 36.9997 66.0268 37.0545 65.9318C37.1711 65.7279 37.341 65.5639 37.5436 65.4597C37.7463 65.3556 37.973 65.3156 38.1966 65.3447L38.0355 65.4276C37.9107 65.5001 37.7905 65.5811 37.6758 65.6702C37.3569 65.8735 37.1197 66.1938 37.0093 66.57Z" fill="#74BBC0"/>
<path d="M37.067 64.9022C37.0224 64.8097 37.0043 64.7054 37.0149 64.6022C37.0265 64.4894 37.073 64.3837 37.1473 64.3019C37.2216 64.22 37.3194 64.1664 37.4255 64.1495C37.4294 64.155 37.3824 64.2963 37.3423 64.4427C37.291 64.6191 37.1959 64.7778 37.067 64.9022Z" fill="#74BBC0"/>
<path d="M34.3296 66.5902C34.3296 66.5902 34.3455 66.5337 34.3826 66.4366C34.4339 66.3005 34.5067 66.1747 34.598 66.0646C34.7364 65.8859 34.9276 65.7617 35.1408 65.7121C35.354 65.6625 35.5768 65.6903 35.7733 65.7911L35.6048 65.8275C35.5445 65.8365 35.4852 65.8518 35.4277 65.8731C35.3564 65.8904 35.2871 65.9162 35.2214 65.9502C34.9044 66.131 34.6056 66.3455 34.3296 66.5902Z" fill="#74BBC0"/>
<path d="M34.8621 57.7235C34.8537 57.7481 34.8513 57.7746 34.855 57.8005C34.8588 57.8264 34.8686 57.8508 34.8836 57.8717C34.9733 57.9932 35.0787 58.1006 35.1968 58.1908C35.3524 58.3214 35.5242 58.4288 35.7074 58.5099C35.8156 58.5489 35.9259 58.5808 36.0378 58.6056C36.1584 58.6261 36.2859 58.6416 36.416 58.6726C36.1868 58.7609 35.9424 58.7963 35.6992 58.7766C35.5849 58.745 35.4725 58.7061 35.3627 58.6599C35.26 58.584 35.1614 58.5023 35.0672 58.4151C34.9807 58.3207 34.9081 58.2131 34.8517 58.096C34.794 57.9861 34.7496 57.7882 34.8621 57.7235Z" fill="#74BBC0"/>
<path d="M38.5185 60.4103C38.3692 60.3957 38.2299 60.325 38.1256 60.2111C38.0178 60.0805 37.9523 59.9168 37.9387 59.744C37.9251 59.5712 37.964 59.3984 38.0498 59.2506C38.0498 59.2506 38.1161 59.4922 38.1712 59.6905C38.2497 59.9486 38.367 60.1917 38.5185 60.4103Z" fill="#74BBC0"/>
<path d="M30.0505 59.1427C30.2117 59.2144 30.3908 59.2274 30.5598 59.1796C30.7407 59.1549 30.9101 59.0721 31.0451 58.9423C31.1802 58.8125 31.2744 58.642 31.315 58.4539C31.3405 58.5115 31.3572 58.573 31.3645 58.6362C31.3721 58.7235 31.3625 58.8114 31.3362 58.8945C31.31 58.9776 31.2677 59.0541 31.212 59.119C31.0657 59.2978 30.8585 59.4082 30.6356 59.4262C30.5226 59.4438 30.4072 59.4264 30.3034 59.3761C30.1996 59.3258 30.1117 59.2447 30.0505 59.1427Z" fill="#74BBC0"/>
<path d="M28.113 61.7529C28.24 61.6399 28.3336 61.4907 28.3827 61.323C28.4378 61.1636 28.4712 60.9968 28.4818 60.8275C28.4921 60.7311 28.4808 60.6336 28.4487 60.5428C28.4165 60.452 28.3646 60.3705 28.297 60.3051C28.3541 60.3116 28.4096 60.3297 28.4603 60.3584C28.528 60.4016 28.5859 60.46 28.6301 60.5295C28.6742 60.599 28.7035 60.6778 28.7158 60.7605C28.7557 60.977 28.7215 61.2014 28.6193 61.3937C28.5742 61.497 28.5031 61.5852 28.4138 61.6485C28.3245 61.7119 28.2205 61.748 28.113 61.7529Z" fill="#74BBC0"/>
<path d="M30.1013 66.4046C30.1122 66.3291 30.1186 66.253 30.1202 66.1767C30.1284 65.9835 30.1107 65.7902 30.0677 65.6023C30.0314 65.3213 29.9118 65.0597 29.7259 64.8554C29.5401 64.651 29.2977 64.5144 29.0337 64.4653C29.1138 64.4427 29.196 64.4297 29.2788 64.4266C29.5042 64.4217 29.7228 64.5087 29.8893 64.6696C30.1117 64.8863 30.2548 65.179 30.2936 65.4963C30.3323 65.8136 30.2642 66.1351 30.1013 66.4046Z" fill="#74BBC0"/>
<path d="M31.2017 67.4854C31.3163 67.4017 31.4474 67.3468 31.5851 67.325C31.733 67.2957 31.8857 67.3115 32.0254 67.3705C32.1099 67.4095 32.1807 67.4756 32.2279 67.5594C32.275 67.6432 32.2961 67.7406 32.2882 67.8378L32.202 67.7407C32.1365 67.6787 32.0557 67.6378 31.9689 67.6226C31.7099 67.6007 31.4531 67.5548 31.2017 67.4854Z" fill="#74BBC0"/>
<path d="M33.7864 67.3127C33.7858 67.2536 33.7936 67.1947 33.8097 67.1381C33.858 66.9835 33.9543 66.8506 34.0828 66.7611C34.2594 66.633 34.4689 66.5655 34.6829 66.5678C34.805 66.5635 34.9261 66.5916 35.0353 66.6495C35.1445 66.7074 35.2382 66.7932 35.3081 66.8992C35.2553 66.8724 35.2002 66.8512 35.1435 66.8359C35.0106 66.805 34.8735 66.8001 34.739 66.8213C34.5675 66.8444 34.3999 66.8919 34.2405 66.9626C34.0607 67.0312 33.9032 67.1526 33.7864 67.3127Z" fill="#74BBC0"/>
<path d="M49.709 74.0431C53.6928 74.0431 56.9222 70.624 56.9222 66.4064C56.9222 62.1887 53.6928 58.7697 49.709 58.7697C45.7253 58.7697 42.4958 62.1887 42.4958 66.4064C42.4958 70.624 45.7253 74.0431 49.709 74.0431Z" fill="#190F0F"/>
<path d="M49.514 72.7129C53.3641 72.7129 56.4851 69.4086 56.4851 65.3324C56.4851 61.2563 53.3641 57.9519 49.514 57.9519C45.664 57.9519 42.543 61.2563 42.543 65.3324C42.543 69.4086 45.664 72.7129 49.514 72.7129Z" fill="#151D2B"/>
<path d="M43.7885 67.8862C43.7885 67.8862 43.6062 69.9284 45.3045 70.1837C45.3564 70.3909 45.4471 70.5849 45.5714 70.7542C45.6957 70.9234 45.8509 71.0645 46.0279 71.1688C46.2048 71.2732 46.3998 71.3388 46.6012 71.3617C46.8026 71.3845 47.0063 71.3642 47.2001 71.302C47.2001 71.302 47.2949 72.5274 48.574 71.9402C48.574 71.9402 49.3378 72.9946 50.4459 71.9949C50.4459 71.9949 51.8973 72.6486 52.6431 71.3056C52.6431 71.3056 54.1337 71.2464 54.2311 69.9512C54.2311 69.9512 55.427 69.8601 55.1177 68.7204C55.1177 68.7204 56.4993 67.8784 55.8156 66.5846C55.8156 66.5846 56.6772 65.517 55.8471 64.7261C55.8471 64.7261 56.7177 63.4701 55.2642 62.7098C55.3451 62.5075 55.3817 62.2884 55.3715 62.069C55.3612 61.8497 55.3042 61.6355 55.2048 61.4427C55.1054 61.2499 54.9661 61.0833 54.7974 60.9553C54.6286 60.8274 54.4347 60.7415 54.2302 60.7039C54.2302 60.7039 53.8588 59.3951 52.7538 59.4207C52.7538 59.4207 51.9559 58.2112 51.1313 58.7136C51.1313 58.7136 50.1835 57.6879 49.1457 58.3826C48.8659 58.211 48.5345 58.1592 48.2198 58.2381C47.905 58.3169 47.6308 58.5204 47.4534 58.8066C47.1235 58.7279 46.7781 58.7689 46.4729 58.9229C46.1676 59.0769 45.9201 59.3351 45.7702 59.6559C45.7702 59.6559 44.3683 59.9011 44.3675 61.3426C44.3675 61.3426 42.7252 61.9453 43.3861 63.616C43.3861 63.616 42.3056 64.4147 43.0922 65.4527C43.0897 65.4518 41.9769 66.6352 43.7885 67.8862Z" fill="#BBE1E7"/>
<path d="M44.2044 67.5274C44.2044 67.5274 44.0407 69.3632 45.5675 69.593C45.614 69.7792 45.6955 69.9536 45.807 70.1057C45.9186 70.2579 46.058 70.3847 46.2169 70.4785C46.3759 70.5724 46.551 70.6314 46.732 70.652C46.9129 70.6727 47.096 70.6545 47.2701 70.5986C47.2701 70.5986 47.3563 71.7005 48.5053 71.1735C48.5053 71.1735 49.192 72.1217 50.1881 71.2232C50.1881 71.2232 51.4926 71.8108 52.1629 70.6032C52.1629 70.6032 53.5032 70.5503 53.5902 69.3856C53.5902 69.3856 54.6673 69.3017 54.3877 68.2783C54.3877 68.2783 55.6302 67.5206 55.0154 66.3577C55.0154 66.3577 55.7878 65.3976 55.0438 64.6865C55.1513 64.5396 55.2239 64.3676 55.2555 64.1849C55.2872 64.0022 55.2769 63.8141 55.2255 63.6364C55.1742 63.4588 55.0833 63.2968 54.9606 63.164C54.8378 63.0313 54.6867 62.9316 54.5199 62.8735C54.593 62.6916 54.6263 62.4945 54.6172 62.2971C54.6081 62.0996 54.5569 61.9069 54.4674 61.7334C54.3779 61.5599 54.2525 61.41 54.1005 61.2951C53.9485 61.1801 53.7739 61.103 53.5898 61.0696C53.5898 61.0696 53.2559 59.893 52.2625 59.9158C52.2625 59.9158 51.5451 58.8285 50.8037 59.2799C50.8037 59.2799 49.9507 58.3576 49.0184 58.9826C48.7668 58.8283 48.4689 58.7817 48.1859 58.8526C47.9028 58.9235 47.6562 59.1064 47.4967 59.3637C47.2002 59.2927 46.8897 59.3294 46.6152 59.4678C46.3408 59.6062 46.1183 59.8384 45.9837 60.1269C45.6397 60.185 45.3256 60.3681 45.0954 60.6447C44.8652 60.9214 44.7332 61.2742 44.7223 61.6426C44.7223 61.6426 43.2463 62.1842 43.8399 63.6868C43.8399 63.6868 42.8685 64.4052 43.5754 65.3379C43.5754 65.3393 42.5755 66.4024 44.2044 67.5274Z" fill="white"/>
<path d="M48.1083 66.1503C48.2337 66.2711 51.0775 66.9413 51.8564 66.5793C52.6354 66.2173 53.2807 64.4103 53.111 64.0497C52.9412 63.6891 51.3632 61.7617 50.3839 61.5141C49.4047 61.2666 47.3044 61.0204 46.8908 61.5784C46.4772 62.1364 47.1778 65.2554 48.1083 66.1503Z" fill="#FF9B0D"/>
<path d="M48.0181 65.2368C48.112 65.3279 50.2385 65.8294 50.8227 65.5559C51.4069 65.2823 51.8877 63.9339 51.7606 63.6645C51.6335 63.395 50.4535 61.9536 49.7211 61.7685C48.9887 61.5834 47.4188 61.3997 47.109 61.8168C46.7993 62.234 47.3223 64.5671 48.0181 65.2368Z" fill="#FFB14D"/>
<path d="M51.1944 61.3231C50.437 62.6451 52.0599 64.9336 53.1051 65.5627C53.2231 65.6333 53.3205 65.456 53.2322 65.3639C52.7204 64.8863 52.2619 64.3484 51.8656 63.7606C51.3852 62.9647 51.359 62.2512 51.3055 61.3482C51.3039 61.3351 51.2985 61.3229 51.29 61.3132C51.2816 61.3035 51.2705 61.2969 51.2583 61.2941C51.2461 61.2914 51.2335 61.2927 51.222 61.2979C51.2106 61.3031 51.2009 61.3119 51.1944 61.3231Z" fill="#FFDBB2"/>
<path d="M50.2151 61.2249C49.2152 62.908 49.7718 65.8119 51.2327 67.0053C51.2524 67.0226 51.2772 67.0319 51.3027 67.0316C51.3282 67.0312 51.3528 67.0213 51.372 67.0035C51.3912 66.9857 51.4038 66.9612 51.4075 66.9345C51.4112 66.9078 51.4057 66.8805 51.3921 66.8576C50.8752 65.8652 50.2815 65.2165 50.0967 64.0417C49.9429 63.0634 50.2121 62.2183 50.3642 61.2787C50.3669 61.2591 50.363 61.2392 50.3532 61.2224C50.3434 61.2055 50.3284 61.1928 50.3108 61.1864C50.2931 61.18 50.2738 61.1804 50.2564 61.1874C50.2389 61.1945 50.2243 61.2077 50.2151 61.2249Z" fill="#FFDBB2"/>
<path d="M48.8725 60.8129C47.6895 62.3538 47.6054 65.4683 48.9793 66.9216C49.0694 67.0169 49.1848 66.897 49.1629 66.7912C48.9621 65.8216 48.4486 65.0439 48.3383 64.02C48.2245 62.9296 48.4432 61.8294 48.9625 60.8799C48.9699 60.8673 48.9724 60.8522 48.9696 60.8376C48.9667 60.823 48.9588 60.8102 48.9473 60.8016C48.9358 60.7931 48.9217 60.7895 48.9078 60.7916C48.8939 60.7937 48.8812 60.8013 48.8725 60.8129Z" fill="#FFDBB2"/>
<path d="M47.9647 60.7705C47.1031 61.6303 46.0532 63.1041 46.599 64.4307C46.6049 64.4472 46.6157 64.4613 46.6297 64.4708C46.6438 64.4803 46.6604 64.4848 46.677 64.4836C46.6936 64.4823 46.7095 64.4755 46.7221 64.464C46.7348 64.4525 46.7436 64.437 46.7472 64.4197C46.9196 63.7943 46.9122 63.1529 47.1384 62.5365C47.3946 61.9414 47.71 61.3769 48.0793 60.8526C48.1254 60.7769 48.0182 60.7172 47.9647 60.7705Z" fill="#FFDBB2"/>
<path d="M48.1912 66.3358C48.1912 66.3358 46.922 63.6398 46.6889 63.596C46.5485 63.5696 45.589 63.6849 45.4395 64.4166C45.3417 64.8953 45.9677 65.9985 46.0858 66.2401C46.3847 66.8436 47.9465 66.8409 48.1912 66.3358Z" fill="#E0C142"/>
<path d="M47.6714 65.8042C47.6714 65.8042 46.6806 63.6999 46.4992 63.6662C46.3898 63.6457 45.6406 63.7355 45.5242 64.3044C45.4476 64.6782 45.9361 65.5389 46.0287 65.7267C46.2618 66.2008 47.4806 66.1985 47.6714 65.8042Z" fill="#FFD93E"/>
<path d="M48.302 66.4151C47.7756 66.5446 47.723 68.3776 48.4028 68.7401C49.0827 69.1025 51.9524 68.4665 51.9524 68.4665C51.9524 68.4665 52.182 66.8208 51.9571 66.8076C51.7322 66.7944 48.8513 66.2797 48.302 66.4151Z" fill="#A79960"/>
<path d="M48.4465 66.5245C48.0419 66.6239 48.0015 68.0321 48.524 68.3097C49.0466 68.5873 51.2511 68.1 51.2511 68.1C51.2511 68.1 51.4277 66.8359 51.255 66.8236C51.0822 66.8113 48.8683 66.4219 48.4465 66.5245Z" fill="#D6CC9D"/>
<path d="M51.8594 70.3379C51.8564 70.2924 51.8557 70.2467 51.8573 70.2011C51.8601 70.0782 51.8867 69.9572 51.9352 69.8456C52.0031 69.6731 52.1286 69.5331 52.2876 69.4521C52.3793 69.4106 52.4794 69.394 52.5786 69.4039C52.6779 69.4139 52.7733 69.4501 52.8559 69.5091C52.7056 69.5289 52.5608 69.5813 52.4307 69.6632C52.2178 69.8656 52.0262 70.0918 51.8594 70.3379Z" fill="#74BBC0"/>
<path d="M48.8672 70.8935C48.9087 70.7916 48.9724 70.7015 49.0532 70.6307C49.1341 70.5599 49.2296 70.5105 49.332 70.4865C49.5517 70.4338 49.7811 70.4495 49.9926 70.5316C50.2041 70.6137 50.3887 70.7587 50.5241 70.9492L50.3561 70.8844C50.2201 70.8397 50.0815 70.8042 49.9412 70.7782C49.5819 70.6762 49.1998 70.7172 48.8672 70.8935Z" fill="#74BBC0"/>
<path d="M50.0405 69.7822C50.0724 69.6841 50.1307 69.5981 50.2081 69.5346C50.2931 69.4652 50.3974 69.4275 50.5047 69.4275C50.6121 69.4275 50.7164 69.4652 50.8014 69.5346C50.8014 69.541 50.6721 69.6039 50.5429 69.6741C50.3876 69.757 50.2141 69.7943 50.0405 69.7822Z" fill="#74BBC0"/>
<path d="M46.9912 68.8659C46.9912 68.8659 47.0412 68.8385 47.1325 68.7998C47.2607 68.7442 47.397 68.7125 47.5353 68.7059C47.7531 68.6869 47.9706 68.7461 48.1526 68.8741C48.3346 69.0021 48.4705 69.1913 48.5383 69.4111L48.3965 69.3076C48.3485 69.2681 48.2968 69.2337 48.2423 69.205C48.1811 69.1627 48.1155 69.1279 48.0467 69.1016C47.7034 68.9851 47.3497 68.9061 46.9912 68.8659Z" fill="#74BBC0"/>
<path d="M53.394 63.1206C53.3712 63.1312 53.3514 63.1477 53.3364 63.1686C53.3213 63.1895 53.3115 63.214 53.3078 63.24C53.2873 63.3923 53.2873 63.5468 53.3078 63.6991C53.3276 63.9078 53.3743 64.1127 53.4465 64.3081C53.495 64.418 53.55 64.5246 53.6111 64.6272C53.6804 64.7339 53.7584 64.8415 53.8265 64.9623C53.6073 64.8488 53.4135 64.687 53.2582 64.4877C53.2005 64.3786 53.149 64.266 53.104 64.1504C53.0845 64.0193 53.0717 63.8872 53.0657 63.7547C53.0693 63.6231 53.0915 63.4928 53.1316 63.3681C53.1682 63.2514 53.272 63.08 53.394 63.1206Z" fill="#74BBC0"/>
<path d="M54.1031 67.7731C54.0096 67.6489 53.9609 67.4936 53.9656 67.335C53.9796 67.1622 54.0455 66.9986 54.1536 66.8683C54.2618 66.7379 54.4065 66.6476 54.5666 66.6106L54.3512 67.0081C54.2303 67.2474 54.1466 67.5057 54.1031 67.7731Z" fill="#74BBC0"/>
<path d="M49.0905 60.4364C49.1535 60.6091 49.269 60.7547 49.4188 60.8503C49.5611 60.9711 49.7349 61.0428 49.9168 61.0558C50.0988 61.0688 50.2802 61.0223 50.4364 60.9228C50.4147 60.9823 50.3844 61.0379 50.3464 61.0874C50.2924 61.1538 50.2258 61.2075 50.151 61.2451C50.0763 61.2827 49.9949 61.3034 49.9121 61.3057C49.6886 61.3178 49.4696 61.2359 49.3029 61.0778C49.2131 61.0038 49.1453 60.9039 49.1076 60.7901C49.0699 60.6764 49.064 60.5536 49.0905 60.4364Z" fill="#74BBC0"/>
<path d="M45.9709 60.7692C46.1357 60.7881 46.3022 60.7564 46.4505 60.678C46.5972 60.6095 46.7338 60.5191 46.8563 60.4095C46.9288 60.3508 46.9873 60.2748 47.0268 60.1877C47.0663 60.1005 47.0858 60.0047 47.0837 59.9081C47.119 59.9563 47.1451 60.0113 47.1609 60.0699C47.1782 60.1515 47.1786 60.2362 47.1619 60.318C47.1452 60.3998 47.112 60.4767 47.0644 60.5436C46.9446 60.7239 46.768 60.8532 46.5663 60.9083C46.4646 60.9453 46.3552 60.9519 46.2502 60.9274C46.1451 60.9028 46.0485 60.8481 45.9709 60.7692Z" fill="#74BBC0"/>
<path d="M44.186 65.5128C44.2447 65.4689 44.3007 65.4211 44.3536 65.3697C44.4907 65.2418 44.61 65.0942 44.7082 64.9312C44.8742 64.7083 44.9691 64.4354 44.979 64.1519C44.989 63.8683 44.9136 63.5887 44.7638 63.3534C44.8348 63.3985 44.9007 63.452 44.9602 63.5129C45.1198 63.6816 45.2123 63.9085 45.2187 64.1471C45.2257 64.4668 45.1261 64.779 44.9372 65.0288C44.7484 65.2785 44.4824 65.4499 44.186 65.5128Z" fill="#74BBC0"/>
<path d="M44.2141 67.1016C44.3508 67.131 44.4792 67.1934 44.5894 67.2839C44.7117 67.3767 44.8067 67.5042 44.8634 67.6518C44.8955 67.7432 44.8998 67.843 44.8755 67.9372C44.8512 68.0313 44.7997 68.115 44.7281 68.1765L44.7324 68.042C44.7293 67.949 44.7012 67.8589 44.6514 67.7822C44.4873 67.5691 44.341 67.3414 44.2141 67.1016Z" fill="#74BBC0"/>
<path d="M46.1243 68.9524C46.1639 68.9107 46.2094 68.8758 46.2591 68.8489C46.3978 68.7785 46.5549 68.7597 46.705 68.7956C46.9146 68.8416 47.1057 68.9546 47.2526 69.1192C47.3401 69.2094 47.405 69.3212 47.4413 69.4446C47.4775 69.568 47.484 69.6991 47.4602 69.8258C47.4419 69.767 47.4181 69.7102 47.3891 69.6563C47.3181 69.5333 47.2264 69.4252 47.1186 69.3371C46.984 69.2222 46.8351 69.1272 46.6761 69.055C46.5052 68.9658 46.3137 68.9302 46.1243 68.9524Z" fill="#74BBC0"/>
<path d="M65.0386 70.1609C69.0224 70.1609 72.2518 66.7418 72.2518 62.5242C72.2518 58.3065 69.0224 54.8875 65.0386 54.8875C61.0549 54.8875 57.8254 58.3065 57.8254 62.5242C57.8254 66.7418 61.0549 70.1609 65.0386 70.1609Z" fill="#190F0F"/>
<path d="M64.8119 68.553C68.3588 68.553 71.2341 65.5089 71.2341 61.7538C71.2341 57.9986 68.3588 54.9545 64.8119 54.9545C61.265 54.9545 58.3896 57.9986 58.3896 61.7538C58.3896 65.5089 61.265 68.553 64.8119 68.553Z" fill="#151D2B"/>
<path d="M61.2642 66.509C61.2642 66.509 61.9746 68.2413 63.4523 67.6487C63.581 67.7915 63.7356 67.9054 63.9068 67.9836C64.078 68.0617 64.2624 68.1026 64.4489 68.1036C64.6354 68.1047 64.8201 68.066 64.9922 67.9897C65.1642 67.9135 65.3199 67.8014 65.45 67.6601C65.45 67.6601 66.0407 68.6042 66.8286 67.5297C66.8286 67.5297 67.888 68.0211 68.3624 66.6932C68.3624 66.6932 69.8082 66.5377 69.8457 65.1031C69.8457 65.1031 71.0235 64.3541 70.5582 63.2627C70.5582 63.2627 71.4845 62.6245 70.7569 61.8495C70.7569 61.8495 71.5185 60.5198 70.4238 59.7981C70.4238 59.7981 70.669 58.5322 69.6686 58.2833C69.6686 58.2833 69.8439 56.8601 68.352 56.9303C68.3327 56.7288 68.2706 56.5346 68.1703 56.3621C68.0699 56.1897 67.934 56.0435 67.7727 55.9346C67.6114 55.8256 67.4289 55.7567 67.2388 55.7331C67.0487 55.7094 66.8561 55.7316 66.6753 55.7979C66.6753 55.7979 65.8261 54.9167 64.9451 55.4573C64.9451 55.4573 63.7935 54.857 63.339 55.6502C63.339 55.6502 62.1426 55.2686 61.5976 56.318C61.2995 56.3112 61.0101 56.4255 60.7892 56.6375C60.5683 56.8495 60.4325 57.143 60.4099 57.4577C60.1105 57.5492 59.8489 57.7447 59.6672 58.0126C59.4856 58.2805 59.3943 58.6053 59.4082 58.9347C59.4082 58.9347 58.3794 59.7922 58.9834 60.9551C58.9834 60.9551 57.9116 62.2142 59.1459 63.2518C59.1459 63.2518 58.6095 64.4047 59.6801 64.872C59.6779 64.8733 59.2773 66.3517 61.2642 66.509Z" fill="#BBE1E7"/>
<path d="M61.4486 66.023C61.4486 66.023 62.0875 67.5821 63.4157 67.0487C63.5315 67.1769 63.6706 67.279 63.8245 67.3491C63.9784 67.4192 64.1441 67.4558 64.3117 67.4567C64.4793 67.4576 64.6453 67.4229 64.8 67.3545C64.9546 67.2862 65.0946 67.1856 65.2118 67.0588C65.2118 67.0588 65.743 67.9076 66.4495 66.9412C66.5859 67.0009 66.733 67.0285 66.8805 67.022C67.028 67.0155 67.1724 66.975 67.3037 66.9034C67.4349 66.8318 67.5498 66.7308 67.6404 66.6074C67.731 66.484 67.795 66.3412 67.8281 66.189C67.8281 66.189 69.1279 66.0495 69.1615 64.7594C69.1615 64.7594 70.2209 64.0861 69.8026 63.105C69.8026 63.105 70.6353 62.5315 69.9809 61.8363C69.9809 61.8363 70.6655 60.6406 69.6793 59.9914C69.6793 59.9914 69.8999 58.8518 69.0008 58.6298C69.0258 58.4607 69.0122 58.2878 68.9609 58.1256C68.9097 57.9633 68.8224 57.8165 68.7065 57.6973C68.5905 57.5781 68.4491 57.4902 68.2944 57.4408C68.1396 57.3914 67.9758 57.382 67.8169 57.4135C67.7996 57.2323 67.7437 57.0577 67.6535 56.9026C67.5632 56.7476 67.441 56.6161 67.2959 56.5182C67.1508 56.4203 66.9867 56.3584 66.8158 56.3371C66.6449 56.3159 66.4716 56.3358 66.3091 56.3955C66.3091 56.3955 65.5456 55.6028 64.7534 56.0892C64.7534 56.0892 63.7194 55.5494 63.3093 56.2624C63.3093 56.2624 62.2322 55.9201 61.7437 56.8628C61.4758 56.8566 61.2159 56.9592 61.0173 57.1496C60.8187 57.3399 60.6966 57.6036 60.6761 57.8862C60.407 57.9688 60.1719 58.1446 60.0086 58.3855C59.8453 58.6264 59.7633 58.9184 59.7757 59.2146C59.5225 59.4233 59.3459 59.7188 59.2763 60.0504C59.2066 60.3819 59.2482 60.7287 59.394 61.0313C59.394 61.0313 58.4302 62.1632 59.54 63.0959C59.54 63.0959 59.0575 64.133 60.02 64.5547C60.0226 64.5533 59.662 65.8826 61.4486 66.023Z" fill="white"/>
<path d="M64.0221 63.0752C64.1737 63.114 66.75 62.3158 67.2286 61.6566C67.7073 60.9974 67.4673 59.2364 67.1787 59.0253C66.89 58.8142 64.8092 58.0014 63.9139 58.2626C63.0187 58.5238 61.2217 59.3111 61.1222 59.958C61.0227 60.6049 62.895 62.7908 64.0221 63.0752Z" fill="#FF9B0D"/>
<path d="M63.5652 62.38C63.6789 62.4087 65.6055 61.8124 65.9631 61.3192C66.3207 60.8259 66.141 59.5089 65.9256 59.3512C65.7102 59.1935 64.1528 58.5853 63.4842 58.7809C62.8155 58.9765 61.4709 59.5664 61.3964 60.0487C61.3219 60.531 62.7229 62.1676 63.5652 62.38Z" fill="#FFB14D"/>
<path d="M64.4837 57.7261C64.4273 59.1484 66.6981 60.2334 67.8049 60.2471C67.9298 60.2471 67.9341 60.0602 67.8234 60.0269C67.2101 59.8821 66.6145 59.6637 66.048 59.3759C65.4199 58.9714 64.9122 58.3877 64.5832 57.6919C64.5763 57.6821 64.5667 57.6747 64.5557 57.671C64.5447 57.6673 64.5328 57.6673 64.5218 57.6711C64.5108 57.6748 64.5012 57.6822 64.4944 57.6921C64.4875 57.702 64.4838 57.7139 64.4837 57.7261Z" fill="#FFDBB2"/>
<path d="M63.6545 58.109C63.5541 59.9379 65.2226 62.0194 66.9024 62.2948C66.9256 62.2997 66.9497 62.2957 66.9703 62.2834C66.9909 62.2711 67.0066 62.2514 67.0147 62.2279C67.0227 62.2044 67.0225 62.1786 67.0141 62.1552C67.0056 62.1318 66.9895 62.1124 66.9687 62.1006C66.1355 61.5426 65.3829 61.2978 64.741 60.4375C64.2063 59.7205 64.0693 58.9117 63.7971 58.0821C63.791 58.065 63.7795 58.0508 63.7645 58.0418C63.7496 58.0328 63.7321 58.0296 63.7152 58.0328C63.6983 58.036 63.6829 58.0454 63.6718 58.0593C63.6607 58.0732 63.6546 58.0908 63.6545 58.109Z" fill="#FFDBB2"/>
<path d="M62.3977 58.4099C62.0896 60.2102 63.3295 62.763 65.0472 63.2877C65.1601 63.3219 65.2032 63.1715 65.1407 63.0958C64.5716 62.4079 63.8306 62.0218 63.3114 61.2477C62.7622 60.4216 62.4769 59.4312 62.4972 58.4213C62.4964 58.4087 62.4914 58.3968 62.4831 58.3877C62.4749 58.3786 62.4638 58.3729 62.4519 58.3715C62.4401 58.3702 62.4281 58.3733 62.4182 58.3803C62.4083 58.3873 62.401 58.3978 62.3977 58.4099Z" fill="#FFDBB2"/>
<path d="M61.6473 58.801C61.313 59.9001 61.0851 61.5818 62.0816 62.3973C62.0933 62.4078 62.108 62.4139 62.1233 62.4149C62.1386 62.4159 62.1538 62.4117 62.1667 62.4029C62.1796 62.3941 62.1895 62.3811 62.195 62.366C62.2004 62.3508 62.2011 62.3341 62.197 62.3185C62.0721 61.7336 61.7985 61.2189 61.7231 60.6149C61.6798 60.014 61.6972 59.4098 61.7752 58.8128C61.7796 58.729 61.668 58.7335 61.6473 58.801Z" fill="#FFDBB2"/>
<path d="M64.1658 63.1861C64.1658 63.1861 62.0095 61.6079 61.8032 61.6817C61.6787 61.7273 60.9532 62.2707 61.1389 62.9303C61.2608 63.3625 62.2293 63.9583 62.4257 64.0969C62.9212 64.4466 64.1817 63.7085 64.1658 63.1861Z" fill="#E0C142"/>
<path d="M63.5233 63.0018C63.5233 63.0018 61.8405 61.771 61.6798 61.828C61.5825 61.8631 61.0159 62.2879 61.1629 62.8022C61.2581 63.1395 62.0141 63.604 62.1671 63.7139C62.5522 63.9851 63.5354 63.4098 63.5233 63.0018Z" fill="#FFD93E"/>
<path d="M64.2885 63.1966C63.918 63.5486 64.6452 65.0529 65.3453 65.0242C66.0454 64.9955 68.0952 63.1333 68.0952 63.1333C68.0952 63.1333 67.5895 61.6973 67.4025 61.7921C67.2155 61.8869 64.675 62.8319 64.2885 63.1966Z" fill="#A79960"/>
<path d="M64.4513 63.2194C64.1669 63.4902 64.7253 64.6458 65.2634 64.6235C65.8015 64.6012 67.3744 63.1707 67.3744 63.1707C67.3744 63.1707 66.9866 62.0679 66.8423 62.1404C66.698 62.2129 64.7485 62.9372 64.4513 63.2194Z" fill="#D6CC9D"/>
<path d="M68.8063 64.6895C68.7848 64.6544 68.7651 64.618 68.7473 64.5806C68.6982 64.4802 68.6688 64.3702 68.6611 64.2574C68.6435 64.0861 68.686 63.914 68.7805 63.7737C68.837 63.6972 68.9107 63.6369 68.9949 63.5983C69.0791 63.5596 69.1711 63.544 69.2626 63.5526C69.1494 63.6392 69.0545 63.7498 68.9838 63.8772C68.8972 64.1404 68.8376 64.4128 68.8063 64.6895Z" fill="#74BBC0"/>
<path d="M66.6254 66.5459C66.6161 66.4441 66.6298 66.3415 66.6653 66.2464C66.7008 66.1513 66.7571 66.0664 66.8296 65.9988C66.9848 65.853 67.1765 65.7578 67.3816 65.7246C67.5867 65.6913 67.7966 65.7215 67.9859 65.8115L67.8226 65.8379C67.6942 65.866 67.5675 65.9027 67.4435 65.9478C67.1108 66.0344 66.8196 66.2472 66.6254 66.5459Z" fill="#74BBC0"/>
<path d="M67.1054 65.0971C67.0901 65.0028 67.101 64.9059 67.1368 64.8181C67.1761 64.722 67.2443 64.6425 67.3308 64.5918C67.4173 64.5412 67.5173 64.5223 67.615 64.5382C67.615 64.5436 67.5401 64.6549 67.4664 64.7716C67.3757 64.9123 67.251 65.0246 67.1054 65.0971Z" fill="#74BBC0"/>
<path d="M64.2612 65.7914C64.2612 65.7914 64.2901 65.7458 64.3474 65.6715C64.4278 65.5666 64.5244 65.4769 64.633 65.4062C64.8008 65.2884 65.0012 65.234 65.2018 65.2517C65.4024 65.2694 65.5915 65.3582 65.7385 65.5037L65.5808 65.4869C65.4582 65.4742 65.3347 65.4742 65.212 65.4869C64.8861 65.5539 64.5676 65.6559 64.2612 65.7914Z" fill="#74BBC0"/>
<path d="M67.0151 58.1433C67.0014 58.1627 66.9926 58.1853 66.9893 58.2092C66.9859 58.233 66.9883 58.2574 66.9961 58.2801C67.0437 58.4124 67.1088 58.5369 67.1896 58.6498C67.2933 58.8086 67.417 58.9518 67.557 59.0756C67.6422 59.1412 67.7311 59.2012 67.8233 59.2552C67.9241 59.3081 68.0322 59.3587 68.1386 59.4234C67.9142 59.4349 67.6901 59.3956 67.4812 59.3081C67.3889 59.247 67.3001 59.1802 67.2154 59.1079C67.1445 59.0114 67.0786 58.9108 67.0181 58.8066C66.9656 58.6988 66.9287 58.5832 66.9087 58.4638C66.8876 58.3548 66.8996 58.1675 67.0151 58.1433Z" fill="#74BBC0"/>
<path d="M69.5406 61.5636C69.4131 61.5077 69.3087 61.4053 69.2463 61.2751C69.1853 61.1292 69.1699 60.9664 69.2025 60.8106C69.235 60.6548 69.3138 60.514 69.4272 60.4089L69.4204 60.8311C69.4233 61.0805 69.4638 61.3278 69.5406 61.5636Z" fill="#74BBC0"/>
<path d="M62.4155 58.002C62.539 58.1117 62.6935 58.1747 62.8545 58.1812C63.02 58.2116 63.1903 58.1876 63.3426 58.1125C63.4948 58.0373 63.6215 57.9146 63.7058 57.7609C63.7131 57.8191 63.7118 57.8781 63.7019 57.9359C63.6862 58.0149 63.6551 58.0895 63.6106 58.1551C63.5661 58.2206 63.5092 58.2756 63.4435 58.3166C63.2685 58.4315 63.0579 58.4688 62.8571 58.4205C62.7533 58.4031 62.6563 58.3544 62.578 58.2802C62.4997 58.2059 62.4433 58.1094 62.4155 58.002Z" fill="#74BBC0"/>
<path d="M60.0378 59.7389C60.1787 59.6761 60.2995 59.5718 60.3859 59.4384C60.4756 59.3141 60.5482 59.1768 60.6014 59.0309C60.6354 58.9491 60.6506 58.8599 60.6458 58.7707C60.641 58.6815 60.6163 58.5948 60.5738 58.5176C60.6221 58.54 60.6659 58.5718 60.703 58.6115C60.7515 58.6692 60.7874 58.7374 60.8083 58.8114C60.8292 58.8853 60.8346 58.9632 60.8241 59.0396C60.8035 59.2416 60.7155 59.4293 60.5759 59.5688C60.5097 59.6468 60.4244 59.7039 60.3295 59.7339C60.2346 59.7639 60.1336 59.7656 60.0378 59.7389Z" fill="#74BBC0"/>
<path d="M60.5885 64.4069C60.6176 64.3436 60.6428 64.2785 60.6639 64.2118C60.7207 64.0441 60.7551 63.8689 60.766 63.6912C60.8066 63.4334 60.7686 63.1686 60.6576 62.935C60.5467 62.7015 60.3684 62.5113 60.1487 62.392C60.225 62.3951 60.3007 62.4073 60.3744 62.4284C60.5737 62.4893 60.7434 62.6289 60.8483 62.8182C60.9884 63.0731 61.0392 63.372 60.9917 63.6626C60.9442 63.9531 60.8014 64.2167 60.5885 64.4069Z" fill="#74BBC0"/>
<path d="M61.2783 65.6756C61.4008 65.6349 61.5305 65.6244 61.6574 65.6451C61.7952 65.6624 61.9255 65.7207 62.0331 65.8133C62.0975 65.872 62.1428 65.9506 62.1628 66.038C62.1827 66.1255 62.1762 66.2173 62.1443 66.3006L62.0917 66.1903C62.0499 66.1168 61.9893 66.0573 61.9168 66.0189C61.695 65.9242 61.4814 65.8093 61.2783 65.6756Z" fill="#74BBC0"/>
<path d="M63.5974 66.2701C63.612 66.2179 63.6339 66.1684 63.6625 66.1233C63.7446 66.001 63.8635 65.9118 63.9998 65.8703C64.1882 65.8088 64.3899 65.8101 64.5775 65.8739C64.686 65.9055 64.7852 65.9653 64.8663 66.0478C64.9474 66.1302 65.0078 66.2328 65.0419 66.3462C65.0022 66.3073 64.9589 66.2726 64.9127 66.2427C64.8037 66.1771 64.6842 66.1331 64.5603 66.1128C64.4039 66.0838 64.2445 66.0772 64.0864 66.0932C63.9108 66.1016 63.7411 66.1629 63.5974 66.2701Z" fill="#74BBC0"/>
<path d="M19.3084 59.1467C25.7235 59.1467 30.9241 53.6408 30.9241 46.8488C30.9241 40.0568 25.7235 34.5508 19.3084 34.5508C12.8932 34.5508 7.69263 40.0568 7.69263 46.8488C7.69263 53.6408 12.8932 59.1467 19.3084 59.1467Z" fill="#211414"/>
<path d="M18.0804 56.0255C23.5429 56.0255 27.9712 51.3371 27.9712 45.5537C27.9712 39.7703 23.5429 35.0819 18.0804 35.0819C12.6179 35.0819 8.1897 39.7703 8.1897 45.5537C8.1897 51.3371 12.6179 56.0255 18.0804 56.0255Z" fill="#FFC9A5"/>
<path d="M18.0808 54.8895C22.9504 54.8895 26.8979 50.7099 26.8979 45.5542C26.8979 40.3984 22.9504 36.2189 18.0808 36.2189C13.2112 36.2189 9.26367 40.3984 9.26367 45.5542C9.26367 50.7099 13.2112 54.8895 18.0808 54.8895Z" fill="#9A4632"/>
<path d="M10.1489 44.2439C9.72155 45.3449 11.6917 46.6673 11.5754 47.8184C11.459 48.9695 11.4823 51.0683 13.5321 51.2867C15.582 51.505 16.6517 53.7917 18.0101 53.3103C19.3684 52.8289 19.0294 51.1572 19.854 50.7692C20.6786 50.3813 21.9943 52.2102 22.7792 50.7811C23.5642 49.3519 22.457 48.499 23.5978 47.2294C24.7386 45.9598 26.4477 44.9501 25.5365 43.2355C24.6253 41.521 23.4888 42.1273 23.1588 40.4898C22.8288 38.8524 21.6539 38.2023 20.156 39.0767C18.658 39.951 17.2333 37.5057 15.8534 38.3582C14.4735 39.2107 13.782 38.7352 12.2289 39.8589C11.2716 40.5514 12.5637 42.6352 11.8127 43.0664C11.0618 43.4977 10.4393 43.4968 10.1489 44.2439Z" fill="#3D1F15"/>
<path d="M18.8594 41.289C16.9207 40.7825 14.6856 40.7183 13.4845 42.2755C12.2834 43.8328 12.5987 47.9114 15.527 49.2713C18.4553 50.6311 20.6921 48.9909 21.7278 46.5876C22.7635 44.1842 21.0062 41.8502 18.8594 41.289Z" fill="#28130D"/>
<path d="M16.7717 47.0525C15.683 47.3922 16.0363 50.2295 17.5015 49.6829C18.9667 49.1363 18.601 46.4809 16.7717 47.0525Z" fill="#9A4632"/>
<path d="M16.1453 42.3211C16.0554 42.3442 15.9708 42.3863 15.8967 42.445C15.8226 42.5036 15.7605 42.5776 15.7142 42.6624C15.6679 42.7472 15.6384 42.841 15.6274 42.9383C15.6164 43.0355 15.6242 43.1341 15.6502 43.228C15.6763 43.322 15.7201 43.4094 15.779 43.4849C15.838 43.5604 15.9108 43.6224 15.993 43.6673C16.0753 43.7122 16.1653 43.7389 16.2576 43.7459C16.3499 43.7528 16.4426 43.7399 16.53 43.7079C17.3292 43.4576 17.1586 41.9473 16.1453 42.3211Z" fill="#9A4632"/>
<path d="M12.7505 44.8818C11.1228 45.2825 11.866 48.6413 13.6242 48.0309C15.3823 47.4205 14.7874 44.3803 12.7505 44.8818Z" fill="#9A4632"/>
<path d="M16.3398 35.7784C13.4744 36.4901 10.9476 38.0172 9.56211 40.8299C8.29249 43.4079 8.15334 47.0138 9.49189 49.5712C9.52291 49.6309 9.62588 49.604 9.6164 49.5325C9.23125 46.5607 8.69832 43.8998 9.96407 41.056C11.2358 38.1964 13.8845 37.2495 16.4289 36.0994C16.4683 36.0861 16.5011 36.057 16.5205 36.0184C16.5398 35.9798 16.5442 35.9347 16.5325 35.8928C16.5209 35.8509 16.4942 35.8155 16.4581 35.7941C16.4221 35.7727 16.3796 35.7671 16.3398 35.7784Z" fill="#FFE9DB"/>
<path d="M10.956 51.4846C10.7126 51.2074 10.4963 50.9197 10.2744 50.6243C10.1939 50.5172 9.98321 50.4985 9.9621 50.6772C9.95015 50.8432 9.97014 51.01 10.0209 51.1676C10.0716 51.3252 10.152 51.4702 10.2572 51.594C10.389 51.7813 10.7376 52.2741 11.012 52.1552C11.3097 52.028 11.1072 51.6564 10.956 51.4846Z" fill="#FFE9DB"/>
<path d="M17.9411 68.3C20.6093 68.3 22.7723 66.01 22.7723 63.1852C22.7723 60.3603 20.6093 58.0703 17.9411 58.0703C15.2729 58.0703 13.1099 60.3603 13.1099 63.1852C13.1099 66.01 15.2729 68.3 17.9411 68.3Z" fill="#211414"/>
<path d="M15.8989 58.4556C14.7404 59.1818 15.2096 60.5786 14.83 61.2232C14.4505 61.8678 13.6668 62.6364 14.2432 64.0386C14.8197 65.4409 14.8895 67.7216 16.9372 67.48C18.9848 67.2384 21.9122 65.8015 22.2827 63.3826C22.6533 60.9638 21.4241 59.898 20.1041 59.0578C18.7841 58.2176 17.3576 57.5416 15.8989 58.4556Z" fill="#669845"/>
<path d="M16.0988 58.8135C15.0442 59.4745 15.472 60.7459 15.1252 61.3331C14.7784 61.9203 14.0675 62.6209 14.5909 63.896C15.1144 65.1711 16.0768 66.8044 17.941 66.5856C19.8051 66.3668 21.5724 65.502 21.9101 63.2997C22.2479 61.0974 20.79 60.5121 19.5884 59.7476C18.3869 58.9831 17.4266 57.9811 16.0988 58.8135Z" fill="#76AE54"/>
<path d="M20.097 62.92C20.1191 62.742 20.1022 62.561 20.0476 62.3911C19.993 62.2211 19.9021 62.0667 19.7821 61.9399C19.7244 61.8618 19.6508 61.7985 19.5667 61.7548C19.5295 61.5739 19.4744 61.3977 19.4021 61.2292C18.8545 60.0124 17.4798 59.9814 16.6845 60.9187C16.3663 61.3018 16.1703 61.7813 16.1244 62.2891C15.7393 63.9361 17.6198 65.9388 19.0169 64.4266C19.1006 64.3345 19.1755 64.2339 19.2405 64.1262C19.4246 64.1189 19.6046 64.0663 19.7661 63.9726C19.8538 63.9271 19.932 63.8637 19.9962 63.7859C20.0604 63.7082 20.1093 63.6177 20.1401 63.5197C20.1709 63.4217 20.183 63.3182 20.1756 63.2152C20.1682 63.1123 20.1415 63.0119 20.097 62.92Z" fill="#95D26E"/>
<path d="M20.6056 61.0851L20.5987 61.0701C20.5948 61.0591 20.591 61.0482 20.5884 61.0368C20.569 60.9633 20.5358 60.8947 20.4908 60.8351C20.4458 60.7755 20.3899 60.7261 20.3265 60.6899C20.3011 60.677 20.2747 60.6666 20.2476 60.6589C20.1721 60.6014 20.0841 60.5651 19.9917 60.5533C19.8993 60.5416 19.8056 60.5549 19.7194 60.5919C19.6409 60.6099 19.5676 60.6474 19.5055 60.7012C19.4434 60.7551 19.3943 60.8239 19.3622 60.9018C19.3301 60.9797 19.316 61.0646 19.3211 61.1494C19.3261 61.2342 19.3501 61.3166 19.3911 61.3896C19.4161 61.4243 19.4398 61.4598 19.4635 61.4954C19.4872 61.531 19.5066 61.556 19.5281 61.5866C19.5436 61.6105 19.5559 61.6366 19.5648 61.6641C19.5622 61.655 19.5566 61.6363 19.5484 61.6057C19.5773 61.7077 19.6374 61.7966 19.7191 61.8585C19.8009 61.9205 19.8998 61.952 20.0003 61.9481C20.0434 61.9412 20.0865 61.9362 20.1296 61.9285C20.1421 61.9285 20.1541 61.9335 20.1662 61.9344C20.2599 61.9328 20.3515 61.9043 20.4311 61.8518C20.5108 61.7994 20.5754 61.725 20.6181 61.6367C20.6597 61.551 20.6803 61.4556 20.6781 61.3592C20.676 61.2629 20.651 61.1687 20.6056 61.0851Z" fill="#95D26E"/>
<path d="M19.5647 61.6639C19.5683 61.674 19.5688 61.6766 19.5647 61.6639V61.6639Z" fill="#95D26E"/>
<path d="M18.8068 64.1932C18.8126 64.3063 18.827 64.4186 18.8499 64.5292C18.871 64.6005 18.9135 64.6625 18.971 64.7059C19.0285 64.7492 19.0979 64.7715 19.1684 64.7694C19.239 64.7672 19.307 64.7407 19.362 64.6939C19.417 64.6471 19.4561 64.5825 19.4733 64.5101C19.4946 64.3984 19.5073 64.2852 19.5112 64.1714C19.537 63.6959 18.781 63.7073 18.8068 64.1932Z" fill="#95D26E"/>
<path d="M20.8343 62.371C20.8183 62.3215 20.7849 62.2805 20.741 62.2565C20.6971 62.2324 20.6462 62.2273 20.5988 62.242C20.5514 62.2568 20.5112 62.2903 20.4866 62.3357C20.462 62.381 20.4549 62.4347 20.4668 62.4854C20.5202 62.6968 20.548 62.9144 20.5495 63.1332C20.5509 63.1536 20.5578 63.1732 20.5694 63.1896C20.5809 63.2061 20.5966 63.2187 20.6147 63.2261C20.6327 63.2334 20.6524 63.2352 20.6714 63.2312C20.6903 63.2272 20.7079 63.2175 20.7219 63.2034C20.8178 63.0929 20.8799 62.9542 20.9 62.8056C20.92 62.657 20.8971 62.5055 20.8343 62.371Z" fill="#95D26E"/>
<path d="M20.2622 61.7183C20.2602 61.6413 20.2293 61.5683 20.1764 61.5154C20.1235 61.4625 20.0528 61.434 19.98 61.4362C19.9073 61.4383 19.8383 61.471 19.7883 61.527C19.7383 61.583 19.7113 61.6577 19.7134 61.7347C19.7061 61.8651 19.6836 61.99 19.6651 62.119C19.625 62.2641 19.5994 62.4132 19.5889 62.564C19.591 62.6119 19.6047 62.6585 19.6288 62.6991C19.6529 62.7398 19.6865 62.7732 19.7263 62.7961C19.7662 62.819 19.811 62.8307 19.8563 62.83C19.9017 62.8292 19.9461 62.8161 19.9852 62.7919C20.3221 62.574 20.2812 62.0785 20.2622 61.7183Z" fill="#95D26E"/>
<path d="M17.2705 65.5216C17.1707 65.3801 17.0401 65.2664 16.8896 65.1902C16.7482 65.0929 16.6325 64.9591 16.5536 64.8013C16.4566 64.6189 16.2141 64.7853 16.2951 64.9663C16.445 65.2941 16.7871 65.7486 17.1727 65.7089C17.193 65.7081 17.2128 65.7018 17.2301 65.6905C17.2475 65.6792 17.2618 65.6634 17.2716 65.6445C17.2815 65.6256 17.2865 65.6044 17.2863 65.5829C17.2861 65.5613 17.2807 65.5402 17.2705 65.5216Z" fill="#95D26E"/>
<path d="M15.8321 64.3532C15.8292 64.3117 15.8113 64.2729 15.7821 64.245C15.7528 64.2171 15.7146 64.2021 15.6752 64.2033C15.6359 64.2045 15.5984 64.2217 15.5708 64.2513C15.5431 64.2809 15.5273 64.3207 15.5266 64.3624C15.5266 64.5447 15.549 64.7986 15.7653 64.8128C15.7871 64.8123 15.8081 64.8041 15.825 64.7895C15.8419 64.7748 15.8536 64.7546 15.8583 64.7321C15.8594 64.6053 15.8506 64.4786 15.8321 64.3532Z" fill="#95D26E"/>
<path d="M17.6532 59.4585C17.5429 59.439 17.4298 59.4477 17.3234 59.4842C17.217 59.5206 17.1204 59.5836 17.0419 59.6678C17.0161 59.6978 17.0002 59.7358 16.9966 59.7762C16.993 59.8165 17.0019 59.857 17.0219 59.8916C17.0419 59.9262 17.072 59.9529 17.1076 59.9679C17.1432 59.9829 17.1824 59.9852 17.2194 59.9746C17.4667 59.8857 17.7105 60.1113 17.9518 60.0147C17.9793 60.0058 18.0033 59.9876 18.0201 59.9629C18.0369 59.9382 18.0456 59.9084 18.0448 59.8779C18.0279 59.774 17.9813 59.6781 17.9112 59.6031C17.8412 59.5282 17.7512 59.4777 17.6532 59.4585Z" fill="#95D26E"/>
<path d="M26.3034 71.1931C24.263 67.1992 14.997 64.5374 18.8593 73.306C22.7216 82.0747 32.5037 83.3283 26.3034 71.1931Z" fill="#211414"/>
<path d="M24.6324 80.104C24.6324 80.104 21.6331 76.5049 22.4534 72.2471C22.4534 72.2471 24.1913 71.2993 24.6023 72.5138C25.0133 73.7282 24.8341 78.2099 26.1265 80.3055L24.6324 80.104Z" fill="#E1BEB9"/>
<path d="M21.3496 80.1906C21.3496 80.1906 23.6506 76.3157 26.9933 77.9199L26.7241 76.9489C26.7241 76.9489 21.6085 75.1564 21.3496 80.1906Z" fill="#E1BEB9"/>
<path d="M18.9741 70.7975C18.9741 70.7975 22.4474 75.1146 27.332 76.184C27.332 76.184 28.3375 78.6617 26.9232 78.9366C26.9206 78.9366 19.8409 75.0781 18.9741 70.7975Z" fill="#E1BEB9"/>
<path d="M19.4722 68.8258C19.4722 68.8258 22.8524 75.6241 27.3992 75.8006L28.3324 74.1348C28.3324 74.1348 22.8524 73.5221 20.4208 68.4009L19.4722 68.8258Z" fill="#E1BEB9"/>
<path d="M20.6975 68.813C20.6975 68.813 24.618 75.0155 22.6362 79.0896L21.7699 78.9419C21.7699 78.9419 21.6996 73.6438 19.5804 71.049C17.4612 68.4542 20.6975 68.813 20.6975 68.813Z" fill="#E1BEB9"/>
<path d="M22.2053 68.2805C23.413 69.2639 24.4227 70.493 25.1747 71.8955C25.9268 73.298 26.4062 74.8455 26.5845 76.447L25.3532 77.3231C25.3532 77.3231 24.6682 71.3759 20.2489 69.619C20.2489 69.619 19.8935 67.3186 22.2053 68.2805Z" fill="#E1BEB9"/>
<path d="M22.5904 72.7344C22.2027 72.2361 21.5565 71.9325 21.0938 71.5113C20.5665 71.0615 20.1284 70.506 19.8048 69.8765C19.716 69.6914 19.417 69.8309 19.4898 70.0233C19.7511 70.6801 20.1296 71.2775 20.6048 71.7825C21.0511 72.2716 21.774 72.955 22.4345 73.0425C22.4708 73.0504 22.5087 73.0457 22.5423 73.029C22.5759 73.0123 22.6035 72.9846 22.6211 72.95C22.6386 72.9153 22.6451 72.8756 22.6396 72.8368C22.634 72.7979 22.6168 72.762 22.5904 72.7344Z" fill="#F8E0DD"/>
<path d="M23.6252 72.1162C22.9902 70.8224 22.094 69.6921 21.0003 68.8056C20.852 68.6848 20.6491 68.9041 20.7978 69.0336C21.8602 69.9553 22.5702 71.1734 23.4895 72.2333C23.561 72.314 23.6679 72.2046 23.6252 72.1162Z" fill="#F8E0DD"/>
<path d="M26.2448 77.2858C25.437 76.6475 24.4689 76.2692 23.6168 75.6984C22.4835 74.9374 21.4673 73.997 20.6036 72.9099C20.4791 72.7526 20.2331 72.9691 20.3404 73.1351C21.5755 75.0497 23.7899 77.4704 26.1254 77.6217C26.1613 77.6197 26.1959 77.6066 26.2249 77.5841C26.2539 77.5616 26.2761 77.5306 26.2887 77.495C26.3014 77.4593 26.304 77.4206 26.2962 77.3834C26.2883 77.3463 26.2705 77.3123 26.2448 77.2858Z" fill="#F8E0DD"/>
<path d="M25.9379 75.1862C25.6339 75.0805 25.3195 75.0114 25.0009 74.9801C24.5563 74.8926 24.1235 74.7483 23.7119 74.5502C23.5159 74.459 23.3599 74.7563 23.5542 74.8657C24.1896 75.2231 25.1831 75.7514 25.9108 75.4692C26.018 75.4278 26.0654 75.2427 25.9379 75.1862Z" fill="#F8E0DD"/>
<path d="M24.5205 79.4885C24.2454 78.5474 23.8388 77.6551 23.3142 76.8413C23.2552 76.7615 23.0988 76.7766 23.1121 76.9047C23.2233 77.8679 23.8742 78.7496 24.2547 79.6139C24.3236 79.7748 24.5769 79.6536 24.5205 79.4885Z" fill="#F8E0DD"/>
<path d="M74.4639 23.6997C67.1619 21.1874 55.0301 47.6853 66.2947 54.4763C77.5593 61.2674 87.2583 28.102 74.4639 23.6997Z" fill="#211414"/>
<path d="M75.2086 25.2966C75.2086 25.2966 76.7918 25.2729 76.8285 26.4973C76.8285 26.4973 78.6646 27.2012 78.2747 28.412C78.2747 28.412 80.6102 30.0107 79.7653 32.1082C79.7653 32.1082 80.7032 34.1368 79.2953 36.5862C79.2953 36.5862 80.4822 38.2811 78.2058 40.0845C78.2058 40.0845 79.204 41.8752 77.3174 43.5368C77.3174 43.5368 78.2174 45.6826 75.779 46.9103C75.779 46.9103 76.4373 49.1144 74.088 49.5361C74.088 49.5361 73.3513 52.1692 71.1102 51.5574C71.1102 51.5574 68.2552 53.663 67.2789 51.98C67.2789 51.98 65.0744 52.5931 64.582 50.6876C64.582 50.6876 62.6002 49.7923 62.9979 47.5731C62.9979 47.5731 60.964 45.7141 62.7657 43.8149C62.7657 43.8149 61.8325 42.3461 62.9746 41.1896C62.9746 41.1896 62.3715 38.4379 64.2382 36.9796C64.2382 36.9796 63.7966 34.2781 65.8999 33.6882C65.8999 33.6882 65.1111 30.8413 67.54 30.2893C67.54 30.2893 67.0838 28.0395 69.2814 27.6521C69.2814 27.6521 69.0854 25.9033 71.8689 26.0565C71.8693 26.0551 73.5887 24.0954 75.2086 25.2966Z" fill="#BBE1E7"/>
<path d="M74.7505 26.7983C74.7505 26.7983 76.1576 26.7773 76.1903 27.8659C76.1903 27.8659 77.8223 28.4909 77.4759 29.5663C77.4759 29.5663 79.552 30.9877 78.8007 32.8522C79.0391 33.5022 79.1256 34.2035 79.0529 34.8965C78.9801 35.5895 78.7502 36.2536 78.3828 36.8324C78.3828 36.8324 79.4383 38.3368 77.4147 39.9419C77.4147 39.9419 78.3018 41.5338 76.625 43.0108C76.625 43.0108 77.4251 44.9181 75.2572 46.0113C75.2572 46.0113 75.8427 47.9716 73.7545 48.3454C73.7545 48.3454 73.0996 50.6863 71.1071 50.1429C71.1071 50.1429 68.5691 52.0147 67.7036 50.518C67.7036 50.518 65.7438 51.0651 65.3061 49.3692C65.3061 49.3692 63.5454 48.5738 63.8982 46.6008C63.8982 46.6008 62.0888 44.9487 63.6914 43.2602C63.6914 43.2602 62.8621 41.9541 63.8771 40.9266C63.8771 40.9266 63.342 38.4808 65.0007 37.1843C65.0007 37.1843 64.6078 34.7828 66.478 34.2581C66.478 34.2581 65.777 31.7276 67.9358 31.2371C67.9358 31.2371 67.5304 29.2372 69.4842 28.8925C69.4842 28.8925 69.3119 27.338 71.7843 27.4729C71.7818 27.4725 73.3107 25.7302 74.7505 26.7983Z" fill="white"/>
<path d="M70.9659 54.5045C70.9659 54.5045 68.6959 53.2281 67.0114 53.2737C65.3269 53.3193 63.1582 52.0196 63.1582 52.0196C63.1582 52.0196 64.0302 42.7431 65.756 36.6345C67.4819 30.5258 72.4897 23.8961 72.4897 23.8961C72.4897 23.8961 77.9336 24.1168 78.8154 24.8124C79.3876 25.3022 79.8413 25.9292 80.1389 26.6414C80.1389 26.6414 78.0796 30.5837 78.0443 32.4975C78.0089 34.4112 76.8462 40.167 75.0113 44.1704C73.1765 48.1739 70.9659 54.5045 70.9659 54.5045Z" fill="#FF9B0D"/>
<path d="M76.7673 29.2294C76.4972 27.7122 75.1104 26.8912 73.8955 26.4522C72.6806 26.0132 70.2529 28.4503 69.0337 30.7269C67.8145 33.0035 65.3347 39.8716 66.4945 43.0294C67.6542 46.1872 71.3886 46.4211 72.7801 44.6665C74.1716 42.9118 77.6514 34.1924 76.7673 29.2294Z" fill="#FFB14D"/>
<path d="M75.4939 23.3118C75.5124 24.3116 75.7125 25.2984 76.0832 26.2184C76.6799 27.596 78.3425 30.3157 78.6526 32.3671L78.42 33.309C78.071 32.0248 77.6057 30.7792 77.0306 29.5895C76.2715 28.1927 74.2385 24.1711 74.2488 22.6558L75.4939 23.3118Z" fill="#FFE6CE"/>
<path d="M69.1074 26.7946C69.9182 30.5327 73.7508 34.8179 75.2005 36.2261C76.6502 37.6343 77.168 39.9259 77.168 39.9259L77.4903 38.9002C77.1323 36.3474 74.9657 35.3267 72.8741 32.0595C70.7824 28.7922 70.1815 24.5189 70.1815 24.5189L69.1074 26.7946Z" fill="#FFE6CE"/>
<path d="M66.6196 30.1918C66.6196 30.1918 68.4015 36.3715 70.4634 38.959C72.6558 41.7107 75.3118 42.7592 75.5212 45.1215L75.3192 45.9521C75.3192 45.9521 75.5828 44.8188 73.1672 42.9092C69.7004 40.168 67.5136 36.966 66.1328 31.3538L66.6196 30.1918Z" fill="#FFE6CE"/>
<path d="M64.0759 39.3141C64.0759 39.3141 65.277 42.6278 67.0305 43.9667C68.7839 45.3056 73.0408 48.2901 73.1481 49.6377L72.8138 50.5545C72.3708 49.3637 71.5909 48.3469 70.5808 47.6433C69.0045 46.6563 66.3511 45.5782 65.1323 43.2213C63.9135 40.8645 63.6533 40.363 64.0759 39.3141Z" fill="#FFE6CE"/>
<path d="M62.8955 45.2413C62.8955 45.2413 65.8681 50.9903 67.5483 51.7507C69.2285 52.5111 71.1271 53.7396 71.6446 55.2472L71.324 55.7683C71.324 55.7683 70.7334 53.8855 67.7965 52.8434C64.8596 51.8013 62.5586 45.9356 62.5586 45.9356L62.8955 45.2413Z" fill="#FFE6CE"/>
<path d="M41.2526 13.299C33.703 10.7006 21.1592 38.0983 32.8064 45.1187C44.4536 52.1391 54.4813 17.8504 41.2526 13.299Z" fill="#211414"/>
<path d="M40.3474 16.4185C40.3474 16.4185 41.907 16.2722 42.0276 17.4771C42.0276 17.4771 43.887 18.0282 43.5863 19.2508C43.5863 19.2508 45.9989 20.6463 45.3096 22.7797C45.3096 22.7797 46.375 24.7071 45.1566 27.2322C45.1566 27.2322 46.4443 28.8109 44.3247 30.7656C44.3247 30.7656 45.4332 32.4524 43.688 34.2385C43.688 34.2385 44.7219 36.2844 42.4046 37.6866C42.4046 37.6866 43.2067 39.8092 40.9191 40.4073C40.9191 40.4073 40.375 43.0613 38.1226 42.6319C38.1226 42.6319 35.4516 44.93 34.3745 43.3454C34.3745 43.3454 32.2433 44.1203 31.6259 42.28C31.6259 42.28 29.6105 41.5506 29.8479 39.3319C29.8479 39.3319 27.7136 37.6575 29.3585 35.6444C29.3585 35.6444 28.3366 34.2681 29.3826 33.0391C29.3826 33.0391 28.5985 30.3722 30.3373 28.7899C30.3373 28.7899 29.7144 26.16 31.7478 25.4165C31.7478 25.4165 30.7729 22.6708 33.1295 21.9377C33.1295 21.9377 32.5237 19.7546 34.664 19.2025C34.664 19.2025 34.35 17.4935 37.1051 17.4269C37.1068 17.4274 38.6672 15.3595 40.3474 16.4185Z" fill="#BBE1E7"/>
<path d="M39.9991 17.9375C39.9991 17.9375 41.3851 17.8076 41.4928 18.8784C41.4928 18.8784 43.1454 19.3685 42.8779 20.4548C42.8779 20.4548 45.0229 21.6948 44.4116 23.5912C44.6917 24.2135 44.8256 24.8982 44.8019 25.5871C44.7782 26.2759 44.5976 26.9485 44.2754 27.5477C44.2754 27.5477 45.4201 28.9508 43.5362 30.6881C43.5362 30.6881 44.521 32.1889 42.9701 33.7748C42.9701 33.7748 43.8907 35.5933 41.8297 36.8396C41.8297 36.8396 42.5423 38.726 40.5092 39.2557C40.5092 39.2557 40.0259 41.6144 38.0238 41.2329C38.0238 41.2329 35.6517 43.2756 34.6923 41.8674C34.6923 41.8674 32.7967 42.5567 32.2496 40.9206C32.2496 40.9206 30.4582 40.2732 30.6698 38.3007C30.6698 38.3007 28.7742 36.8123 30.2346 35.0235C30.2346 35.0235 29.3265 33.8004 30.2562 32.7081C30.2562 32.7081 29.5591 30.3376 31.1045 28.9317C31.1045 28.9317 30.5509 26.5949 32.3581 25.9325C32.3581 25.9325 31.4918 23.4918 33.5864 22.8408C33.5864 22.8408 33.0483 20.9006 34.9504 20.4092C34.9504 20.4092 34.6712 18.8898 37.12 18.8314C37.1191 18.8328 38.5051 16.9966 39.9991 17.9375Z" fill="white"/>
<path d="M33.9559 43.1953C33.9559 43.1953 34.4324 41.8013 33.7017 42.2777C33.3633 42.4831 32.9963 42.6305 32.6143 42.7144C31.878 43.7661 28.2492 46.0181 29.0613 47.0452C29.9062 48.111 31.5721 45.9169 31.5721 45.9169C31.5721 45.9169 29.7985 50.5531 30.8988 51.1252C31.9991 51.6973 33.0792 47.9555 33.0792 47.9555C33.0792 47.9555 33.345 52.026 34.9377 52.1117C36.5304 52.1974 36.5748 49.5269 36.0867 47.7682C35.7503 46.3945 35.5198 44.9942 35.3974 43.581C35.2742 42.4701 33.9559 43.1953 33.9559 43.1953Z" fill="#EE7C1D"/>
<path d="M40.5456 18.3064C40.5719 16.1547 36.5765 14.679 36.517 14.6594C33.4349 18.9838 35.4705 21.7965 35.4705 21.7965C31.4967 23.0319 33.2604 29.3772 33.2604 29.3772C29.8781 32.1725 32.1192 36.2932 32.1192 36.2932C30.0707 39.0876 32.6892 42.5914 32.6892 42.5914C32.6664 42.6339 32.6409 42.6747 32.6129 42.7136C32.9949 42.6298 33.3619 42.4823 33.7003 42.2769C34.4327 41.8005 33.9545 43.1946 33.9545 43.1946C33.9545 43.1946 35.2745 42.4693 35.3943 43.5775C40.1863 41.3401 38.8516 38.5173 38.8516 38.5173C42.4102 34.6698 40.3771 31.5644 40.3771 31.5644C44.3713 28.9938 42.4102 25.0355 42.4102 25.0355C45.5495 22.6476 44.7797 18.7445 44.6293 17.0204C41.7092 16.7965 40.5456 18.3064 40.5456 18.3064Z" fill="#FBCE4F"/>
<path d="M44.5138 16.4915C43.9576 15.3354 40.8858 16.0438 40.8858 16.0438C39.4934 13.8812 37.0128 14.1401 36.7582 14.1748C36.7315 14.2122 36.7056 14.2523 36.681 14.2942C36.6225 14.4182 36.5716 14.5381 36.5173 14.6589C36.5768 14.6803 40.5718 16.1564 40.5459 18.3059C40.5459 18.3059 41.7091 16.796 44.6309 17.0199C44.6218 16.8378 44.5822 16.6589 44.5138 16.4915Z" fill="#FFF5DD"/>
<path d="M33.2605 29.3753C33.2605 29.3753 36.2624 26.8498 37.4881 29.7906C37.4881 29.7906 39.22 29.1432 40.3785 31.5639C40.3785 31.5639 38.8732 30.205 36.8156 31.9245C36.8156 31.924 37.196 29.827 33.2605 29.3753Z" fill="#FFF5DD"/>
<path d="M35.5757 22.1766C35.5757 22.1766 38.2653 23.6659 38.681 25.447C39.8792 25.0151 41.1541 24.8749 42.4106 25.0367C42.4106 25.0367 41.7454 21.8593 39.2415 23.5324C39.2428 23.5287 38.6 20.8145 35.5757 22.1766Z" fill="#FFF5DD"/>
<path d="M32.7693 36.0893C32.7693 36.0893 35.4606 34.585 35.8346 37.1556C35.8346 37.1556 37.7349 35.241 38.5121 38.0414C37.2746 38.0412 36.0632 38.4178 35.0225 39.1263C35.0225 39.1263 35.4959 37.152 32.7693 36.0893Z" fill="#FFF5DD"/>
<path d="M40.7087 18.8954C40.7087 18.8954 40.4709 22.0901 39.2439 23.135C39.2435 23.1341 39.6614 20.3396 40.7087 18.8954Z" fill="#B98B1A"/>
<path d="M38.7718 25.7721C38.7718 25.7721 38.9903 28.412 37.7219 29.9128C37.9353 28.4978 38.2871 27.1101 38.7718 25.7721Z" fill="#B98B1A"/>
<path d="M36.9112 32.2682C37.0503 33.0311 37.0385 33.8163 36.8766 34.5742C36.7148 35.3321 36.4063 36.0464 35.9707 36.6719C36.1062 35.1677 36.4222 33.6879 36.9112 32.2682Z" fill="#B98B1A"/>
<path d="M35.2146 39.4609C35.3904 40.5521 35.1601 41.6729 34.5718 42.5882C34.5951 41.5119 34.8133 40.4503 35.2146 39.4609Z" fill="#B98B1A"/>
<path d="M38.5119 17.0363C37.2259 16.2198 36.1321 16.1154 35.6405 17.2118C35.149 18.3082 35.6978 21.0379 37.7222 21.0147C39.7466 20.9914 39.6286 17.7465 38.5119 17.0363Z" fill="#FBD98F"/>
<path d="M43.3653 18.3063C42.3344 17.7643 40.0911 21.3811 41.3629 22.255C43.3511 23.6204 45.9472 19.6643 43.3653 18.3063Z" fill="#FBD98F"/>
<path d="M36.682 23.8966C34.571 22.219 32.5845 26.8306 34.571 28.5994C36.5575 30.3681 38.9791 25.721 36.682 23.8966Z" fill="#FBD98F"/>
<path d="M41.1967 25.7721C40.18 25.2519 38.1314 29.4031 39.7056 30.3021C41.2798 31.201 43.1849 26.7891 41.1967 25.7721Z" fill="#FBD98F"/>
<path d="M34.9228 30.6316C33.1996 29.6911 30.9653 34.0465 33.751 34.7982C35.3817 35.2381 36.8512 31.6842 34.9228 30.6316Z" fill="#FBD98F"/>
<path d="M39.6843 32.2682C38.1868 31.4248 36.5394 35.2537 38.0795 36.4207C39.6197 37.5877 41.7363 33.4224 39.6843 32.2682Z" fill="#FBD98F"/>
<path d="M33.4508 37.389C32.1437 36.8875 31.584 40.5162 33.0777 41.5524C34.5713 42.5886 34.486 37.7865 33.4508 37.389Z" fill="#FBD98F"/>
<path d="M38.0797 38.9207C37.041 37.8558 34.547 41.516 35.6404 42.1788C36.7338 42.8417 39.0654 39.9296 38.0797 38.9207Z" fill="#FBD98F"/>
<path d="M33.1632 43.0017C32.9444 42.5736 29.2057 45.6954 29.6305 46.4663C30.0553 47.2371 33.7492 44.1413 33.1632 43.0017Z" fill="#FF9445"/>
<path d="M33.6189 43.5784C33.1786 43.0185 30.5476 49.4882 31.0064 50.2796C31.4652 51.071 34.0734 44.1559 33.6189 43.5784Z" fill="#FF9445"/>
<path d="M34.571 43.5441C33.6193 43.5182 33.0231 50.8873 34.7696 51.505C36.5161 52.1227 35.2353 43.5619 34.571 43.5441Z" fill="#FF9445"/>
<path d="M29.083 28.7845C29.083 28.7845 39.8841 31.6505 44.2237 34.0466L44.8454 32.1132C44.8454 32.1132 34.6707 27.1092 29.4979 26.5585C29.4979 26.5585 28.9805 27.0257 29.083 28.7845Z" fill="#0F161E"/>
<path d="M56.3408 21.7245C48.4637 19.0143 35.3759 47.6005 47.528 54.9263C59.6801 62.2522 70.1417 26.4737 56.3408 21.7245Z" fill="#211414"/>
<path d="M56.092 23.5775C56.092 23.5775 57.7628 23.4212 57.8924 24.7117C57.8924 24.7117 59.885 25.3044 59.5623 26.6127C59.5623 26.6127 62.1472 28.1075 61.4114 30.3937C61.4114 30.3937 62.5526 32.4588 61.2468 35.1639C61.2468 35.1639 62.6254 36.8556 60.3554 38.9504C60.3554 38.9504 61.5428 40.7593 59.6734 42.6712C59.6734 42.6712 60.7832 44.8639 58.2978 46.366C58.2978 46.366 59.1569 48.6399 56.706 49.2808C56.706 49.2808 56.1231 52.1241 53.71 51.6646C53.71 51.6646 50.8498 54.1263 49.6931 52.4291C49.6931 52.4291 47.4098 53.2601 46.748 51.2894C46.748 51.2894 44.5888 50.5089 44.8434 48.1307C44.8434 48.1307 42.5566 46.3359 44.3191 44.1796C44.3191 44.1796 43.2244 42.7049 44.3453 41.3884C44.3453 41.3884 43.5052 38.5314 45.3681 36.8351C45.3681 36.8351 44.7008 34.0179 46.8794 33.2192C46.8794 33.2192 45.8347 30.277 48.3597 29.492C48.3597 29.492 47.7109 27.1529 50.0037 26.5612C50.0037 26.5612 49.6672 24.7295 52.6192 24.6589C52.6201 24.657 54.2921 22.442 56.092 23.5775Z" fill="#BBE1E7"/>
<path d="M55.3332 25.4412C55.3332 25.4412 56.7911 25.3044 56.904 26.4313C56.904 26.4313 58.6428 26.9464 58.3615 28.0898C58.3615 28.0898 60.6181 29.3945 59.9749 31.3889C60.2695 32.0437 60.4103 32.764 60.3853 33.4888C60.3603 34.2135 60.1703 34.9211 59.8314 35.5514C59.8314 35.5514 61.0368 37.0298 59.0551 38.8533C59.0551 38.8533 60.0912 40.4315 58.4601 42.1004C58.4601 42.1004 59.4286 44.0151 57.2603 45.3239C57.2603 45.3239 58.0103 47.3083 55.8713 47.8676C55.8713 47.8676 55.3625 50.3485 53.2571 49.9478C53.2571 49.9478 50.7614 52.0963 49.7524 50.6152C49.7524 50.6152 47.7599 51.34 47.1826 49.6191C47.1826 49.6191 45.2982 48.9376 45.5205 46.8624C45.5205 46.8624 43.5249 45.2965 45.063 43.4147C45.063 43.4147 44.1074 42.1278 45.0858 40.979C45.0858 40.979 44.3534 38.4859 45.9784 37.0061C45.9784 37.0061 45.396 34.5476 47.2972 33.851C47.2972 33.851 46.3856 31.2836 48.5896 30.5989C48.5896 30.5989 48.0235 28.5575 50.0243 28.041C50.0243 28.041 49.7309 26.4427 52.3076 26.3812C52.3037 26.3834 53.762 24.4519 55.3332 25.4412Z" fill="white"/>
<path d="M63.0332 24.6934C63.0332 24.6934 58.0469 21.0009 54.2751 20.8915C54.2751 20.8915 49.2246 28.8692 47.1726 34.1687C45.1206 39.4681 44.122 48.167 44.4537 52.1418C46.0394 52.5952 47.594 53.1628 49.1065 53.8408C51.0129 54.763 53.4147 55.8804 53.4147 55.8804C53.4147 55.8804 56.6674 43.7998 58.4928 39.2712C60.3182 34.7426 62.5261 26.8319 63.0332 24.6934Z" fill="#FF6957"/>
<path d="M59.0124 27.3137C59.9977 24.8643 56.3241 22.8006 53.8611 24.573C52.2964 25.699 45.3494 36.1065 46.1042 44.1298C46.4601 47.9076 50.6145 48.973 52.5782 46.7374C54.5418 44.5018 58.1374 29.4864 59.0124 27.3137Z" fill="#FF9691"/>
<path d="M60.893 22.8919C60.893 22.8919 60.2899 28.4818 61.3096 30.9102C62.3294 33.3386 60.759 32.715 60.759 32.715C60.759 32.715 59.4756 28.4959 60.3157 22.1844C61.1558 15.8729 60.893 22.8919 60.893 22.8919Z" fill="#FFD2D1"/>
<path d="M55.8407 19.7838C55.8407 19.7838 55.0088 34.5024 57.6096 43.3385L57.2783 44.7472C57.2783 44.7472 53.9416 37.1127 55.0381 19.6288L55.8407 19.7838Z" fill="#FFD2D1"/>
<path d="M49.7221 27.333C49.7221 27.333 50.1805 45.8249 55.1505 53.1539L54.7627 54.0807C54.7627 54.0807 50.5648 51.5944 48.8489 29.0567L49.7221 27.333Z" fill="#FFD2D1"/>
<path d="M45.4613 36.1594C45.4613 36.1594 45.7034 49.7174 50.2287 55.0023L49.2727 55.3839C49.2727 55.3839 45.2795 50.0894 44.9788 37.4869L45.4613 36.1594Z" fill="#FFD2D1"/>
<path d="M72.6929 69.0801C71.7266 68.5577 82.373 41.2589 85.1479 39.1263C87.9228 36.9938 87.9228 41.893 86.1 46.0647C84.2772 50.2363 74.6126 70.1186 72.6929 69.0801Z" fill="#211414"/>
<path d="M73.1768 72.9906C71.6198 72.1901 85.9174 47.135 88.2249 48.3622C92.7558 50.772 79.2819 76.1302 73.1768 72.9906Z" fill="#211414"/>
<path d="M101.711 5.36143C100.466 4.56138 99.7927 5.25248 98.8484 7.68636C98.3314 9.01841 73.5287 65.6697 72.895 67.2106C72.2613 68.7514 73.2362 69.1143 74.2051 67.1317C74.5614 66.4023 101.244 11.0014 101.928 9.39815C102.814 7.31893 103.691 6.6333 101.711 5.36143Z" fill="#AC905A"/>
<path d="M100.985 6.32104C100.01 6.32104 99.4995 7.25056 98.5547 9.68308C98.0377 11.0147 74.1458 64.6363 73.5121 66.1771C72.8783 67.718 73.1739 68.0311 74.1428 66.0481C74.4991 65.3187 99.4172 12.7866 100.101 11.1833C100.988 9.10595 102.603 6.32104 100.985 6.32104Z" fill="#DCB87A"/>
<path d="M100.155 7.58067C99.3012 8.72581 98.8708 10.1012 98.3457 11.435C97.6783 13.1354 96.9705 14.8199 96.3471 16.5408C96.3446 16.5477 96.3446 16.5553 96.3471 16.5621C96.3495 16.569 96.3543 16.5747 96.3604 16.5781C96.3666 16.5816 96.3737 16.5825 96.3804 16.5807C96.3872 16.579 96.3931 16.5746 96.3971 16.5686C97.2288 15.1893 97.9184 13.7197 98.4542 12.1849C99.0414 10.6833 99.8475 9.28288 100.404 7.77259C100.462 7.61349 100.272 7.42385 100.155 7.58067Z" fill="#F6D49E"/>
<path d="M93.074 23.4153C91.5834 25.6103 90.885 28.1964 89.8675 30.6513C89.8628 30.6632 89.8625 30.6765 89.8667 30.6886C89.8708 30.7007 89.879 30.7108 89.8897 30.7169C89.9004 30.7229 89.9129 30.7246 89.9247 30.7215C89.9365 30.7184 89.9468 30.7107 89.9536 30.7001C91.3753 28.4882 91.9591 25.8309 93.2235 23.5292C93.2765 23.4349 93.1361 23.3246 93.074 23.4153Z" fill="#F6D49E"/>
<path d="M111.019 14.8896C109.899 13.9027 109.138 14.4793 107.862 16.7368C107.163 17.9722 74.6826 70.0908 73.8391 71.515C72.9955 72.9391 73.9097 73.4515 75.1462 71.6431C75.5985 70.978 109.765 20.3906 110.667 18.9145C111.835 16.9994 112.798 16.4596 111.019 14.8896Z" fill="#AC905A"/>
<path d="M110.166 15.7248C109.202 15.5712 108.566 16.4086 107.291 18.6665C106.592 19.9019 75.4369 69.1673 74.5916 70.59C73.7464 72.0128 73.9971 72.3702 75.2335 70.5622C75.6885 69.8971 107.706 21.8708 108.607 20.3929C109.778 18.4792 111.766 15.9792 110.166 15.7248Z" fill="#DCB87A"/>
<path d="M109.329 16.2878C108.266 16.8385 107.635 18.0698 107.058 19.1142C106.067 20.9103 104.735 22.437 103.849 24.3225C103.813 24.3977 103.911 24.4793 103.965 24.4114C105.97 21.9041 107.399 18.935 109.452 16.4482C109.468 16.4298 109.477 16.406 109.477 16.3812C109.478 16.3564 109.47 16.3321 109.455 16.3128C109.441 16.2934 109.42 16.2803 109.397 16.2757C109.374 16.2711 109.35 16.2754 109.329 16.2878Z" fill="#F6D49E"/>
<path d="M104.837 23.852C102.523 26.285 100.539 29.884 99.2293 33.0195C99.2246 33.0314 99.2244 33.0447 99.2285 33.0568C99.2326 33.0689 99.2408 33.079 99.2515 33.0851C99.2623 33.0911 99.2747 33.0928 99.2865 33.0897C99.2983 33.0866 99.3086 33.079 99.3154 33.0683C100.316 31.5908 101.116 29.9615 102.03 28.4216C102.943 26.8817 104.042 25.4803 104.991 23.9687C105.053 23.8702 104.91 23.7749 104.837 23.852Z" fill="#F6D49E"/>
<path d="M97.6836 34.7008C96.3072 36.2861 95.1148 38.0398 94.1319 39.9246C94.1212 39.9469 94.1183 39.9725 94.1239 39.9968C94.1294 40.021 94.143 40.0424 94.1622 40.057C94.1814 40.0716 94.2049 40.0784 94.2285 40.0762C94.252 40.0739 94.274 40.0629 94.2905 40.045C95.6928 38.5306 96.6091 36.5348 97.8796 34.8964C97.9886 34.756 97.8021 34.5636 97.6836 34.7008Z" fill="#F6D49E"/>
</svg>
